<svg width="104" height="105" viewBox="0 0 104 105" fill="none" xmlns="http://www.w3.org/2000/svg">
<rect x="1.1545" y="1.61245" width="101.534" height="101.534" rx="50.7671" fill="#1B1C21" stroke="url(#paint0_linear)" stroke-width="2.02275"/>
<path d="M44.1227 65.1663C43.6542 65.0993 43.3026 64.9739 43.0681 64.8922C43.0058 64.8705 42.9397 64.8608 42.8803 64.8321V64.8321C42.7945 64.7907 42.6998 64.7611 42.6146 64.7185C42.3514 64.5869 42.0883 64.4554 41.8251 64.3238C39.7835 63.1896 38.1899 61.3088 37.4863 59.0501C37.4683 58.9922 37.4595 58.9353 37.4595 58.8747V58.8747C37.4595 58.8337 37.4555 58.7891 37.4474 58.7489C37.3824 58.4237 37.3173 58.0984 37.2523 57.7732C37.2373 57.6983 37.2298 57.6221 37.2298 57.5457V57.5457C37.2298 57.4693 37.2215 57.3932 37.2096 57.3177C37.1532 56.9597 37.1532 56.5513 37.1532 56.2054V55.5927V50.9974V50.6144C37.1532 50.2427 37.1532 49.9432 37.2232 49.5757C37.2275 49.5534 37.2298 49.5307 37.2298 49.508V49.508C37.2298 49.4798 37.2334 49.4518 37.2395 49.4243C37.3065 49.1254 37.3098 48.7627 37.383 48.4699C38.1488 45.1 40.8294 42.4194 44.1993 41.6536C44.5057 41.577 44.8886 41.5004 45.195 41.5004V41.5004C45.2459 41.5004 45.2967 41.4951 45.3468 41.4861C45.6955 41.4238 45.9863 41.4238 46.3438 41.4238H47.1863H54.3856H57.4492V41.4238C57.7563 41.4238 57.948 41.0925 57.7886 40.8299C55.3437 36.8031 51.7977 33.4354 47.4161 31.3907C46.1906 31.0077 44.3525 30.6248 41.7485 31.0077C41.0899 31.0809 40.4313 31.224 39.8395 31.3702C39.7848 31.3837 39.7307 31.3907 39.6744 31.3907V31.3907C39.6289 31.3907 39.5816 31.3951 39.5371 31.4042C37.2632 31.8651 35.0667 32.6265 33.1706 33.6883C33.0442 33.7515 32.97 33.8147 32.8618 33.8779C32.8139 33.9059 32.753 33.9146 32.7137 33.9537V33.9537C32.6707 33.9966 32.6065 34.0101 32.5536 34.04C31.9032 34.4077 31.397 34.7727 31.1027 35.0669C28.4987 37.0582 26.5074 39.8154 25.3585 43.1087C24.4091 45.6858 23.88 48.443 23.7181 51.2209C23.6762 51.9392 23.6455 52.6555 23.6381 53.375C23.6089 56.2201 23.9563 64.0381 28.3455 68.6127C30.5666 71.2168 33.6301 73.2081 37.0766 74.2037C38.8174 74.7993 40.5583 75.203 42.4467 75.4641C45.1008 75.8311 47.8437 75.3816 50.0938 73.927C50.4002 73.7289 50.7012 73.5239 50.9963 73.3125C51.163 73.1931 51.3179 73.0581 51.4819 72.935V72.935C51.6367 72.8188 51.7833 72.691 51.937 72.5733C52.166 72.3979 52.395 72.2117 52.6241 71.9826C54.5972 70.2914 56.3109 68.276 57.646 65.9961C57.803 65.728 57.6066 65.396 57.296 65.396V65.396H48.1259C47.0148 65.396 45.2283 65.2768 44.1227 65.1663V65.1663Z" fill="url(#paint1_linear)"/>
<path d="M77.1921 65.7736C77.528 65.1244 77.8017 64.4409 78.1286 63.7871V63.7871C79.4339 60.4306 79.746 57.0741 79.7905 54.9612C79.8214 53.4911 79.764 52.0198 79.6565 50.5534C79.582 49.5365 79.4556 48.5304 79.2774 47.5503C77.9754 39.8149 73.763 34.4537 66.1808 32.3092C63.2971 31.4783 60.4134 30.9281 57.5297 30.6188C56.2659 30.4833 55.7232 32.2426 56.6838 33.0751V33.0751C62.6577 37.747 66.6403 45.0229 66.6403 53.1413C66.6403 62.1801 61.8538 70.1001 54.633 74.7171C53.955 75.1506 54.1941 76.271 54.9988 76.271V76.271C58.3687 75.9647 61.8918 75.4285 65.1085 74.6627C66.0846 74.4374 67.0607 74.2121 67.9647 73.8425C68.0005 73.8279 68.0395 73.8253 68.0773 73.817C68.0784 73.8168 68.0794 73.8165 68.0804 73.8162C68.1537 73.7972 68.2077 73.7687 68.2672 73.7219V73.7219C68.2993 73.6967 68.3454 73.6595 68.3835 73.645C72.7988 71.9722 75.5277 68.9903 77.1921 65.7736Z" fill="url(#paint2_linear)"/>
<g style="mix-blend-mode:multiply" opacity="0.7">
<path d="M58.2916 57.7366C59.5936 57.7366 60.6658 56.6644 60.6658 55.3624V51.5329C60.6658 50.2309 59.5936 49.1587 58.2916 49.1587V49.1587C57.4925 49.1587 56.8868 49.8811 56.96 50.6769C57.0368 51.5118 57.0662 52.3648 57.0662 53.2179C57.0662 54.1767 57.0061 55.1355 56.8861 56.0755C56.7761 56.9369 57.4232 57.7366 58.2916 57.7366V57.7366Z" fill="#0082CB"/>
</g>
<path opacity="0.2" d="M57.2961 65.3576C57.2961 65.3365 57.279 65.3193 57.2578 65.3193H55.2241C54.4705 65.3193 53.782 65.7321 53.3861 66.3734C51.4851 69.4529 48.9369 72.1323 45.9264 74.1959C45.2761 74.6417 45.5144 75.7357 46.3005 75.7968V75.7968C46.4238 75.8064 46.5568 75.7878 46.6708 75.74C48.1973 75.0992 49.6583 74.2709 50.9964 73.3124C51.1631 73.193 51.318 73.058 51.4821 72.9349V72.9349C51.6369 72.8188 51.7834 72.6909 51.9371 72.5733C52.1661 72.3978 52.3952 72.2116 52.6242 71.9825C54.6612 70.2366 56.4218 68.145 57.7746 65.7737C57.8712 65.6044 57.7478 65.3959 57.5529 65.3959H57.3344C57.3132 65.3959 57.2961 65.3788 57.2961 65.3576V65.3576Z" fill="#1C1730"/>
<path opacity="0.2" d="M47.4864 31.3467C47.4393 31.3245 47.41 31.3119 47.3597 31.2983V31.2983C46.45 31.0507 46.0483 32.1484 46.7817 32.7409C46.9179 32.8509 47.0525 32.9623 47.1857 33.075C49.9603 35.2497 52.2943 38.0117 54.0441 41.1455C54.1131 41.2692 54.2434 41.3466 54.385 41.3466V41.3466H57.4486V41.3466C57.757 41.3466 57.9505 41.0149 57.7922 40.7501C55.3604 36.6822 51.8379 33.3951 47.4864 31.3467Z" fill="#1C1730"/>
<path d="M47.7989 49.082H58.2915C59.5935 49.082 60.6658 50.1543 60.6658 51.4563V55.2857C60.6658 56.5877 59.5935 57.66 58.2915 57.66H47.7989C46.4969 57.66 45.4246 56.5877 45.4246 55.2857V51.4563C45.4246 50.1543 46.4969 49.082 47.7989 49.082Z" fill="url(#paint3_linear)"/>
<defs>
<linearGradient id="paint0_linear" x1="0.0321736" y1="52.4154" x2="103.813" y2="52.4154" gradientUnits="userSpaceOnUse">
<stop stop-color="#00BBF1"/>
<stop offset="1" stop-color="#007AFF"/>
</linearGradient>
<linearGradient id="paint1_linear" x1="23.6366" y1="53.3306" x2="58.1385" y2="53.3306" gradientUnits="userSpaceOnUse">
<stop offset="0.337" stop-color="white"/>
<stop offset="1" stop-color="#CDD3E0"/>
</linearGradient>
<linearGradient id="paint2_linear" x1="65.9808" y1="30.3179" x2="65.9808" y2="76.2916" gradientUnits="userSpaceOnUse">
<stop offset="0.337" stop-color="white"/>
<stop offset="1" stop-color="#CDD3E0" stop-opacity="0.5"/>
</linearGradient>
<linearGradient id="paint3_linear" x1="45.4272" y1="53.4202" x2="60.6748" y2="53.4202" gradientUnits="userSpaceOnUse">
<stop offset="0.1043" stop-color="#11E0D4"/>
<stop offset="0.2325" stop-color="#0BB9E4"/>
<stop offset="0.3502" stop-color="#069CF0"/>
<stop offset="0.4525" stop-color="#038BF7"/>
<stop offset="0.5282" stop-color="#0285FA"/>
<stop offset="0.7184" stop-color="#017DFD"/>
<stop offset="1" stop-color="#007AFF"/>
</linearGradient>
</defs>
</svg>
