<?xml version="1.0" encoding="utf-8"?>
<!-- Generator: Adobe Illustrator 23.0.3, SVG Export Plug-In . SVG Version: 6.00 Build 0)  -->
<svg version="1.1" id="Capa_1" xmlns="http://www.w3.org/2000/svg" xmlns:xlink="http://www.w3.org/1999/xlink" x="0px" y="0px"
	 viewBox="0 0 325.15 326.74" style="enable-background:new 0 0 325.15 326.74;" xml:space="preserve">
<style type="text/css">
	.st0{fill:#448ECA;}
	.st1{fill:#F2F2F2;}
</style>
<g>
	<path class="st0" d="M321.2,163.75C321.18,250.8,248.7,322.96,162.25,322C73.72,321.01,3.96,251.11,3.94,163.37
		C3.92,74.96,74.61,4.59,163.3,4.73C250.7,4.86,321.23,75.89,321.2,163.75z M41.27,164.34c1.45,65.76,49.95,120.27,121.71,121.5
		c66.1,1.13,121.88-54.88,122.28-121.25c0.4-66.83-55.62-122.84-122.53-122.52C96.3,42.39,41.19,97.87,41.27,164.34z"/>
	<path class="st1" d="M41.27,164.34C41.19,97.87,96.3,42.39,162.73,42.08c66.92-0.32,122.93,55.69,122.53,122.52
		c-0.4,66.36-56.18,122.38-122.28,121.25C91.23,284.61,42.72,230.1,41.27,164.34z M243.04,236.87
		c40.54-37.73,38.48-110.44-3.51-150.89c-45.44-43.78-118-40.81-158.37,6.49c-36.97,43.32-35.26,115.42,3.42,144.62
		C118.39,182.93,193.5,167.97,243.04,236.87z M162.53,273.08c23.2-0.03,43.61-6.66,61.08-18.31c7.98-5.33,8.35-11.37,3.4-17.65
		c-33.91-43.01-88.47-47.05-126.78-1.21c-5.91,7.07-5.61,13.81,3.68,19.6C122,266.76,141.23,273.11,162.53,273.08z"/>
	<path class="st0" d="M243.04,236.87c-49.54-68.9-124.65-53.94-158.45,0.21c-38.68-29.19-40.39-101.3-3.42-144.62
		c40.36-47.3,112.93-50.27,158.37-6.49C281.52,126.43,283.58,199.15,243.04,236.87z M211.46,133.96
		c0.13-27.22-21.71-49.38-48.43-49.15c-26.41,0.23-47.73,21.76-47.85,48.33c-0.13,27.38,21.5,49.35,48.37,49.15
		C189.85,182.1,211.34,160.43,211.46,133.96z"/>
	<path class="st0" d="M162.53,273.08c-21.3,0.03-40.54-6.32-58.62-17.58c-9.29-5.79-9.59-12.52-3.68-19.6
		c38.31-45.83,92.87-41.79,126.78,1.21c4.95,6.28,4.59,12.33-3.4,17.65C206.15,266.42,185.73,273.05,162.53,273.08z"/>
	<path class="st1" d="M211.46,133.96c-0.12,26.46-21.61,48.14-47.91,48.34c-26.88,0.2-48.5-21.78-48.37-49.15
		c0.13-26.57,21.45-48.1,47.85-48.33C189.75,84.59,211.59,106.74,211.46,133.96z M198.05,134.19c0.25-19.72-15.18-35.85-34.47-36.05
		c-19.29-0.19-35.09,15.75-35.09,35.42c0,19.66,15.88,35.69,35.1,35.43C182.39,168.73,197.81,153.15,198.05,134.19z"/>
	<path class="st0" d="M198.05,134.19c-0.24,18.96-15.66,34.55-34.45,34.8c-19.23,0.26-35.1-15.76-35.1-35.43
		c0-19.67,15.8-35.61,35.09-35.42C182.87,98.33,198.3,114.47,198.05,134.19z"/>
</g>
</svg>
