<svg xmlns="http://www.w3.org/2000/svg" width="24.001" height="24.001" viewBox="0 0 24.001 24.001"><defs><style>.a{fill:#323d50;}</style></defs><path class="a" d="M17,5c6.617,0,12,4.812,12,10.727S23.618,26.454,17,26.454a13.364,13.364,0,0,1-2.967-.333L9.884,28.8A1.223,1.223,0,0,1,8,27.79L7.94,22.762A10.054,10.054,0,0,1,5,15.727C5,9.812,10.383,5,17,5ZM9.515,21.695l.283.271L9.85,26.6,13.7,24.113l.4.1a11.489,11.489,0,0,0,2.9.371c5.588,0,10.134-3.975,10.134-8.86S22.588,6.867,17,6.867,6.867,10.841,6.867,15.727a8.253,8.253,0,0,0,2.649,5.968Z" transform="translate(-5 -5)"/><path class="a" d="M66.69,39.807a1.445,1.445,0,1,1-1.445,1.445,1.445,1.445,0,0,1,1.445-1.445Z" transform="translate(-60.2 -30.525)"/><circle class="a" cx="1.445" cy="1.445" r="1.445" transform="translate(10.556 9.282)"/><path class="a" d="M25.363,39.807a1.445,1.445,0,1,1-1.445,1.445,1.445,1.445,0,0,1,1.445-1.445Z" transform="translate(-7.852 -30.525)"/></svg>