<svg xmlns="http://www.w3.org/2000/svg" width="25.75" height="22.96" viewBox="0 0 25.75 22.96"><defs><style>.a{fill:#323d50;}</style></defs><g transform="translate(-118 -996)"><path class="a" d="M42.128,39.59,31.706,21.54a2.455,2.455,0,0,0-4.252,0L17.034,39.59a2.455,2.455,0,0,0,2.126,3.683H40a2.455,2.455,0,0,0,2.126-3.683Zm-1.34,1.682a.909.909,0,0,1-.786.454H19.16a.908.908,0,0,1-.786-1.362l10.42-18.05a.908.908,0,0,1,1.573,0l10.421,18.05A.911.911,0,0,1,40.788,41.273Z" transform="translate(101.294 975.687)"/><path class="a" d="M2.313-20.662l.182,7.919H3.742l.182-7.919ZM2.165-10.167a.941.941,0,0,0,.95.933.936.936,0,0,0,.95-.933.938.938,0,0,0-.95-.941A.943.943,0,0,0,2.165-10.167Z" transform="translate(127.823 1024.009)"/></g></svg>