<svg xmlns="http://www.w3.org/2000/svg" xmlns:xlink="http://www.w3.org/1999/xlink" width="76.754" height="76.755" viewBox="0 0 76.754 76.755">
  <defs>
    <linearGradient id="linear-gradient" x1="0.973" y1="0.973" x2="0" gradientUnits="objectBoundingBox">
      <stop offset="0" stop-color="#4b4d53"/>
      <stop offset="1" stop-color="#3203fc"/>
    </linearGradient>
    <linearGradient id="linear-gradient-2" x1="0.863" y1="0.858" x2="0" gradientUnits="objectBoundingBox">
      <stop offset="0" stop-color="#11e0d4"/>
      <stop offset="0.591" stop-color="#007aff"/>
      <stop offset="1" stop-color="#007aff"/>
    </linearGradient>
    <linearGradient id="linear-gradient-3" x1="1" x2="0" y2="1" gradientUnits="objectBoundingBox">
      <stop offset="0" stop-color="#11e0d4"/>
      <stop offset="1" stop-color="#007aff"/>
    </linearGradient>
    <clipPath id="clip-path">
      <path id="Path_27" data-name="Path 27" d="M99.222,31.441a12.956,12.956,0,0,0,9.252-11.225,28.858,28.858,0,0,0-.279-9.959A12.653,12.653,0,0,0,95.537.019C93.191,0,90.846,0,88.5,0c8.191,3.425,10.332,8.991,10.871,11.318h0c.037.149.074.3.093.428,0,.019.019.056.019.074a3.287,3.287,0,0,1,.074.577v.093a37.016,37.016,0,0,1,0,6.888v.074s-.019.186-.074.5a.542.542,0,0,1-.037.168c-.019.093-.037.2-.056.316,0,.037-.019.056-.019.093-.54,2.308-2.625,7.856-10.741,11.3,2.588,0,5.175,0,7.763-.019A11.137,11.137,0,0,0,99.222,31.441Z" transform="translate(-88.5)"/>
    </clipPath>
  </defs>
  <g id="Group_44265" data-name="Group 44265" transform="translate(-887.427 -10.586)">
    <g id="Group_44211" data-name="Group 44211" transform="translate(887.427 10.586)">
      <rect id="Rectangle_4" data-name="Rectangle 4" width="59.884" height="59.884" rx="5" transform="translate(20.482) rotate(20)" opacity="0.9" fill="url(#linear-gradient)"/>
      <path id="Rectangle_4-2" data-name="Rectangle 4" d="M6.981,0H52.9a6.981,6.981,0,0,1,6.981,6.981V52.9A6.981,6.981,0,0,1,52.9,59.884H6.981A6.981,6.981,0,0,1,0,52.9V6.981A6.981,6.981,0,0,1,6.981,0Z" transform="translate(0 20.482) rotate(-20)" opacity="0.8" fill="url(#linear-gradient-2)"/>
      <g id="Group_6" data-name="Group 6" transform="translate(19.514 22.461)">
        <path id="Path_23" data-name="Path 23" d="M76.013,66.8H85.1a.739.739,0,0,1,.726.726c0,1.6.019,3.146-.037,4.691a1.136,1.136,0,0,1-.782.726c-2.96.056-5.938.056-8.9,0-.279,0-.782-.447-.782-.707-.056-1.545-.037-3.09-.037-4.691A.72.72,0,0,1,76.013,66.8Z" transform="translate(-61.27 -54.365)" fill="url(#linear-gradient-3)"/>
        <g id="Group_3" data-name="Group 3" transform="translate(0 0.354)">
          <path id="Path_24" data-name="Path 24" d="M24.015,25.076l-.5.112c-1.657.3-3.351.391-4.691.54-1.694-.13-3.034-.168-4.356-.335-3.258-.41-4.84-1.843-5.212-5.1a25.09,25.09,0,0,1,0-5.789c.3-2.532,1.21-3.984,3.165-4.654.223-.074.465-.149.707-.2a10.382,10.382,0,0,1,2.923-.316,42.3,42.3,0,0,1,4.859,0,8.423,8.423,0,0,1,1.843.149h.037a6.43,6.43,0,0,1,1.1.186A18.2,18.2,0,0,0,15.043,1.9,31.079,31.079,0,0,0,8.658,3.278a11.438,11.438,0,0,0-7.521,7.316,20.775,20.775,0,0,0-.6,11.523c.019.056.019.093.037.149A12.147,12.147,0,0,0,9.16,31.7a25.485,25.485,0,0,0,6.4,1.136A17.832,17.832,0,0,0,24.015,25.076Z" transform="translate(-0.002 -1.9)" fill="#fff"/>
          <path id="Path_25" data-name="Path 25" d="M155.745,18c-.894-5.287-3.835-8.917-8.991-10.406A2.484,2.484,0,0,0,146.4,7.5a12.8,12.8,0,0,1,6.7,8.861,29.35,29.35,0,0,1,.279,9.959,13.439,13.439,0,0,1-5.976,9.792,11.928,11.928,0,0,0,8.135-9.066c.019-.112.056-.223.074-.335A22.856,22.856,0,0,0,155.745,18Z" transform="translate(-119.148 -6.458)" fill="#fff"/>
        </g>
        <g id="Group_5" data-name="Group 5" transform="translate(16.474)">
          <g id="Group_4" data-name="Group 4" clip-path="url(#clip-path)">
            <path id="Path_26" data-name="Path 26" d="M36.6,12.611c-.894-5.287-3.835-8.917-8.991-10.406a31.791,31.791,0,0,0-18.95.242A11.438,11.438,0,0,0,1.137,9.763a20.775,20.775,0,0,0-.6,11.523c.019.056.019.093.037.149A12.147,12.147,0,0,0,9.16,30.873c3.053,1.024,6.218,1.21,10.815,1.322a62.763,62.763,0,0,0,6.943-1.08,12.13,12.13,0,0,0,9.475-9.457c.019-.112.056-.223.074-.335A22.857,22.857,0,0,0,36.6,12.611Zm-8.935,7.316a4.718,4.718,0,0,1-4.151,4.43c-1.657.3-3.351.391-4.691.54-1.694-.13-3.034-.168-4.356-.335-3.258-.41-4.84-1.843-5.212-5.1a25.09,25.09,0,0,1,0-5.789c.3-2.532,1.21-3.984,3.165-4.654.223-.074.465-.149.707-.2A10.382,10.382,0,0,1,16.048,8.5a42.3,42.3,0,0,1,4.859,0,8.423,8.423,0,0,1,1.843.149h.037a6.608,6.608,0,0,1,2.681.782c1.471.856,2.178,2.4,2.364,4.8A32.436,32.436,0,0,1,27.664,19.927Z" transform="translate(-16.476 -0.716)" fill="#fff"/>
          </g>
        </g>
      </g>
    </g>
  </g>
</svg>
