<svg xmlns="http://www.w3.org/2000/svg" width="88" height="79.75" viewBox="0 0 88 79.75"><g transform="translate(-18 -21)"><path d="M18,72.144,38.731,50.907a4.314,4.314,0,0,1,3.087-1.3H82.183a4.314,4.314,0,0,1,3.087,1.3L106,72.144v21.7a6.9,6.9,0,0,1-6.9,6.9H24.9a6.9,6.9,0,0,1-6.9-6.9Zm6.471-1.734L41.294,53.073H82.706L99.529,70.41H77.961v3.5A7.765,7.765,0,0,1,70.2,81.679H53.8a7.765,7.765,0,0,1-7.765-7.765v-3.5Zm-3.033,3.527H42.75A10.863,10.863,0,0,0,53.613,84.8H70.387A10.863,10.863,0,0,0,81.25,73.938h21.313v19.25a4.125,4.125,0,0,1-4.125,4.125H25.563a4.125,4.125,0,0,1-4.125-4.125Zm42.288-33a1.726,1.726,0,1,1-3.451,0v-18.2a1.726,1.726,0,1,1,3.451,0ZM74.883,42.5a1.726,1.726,0,1,1-3.333-.9l4.689-17.584a1.726,1.726,0,1,1,3.333.9Zm-22.056-.9a1.726,1.726,0,1,1-3.333.9L44.8,24.917a1.726,1.726,0,1,1,3.333-.9Z" fill="#fff" fill-rule="evenodd"/></g></svg>