<svg xmlns="http://www.w3.org/2000/svg" viewBox="0 0 137.619 245.559"><defs><style>.a{fill:#54ab28;}</style></defs><path class="a" d="M163.4,97.681a14.929,14.929,0,0,0,10.586-4.537,14.619,14.619,0,0,0,0-21.172L120.3,18.285l-2.268-2.268-.756-.756c-.756,0-.756-.756-1.512-.756s-.756,0-1.512-.756c-.756,0-.756,0-1.512-.756a8.349,8.349,0,0,0-6.049,0c-.756,0-.756,0-1.512.756-.756,0-.756,0-1.512.756-.756,0-.756.756-1.512.756a.741.741,0,0,0-.756.756l-2.268,2.268L45.437,71.972a14.619,14.619,0,0,0,0,21.172,14.619,14.619,0,0,0,21.172,0L94.587,65.166v177.7a15.123,15.123,0,0,0,30.246,0V65.923L152.81,93.9C155.079,96.169,159.616,97.681,163.4,97.681Z" transform="translate(-40.9 -12.426)"/></svg>