<svg xmlns="http://www.w3.org/2000/svg" xmlns:xlink="http://www.w3.org/1999/xlink" viewBox="0 0 1136.984 220.304">
  <defs>
    <style>
      .cls-1 {
        fill: #00e292;
        opacity: 0.7;
      }

      .cls-2, .cls-8 {
        fill: none;
      }

      .cls-2 {
        stroke: #0a828b;
      }

      .cls-3 {
        fill: #363636;
      }

      .cls-3, .cls-6 {
        opacity: 0.5;
      }

      .cls-4 {
        fill: url(#radial-gradient);
      }

      .cls-5, .cls-6 {
        fill: #fff;
      }

      .cls-7 {
        stroke: none;
      }

      .cls-9 {
        filter: url(#Path_42462);
      }
    </style>
    <radialGradient id="radial-gradient" cx="0.5" cy="0.5" r="0.5" gradientUnits="objectBoundingBox">
      <stop offset="0" stop-color="#2ba0a8"/>
      <stop offset="1" stop-color="#0a828b"/>
    </radialGradient>
    <filter id="Path_42462" x="0" y="0" width="203.657" height="38.561" filterUnits="userSpaceOnUse">
      <feOffset dy="3" input="SourceAlpha"/>
      <feGaussianBlur stdDeviation="3" result="blur"/>
      <feFlood flood-opacity="0.161"/>
      <feComposite operator="in" in2="blur"/>
      <feComposite in="SourceGraphic"/>
    </filter>
  </defs>
  <g id="Group_41170" data-name="Group 41170" transform="translate(-357.289 -1776.704)">
    <g id="Group_41169" data-name="Group 41169" transform="translate(0 27)">
      <rect id="Rectangle_1109" data-name="Rectangle 1109" class="cls-1" width="576" height="77" transform="translate(365 1811)"/>
      <g id="Rectangle_1107" data-name="Rectangle 1107" class="cls-2" transform="translate(365 1827)">
        <rect class="cls-7" width="1129" height="47"/>
        <rect class="cls-8" x="0.5" y="0.5" width="1128" height="46"/>
      </g>
      <rect id="Rectangle_1110" data-name="Rectangle 1110" class="cls-3" width="976" height="47" transform="translate(365 1827)"/>
      <rect id="Rectangle_1108" data-name="Rectangle 1108" class="cls-4" width="706" height="47" transform="translate(365 1827)"/>
    </g>
    <g class="cls-9" transform="matrix(1, 0, 0, 1, 357.29, 1776.7)">
      <path id="Path_42462-2" data-name="Path 42462" class="cls-5" d="M1.289-15.5V0H4.533V-4.888h2.9c3.266,0,5.532-2.127,5.532-5.307A5.063,5.063,0,0,0,7.595-15.5Zm3.244,2.567h2.2c1.858,0,2.933.988,2.933,2.75S8.583-7.423,6.725-7.423H4.533ZM15.709,0h3.137V-6.435A2.294,2.294,0,0,1,21.3-9a3.228,3.228,0,0,1,1.139.183V-11.58a3.2,3.2,0,0,0-.892-.118A2.749,2.749,0,0,0,18.8-9.442h-.064v-2.073H15.709ZM29.721.247c3.48,0,5.7-2.224,5.7-6.016,0-3.738-2.256-5.994-5.7-5.994s-5.7,2.267-5.7,5.994C24.017-1.987,26.241.247,29.721.247Zm0-2.4c-1.547,0-2.524-1.3-2.524-3.609,0-2.288,1-3.609,2.524-3.609s2.514,1.321,2.514,3.609C32.235-3.448,31.258-2.148,29.721-2.148ZM42.412.183A3.8,3.8,0,0,0,46-1.977h.054V0h3.094V-15.5H46.011v5.962h-.064A3.7,3.7,0,0,0,42.434-11.7c-2.89,0-4.716,2.267-4.716,5.919C37.718-2.095,39.533.183,42.412.183Zm1.063-9.367c1.558,0,2.557,1.332,2.557,3.427s-1,3.416-2.557,3.416c-1.579,0-2.546-1.3-2.546-3.416S41.9-9.185,43.476-9.185Zm19.5-2.331H59.84v6.6A2.248,2.248,0,0,1,57.574-2.4c-1.386,0-2.148-.816-2.148-2.353v-6.768H52.289v7.423A3.942,3.942,0,0,0,56.435.215a3.422,3.422,0,0,0,3.448-2.288h.064V0h3.029Zm13.6,4.286c-.14-2.61-2.116-4.533-5.231-4.533-3.448,0-5.65,2.3-5.65,5.994,0,3.76,2.2,6.016,5.672,6.016,3.029,0,5.06-1.751,5.221-4.469H73.67A2.166,2.166,0,0,1,71.4-2.213c-1.558,0-2.524-1.289-2.524-3.556,0-2.224.967-3.534,2.514-3.534A2.233,2.233,0,0,1,73.67-7.229Zm3.463-6.939v2.653H78.422v2.363h1.622V-3.1C80.044-.859,81.1.043,83.8.043A7.211,7.211,0,0,0,85.3-.086V-2.4a5.076,5.076,0,0,1-.763.054c-.924,0-1.354-.419-1.354-1.3V-9.152h2.127v-2.363H83.181v-2.653ZM100.828.269a8.121,8.121,0,0,0,2.729-.44l1.214,1.633h3.019l-2.105-2.814c1.751-1.386,2.621-3.62,2.621-6.4,0-4.963-2.911-8.014-7.477-8.014s-7.477,3.1-7.477,8.014S96.2.269,100.828.269Zm0-2.643c-2.567,0-4.2-2.116-4.2-5.382s1.633-5.371,4.2-5.371,4.222,2.116,4.222,5.371a5.791,5.791,0,0,1-1.257,3.91L102.869-5.1H99.851l1.934,2.6A3.373,3.373,0,0,1,100.828-2.374Zm21.037-9.142h-3.137v6.6A2.248,2.248,0,0,1,116.463-2.4c-1.386,0-2.148-.816-2.148-2.353v-6.768h-3.137v7.423A3.942,3.942,0,0,0,115.324.215a3.422,3.422,0,0,0,3.448-2.288h.064V0h3.029Zm7.588,9.432c-1.063,0-1.772-.537-1.772-1.4,0-.816.666-1.343,1.837-1.429l2.428-.15v.838A2.3,2.3,0,0,1,129.454-2.084ZM128.423.183a3.961,3.961,0,0,0,3.513-1.944H132V0h3.029V-7.917c0-2.32-1.923-3.846-4.877-3.846-3.051,0-4.952,1.536-5.07,3.771h2.868a1.867,1.867,0,0,1,2.063-1.429c1.182,0,1.934.623,1.934,1.7v.763l-2.9.172c-2.868.172-4.479,1.386-4.479,3.48A3.561,3.561,0,0,0,128.423.183ZM138.149,0h3.137V-6.606a2.281,2.281,0,0,1,2.3-2.524c1.407,0,2.116.859,2.116,2.363V0h3.137V-7.423c0-2.7-1.439-4.308-4-4.308a3.638,3.638,0,0,0-3.6,2.267h-.064v-2.052h-3.029Zm14.614-14.169v2.653H151.14v2.363h1.622V-3.1c0,2.245,1.053,3.147,3.76,3.147a7.211,7.211,0,0,0,1.493-.129V-2.4a5.076,5.076,0,0,1-.763.054c-.924,0-1.354-.419-1.354-1.3V-9.152h2.127v-2.363H155.9v-2.653ZM160.9,0h3.137V-11.516H160.9Zm1.558-13.073a1.621,1.621,0,0,0,1.633-1.611,1.614,1.614,0,0,0-1.633-1.611,1.614,1.614,0,0,0-1.633,1.611A1.621,1.621,0,0,0,162.456-13.073Zm5.6-1.1v2.653h-1.622v2.363h1.622V-3.1c0,2.245,1.053,3.147,3.76,3.147a7.211,7.211,0,0,0,1.493-.129V-2.4a5.076,5.076,0,0,1-.763.054c-.924,0-1.354-.419-1.354-1.3V-9.152h2.127v-2.363h-2.127v-2.653Zm9.565,18.434c2.933,0,4.383-1.053,5.36-4.007l3.964-11.773h-3.309l-2.438,9h-.064l-2.449-9h-3.437L179.255.011c.011.043-.107.5-.107.548-.215.913-.784,1.278-1.923,1.278-.118,0-.687,0-.795-.021V4.232C176.537,4.254,177.5,4.265,177.622,4.265Z" transform="translate(7.71 22.3)"/>
    </g>
    <path id="Path_42456" data-name="Path 42456" class="cls-5" d="M4.386-15.686a5.476,5.476,0,0,0,.3,1.883,3.836,3.836,0,0,0,.868,1.4,3.652,3.652,0,0,0,1.379.868,5.323,5.323,0,0,0,1.821.295,5.031,5.031,0,0,0,1.976-.364,4.376,4.376,0,0,0,1.449-.969,4.149,4.149,0,0,0,.9-1.4,4.461,4.461,0,0,0,.31-1.643,5.093,5.093,0,0,0-.333-1.883,4.153,4.153,0,0,0-.922-1.434,4.031,4.031,0,0,0-1.4-.907,4.882,4.882,0,0,0-1.79-.318,4.988,4.988,0,0,0-1.86.333,4.339,4.339,0,0,0-1.442.922,4,4,0,0,0-.93,1.41A4.839,4.839,0,0,0,4.386-15.686Zm6.448,6.835q.341-.449.635-.852t.558-.806A6.174,6.174,0,0,1,10.106-9.47a7.109,7.109,0,0,1-2.263.356,6.762,6.762,0,0,1-2.379-.418,5.723,5.723,0,0,1-1.976-1.232,5.927,5.927,0,0,1-1.356-2,6.9,6.9,0,0,1-.5-2.72,6.876,6.876,0,0,1,.543-2.728,6.728,6.728,0,0,1,1.519-2.216,7.121,7.121,0,0,1,2.325-1.488,7.862,7.862,0,0,1,2.96-.542,7.661,7.661,0,0,1,2.9.527,6.519,6.519,0,0,1,2.232,1.472A6.486,6.486,0,0,1,15.539-18.2a8.1,8.1,0,0,1,.5,2.914,8.962,8.962,0,0,1-.178,1.821,9.922,9.922,0,0,1-.511,1.689,12.122,12.122,0,0,1-.814,1.643q-.481.814-1.085,1.666L8.045-.651a1.417,1.417,0,0,1-.574.473A1.95,1.95,0,0,1,6.618,0H4.076Zm18.46.837v-9.16q0-.4.031-.883t.093-.977L21.328-8.014Zm5.781,0v1.581a.618.618,0,0,1-.147.418.572.572,0,0,1-.457.17H31.713V0H29.3V-5.844H19.437a.834.834,0,0,1-.535-.178.781.781,0,0,1-.287-.442l-.279-1.411,10.8-14.338h2.573v14.2Zm12.2,0v-9.16q0-.4.031-.883t.093-.977L39.308-8.014Zm5.781,0v1.581a.618.618,0,0,1-.147.418.572.572,0,0,1-.457.17H49.693V0H47.275V-5.844H37.417a.834.834,0,0,1-.535-.178.781.781,0,0,1-.287-.442l-.279-1.411,10.8-14.338h2.573v14.2ZM62.93-1.953a5.846,5.846,0,0,0,1.945-.3,4.144,4.144,0,0,0,1.457-.852,3.688,3.688,0,0,0,.915-1.318,4.395,4.395,0,0,0,.318-1.7,4.609,4.609,0,0,0-.38-1.961,3.611,3.611,0,0,0-1.023-1.325,4.222,4.222,0,0,0-1.48-.752,6.317,6.317,0,0,0-1.751-.24,6.317,6.317,0,0,0-1.752.24,4.222,4.222,0,0,0-1.48.752,3.611,3.611,0,0,0-1.023,1.325,4.609,4.609,0,0,0-.38,1.961,4.395,4.395,0,0,0,.318,1.7,3.688,3.688,0,0,0,.915,1.318,4.144,4.144,0,0,0,1.457.852A5.846,5.846,0,0,0,62.93-1.953Zm0-18.367a4.761,4.761,0,0,0-1.744.294,3.552,3.552,0,0,0-1.256.806,3.364,3.364,0,0,0-.759,1.193,4.115,4.115,0,0,0-.256,1.457,5.029,5.029,0,0,0,.217,1.472,3.4,3.4,0,0,0,.7,1.263,3.448,3.448,0,0,0,1.248.884,4.636,4.636,0,0,0,1.852.333,4.636,4.636,0,0,0,1.852-.333,3.448,3.448,0,0,0,1.248-.884,3.4,3.4,0,0,0,.7-1.263,5.029,5.029,0,0,0,.217-1.472,4.116,4.116,0,0,0-.256-1.457,3.364,3.364,0,0,0-.76-1.193,3.552,3.552,0,0,0-1.255-.806A4.761,4.761,0,0,0,62.93-20.32Zm3.177,8.742A6.107,6.107,0,0,1,69.3-9.61a5.44,5.44,0,0,1,1.116,3.534,6.1,6.1,0,0,1-.55,2.627,5.748,5.748,0,0,1-1.535,1.992A6.949,6.949,0,0,1,65.968-.194,9.921,9.921,0,0,1,62.93.248a9.921,9.921,0,0,1-3.038-.442,7.036,7.036,0,0,1-2.371-1.263,5.627,5.627,0,0,1-1.535-1.992,6.174,6.174,0,0,1-.543-2.627A5.44,5.44,0,0,1,56.559-9.61a6.107,6.107,0,0,1,3.193-1.969,5.355,5.355,0,0,1-2.643-1.945,5.317,5.317,0,0,1-.891-3.092,5.533,5.533,0,0,1,.48-2.294,5.49,5.49,0,0,1,1.364-1.86,6.445,6.445,0,0,1,2.116-1.24,7.983,7.983,0,0,1,2.751-.449,8,8,0,0,1,2.743.449A6.43,6.43,0,0,1,67.8-20.77a5.49,5.49,0,0,1,1.364,1.86,5.533,5.533,0,0,1,.48,2.294,5.317,5.317,0,0,1-.891,3.092A5.355,5.355,0,0,1,66.107-11.578Z" transform="translate(365 1972)"/>
    <path id="Path_42459" data-name="Path 42459" class="cls-5" d="M8.99-1.953a5.846,5.846,0,0,0,1.945-.3,4.144,4.144,0,0,0,1.457-.852,3.688,3.688,0,0,0,.915-1.318,4.395,4.395,0,0,0,.318-1.7,4.609,4.609,0,0,0-.38-1.961,3.611,3.611,0,0,0-1.023-1.325,4.222,4.222,0,0,0-1.48-.752A6.317,6.317,0,0,0,8.99-10.4a6.317,6.317,0,0,0-1.751.24,4.222,4.222,0,0,0-1.48.752A3.611,3.611,0,0,0,4.735-8.083a4.609,4.609,0,0,0-.38,1.961,4.395,4.395,0,0,0,.318,1.7,3.688,3.688,0,0,0,.915,1.318,4.144,4.144,0,0,0,1.457.852A5.846,5.846,0,0,0,8.99-1.953Zm0-18.367a4.761,4.761,0,0,0-1.744.294,3.552,3.552,0,0,0-1.256.806,3.365,3.365,0,0,0-.759,1.193,4.115,4.115,0,0,0-.256,1.457A5.029,5.029,0,0,0,5.193-15.1a3.4,3.4,0,0,0,.7,1.263,3.448,3.448,0,0,0,1.248.884,4.636,4.636,0,0,0,1.852.333,4.636,4.636,0,0,0,1.852-.333,3.448,3.448,0,0,0,1.248-.884,3.4,3.4,0,0,0,.7-1.263A5.029,5.029,0,0,0,13-16.569a4.115,4.115,0,0,0-.256-1.457,3.365,3.365,0,0,0-.759-1.193,3.552,3.552,0,0,0-1.255-.806A4.761,4.761,0,0,0,8.99-20.32Zm3.178,8.742A6.107,6.107,0,0,1,15.361-9.61a5.44,5.44,0,0,1,1.116,3.534,6.1,6.1,0,0,1-.55,2.627,5.748,5.748,0,0,1-1.535,1.992A6.949,6.949,0,0,1,12.028-.194,9.921,9.921,0,0,1,8.99.248,9.921,9.921,0,0,1,5.952-.194,7.036,7.036,0,0,1,3.581-1.457,5.627,5.627,0,0,1,2.046-3.449,6.174,6.174,0,0,1,1.5-6.076,5.44,5.44,0,0,1,2.619-9.61a6.107,6.107,0,0,1,3.193-1.969A5.355,5.355,0,0,1,3.17-13.524a5.317,5.317,0,0,1-.891-3.092,5.533,5.533,0,0,1,.48-2.294,5.49,5.49,0,0,1,1.364-1.86,6.445,6.445,0,0,1,2.116-1.24,7.983,7.983,0,0,1,2.751-.449,8,8,0,0,1,2.744.449,6.43,6.43,0,0,1,2.123,1.24,5.49,5.49,0,0,1,1.364,1.86,5.533,5.533,0,0,1,.481,2.294,5.317,5.317,0,0,1-.891,3.092A5.355,5.355,0,0,1,12.168-11.578ZM26.939-2.046A5.486,5.486,0,0,0,28.962-2.4a4.537,4.537,0,0,0,1.55-.992A4.386,4.386,0,0,0,31.5-4.9a5.026,5.026,0,0,0,.349-1.891,5.366,5.366,0,0,0-.341-1.961,4.151,4.151,0,0,0-.969-1.488,4.251,4.251,0,0,0-1.5-.938A5.39,5.39,0,0,0,27.14-11.5a5.131,5.131,0,0,0-2.015.38A4.61,4.61,0,0,0,23.6-10.1a4.443,4.443,0,0,0-.961,1.488A4.752,4.752,0,0,0,22.3-6.851a5.866,5.866,0,0,0,.31,1.953,4.237,4.237,0,0,0,.907,1.519,4.061,4.061,0,0,0,1.457.984A5.183,5.183,0,0,0,26.939-2.046ZM25.327-13.888q-.294.372-.566.721t-.519.69a6.424,6.424,0,0,1,1.736-.837,6.9,6.9,0,0,1,2.062-.294,7.264,7.264,0,0,1,2.542.442,6.043,6.043,0,0,1,2.085,1.286A6.152,6.152,0,0,1,34.084-9.8a7.1,7.1,0,0,1,.527,2.813,7.237,7.237,0,0,1-.558,2.852A6.971,6.971,0,0,1,32.5-1.845a7.2,7.2,0,0,1-2.4,1.535A8.3,8.3,0,0,1,27,.248a8.26,8.26,0,0,1-3.038-.535,6.459,6.459,0,0,1-2.317-1.519,6.747,6.747,0,0,1-1.472-2.387,8.988,8.988,0,0,1-.519-3.139,8.579,8.579,0,0,1,.643-3.108,15.135,15.135,0,0,1,2.054-3.526l5.642-7.58a1.743,1.743,0,0,1,.6-.473,1.9,1.9,0,0,1,.876-.194h2.449ZM44.95-1.953a5.846,5.846,0,0,0,1.945-.3,4.144,4.144,0,0,0,1.457-.852,3.688,3.688,0,0,0,.915-1.318,4.395,4.395,0,0,0,.318-1.7,4.609,4.609,0,0,0-.38-1.961,3.611,3.611,0,0,0-1.023-1.325,4.222,4.222,0,0,0-1.48-.752,6.317,6.317,0,0,0-1.752-.24,6.317,6.317,0,0,0-1.751.24,4.222,4.222,0,0,0-1.48.752A3.611,3.611,0,0,0,40.7-8.083a4.609,4.609,0,0,0-.38,1.961,4.395,4.395,0,0,0,.318,1.7,3.688,3.688,0,0,0,.915,1.318A4.144,4.144,0,0,0,43-2.255,5.846,5.846,0,0,0,44.95-1.953Zm0-18.367a4.761,4.761,0,0,0-1.744.294,3.552,3.552,0,0,0-1.256.806,3.364,3.364,0,0,0-.759,1.193,4.115,4.115,0,0,0-.256,1.457,5.029,5.029,0,0,0,.217,1.472,3.4,3.4,0,0,0,.7,1.263,3.448,3.448,0,0,0,1.248.884,4.636,4.636,0,0,0,1.852.333A4.636,4.636,0,0,0,46.8-12.95a3.448,3.448,0,0,0,1.248-.884,3.4,3.4,0,0,0,.7-1.263,5.029,5.029,0,0,0,.217-1.472,4.115,4.115,0,0,0-.256-1.457,3.364,3.364,0,0,0-.759-1.193,3.552,3.552,0,0,0-1.256-.806A4.761,4.761,0,0,0,44.95-20.32Zm3.178,8.742A6.107,6.107,0,0,1,51.32-9.61a5.44,5.44,0,0,1,1.116,3.534,6.1,6.1,0,0,1-.55,2.627,5.748,5.748,0,0,1-1.535,1.992A6.949,6.949,0,0,1,47.988-.194,9.921,9.921,0,0,1,44.95.248a9.921,9.921,0,0,1-3.038-.442,7.036,7.036,0,0,1-2.371-1.263,5.627,5.627,0,0,1-1.535-1.992,6.174,6.174,0,0,1-.542-2.627A5.44,5.44,0,0,1,38.579-9.61a6.107,6.107,0,0,1,3.193-1.969,5.355,5.355,0,0,1-2.643-1.945,5.317,5.317,0,0,1-.891-3.092,5.533,5.533,0,0,1,.48-2.294,5.49,5.49,0,0,1,1.364-1.86A6.445,6.445,0,0,1,42.2-22.01a7.982,7.982,0,0,1,2.751-.449,8,8,0,0,1,2.744.449,6.43,6.43,0,0,1,2.124,1.24,5.49,5.49,0,0,1,1.364,1.86,5.533,5.533,0,0,1,.48,2.294,5.317,5.317,0,0,1-.891,3.092A5.355,5.355,0,0,1,48.127-11.578Zm11.424-2.248a15.326,15.326,0,0,1,3.193-.372,8.53,8.53,0,0,1,3.069.511,6.216,6.216,0,0,1,2.224,1.411,5.917,5.917,0,0,1,1.349,2.124,7.563,7.563,0,0,1,.457,2.666,8.016,8.016,0,0,1-.612,3.193,7.229,7.229,0,0,1-1.69,2.441A7.428,7.428,0,0,1,65.007-.294,8.946,8.946,0,0,1,61.86.248,8.88,8.88,0,0,1,59.985.054,9.686,9.686,0,0,1,58.3-.465a9.783,9.783,0,0,1-1.449-.744,8.334,8.334,0,0,1-1.178-.883l.853-1.178a.85.85,0,0,1,.729-.4,1.359,1.359,0,0,1,.7.24q.388.24.945.535a8.1,8.1,0,0,0,1.31.535,5.911,5.911,0,0,0,1.79.24A5.592,5.592,0,0,0,64.092-2.5a4.528,4.528,0,0,0,1.6-1.062,4.69,4.69,0,0,0,1.023-1.651,6.159,6.159,0,0,0,.356-2.155,5.493,5.493,0,0,0-.3-1.876,3.683,3.683,0,0,0-.915-1.426,4.2,4.2,0,0,0-1.527-.914,6.377,6.377,0,0,0-2.139-.326,11.472,11.472,0,0,0-1.744.14,11.618,11.618,0,0,0-1.852.449l-1.736-.511,1.782-10.385H69.161V-21a1.342,1.342,0,0,1-.364.969,1.684,1.684,0,0,1-1.248.38H60.574Z" transform="translate(873 1972)"/>
    <path id="Path_42461" data-name="Path 42461" class="cls-5" d="M15.3-2.619a.963.963,0,0,1,.713.263.923.923,0,0,1,.264.682V0H1.457V-.946a1.622,1.622,0,0,1,.124-.6,1.708,1.708,0,0,1,.388-.573L9.083-9.269q.883-.9,1.612-1.728a12.081,12.081,0,0,0,1.24-1.666,7.97,7.97,0,0,0,.791-1.7A5.918,5.918,0,0,0,13-16.2a4.387,4.387,0,0,0-.31-1.713,3.358,3.358,0,0,0-.845-1.217,3.508,3.508,0,0,0-1.263-.721,4.969,4.969,0,0,0-1.566-.24,4.738,4.738,0,0,0-1.565.248,4.205,4.205,0,0,0-1.263.69A4.06,4.06,0,0,0,5.27-18.1a4.183,4.183,0,0,0-.527,1.333,1.242,1.242,0,0,1-.5.721,1.436,1.436,0,0,1-.891.1L1.907-16.2a8.055,8.055,0,0,1,.845-2.689,6.51,6.51,0,0,1,1.581-1.961,6.729,6.729,0,0,1,2.178-1.2,8.285,8.285,0,0,1,2.651-.411,8.1,8.1,0,0,1,2.635.418,6.155,6.155,0,0,1,2.123,1.217,5.632,5.632,0,0,1,1.411,1.945,6.33,6.33,0,0,1,.511,2.6,6.915,6.915,0,0,1-.372,2.3,9.128,9.128,0,0,1-1.008,2.023A15.634,15.634,0,0,1,13-10.075q-.829.914-1.759,1.844L5.378-2.247a11.554,11.554,0,0,1,1.255-.271,7.822,7.822,0,0,1,1.225-.1ZM34.735-22.212v1.24a2.733,2.733,0,0,1-.116.868,5.823,5.823,0,0,1-.225.573L25.188-.977a2.057,2.057,0,0,1-.558.69A1.464,1.464,0,0,1,23.684,0H21.7l9.331-18.321a7.636,7.636,0,0,1,.419-.713,6.925,6.925,0,0,1,.465-.62H20.32a.628.628,0,0,1-.465-.209.664.664,0,0,1-.2-.473v-1.875ZM53.01-11.1a17.966,17.966,0,0,1-.628,5.045,10.539,10.539,0,0,1-1.713,3.526A6.882,6.882,0,0,1,48.1-.449a7.483,7.483,0,0,1-3.17.682,7.416,7.416,0,0,1-3.17-.682,6.918,6.918,0,0,1-2.55-2.077A10.435,10.435,0,0,1,37.51-6.053a18.178,18.178,0,0,1-.62-5.045,18.262,18.262,0,0,1,.62-5.053,10.52,10.52,0,0,1,1.705-3.542,6.889,6.889,0,0,1,2.55-2.085,7.416,7.416,0,0,1,3.17-.682,7.483,7.483,0,0,1,3.17.682,6.854,6.854,0,0,1,2.565,2.085,10.625,10.625,0,0,1,1.713,3.542A18.049,18.049,0,0,1,53.01-11.1Zm-2.868,0a18.154,18.154,0,0,0-.426-4.27,8.561,8.561,0,0,0-1.147-2.782A4.329,4.329,0,0,0,46.9-19.662a4.469,4.469,0,0,0-1.969-.457,4.469,4.469,0,0,0-1.968.457,4.276,4.276,0,0,0-1.659,1.511,8.679,8.679,0,0,0-1.139,2.782,18.154,18.154,0,0,0-.426,4.27,18.053,18.053,0,0,0,.426,4.263,8.68,8.68,0,0,0,1.139,2.775A4.276,4.276,0,0,0,42.966-2.55a4.469,4.469,0,0,0,1.968.457A4.469,4.469,0,0,0,46.9-2.55a4.329,4.329,0,0,0,1.666-1.511,8.562,8.562,0,0,0,1.147-2.775A18.053,18.053,0,0,0,50.142-11.1Zm20.847,0a17.966,17.966,0,0,1-.628,5.045,10.539,10.539,0,0,1-1.713,3.526A6.882,6.882,0,0,1,66.084-.449a7.483,7.483,0,0,1-3.17.682,7.416,7.416,0,0,1-3.17-.682,6.918,6.918,0,0,1-2.55-2.077A10.435,10.435,0,0,1,55.49-6.053a18.178,18.178,0,0,1-.62-5.045,18.262,18.262,0,0,1,.62-5.053,10.52,10.52,0,0,1,1.705-3.542,6.889,6.889,0,0,1,2.55-2.085,7.416,7.416,0,0,1,3.17-.682,7.483,7.483,0,0,1,3.17.682,6.854,6.854,0,0,1,2.565,2.085,10.625,10.625,0,0,1,1.713,3.542A18.049,18.049,0,0,1,70.99-11.1Zm-2.868,0a18.154,18.154,0,0,0-.426-4.27,8.561,8.561,0,0,0-1.147-2.782,4.329,4.329,0,0,0-1.666-1.511,4.469,4.469,0,0,0-1.968-.457,4.469,4.469,0,0,0-1.968.457,4.276,4.276,0,0,0-1.659,1.511,8.679,8.679,0,0,0-1.139,2.782,18.154,18.154,0,0,0-.426,4.27,18.053,18.053,0,0,0,.426,4.263,8.68,8.68,0,0,0,1.139,2.775A4.276,4.276,0,0,0,60.946-2.55a4.469,4.469,0,0,0,1.968.457,4.469,4.469,0,0,0,1.968-.457,4.33,4.33,0,0,0,1.666-1.511A8.562,8.562,0,0,0,67.7-6.836,18.053,18.053,0,0,0,68.122-11.1Zm20.848,0a17.966,17.966,0,0,1-.628,5.045A10.539,10.539,0,0,1,86.63-2.526,6.882,6.882,0,0,1,84.064-.449a7.483,7.483,0,0,1-3.17.682,7.416,7.416,0,0,1-3.17-.682,6.918,6.918,0,0,1-2.55-2.077,10.435,10.435,0,0,1-1.7-3.526,18.178,18.178,0,0,1-.62-5.045,18.262,18.262,0,0,1,.62-5.053,10.52,10.52,0,0,1,1.7-3.542,6.889,6.889,0,0,1,2.55-2.085,7.416,7.416,0,0,1,3.17-.682,7.483,7.483,0,0,1,3.17.682,6.854,6.854,0,0,1,2.565,2.085,10.625,10.625,0,0,1,1.713,3.542A18.049,18.049,0,0,1,88.97-11.1Zm-2.868,0a18.154,18.154,0,0,0-.426-4.27,8.561,8.561,0,0,0-1.147-2.782,4.329,4.329,0,0,0-1.666-1.511,4.469,4.469,0,0,0-1.968-.457,4.469,4.469,0,0,0-1.969.457,4.276,4.276,0,0,0-1.658,1.511,8.679,8.679,0,0,0-1.139,2.782A18.154,18.154,0,0,0,75.7-11.1a18.053,18.053,0,0,0,.426,4.263,8.68,8.68,0,0,0,1.139,2.775A4.276,4.276,0,0,0,78.926-2.55a4.469,4.469,0,0,0,1.969.457,4.469,4.469,0,0,0,1.968-.457,4.33,4.33,0,0,0,1.666-1.511,8.562,8.562,0,0,0,1.147-2.775A18.053,18.053,0,0,0,86.1-11.1Z" transform="translate(1395 1972)"/>
    <path id="Path_42457" data-name="Path 42457" class="cls-6" d="M8.547,0H9.672L5.461-11.273H4.4L.18,0H1.313l1.25-3.453H7.3ZM4.906-9.953h.047L6.977-4.375H2.883Zm12.25,4.4a3.2,3.2,0,0,0-3.344-2.7c-2.211,0-3.672,1.633-3.672,4.2,0,2.6,1.461,4.2,3.68,4.2a3.172,3.172,0,0,0,3.344-2.648H16.141A2.2,2.2,0,0,1,13.828-.781c-1.586,0-2.633-1.242-2.633-3.281,0-2.008,1.039-3.281,2.625-3.281a2.251,2.251,0,0,1,2.32,1.789Zm1.742-4.6v2.031H17.688v.859H18.9V-2C18.9-.531,19.445.047,20.8.047A6.454,6.454,0,0,0,21.57,0V-.883c-.062.016-.453.031-.562.031-.75,0-1.078-.359-1.078-1.2V-7.266h1.6v-.859h-1.6v-2.031ZM29.516-8.125H28.484V-3.3A2.306,2.306,0,0,1,26.117-.789a1.974,1.974,0,0,1-2.125-2.234v-5.1H22.953v5.281A2.717,2.717,0,0,0,25.82.133a2.789,2.789,0,0,0,2.7-1.641h.023V0h.977Zm4.4,7.367c-1.1,0-1.859-.609-1.859-1.492,0-.9.711-1.453,1.992-1.539l2.406-.164v.9A2.4,2.4,0,0,1,33.914-.758ZM33.7.133a3.026,3.026,0,0,0,2.773-1.68H36.5V0h.984V-5.562c0-1.656-1.164-2.7-3.016-2.7S31.422-7.227,31.3-5.773h1a1.941,1.941,0,0,1,2.141-1.57,1.784,1.784,0,0,1,2.008,1.875v.7l-2.531.156c-1.875.125-2.914.969-2.914,2.359A2.424,2.424,0,0,0,33.7.133ZM39.289,0H40.32V-11.273H39.289ZM50.273.18a5.306,5.306,0,0,0,2.1-.406L53.508,1.32h1.2L53.242-.7A5.783,5.783,0,0,0,55.4-5.633c0-3.57-1.984-5.82-5.125-5.82s-5.117,2.25-5.117,5.82S47.125.18,50.273.18Zm0-.992c-2.461,0-4.023-1.867-4.023-4.82s1.555-4.828,4.023-4.828S54.3-8.594,54.3-5.633a4.891,4.891,0,0,1-1.68,4.078L51.5-3.086H50.3l1.461,2.008A4.113,4.113,0,0,1,50.273-.812ZM63.5-8.125H62.469V-3.3A2.306,2.306,0,0,1,60.1-.789a1.974,1.974,0,0,1-2.125-2.234v-5.1H56.938v5.281A2.717,2.717,0,0,0,59.8.133a2.789,2.789,0,0,0,2.7-1.641h.023V0H63.5ZM67.9-.758c-1.1,0-1.859-.609-1.859-1.492,0-.9.711-1.453,1.992-1.539l2.406-.164v.9A2.4,2.4,0,0,1,67.9-.758Zm-.211.891a3.026,3.026,0,0,0,2.773-1.68h.023V0h.984V-5.562c0-1.656-1.164-2.7-3.016-2.7s-3.047,1.031-3.164,2.484h1a1.941,1.941,0,0,1,2.141-1.57,1.784,1.784,0,0,1,2.008,1.875v.7l-2.531.156c-1.875.125-2.914.969-2.914,2.359A2.424,2.424,0,0,0,67.688.133ZM73.2,0h1.031V-4.812a2.313,2.313,0,0,1,2.352-2.523A1.992,1.992,0,0,1,78.727-5.1V0h1.031V-5.266a2.72,2.72,0,0,0-2.875-2.992A2.747,2.747,0,0,0,74.2-6.625H74.18v-1.5H73.2Zm8.742-10.156v2.031H80.734v.859h1.211V-2c0,1.469.547,2.047,1.906,2.047A6.454,6.454,0,0,0,84.617,0V-.883c-.062.016-.453.031-.562.031-.75,0-1.078-.359-1.078-1.2V-7.266h1.6v-.859h-1.6v-2.031ZM86.117,0h1.031V-8.125H86.117Zm.516-9.812a.69.69,0,0,0,.7-.687.69.69,0,0,0-.7-.687.69.69,0,0,0-.7.688A.69.69,0,0,0,86.633-9.812Zm2.813-.344v2.031H88.234v.859h1.211V-2c0,1.469.547,2.047,1.906,2.047A6.454,6.454,0,0,0,92.117,0V-.883c-.062.016-.453.031-.562.031-.75,0-1.078-.359-1.078-1.2V-7.266h1.6v-.859h-1.6v-2.031ZM94.133,2.938c1.328,0,1.914-.531,2.625-2.445l3.2-8.617H98.859L96.391-1.031h-.023L93.9-8.125H92.789L95.828.055l-.211.609c-.359,1.016-.766,1.391-1.516,1.391a2.264,2.264,0,0,1-.484-.047v.883A3.231,3.231,0,0,0,94.133,2.938Z" transform="translate(365 1994)"/>
    <path id="Path_42458" data-name="Path 42458" class="cls-6" d="M7.859-.969H2.117V-5.3H7.57V-6.25H2.117V-10.3H7.859v-.969h-6.8V0h6.8Zm4.367-2.367L14.453,0h1.164L12.8-4.125l2.836-4H14.477L12.258-4.867h-.023L10.008-8.125H8.836l2.82,4.039L8.8,0H9.961L12.2-3.336Zm8.289-4.922a2.971,2.971,0,0,0-2.8,1.852h-.031V-8.125h-.977V2.688h1.031V-1.672h.031a2.915,2.915,0,0,0,2.766,1.8c2.039,0,3.438-1.664,3.438-4.2S22.57-8.258,20.516-8.258Zm-.18,7.477c-1.539,0-2.594-1.32-2.594-3.281S18.8-7.344,20.336-7.344c1.57,0,2.586,1.3,2.586,3.281S21.906-.781,20.336-.781Zm8.234-6.57a2.494,2.494,0,0,1,2.469,2.719H26.023A2.6,2.6,0,0,1,28.57-7.352ZM30.977-2.3a2.2,2.2,0,0,1-2.3,1.531c-1.617,0-2.656-1.141-2.656-2.977v-.062H32.1V-4.25c0-2.422-1.359-4.008-3.516-4.008-2.2,0-3.633,1.7-3.633,4.219,0,2.578,1.414,4.172,3.7,4.172A3.168,3.168,0,0,0,32-2.3Zm9.117-3.25a3.2,3.2,0,0,0-3.344-2.7c-2.211,0-3.672,1.633-3.672,4.2,0,2.6,1.461,4.2,3.68,4.2A3.172,3.172,0,0,0,40.1-2.516H39.078A2.2,2.2,0,0,1,36.766-.781c-1.586,0-2.633-1.242-2.633-3.281,0-2.008,1.039-3.281,2.625-3.281a2.251,2.251,0,0,1,2.32,1.789Zm1.742-4.6v2.031H40.625v.859h1.211V-2c0,1.469.547,2.047,1.906,2.047A6.454,6.454,0,0,0,44.508,0V-.883c-.062.016-.453.031-.562.031-.75,0-1.078-.359-1.078-1.2V-7.266h1.6v-.859h-1.6v-2.031Zm7.031,2.8a2.494,2.494,0,0,1,2.469,2.719H46.32A2.6,2.6,0,0,1,48.867-7.352ZM51.273-2.3a2.2,2.2,0,0,1-2.3,1.531c-1.617,0-2.656-1.141-2.656-2.977v-.062H52.4V-4.25c0-2.422-1.359-4.008-3.516-4.008-2.2,0-3.633,1.7-3.633,4.219,0,2.578,1.414,4.172,3.7,4.172A3.168,3.168,0,0,0,52.3-2.3ZM56.852.133a2.993,2.993,0,0,0,2.813-1.852h.023V0h.984V-11.273H59.633v4.82h-.023a2.937,2.937,0,0,0-2.781-1.8c-2.039,0-3.453,1.664-3.453,4.2S54.8.133,56.852.133Zm.18-7.477c1.547,0,2.609,1.32,2.609,3.281S58.578-.781,57.031-.781c-1.562,0-2.594-1.3-2.594-3.281S55.469-7.344,57.031-7.344ZM70.625.18a5.306,5.306,0,0,0,2.1-.406L73.859,1.32h1.2L73.594-.7A5.783,5.783,0,0,0,75.75-5.633c0-3.57-1.984-5.82-5.125-5.82s-5.117,2.25-5.117,5.82S67.477.18,70.625.18Zm0-.992c-2.461,0-4.023-1.867-4.023-4.82s1.555-4.828,4.023-4.828,4.023,1.867,4.023,4.828a4.891,4.891,0,0,1-1.68,4.078L71.852-3.086h-1.2l1.461,2.008A4.113,4.113,0,0,1,70.625-.812ZM83.852-8.125H82.82V-3.3A2.306,2.306,0,0,1,80.453-.789a1.974,1.974,0,0,1-2.125-2.234v-5.1H77.289v5.281A2.717,2.717,0,0,0,80.156.133a2.789,2.789,0,0,0,2.7-1.641h.023V0h.977Zm4.4,7.367c-1.1,0-1.859-.609-1.859-1.492,0-.9.711-1.453,1.992-1.539l2.406-.164v.9A2.4,2.4,0,0,1,88.25-.758Zm-.211.891a3.026,3.026,0,0,0,2.773-1.68h.023V0h.984V-5.562c0-1.656-1.164-2.7-3.016-2.7s-3.047,1.031-3.164,2.484h1a1.941,1.941,0,0,1,2.141-1.57,1.784,1.784,0,0,1,2.008,1.875v.7l-2.531.156c-1.875.125-2.914.969-2.914,2.359A2.424,2.424,0,0,0,88.039.133ZM93.555,0h1.031V-4.812a2.313,2.313,0,0,1,2.352-2.523A1.992,1.992,0,0,1,99.078-5.1V0h1.031V-5.266a2.72,2.72,0,0,0-2.875-2.992,2.747,2.747,0,0,0-2.68,1.633h-.023v-1.5h-.977ZM102.3-10.156v2.031h-1.211v.859H102.3V-2c0,1.469.547,2.047,1.906,2.047A6.454,6.454,0,0,0,104.969,0V-.883c-.062.016-.453.031-.562.031-.75,0-1.078-.359-1.078-1.2V-7.266h1.6v-.859h-1.6v-2.031ZM106.469,0H107.5V-8.125h-1.031Zm.516-9.812a.69.69,0,0,0,.7-.687.69.69,0,0,0-.7-.687.69.69,0,0,0-.7.688A.69.69,0,0,0,106.984-9.812Zm2.813-.344v2.031h-1.211v.859H109.8V-2c0,1.469.547,2.047,1.906,2.047A6.454,6.454,0,0,0,112.469,0V-.883c-.062.016-.453.031-.562.031-.75,0-1.078-.359-1.078-1.2V-7.266h1.6v-.859h-1.6v-2.031Zm4.688,13.094c1.328,0,1.914-.531,2.625-2.445l3.2-8.617h-1.094l-2.469,7.094h-.023L114.25-8.125h-1.109L116.18.055l-.211.609c-.359,1.016-.766,1.391-1.516,1.391a2.264,2.264,0,0,1-.484-.047v.883A3.231,3.231,0,0,0,114.484,2.938Z" transform="translate(873 1994)"/>
    <path id="Path_42460" data-name="Path 42460" class="cls-6" d="M5.086,0V-10.3H8.813v-.969H.3v.969H4.016V0Zm5.438-.758c-1.1,0-1.859-.609-1.859-1.492,0-.9.711-1.453,1.992-1.539l2.406-.164v.9A2.4,2.4,0,0,1,10.523-.758Zm-.211.891a3.026,3.026,0,0,0,2.773-1.68h.023V0h.984V-5.562c0-1.656-1.164-2.7-3.016-2.7S8.031-7.227,7.914-5.773h1a1.941,1.941,0,0,1,2.141-1.57,1.784,1.784,0,0,1,2.008,1.875v.7l-2.531.156c-1.875.125-2.914.969-2.914,2.359A2.424,2.424,0,0,0,10.313.133ZM15.828,0h1.031V-5.062A1.949,1.949,0,0,1,18.75-7.273a2.091,2.091,0,0,1,.773.117V-8.172a2.681,2.681,0,0,0-.641-.086A2.069,2.069,0,0,0,16.828-6.68H16.8V-8.125h-.977Zm7.555-.836c-1.531,0-2.555-1.281-2.555-3.242,0-1.977,1.023-3.266,2.555-3.266C24.945-7.344,26-6.031,26-4.086S24.945-.836,23.383-.836Zm.1,3.844c2.172,0,3.555-1.25,3.555-3.141V-8.125h-.984v1.719h-.023a3,3,0,0,0-2.812-1.852c-2.078,0-3.453,1.648-3.453,4.172S21.141.078,23.2.078a2.972,2.972,0,0,0,2.781-1.8H26V-.094a2.2,2.2,0,0,1-2.469,2.211A2.286,2.286,0,0,1,21.219.75h-1.07A3.143,3.143,0,0,0,23.484,3.008ZM32.031-7.352A2.494,2.494,0,0,1,34.5-4.633H29.484A2.6,2.6,0,0,1,32.031-7.352ZM34.438-2.3a2.2,2.2,0,0,1-2.3,1.531c-1.617,0-2.656-1.141-2.656-2.977v-.062h6.086V-4.25c0-2.422-1.359-4.008-3.516-4.008-2.2,0-3.633,1.7-3.633,4.219,0,2.578,1.414,4.172,3.7,4.172A3.168,3.168,0,0,0,35.461-2.3Zm2.953-7.852v2.031H36.18v.859h1.211V-2c0,1.469.547,2.047,1.906,2.047A6.454,6.454,0,0,0,40.063,0V-.883c-.062.016-.453.031-.562.031-.75,0-1.078-.359-1.078-1.2V-7.266h1.6v-.859h-1.6v-2.031ZM49.594.18a5.306,5.306,0,0,0,2.1-.406L52.828,1.32h1.2L52.563-.7a5.783,5.783,0,0,0,2.156-4.937c0-3.57-1.984-5.82-5.125-5.82s-5.117,2.25-5.117,5.82S46.445.18,49.594.18Zm0-.992c-2.461,0-4.023-1.867-4.023-4.82s1.555-4.828,4.023-4.828,4.023,1.867,4.023,4.828a4.891,4.891,0,0,1-1.68,4.078L50.82-3.086h-1.2l1.461,2.008A4.113,4.113,0,0,1,49.594-.812ZM62.82-8.125H61.789V-3.3A2.306,2.306,0,0,1,59.422-.789,1.974,1.974,0,0,1,57.3-3.023v-5.1H56.258v5.281A2.717,2.717,0,0,0,59.125.133a2.789,2.789,0,0,0,2.7-1.641h.023V0h.977Zm4.4,7.367c-1.1,0-1.859-.609-1.859-1.492,0-.9.711-1.453,1.992-1.539l2.406-.164v.9A2.4,2.4,0,0,1,67.219-.758Zm-.211.891a3.026,3.026,0,0,0,2.773-1.68H69.8V0h.984V-5.562c0-1.656-1.164-2.7-3.016-2.7s-3.047,1.031-3.164,2.484h1a1.941,1.941,0,0,1,2.141-1.57,1.784,1.784,0,0,1,2.008,1.875v.7l-2.531.156c-1.875.125-2.914.969-2.914,2.359A2.424,2.424,0,0,0,67.008.133ZM72.523,0h1.031V-4.812a2.313,2.313,0,0,1,2.352-2.523A1.992,1.992,0,0,1,78.047-5.1V0h1.031V-5.266A2.72,2.72,0,0,0,76.2-8.258a2.747,2.747,0,0,0-2.68,1.633H73.5v-1.5h-.977Zm8.742-10.156v2.031H80.055v.859h1.211V-2c0,1.469.547,2.047,1.906,2.047A6.454,6.454,0,0,0,83.938,0V-.883c-.062.016-.453.031-.562.031-.75,0-1.078-.359-1.078-1.2V-7.266h1.6v-.859H82.3v-2.031ZM85.438,0h1.031V-8.125H85.438Zm.516-9.812a.69.69,0,0,0,.7-.687.69.69,0,0,0-.7-.687.69.69,0,0,0-.7.688A.69.69,0,0,0,85.953-9.812Zm2.813-.344v2.031H87.555v.859h1.211V-2c0,1.469.547,2.047,1.906,2.047A6.454,6.454,0,0,0,91.438,0V-.883c-.062.016-.453.031-.562.031-.75,0-1.078-.359-1.078-1.2V-7.266h1.6v-.859H89.8v-2.031ZM93.453,2.938c1.328,0,1.914-.531,2.625-2.445l3.2-8.617H98.18L95.711-1.031h-.023L93.219-8.125H92.109L95.148.055l-.211.609c-.359,1.016-.766,1.391-1.516,1.391a2.264,2.264,0,0,1-.484-.047v.883A3.231,3.231,0,0,0,93.453,2.938Z" transform="translate(1395 1994)"/>
  </g>
</svg>
