<svg xmlns="http://www.w3.org/2000/svg" viewBox="0 0 18.301 16.852"><defs><style>.a{fill:#fff;stroke:#fff;stroke-width:0.5px;}</style></defs><g transform="translate(-2.85 -3.574)"><path class="a" d="M8.654,5.766H20.568a.334.334,0,0,0,0-.667H8.654a.334.334,0,0,0,0,.667Z"/><path class="a" d="M20.568,11.667H8.654a.334.334,0,0,0,0,.667H20.568a.334.334,0,0,0,0-.667Z"/><path class="a" d="M20.568,18.236H8.654a.334.334,0,0,0,0,.667H20.568a.334.334,0,0,0,0-.667Z"/><path class="a" d="M4.707,3.824A1.608,1.608,0,1,0,6.313,5.431,1.609,1.609,0,0,0,4.707,3.824Zm.94,1.607a.94.94,0,1,1-.94-.94A.942.942,0,0,1,5.647,5.431Z"/><path class="a" d="M4.707,10.394A1.606,1.606,0,1,0,6.314,12,1.608,1.608,0,0,0,4.707,10.394ZM5.647,12a.94.94,0,1,1-.94-.94A.94.94,0,0,1,5.647,12Z"/><path class="a" d="M4.707,16.962a1.607,1.607,0,1,0,1.607,1.606A1.608,1.608,0,0,0,4.707,16.962Zm.94,1.606a.94.94,0,1,1-.94-.94A.942.942,0,0,1,5.647,18.568Z"/></g></svg>