<svg xmlns="http://www.w3.org/2000/svg" viewBox="0 0 19.961 19.163">
  <defs>
    <style>
      .cls-1 {
        fill: #fff;
      }
    </style>
  </defs>
  <path id="Path_845" data-name="Path 845" class="cls-1" d="M25.658,35.183h1.324v8.588a.634.634,0,0,0,.642.642h5.1a.634.634,0,0,0,.642-.642v-6.18h3.211v6.18a.634.634,0,0,0,.642.642h5.1a.634.634,0,0,0,.642-.642V35.183h1.324a.618.618,0,0,0,.6-.4.7.7,0,0,0-.161-.722l-9.27-8.628a.63.63,0,0,0-.883,0l-9.391,8.588a.627.627,0,0,0-.161.722A.688.688,0,0,0,25.658,35.183Zm9.351-9.07L44,34.38H42.874a.634.634,0,0,0-.642.642V43.61H37.416V37.43a.634.634,0,0,0-.642-.642H33.283a.634.634,0,0,0-.642.642v6.18H27.785V35.022a.634.634,0,0,0-.642-.642H26.019Z" transform="translate(-24.959 -25.25)"/>
</svg>
