<svg id="Group_41125" data-name="Group 41125" xmlns="http://www.w3.org/2000/svg" viewBox="0 0 25.768 25.757">
  <defs>
    <style>
      .cls-1 {
        fill: #fff;
      }
    </style>
  </defs>
  <path id="Path_2147" data-name="Path 2147" class="cls-1" d="M148.973,143.8a5.173,5.173,0,1,0,0,10.346h0a5.173,5.173,0,0,0,0-10.346Zm0,9.536a4.369,4.369,0,1,1,0-8.737h0a4.369,4.369,0,0,1,0,8.737Z" transform="translate(-136.092 -136.092)"/>
  <path id="Path_2148" data-name="Path 2148" class="cls-1" d="M24.1,9.81l-1.077-.08a10.744,10.744,0,0,0-.745-1.8l.708-.82a1.8,1.8,0,0,0-.091-2.439L21.077,2.862a1.789,1.789,0,0,0-2.439-.086l-.82.708a10.934,10.934,0,0,0-1.8-.745l-.08-1.077A1.8,1.8,0,0,0,14.152,0H11.589A1.8,1.8,0,0,0,9.8,1.667l-.08,1.077a10.856,10.856,0,0,0-1.79.74l-.82-.708a1.8,1.8,0,0,0-2.439.086L2.868,4.674a1.8,1.8,0,0,0-.086,2.439l.708.82a10.487,10.487,0,0,0-.745,1.8l-1.083.08A1.791,1.791,0,0,0,0,11.595v2.562a1.8,1.8,0,0,0,1.662,1.785l1.077.08a10.311,10.311,0,0,0,.745,1.8l-.708.82a1.8,1.8,0,0,0,.086,2.439l1.812,1.812a1.8,1.8,0,0,0,2.439.086l.82-.708a10.364,10.364,0,0,0,1.8.745L9.81,24.09a1.8,1.8,0,0,0,1.785,1.667h2.562a1.808,1.808,0,0,0,1.79-1.662l.08-1.077a10.616,10.616,0,0,0,1.806-.75l.82.708a1.8,1.8,0,0,0,2.439-.086l1.812-1.806a1.789,1.789,0,0,0,.086-2.439l-.708-.82a10.486,10.486,0,0,0,.745-1.8l1.077-.08a1.8,1.8,0,0,0,1.662-1.785V11.6A1.809,1.809,0,0,0,24.1,9.81Zm.863,4.347a.989.989,0,0,1-.917.986l-1.356.1a.4.4,0,0,0-.359.295,9.738,9.738,0,0,1-.89,2.144.405.405,0,0,0,.048.461l.89,1.029a.992.992,0,0,1-.048,1.345l-1.812,1.812a.992.992,0,0,1-1.345.048l-1.029-.89a.405.405,0,0,0-.461-.048,9.779,9.779,0,0,1-2.15.89.414.414,0,0,0-.295.359l-.1,1.356a.989.989,0,0,1-.986.917H11.589a.989.989,0,0,1-.986-.917l-.1-1.356a.4.4,0,0,0-.295-.359,9.738,9.738,0,0,1-2.144-.89.422.422,0,0,0-.2-.054.4.4,0,0,0-.263.1l-1.029.89a.992.992,0,0,1-1.345-.048l-1.8-1.812a.992.992,0,0,1-.048-1.345l.89-1.029a.405.405,0,0,0,.048-.461,9.738,9.738,0,0,1-.89-2.144.414.414,0,0,0-.359-.295l-1.356-.1A.989.989,0,0,1,.8,14.157V11.595a.992.992,0,0,1,.917-.981l1.356-.1a.4.4,0,0,0,.359-.295,9.738,9.738,0,0,1,.89-2.144.4.4,0,0,0-.048-.461l-.89-1.029a.992.992,0,0,1,.048-1.345L5.248,3.431a.992.992,0,0,1,1.345-.048l1.029.89a.405.405,0,0,0,.461.048,9.745,9.745,0,0,1,2.133-.884.4.4,0,0,0,.289-.359l.1-1.356A.989.989,0,0,1,11.589.8h2.562a1,1,0,0,1,.986.917l.1,1.356a.4.4,0,0,0,.295.359,9.738,9.738,0,0,1,2.144.89.4.4,0,0,0,.461-.048l1.029-.89a.992.992,0,0,1,1.345.048l1.812,1.812a.992.992,0,0,1,.048,1.345l-.89,1.029a.405.405,0,0,0-.048.461,9.737,9.737,0,0,1,.89,2.144.414.414,0,0,0,.359.295l1.356.1a.989.989,0,0,1,.917.986v2.552Z"/>
</svg>
