<svg id="Group_41126" data-name="Group 41126" xmlns="http://www.w3.org/2000/svg" viewBox="0 0 25.756 25.757">
  <defs>
    <style>
      .cls-1 {
        fill: #fff;
      }
    </style>
  </defs>
  <path id="Path_2149" data-name="Path 2149" class="cls-1" d="M39.756,26.878a12.878,12.878,0,1,0-21.473,9.58.4.4,0,0,0,.039.034,12.845,12.845,0,0,0,17.112,0,.338.338,0,0,0,.038-.033A12.848,12.848,0,0,0,39.756,26.878Zm-25.041,0a12.163,12.163,0,1,1,20.662,8.689,9.864,9.864,0,0,0-4.695-5.381,6.5,6.5,0,0,0,1.692-4.429c0-3.392-2.466-6.151-5.5-6.151s-5.5,2.76-5.5,6.151a6.5,6.5,0,0,0,1.688,4.425,9.894,9.894,0,0,0-4.691,5.385A12.126,12.126,0,0,1,14.715,26.878ZM22.1,25.757c0-3,2.145-5.436,4.781-5.436s4.781,2.438,4.781,5.436-2.145,5.436-4.781,5.436S22.1,28.754,22.1,25.757ZM18.952,36.093a9.177,9.177,0,0,1,4.678-5.385,5,5,0,0,0,6.491.005,9.144,9.144,0,0,1,4.683,5.38,12.126,12.126,0,0,1-15.852,0Z" transform="translate(-14 -14)"/>
</svg>
