<svg width="54" height="8" viewBox="0 0 54 8" fill="none" xmlns="http://www.w3.org/2000/svg">
<path d="M0.0688477 4.09942V4.08341C0.0688477 2.0187 1.62138 0.322113 3.86216 0.322113C4.95053 0.322113 5.68679 0.610212 6.295 1.05837C6.45505 1.18641 6.5991 1.41049 6.5991 1.69859C6.5991 2.13074 6.24698 2.48286 5.81483 2.48286C5.59075 2.48286 5.4467 2.40283 5.33467 2.3228C4.88651 1.98669 4.42235 1.81063 3.84615 1.81063C2.62973 1.81063 1.73342 2.83498 1.73342 4.06741V4.08341C1.73342 5.33184 2.59772 6.3722 3.84615 6.3722C4.51838 6.3722 4.96654 6.16413 5.4307 5.796C5.55874 5.69997 5.7188 5.61994 5.91086 5.61994C6.311 5.61994 6.66312 5.95606 6.66312 6.3562C6.66312 6.61228 6.53508 6.80435 6.39103 6.93239C5.7348 7.50859 4.96654 7.84471 3.81414 7.84471C1.65339 7.84471 0.0688477 6.19614 0.0688477 4.09942Z" fill="white"/>
<path d="M8.3916 4.09893V4.08292C8.3916 2.01821 10.0242 0.321625 12.2649 0.321625C14.5057 0.321625 16.1063 1.9862 16.1063 4.05091V4.06692C16.1063 6.14764 14.4737 7.84422 12.2329 7.84422C9.99215 7.84422 8.3916 6.16364 8.3916 4.09893ZM14.4417 4.09893V4.08292C14.4417 2.83449 13.5294 1.79413 12.2489 1.79413C10.9685 1.79413 10.0722 2.81849 10.0722 4.05091V4.06692C10.0722 5.31535 10.9845 6.35571 12.2649 6.35571C13.5454 6.37171 14.4417 5.34736 14.4417 4.09893Z" fill="white"/>
<path d="M31.3595 6.91585V1.24989C31.3595 0.801737 31.7116 0.449615 32.1598 0.449615H36.1772C36.5773 0.449615 36.8974 0.769726 36.8974 1.16986C36.8974 1.57 36.5773 1.87411 36.1772 1.87411H32.944V3.34662H35.713C36.1131 3.34662 36.4332 3.66673 36.4332 4.06686C36.4332 4.467 36.1131 4.77111 35.713 4.77111H32.944V6.29163H36.2412C36.6413 6.29163 36.9614 6.61174 36.9614 7.01188C36.9614 7.41202 36.6413 7.71612 36.2412 7.71612H32.1598C31.7276 7.71612 31.3595 7.364 31.3595 6.91585Z" fill="white"/>
<path d="M38.7222 4.09893V4.08292C38.7222 2.01821 40.2747 0.321625 42.5155 0.321625C43.6039 0.321625 44.3401 0.609724 44.9483 1.05788C45.1084 1.18592 45.2524 1.41 45.2524 1.6981C45.2524 2.13025 44.9003 2.48237 44.4681 2.48237C44.2441 2.48237 44.1 2.40234 43.988 2.32232C43.5398 1.9862 43.0757 1.81014 42.4995 1.81014C41.2831 1.81014 40.3867 2.83449 40.3867 4.06692V4.08292C40.3867 5.33135 41.251 6.37171 42.4995 6.37171C43.1717 6.37171 43.6199 6.16364 44.084 5.79551C44.2121 5.69948 44.3721 5.61945 44.5642 5.61945C44.9643 5.61945 45.3164 5.95557 45.3164 6.35571C45.3164 6.6118 45.1884 6.80386 45.0443 6.93191C44.3881 7.5081 43.6199 7.84422 42.4675 7.84422C40.3067 7.84422 38.7222 6.19565 38.7222 4.09893Z" fill="white"/>
<path d="M49.3337 1.92212H47.7972C47.397 1.92212 47.0609 1.58601 47.0609 1.18587C47.0609 0.785731 47.397 0.449615 47.7972 0.449615H52.4708C52.8709 0.449615 53.207 0.785731 53.207 1.18587C53.207 1.58601 52.8709 1.92212 52.4708 1.92212H50.9342V6.97987C50.9342 7.42802 50.5821 7.78015 50.134 7.78015C49.6858 7.78015 49.3337 7.42802 49.3337 6.97987V1.92212V1.92212Z" fill="white"/>
<path d="M24.3651 6.49982L23.1327 7.57219L17.8508 1.49009L19.3393 0.657806L24.3651 6.49982Z" fill="white" fill-opacity="0.5"/>
<path d="M29.4388 6.49982L28.2064 7.57219L22.9086 1.49009L24.3971 0.657806L29.4388 6.49982Z" fill="white" fill-opacity="0.5"/>
<path d="M28.7985 1.95428C29.2493 1.95428 29.6147 1.58882 29.6147 1.138C29.6147 0.687178 29.2493 0.321716 28.7985 0.321716C28.3476 0.321716 27.9822 0.687178 27.9822 1.138C27.9822 1.58882 28.3476 1.95428 28.7985 1.95428Z" fill="white"/>
<path d="M28.7985 7.82836C29.2493 7.82836 29.6147 7.4629 29.6147 7.01208C29.6147 6.56126 29.2493 6.1958 28.7985 6.1958C28.3476 6.1958 27.9822 6.56126 27.9822 7.01208C27.9822 7.4629 28.3476 7.82836 28.7985 7.82836Z" fill="white"/>
<path d="M29.6147 1.13809H27.9822V7.01212H29.6147V1.13809Z" fill="white"/>
<path d="M23.7412 1.95428C24.192 1.95428 24.5575 1.58882 24.5575 1.138C24.5575 0.687178 24.192 0.321716 23.7412 0.321716C23.2904 0.321716 22.9249 0.687178 22.9249 1.138C22.9249 1.58882 23.2904 1.95428 23.7412 1.95428Z" fill="white"/>
<path d="M23.7408 7.82836C24.1917 7.82836 24.5571 7.4629 24.5571 7.01208C24.5571 6.56126 24.1917 6.1958 23.7408 6.1958C23.29 6.1958 22.9246 6.56126 22.9246 7.01208C22.9246 7.4629 23.29 7.82836 23.7408 7.82836Z" fill="white"/>
<path d="M24.5571 1.13809H22.9246V7.01212H24.5571V1.13809Z" fill="white"/>
<path d="M19.4834 1.13803H17.8508V7.01206H19.4834V1.13803Z" fill="white"/>
<path d="M18.6678 1.95495C19.1187 1.95495 19.4841 1.58949 19.4841 1.13867C19.4841 0.687849 19.1187 0.322388 18.6678 0.322388C18.217 0.322388 17.8516 0.687849 17.8516 1.13867C17.8516 1.58949 18.217 1.95495 18.6678 1.95495Z" fill="white"/>
<path d="M18.6831 7.8283C19.1339 7.8283 19.4994 7.46284 19.4994 7.01202C19.4994 6.5612 19.1339 6.19574 18.6831 6.19574C18.2323 6.19574 17.8668 6.5612 17.8668 7.01202C17.8668 7.46284 18.2323 7.8283 18.6831 7.8283Z" fill="white"/>
</svg>
