<svg width="96" height="24" viewBox="0 0 96 24" fill="none" xmlns="http://www.w3.org/2000/svg">
<path d="M69.1307 1.63297H75.9345C76.6149 1.63297 77.2334 2.0055 77.5427 2.5643L80.4498 7.7177C80.5116 7.77979 80.5735 7.77979 80.6353 7.7177L86.5732 2.0055C86.9443 1.69506 87.3773 1.50879 87.8721 1.50879H94.9852C95.1089 1.50879 95.1089 1.63297 95.047 1.69506L84.532 11.7535C84.4702 11.8156 84.4702 11.8777 84.532 11.8777L91.8925 22.1224C92.0162 22.2466 91.8925 22.4949 91.707 22.4949L84.965 22.6191C84.4702 22.6191 84.0372 22.3707 83.7898 21.9982L79.8931 15.7893L73.1511 21.9982C72.7181 22.4328 72.0996 22.6191 71.5429 22.6191L64.801 22.557C64.6773 22.557 64.6773 22.4328 64.7391 22.3707L75.3778 12.2502C75.6252 12.0019 75.6252 11.6914 75.5015 11.381L69.0688 1.81923C69.007 1.75715 69.0688 1.63297 69.1307 1.63297Z" fill="white"/>
<path d="M47.2351 1.50879H45.7507H42.7817C44.8847 2.44013 46.7403 3.93027 47.9774 5.79294C49.2763 7.53144 50.0185 9.70456 50.0185 12.0019C50.0185 14.3612 49.2763 16.4723 47.9774 18.2108C46.7403 20.1355 44.9466 21.6257 42.7817 22.4949H46.6166H47.2351C52.2452 22.4949 56.2657 18.397 56.2657 13.4299V10.5738C56.3275 5.60667 52.2452 1.50879 47.2351 1.50879Z" fill="white"/>
<path d="M45.8742 17.4041H36.4726C36.2251 17.4041 36.0396 17.2179 36.0396 16.9695V7.2215C36.0396 6.97314 36.2251 6.78688 36.4726 6.78688H45.8123C45.936 6.78688 45.9979 6.6627 45.936 6.60061C45.5649 5.91763 45.0701 5.35883 44.5134 4.80002C44.5134 4.80002 44.0186 4.05495 42.596 3.24779C41.0497 2.19228 39.1941 1.57139 37.1529 1.57139C36.1633 1.44721 34.9881 1.38512 33.751 1.44721C33.6892 1.44721 33.5655 1.44721 33.5036 1.44721C31.7717 1.38512 30.8439 1.5093 30.411 1.63348C30.2873 1.63348 30.1636 1.69557 30.0399 1.81974C29.8543 1.94392 29.9161 2.13019 29.9161 2.13019V22.185C29.9161 22.4333 30.1017 22.6196 30.3491 22.6196H32.7614L33.3799 22.6817C34.0603 22.7438 35.1736 22.7438 36.4726 22.6817C38.2044 22.5575 40.3074 22.2471 42.0393 21.3778C42.0393 21.3778 42.1012 21.3778 42.1012 21.3157C42.2867 21.2536 42.4104 21.1295 42.5341 21.0674L42.596 21.0053C42.7197 20.9432 42.8434 20.8811 42.9671 20.7569C43.029 20.7569 43.029 20.6948 43.0908 20.6948C43.2145 20.6328 43.2764 20.5707 43.4001 20.4465C43.4619 20.4465 43.4619 20.3844 43.5238 20.3844C43.6475 20.2602 43.7712 20.136 43.8949 20.0119C44.0186 19.8877 44.1423 19.7635 44.266 19.6393C44.8845 19.0184 45.4412 18.3355 45.936 17.5904C45.9979 17.5283 45.936 17.4041 45.8742 17.4041Z" fill="white"/>
<path d="M17.0505 0.950195H11.1126C5.48401 0.950195 0.96875 5.4827 0.96875 11.1328V13.1197C0.96875 18.7077 5.48401 23.3023 11.1126 23.3023H17.0505C22.6791 23.3023 27.1944 18.7698 27.1944 13.1197V11.1328C27.1944 5.4827 22.6173 0.950195 17.0505 0.950195ZM20.7617 13.9268C20.7617 16.0379 19.0298 17.7764 16.9268 17.7764H11.2363C9.13333 17.7764 7.40145 16.0379 7.40145 13.9268V10.2636C7.40145 8.15254 9.13333 6.41404 11.2363 6.41404H16.9268C19.0298 6.41404 20.7617 8.15254 20.7617 10.2636V13.9268Z" fill="white"/>
<path d="M64.863 7.0348C64.863 6.78644 64.6156 6.53809 64.3682 6.53809H59.3581C59.1107 6.53809 58.8633 6.78644 58.8633 7.0348V22.1225C58.8633 22.3708 59.1107 22.6192 59.3581 22.6192H61.0281C61.2137 22.6192 61.3374 22.5571 61.4611 22.4329L64.6775 19.4526C64.8012 19.3285 64.863 19.1422 64.863 18.9559V7.0348Z" fill="white"/>
<path fill-rule="evenodd" clip-rule="evenodd" d="M42.972 17.404H45.8738C45.9357 17.404 45.9975 17.5282 45.9357 17.5903C45.4409 18.3353 44.8842 19.0183 44.2657 19.6392L43.8945 20.0118L43.5234 20.3843C43.4925 20.3843 43.477 20.3998 43.4616 20.4153C43.4461 20.4309 43.4306 20.4464 43.3997 20.4464C43.276 20.5706 43.2142 20.6326 43.0905 20.6947C43.0595 20.6947 43.0441 20.7103 43.0286 20.7258C43.0131 20.7413 42.9977 20.7568 42.9667 20.7568C42.843 20.881 42.7193 20.9431 42.5956 21.0052L42.5338 21.0673C42.4877 21.0904 42.4417 21.1221 42.3924 21.156C42.3094 21.2132 42.2173 21.2766 42.1008 21.3156C42.1008 21.3777 42.039 21.3777 42.039 21.3777C40.8573 21.9708 39.5028 22.3038 38.2113 22.4949H37.2302C39.3951 21.6257 41.1888 20.1355 42.4259 18.2107C42.6206 17.9501 42.8029 17.681 42.972 17.404ZM43.0805 6.78676H45.812C45.9357 6.78676 45.9975 6.66259 45.9357 6.6005C45.5646 5.91752 45.0697 5.35871 44.5131 4.79991C44.5131 4.79991 44.0182 4.05484 42.5956 3.24768C41.1055 2.23055 39.3283 1.61701 37.3745 1.57373C39.418 2.50866 41.2172 3.97297 42.4259 5.79292C42.663 6.11034 42.8816 6.44225 43.0805 6.78676Z" fill="#D2D1D6"/>
<path d="M59.234 0.950195H64.4296C64.6771 0.950195 64.8626 1.13646 64.8626 1.38482C64.8626 2.31616 64.8626 3.18541 64.8008 4.05466C64.8008 4.17883 64.5534 4.48928 64.3678 4.48928C62.6978 4.55137 60.9659 4.55137 59.2959 4.48928C59.1721 4.48928 58.8629 4.24092 58.8629 4.05466C58.801 3.12332 58.801 2.25407 58.801 1.38482C58.8629 1.13646 59.0484 0.950195 59.234 0.950195Z" fill="url(#paint0_linear)"/>
<defs>
<linearGradient id="paint0_linear" x1="58.7945" y1="2.74426" x2="64.8692" y2="2.74426" gradientUnits="userSpaceOnUse">
<stop stop-color="#11E0D4"/>
<stop offset="0.552486" stop-color="#017DFD"/>
<stop offset="1" stop-color="#007AFF"/>
</linearGradient>
</defs>
</svg>
