<svg width="13" height="13" viewBox="0 0 13 13" fill="none" xmlns="http://www.w3.org/2000/svg">
<path d="M6.11869 12.4089C6.11642 12.4022 6.11415 12.3955 6.11642 12.3887C6.13004 12.3708 6.14819 12.3551 6.17089 12.3528C6.37742 12.3304 6.58167 12.3304 6.7882 12.3528C6.8109 12.3551 6.82905 12.3685 6.84267 12.3887C6.84267 12.3955 6.84267 12.4022 6.8404 12.4089C6.59756 12.4089 6.35926 12.4089 6.11869 12.4089Z" fill="white"/>
<path d="M6.43239 0.022084C7.29935 0.00861977 8.08234 0.172434 8.8381 0.468646C8.91753 0.500062 8.95158 0.520259 8.87668 0.603288C6.29849 3.46443 3.72029 6.32557 1.14437 9.1867C1.04224 9.30115 1.03997 9.30115 0.967345 9.16651C-1.0185 5.50425 1.06493 1.0319 5.16372 0.152238C5.5972 0.0579884 6.03522 0.00861977 6.43239 0.022084Z" fill="white"/>
<path d="M6.84084 12.3884C6.60027 12.3884 6.35743 12.3884 6.11686 12.3884C5.15911 12.3436 4.26492 12.0788 3.42292 11.6255C3.29583 11.5582 3.38434 11.5267 3.432 11.4863C4.55088 10.5169 5.67203 9.54975 6.79318 8.58033C8.58157 7.03195 10.3745 5.48806 12.1629 3.93744C12.2514 3.86114 12.2832 3.85665 12.324 3.97559C13.1774 6.43953 12.7439 8.64541 10.9351 10.5483C9.95918 11.5761 8.72682 12.1506 7.31744 12.3481C7.16085 12.3705 6.99971 12.375 6.84084 12.3884Z" fill="white"/>
<path d="M12.2877 1.0987C12.3852 1.38818 12.1923 1.60137 11.945 1.82577C8.72221 4.73403 5.51082 7.65128 2.29488 10.5663C1.82736 10.9904 1.35983 11.4123 0.892309 11.8342C0.878692 11.8454 0.867344 11.8588 0.853727 11.8701C0.803797 11.9239 0.726633 11.9306 0.688051 11.8947C0.64493 11.8543 0.665356 11.7848 0.713016 11.7332C0.955856 11.4796 1.19643 11.2215 1.43927 10.9657C3.30029 8.99994 5.16131 7.03192 7.02233 5.06615C8.42263 3.58509 9.82521 2.10627 11.2232 0.622968C11.2891 0.553403 11.3526 0.519743 11.4502 0.524231C11.693 0.530963 11.9381 0.528719 12.181 0.524231C12.2627 0.521987 12.2899 0.546671 12.2854 0.627456C12.2831 0.764342 12.2877 0.898984 12.2877 1.0987Z" fill="white"/>
<path d="M10.921 0.526644C7.49857 3.97796 4.0988 7.40235 0.687685 10.8425C0.66272 10.7303 0.66499 10.6495 0.735345 10.5664C3.36347 7.51456 5.98932 4.45819 8.61745 1.40182C8.84213 1.14151 9.06682 0.883445 9.28696 0.618649C9.34597 0.54684 9.40952 0.522156 9.5003 0.522156C9.96101 0.528888 10.4217 0.526644 10.921 0.526644Z" fill="white"/>
<path d="M12.2855 1.9205C12.2855 2.41643 12.2832 2.87197 12.2877 3.32751C12.2877 3.39259 12.2582 3.43073 12.2128 3.46888C10.581 4.80857 8.95151 6.1505 7.32199 7.49243C5.5699 8.9331 3.81555 10.376 2.06574 11.8189C1.97949 11.8907 1.89325 11.9356 1.75708 11.8997C5.26352 8.5763 8.76314 5.25962 12.2855 1.9205Z" fill="white"/>
</svg>
