<svg id="Group_44350" data-name="Group 44350" xmlns="http://www.w3.org/2000/svg" xmlns:xlink="http://www.w3.org/1999/xlink" viewBox="0 0 431.963 103.884">
  <defs>
    <style>
      .cls-1 {
        fill: url(#linear-gradient);
      }

      .cls-2 {
        fill: none;
      }

      .cls-3 {
        fill: #fff;
      }
    </style>
    <linearGradient id="linear-gradient" x1="1" y1="0.5" x2="0" y2="0.5" gradientUnits="objectBoundingBox">
      <stop offset="0" stop-color="#11e0d4"/>
      <stop offset="0.591" stop-color="#007aff"/>
      <stop offset="1" stop-color="#007aff"/>
    </linearGradient>
  </defs>
  <path id="Path_1" data-name="Path 1" class="cls-1" d="M432.669.6h24.317A1.923,1.923,0,0,1,458.9,2.513c0,4.259.061,8.394-.124,12.529,0,.679-1.358,1.913-2.1,1.913-7.9.123-15.861.123-23.761,0-.74,0-2.1-1.234-2.1-1.913-.185-4.135-.123-8.27-.123-12.529A2.019,2.019,0,0,1,432.669.6Z" transform="translate(-164.876 -0.218)"/>
  <path id="Path_2" data-name="Path 2" class="cls-2" d="M49.256,58.1a83.174,83.174,0,0,0,0,19.194c1.3,10.8,6.48,15.553,17.281,16.911,4.382.555,8.826.679,14.442,1.111,4.444-.494,10.06-.8,15.553-1.79,8.023-1.481,12.9-6.542,13.763-14.689a101.043,101.043,0,0,0,.494-18.824c-.617-7.962-2.962-13.084-7.838-15.923a41.084,41.084,0,0,0-9.011-2.592c-2.037-.185-4.073-.37-6.11-.494a10.264,10.264,0,0,0-1.3.062H72.462A4.155,4.155,0,0,1,71.844,41c-2.1.123-4.2.309-6.3.494a26,26,0,0,0-3.395.555,19.6,19.6,0,0,0-2.345.679C53.267,44.888,50.243,49.7,49.256,58.1Z" transform="translate(-18.645 -15.683)"/>
  <path id="Path_3" data-name="Path 3" class="cls-3" d="M80.19,40.983a34.424,34.424,0,0,0-9.69,1.049,26,26,0,0,1,3.394-.555C75.993,41.291,78.091,41.106,80.19,40.983Z" transform="translate(-26.99 -15.666)"/>
  <path id="Path_4" data-name="Path 4" class="cls-3" d="M112.3,40.9c2.037.123,4.073.247,6.11.494A39.431,39.431,0,0,0,112.3,40.9Z" transform="translate(-42.992 -15.645)"/>
  <path id="Path_5" data-name="Path 5" class="cls-3" d="M122.223,41.7H122.1a41.083,41.083,0,0,1,9.011,2.592A21.908,21.908,0,0,0,122.223,41.7Z" transform="translate(-46.744 -15.951)"/>
  <path id="Path_6" data-name="Path 6" class="cls-3" d="M66.6,43.279c.8-.247,1.6-.494,2.345-.679C68.143,42.847,67.341,43.032,66.6,43.279Z" transform="translate(-25.497 -16.296)"/>
  <path id="Path_7" data-name="Path 7" class="cls-3" d="M100.912,40.918a11.561,11.561,0,0,1,1.3-.062,140.271,140.271,0,0,0-16.108,0,2.8,2.8,0,0,1,.617.062Z" transform="translate(-32.962 -15.54)"/>
  <path id="Path_8" data-name="Path 8" class="cls-3" d="M121.338,38.875c-2.962-17.528-12.714-29.563-29.871-34.5C70.606-1.612,49.5-1.612,28.7,5.177,16.665,9.127,8.086,17.273,3.766,29.493-.678,42.022-.987,54.86,1.791,67.7c.062.185.062.309.123.494C5.37,84.052,15.122,94.3,30.428,99.482c10.122,3.394,20.614,4.012,35.858,4.382,4.629-.679,14.01-1.358,23.021-3.58,16.6-4.135,27.4-14.627,31.414-31.353.062-.37.185-.741.247-1.111A77.383,77.383,0,0,0,121.338,38.875ZM91.714,63.13c-.864,8.147-5.74,13.208-13.763,14.689-5.493.988-11.109,1.3-15.553,1.79-5.616-.432-10.06-.555-14.442-1.111-10.8-1.358-16.047-6.11-17.281-16.911a83.185,83.185,0,0,1,0-19.194c.987-8.394,4.012-13.208,10.492-15.43.741-.247,1.543-.494,2.345-.679a34.422,34.422,0,0,1,9.69-1.049,140.26,140.26,0,0,1,16.108,0,27.926,27.926,0,0,1,6.11.494h.123a21.908,21.908,0,0,1,8.887,2.592c4.876,2.839,7.221,7.962,7.838,15.923A107.369,107.369,0,0,1,91.714,63.13Z" transform="translate(-0.002 0.02)"/>
  <path id="Path_9" data-name="Path 9" class="cls-3" d="M361.5,103.228c.185-.987.247-1.543.247-1.543V101.5a1.536,1.536,0,0,1-.062.494C361.623,102.364,361.562,102.8,361.5,103.228Z" transform="translate(-138.391 -38.844)"/>
  <path id="Path_10" data-name="Path 10" class="cls-3" d="M361.747,65.8V65.49s-.062-.679-.247-1.79a9.854,9.854,0,0,1,.185,1.419A2.318,2.318,0,0,0,361.747,65.8Z" transform="translate(-138.391 -24.373)"/>
  <path id="Path_11" data-name="Path 11" class="cls-3" d="M361.285,105.1l-.185.926Z" transform="translate(-138.238 -40.222)"/>
  <path id="Path_12" data-name="Path 12" class="cls-3" d="M360.9,61.2c.123.432.185.864.309,1.3C361.085,62.126,361.023,61.694,360.9,61.2Z" transform="translate(-138.161 -23.416)"/>
  <path id="Path_13" data-name="Path 13" class="cls-3" d="M361.9,67.1V88.269A110.24,110.24,0,0,0,361.9,67.1Z" transform="translate(-138.544 -25.675)"/>
  <path id="Path_14" data-name="Path 14" class="cls-3" d="M360.9,61.2Z" transform="translate(-138.161 -23.416)"/>
  <path id="Path_15" data-name="Path 15" class="cls-3" d="M361.4,63.3c0,.062.062.185.062.247A.369.369,0,0,1,361.4,63.3Z" transform="translate(-138.352 -24.22)"/>
  <path id="Path_16" data-name="Path 16" class="cls-3" d="M361.423,104.3a1.443,1.443,0,0,1-.124.494A1.157,1.157,0,0,0,361.423,104.3Z" transform="translate(-138.314 -39.916)"/>
  <path id="Path_17" data-name="Path 17" class="cls-3" d="M361.5,103.228c.185-.987.247-1.543.247-1.543V101.5a1.536,1.536,0,0,1-.062.494C361.623,102.364,361.562,102.8,361.5,103.228Z" transform="translate(-138.391 -38.844)"/>
  <path id="Path_18" data-name="Path 18" class="cls-3" d="M361.285,105.1l-.185.926Z" transform="translate(-138.238 -40.222)"/>
  <path id="Path_19" data-name="Path 19" class="cls-3" d="M337.949,101.474a40.79,40.79,0,0,0,30.674-34.562c1.3-10.245,1.6-20.552-.926-30.674-4.752-19.194-20.923-31.414-41.969-31.476C317.953,4.7,310.177,4.7,302.4,4.7c27.156,10.554,34.254,27.65,36.043,34.871h0c.124.494.247.926.309,1.3,0,.062.061.185.061.247a9.146,9.146,0,0,1,.247,1.79v.309a105.478,105.478,0,0,1,0,21.169v.185s-.062.555-.247,1.543a1.446,1.446,0,0,1-.123.494l-.185.926c0,.062-.062.185-.062.247-1.79,7.1-8.7,24.193-35.611,34.809,8.579,0,17.158,0,25.736-.062A36.771,36.771,0,0,0,337.949,101.474Z" transform="translate(-115.766 -1.787)"/>
  <path id="Path_20" data-name="Path 20" class="cls-3" d="M263.614,102.685c17.836-7.036,26.909-16.911,31.476-24.811a12.175,12.175,0,0,1-2.16.247c-6.419.432-12.837.309-19.256.37-7.1.062-14.257-.123-21.354.062-3.271.123-4.505-.741-4.382-4.2.247-6.851.062-13.763.062-20.676,0-7.1.062-14.257,0-21.354,0-2.1.432-3.209,2.9-3.148,13.763.123,27.588,0,41.351.247a21.115,21.115,0,0,1,2.839.247c-4.629-7.962-13.825-17.9-31.846-24.872H222.2c-.926,0-1.79.123-2.9.185v97.576c1.111.062,2.037.185,2.962.185h48.943C268.613,102.685,266.082,102.685,263.614,102.685Z" transform="translate(-83.954 -1.825)"/>
  <g id="Group_1" data-name="Group 1" transform="translate(265.813 23.578)">
    <path id="Path_21" data-name="Path 21" class="cls-3" d="M458.84,101.023c0-20.429.062-38.944.123-60.36,0-2.222-1.172-2.407-2.9-2.407-7.036.062-14.01.185-21.046-.062-3.333-.123-4.382.864-4.321,4.32.124,24.44.062,44.622.062,69.062,0,.556-.185,1.3.062,1.728.494.8,1.3,2.1,1.974,2.1,4.135.062,8.333.062,12.468.124Z" transform="translate(-430.692 -38.184)"/>
  </g>
  <path id="Path_22" data-name="Path 22" class="cls-3" d="M588.3,90.2c-2.222-3.086-4.506-6.172-6.727-9.258-5.987-8.208-12.035-16.479-17.9-24.5h0c-.988-1.358-1.975-2.654-2.9-4.012l-.123-.123C577.194,36.074,594.352,21.2,611.2,4.66c-12.1,0-23.206.123-34.315-.062a8.113,8.113,0,0,0-6.912,2.962c-2.716,3.086-6.48,6.851-10.307,10.554C551.272,26.2,542.385,34.1,542.385,34.1a1.063,1.063,0,0,0-.186-.247c-.37-.679-1.42-2.469-2.839-4.937-.123-.247-.309-.494-.431-.741-.186-.37-.433-.741-.618-1.111l-.185-.37c-.247-.494-.556-.926-.8-1.42a.467.467,0,0,1-.124-.247c-.308-.555-.679-1.173-.988-1.728q-.092-.185-.185-.37c-.247-.494-.555-.987-.863-1.481-.062-.185-.186-.309-.248-.494-.308-.494-.555-1.049-.864-1.543l-.186-.37a18.991,18.991,0,0,1-1.049-1.913,1.348,1.348,0,0,0-.186-.309c-.308-.555-.617-1.049-.864-1.6-.062-.185-.185-.309-.247-.494l-.926-1.666c-.062-.062-.062-.123-.123-.185-.308-.617-.679-1.234-.988-1.79-.062-.123-.185-.309-.247-.432-.247-.432-.494-.926-.74-1.358-.062-.123-.186-.309-.247-.432-.308-.555-.618-1.111-.864-1.6a4.191,4.191,0,0,0-4.382-2.53c-10.492.123-21.045.062-31.538.062-.864,0-1.666.185-2.9.309.988,1.543,1.728,2.716,2.531,3.888,9.073,13.763,18.022,27.588,27.279,41.166,1.481,2.222,1.543,3.58.247,5.061a10.525,10.525,0,0,1-1.173,1.173c-13.764,12.405-27.4,24.934-41.1,37.4l-8.147,8.641a17.632,17.632,0,0,0,1.79.185c10.986,0,21.972.062,32.958-.062a6.607,6.607,0,0,0,4.2-1.913l27.772-25.613,4.814-4.444c.062.062.062.123.124.185.987,1.481,1.913,2.962,2.838,4.444,1.3,2.037,2.593,4.073,3.827,6.11.062.123.124.185.185.309,1.543,2.53,3.025,5,4.567,7.468.247.37.432.679.679,1.049l1.481,2.407c.247.432.556.864.8,1.234.493.8,1.049,1.6,1.543,2.407.247.37.494.741.741,1.173.74,1.173,1.543,2.345,2.345,3.58a4.766,4.766,0,0,0,3.456,1.666c10.739.123,21.478.062,32.217.062a15.258,15.258,0,0,0,2.592-.555c-2.592-3.518-5.184-7.1-7.838-10.739A4.338,4.338,0,0,1,588.3,90.2Z" transform="translate(-179.237 -1.747)"/>
</svg>
