<svg xmlns="http://www.w3.org/2000/svg" xmlns:xlink="http://www.w3.org/1999/xlink" viewBox="0 0 106.261 25.555"><defs><style>.a{fill:url(#a);}.b{fill:none;}.c{fill:#fff;}</style><linearGradient id="a" x1="0.712" y1="0.5" x2="0" y2="1" gradientUnits="objectBoundingBox"><stop offset="0" stop-color="#11e0d4"/><stop offset="1" stop-color="#0479d0"/></linearGradient></defs><path class="a" d="M431.172.6h5.982a.473.473,0,0,1,.471.471c0,1.048.015,2.065-.03,3.082,0,.167-.334.471-.516.471-1.943.03-3.9.03-5.845,0-.182,0-.516-.3-.516-.471-.046-1.017-.03-2.034-.03-3.082A.5.5,0,0,1,431.172.6Z" transform="translate(-365.296 -0.506)"/><path class="b" d="M48.837,45.206a20.462,20.462,0,0,0,0,4.722c.319,2.657,1.594,3.826,4.251,4.16,1.078.137,2.171.167,3.553.273,1.093-.121,2.475-.2,3.826-.44a3.848,3.848,0,0,0,3.386-3.613,24.856,24.856,0,0,0,.121-4.631c-.152-1.959-.729-3.219-1.928-3.917a10.105,10.105,0,0,0-2.217-.638c-.5-.046-1-.091-1.5-.121a2.525,2.525,0,0,0-.319.015H54.545A1.022,1.022,0,0,1,54.393,41c-.516.03-1.032.076-1.549.121a6.394,6.394,0,0,0-.835.137,4.821,4.821,0,0,0-.577.167C49.823,41.956,49.08,43.141,48.837,45.206Z" transform="translate(-41.306 -34.772)"/><path class="c" d="M72.884,40.962a8.468,8.468,0,0,0-2.384.258,6.391,6.391,0,0,1,.835-.137C71.851,41.038,72.367,40.992,72.884,40.962Z" transform="translate(-59.797 -34.734)"/><path class="c" d="M112.3,40.9c.5.03,1,.061,1.5.121A9.7,9.7,0,0,0,112.3,40.9Z" transform="translate(-95.251 -34.687)"/><path class="c" d="M122.13,41.7h-.03a10.106,10.106,0,0,1,2.217.638A5.389,5.389,0,0,0,122.13,41.7Z" transform="translate(-103.563 -35.366)"/><path class="c" d="M66.6,42.767c.2-.061.395-.121.577-.167C66.98,42.661,66.782,42.706,66.6,42.767Z" transform="translate(-56.489 -36.129)"/><path class="c" d="M89.744,40.7a2.844,2.844,0,0,1,.319-.015,34.5,34.5,0,0,0-3.963,0,.689.689,0,0,1,.152.015Z" transform="translate(-73.028 -34.454)"/><path class="c" d="M29.85,9.548c-.729-4.312-3.128-7.272-7.348-8.487a25.88,25.88,0,0,0-15.44.2A9.318,9.318,0,0,0,.928,7.24a16.937,16.937,0,0,0-.486,9.4c.015.046.015.076.03.121a9.949,9.949,0,0,0,7.014,7.7c2.49.835,5.071.987,8.821,1.078a51.189,51.189,0,0,0,5.663-.881A9.893,9.893,0,0,0,29.7,16.942c.015-.091.046-.182.061-.273A19.036,19.036,0,0,0,29.85,9.548Zm-7.288,5.967a3.848,3.848,0,0,1-3.386,3.613c-1.351.243-2.733.319-3.826.44-1.382-.106-2.475-.137-3.553-.273-2.657-.334-3.947-1.5-4.251-4.16a20.463,20.463,0,0,1,0-4.722c.243-2.065.987-3.249,2.581-3.8.182-.061.38-.121.577-.167a8.468,8.468,0,0,1,2.384-.258,34.5,34.5,0,0,1,3.963,0,6.87,6.87,0,0,1,1.5.121h.03a5.389,5.389,0,0,1,2.186.638c1.2.7,1.776,1.959,1.928,3.917A26.412,26.412,0,0,1,22.563,15.514Z" transform="translate(-0.002 0.02)"/><path class="c" d="M361.5,101.925c.046-.243.061-.38.061-.38V101.5a.378.378,0,0,1-.015.121C361.53,101.713,361.515,101.819,361.5,101.925Z" transform="translate(-306.616 -86.087)"/><path class="c" d="M361.561,64.216V64.14s-.015-.167-.061-.44a2.423,2.423,0,0,1,.046.349A.57.57,0,0,0,361.561,64.216Z" transform="translate(-306.616 -54.026)"/><path class="c" d="M361.146,105.1l-.046.228Z" transform="translate(-306.277 -89.14)"/><path class="c" d="M360.9,61.2c.03.106.046.213.076.319C360.946,61.428,360.93,61.321,360.9,61.2Z" transform="translate(-306.107 -51.905)"/><path class="c" d="M361.9,67.1v5.208A27.123,27.123,0,0,0,361.9,67.1Z" transform="translate(-306.955 -56.91)"/><path class="c" d="M360.9,61.2Z" transform="translate(-306.107 -51.905)"/><path class="c" d="M361.4,63.3c0,.015.015.046.015.061A.091.091,0,0,1,361.4,63.3Z" transform="translate(-306.531 -53.687)"/><path class="c" d="M361.33,104.3a.355.355,0,0,1-.03.121A.285.285,0,0,0,361.33,104.3Z" transform="translate(-306.446 -88.462)"/><path class="c" d="M361.5,101.925c.046-.243.061-.38.061-.38V101.5a.378.378,0,0,1-.015.121C361.53,101.713,361.515,101.819,361.5,101.925Z" transform="translate(-306.616 -86.087)"/><path class="c" d="M361.146,105.1l-.046.228Z" transform="translate(-306.277 -89.14)"/><path class="c" d="M311.145,28.506a10.034,10.034,0,0,0,7.546-8.5,20.349,20.349,0,0,0-.228-7.546c-1.169-4.722-5.147-7.728-10.324-7.743C306.226,4.7,304.313,4.7,302.4,4.7c6.68,2.6,8.426,6.8,8.866,8.578h0c.03.121.061.228.076.319,0,.015.015.046.015.061a2.252,2.252,0,0,1,.061.44v.076a25.944,25.944,0,0,1,0,5.208v.046s-.015.137-.061.38a.357.357,0,0,1-.03.121l-.046.228c0,.015-.015.046-.015.061-.44,1.746-2.141,5.951-8.76,8.563,2.11,0,4.221,0,6.331-.015A9.046,9.046,0,0,0,311.145,28.506Z" transform="translate(-256.489 -3.983)"/><path class="c" d="M230.2,28.879c4.388-1.731,6.62-4.16,7.743-6.1a3,3,0,0,1-.531.061c-1.579.106-3.158.076-4.737.091-1.746.015-3.507-.03-5.253.015-.8.03-1.108-.182-1.078-1.032.061-1.685.015-3.386.015-5.086,0-1.746.015-3.507,0-5.253,0-.516.106-.789.714-.774,3.386.03,6.787,0,10.172.061a5.2,5.2,0,0,1,.7.061c-1.139-1.959-3.4-4.4-7.834-6.118h-10.1c-.228,0-.44.03-.714.046v24c.273.015.5.046.729.046h12.04C231.431,28.879,230.808,28.879,230.2,28.879Z" transform="translate(-186.005 -4.068)"/><g transform="translate(65.389 5.8)"><path class="c" d="M437.616,53.642c0-5.025.015-9.58.03-14.848,0-.547-.288-.592-.714-.592-1.731.015-3.446.046-5.177-.015-.82-.03-1.078.213-1.063,1.063.03,6.012.015,10.977.015,16.989,0,.137-.046.319.015.425.121.2.319.516.486.516,1.017.015,2.05.015,3.067.03Z" transform="translate(-430.692 -38.184)"/></g><path class="c" d="M497.745,25.653c-.547-.759-1.108-1.518-1.655-2.277-1.473-2.019-2.961-4.054-4.4-6.027h0c-.243-.334-.486-.653-.714-.987l-.03-.03c4.069-3.993,8.289-7.652,12.434-11.721-2.976,0-5.709.03-8.441-.015a2,2,0,0,0-1.7.729c-.668.759-1.594,1.685-2.535,2.6-2.065,1.989-4.251,3.932-4.251,3.932a.264.264,0,0,0-.045-.061c-.091-.167-.349-.607-.7-1.215-.03-.061-.076-.121-.106-.182-.046-.091-.106-.182-.152-.273l-.046-.091c-.061-.121-.137-.228-.2-.349a.115.115,0,0,1-.03-.061c-.076-.137-.167-.288-.243-.425l-.046-.091c-.061-.121-.137-.243-.212-.364-.015-.046-.046-.076-.061-.121-.076-.121-.137-.258-.213-.38l-.046-.091a4.672,4.672,0,0,1-.258-.471.332.332,0,0,0-.046-.076c-.076-.137-.152-.258-.213-.395-.015-.046-.046-.076-.061-.121l-.228-.41c-.015-.015-.015-.03-.03-.046-.076-.152-.167-.3-.243-.44-.015-.03-.045-.076-.061-.106-.061-.106-.122-.228-.182-.334-.015-.03-.046-.076-.061-.106-.076-.137-.152-.273-.213-.395a1.031,1.031,0,0,0-1.078-.622c-2.581.03-5.177.015-7.758.015-.213,0-.41.046-.714.076.243.38.425.668.622.956,2.232,3.386,4.433,6.787,6.711,10.127.364.547.38.881.061,1.245a2.573,2.573,0,0,1-.288.288c-3.386,3.052-6.741,6.134-10.111,9.2l-2,2.126a4.33,4.33,0,0,0,.44.046c2.7,0,5.4.015,8.107-.015a1.625,1.625,0,0,0,1.032-.471l6.832-6.3,1.184-1.093c.015.015.015.03.03.046.243.364.471.729.7,1.093.319.5.638,1,.941,1.5.015.03.03.046.046.076.38.622.744,1.23,1.124,1.837.061.091.106.167.167.258l.364.592c.061.106.137.213.2.3.121.2.258.395.38.592.061.091.121.182.182.288.182.288.38.577.577.881a1.172,1.172,0,0,0,.85.41c2.642.03,5.283.015,7.925.015a3.754,3.754,0,0,0,.638-.137c-.638-.865-1.275-1.746-1.928-2.642A1.068,1.068,0,0,1,497.745,25.653Z" transform="translate(-397.116 -3.894)"/></svg>