<svg xmlns="http://www.w3.org/2000/svg" viewBox="0 0 73.474 35.816"><defs><style>.a{fill:#fff;}</style></defs><g transform="translate(7187 -13108.335)"><path class="a" d="M28.255,24.28l7.236-5.965a1.452,1.452,0,0,0-.847-2.577l-9.319-.565a1.463,1.463,0,0,1-1.271-.918L20.631,5.5a1.46,1.46,0,0,0-2.718,0L14.489,14.22a1.463,1.463,0,0,1-1.271.918L3.864,15.7a1.452,1.452,0,0,0-.847,2.577l7.236,5.93a1.487,1.487,0,0,1,.494,1.483L8.382,34.764a1.454,1.454,0,0,0,2.188,1.588L18.442,31.3A1.384,1.384,0,0,1,20,31.3L27.9,36.352a1.454,1.454,0,0,0,2.188-1.588l-2.365-9.036A1.45,1.45,0,0,1,28.255,24.28Z" transform="translate(-7169.481 13103.76)"/><path class="a" d="M16.675,15.427l3.985-3.285a.8.8,0,0,0-.467-1.419l-5.132-.311a.805.805,0,0,1-.7-.505L12.476,5.085a.8.8,0,0,0-1.5,0l-1.886,4.8a.805.805,0,0,1-.7.505L3.243,10.7a.8.8,0,0,0-.467,1.419l3.985,3.266a.819.819,0,0,1,.272.816l-1.3,5a.8.8,0,0,0,1.205.875l4.335-2.78a.762.762,0,0,1,.855,0l4.354,2.78a.8.8,0,0,0,1.205-.875l-1.3-4.976A.8.8,0,0,1,16.675,15.427Z" transform="translate(-7134.481 13121.95)"/><path class="a" d="M16.675,15.427l3.985-3.285a.8.8,0,0,0-.467-1.419l-5.132-.311a.805.805,0,0,1-.7-.505L12.476,5.085a.8.8,0,0,0-1.5,0l-1.886,4.8a.805.805,0,0,1-.7.505L3.243,10.7a.8.8,0,0,0-.467,1.419l3.985,3.266a.819.819,0,0,1,.272.816l-1.3,5a.8.8,0,0,0,1.205.875l4.335-2.78a.762.762,0,0,1,.855,0l4.354,2.78a.8.8,0,0,0,1.205-.875l-1.3-4.976A.8.8,0,0,1,16.675,15.427Z" transform="translate(-7189.481 13121.95)"/></g></svg>