<?xml version="1.0" encoding="utf-8"?>
<!-- Generator: Adobe Illustrator 23.0.2, SVG Export Plug-In . SVG Version: 6.00 Build 0)  -->
<svg version="1.1" id="Capa_1" xmlns="http://www.w3.org/2000/svg" xmlns:xlink="http://www.w3.org/1999/xlink" x="0px" y="0px"
	 viewBox="0 0 287.03 260.09" style="enable-background:new 0 0 287.03 260.09;" xml:space="preserve">
<style type="text/css">
	.st0{fill:#1A1A1A;}
</style>
<g>
	<path class="st0" d="M68.67,244.77c0.22-2.41,0.51-6.21,0.93-9.99c0.2-1.81-0.78-2.79-2.18-3.42c-3.86-1.72-7.62-3.6-11.1-6.03
		c-1.75-1.22-3.34-0.79-4.87,0.56c-2.92,2.59-5.83,5.18-8.97,7.51c-3.78,2.81-6.7,2.74-9.93-0.65C27,226.92,22,220.61,17.08,214.25
		c-2.4-3.1-1.53-8.02,1.81-10.45c3.3-2.4,6.17-5.28,9.39-7.77c1.08-0.84,1.39-1.92,0.82-3.25c-1.85-4.26-3.11-8.71-4.11-13.24
		c-0.24-1.08-0.82-1.89-2.16-1.95c-3.97-0.16-7.87-1.1-11.88-1.02c-3.76,0.07-8.12-3.65-7.96-8.22c0.12-3.6,0.81-7.1,1.13-10.65
		c0.39-4.34,0.18-8.73,1.39-13c1.2-4.27,2.99-5.85,7.47-5.75c4.28,0.1,8.57,0.18,12.81,0.9c1.56,0.27,2.59-0.59,3.14-1.82
		c1.93-4.31,4.33-8.36,6.75-12.39c0.66-1.09,0.45-1.84-0.36-2.8c-2.72-3.23-5.26-6.6-7.92-9.89c-2.81-3.47-3.08-6.34,0.23-10.02
		c3.21-3.57,7.25-6.27,10.9-9.37c2.42-2.05,4.79-4.17,7.37-5.99c4.02-2.83,8.09-1.96,11.09,1.95c2.37,3.09,4.92,6.05,7.38,9.07
		c0.95,1.17,2.15,1.53,3.47,0.8c3.76-2.08,7.93-2.94,12.03-3.86c2.47-0.55,3.22-2.06,3.44-4.07c0.31-2.89,0.45-5.8,0.53-8.7
		c0.06-2.02,0.57-3.96,1.6-5.58c1.51-2.38,3.47-4.24,6.77-3.91c7.72,0.77,15.45,1.46,23.18,2.21c4.5,0.44,7.29,5.19,6.62,9.71
		c-0.47,3.21-0.93,6.42-1.4,9.63c-0.3,2.07,0.23,3.7,2.29,4.61c3.95,1.74,7.81,3.66,11.46,5.98c1.54,0.98,2.88,0.72,4.23-0.42
		c2.79-2.36,5.65-4.64,8.44-7c4.03-3.4,7.45-3.37,11.1,0.4c5.15,5.32,9.7,11.17,14.26,16.98c3.79,4.83,2.95,8.74-2.12,12.4
		c-2.9,2.1-5.29,4.82-8.32,6.77c-1.28,0.82-1.36,1.96-0.76,3.42c1.5,3.69,2.89,7.42,3.62,11.37c0.59,3.21,1.89,4.2,5.22,4.24
		c3.09,0.04,6.17,0.4,9.24,0.61c5.95,0.4,8.63,4.46,7.86,10.58c-0.67,5.29-0.93,10.63-1.45,15.94c-0.23,2.32-0.2,4.7-1.3,6.88
		c-1.67,3.32-4.73,5.25-8.34,4.6c-3.53-0.63-7.11-0.64-10.62-1.32c-2.17-0.42-3.66,0.45-4.46,2.46c-1.55,3.87-3.43,7.55-5.92,10.92
		c-1.53,2.07-0.2,3.66,1.09,5.2c1.93,2.3,3.89,4.58,5.81,6.89c3.85,4.62,4.1,9.08-1.07,13.27c-4.92,3.99-9.74,8.11-14.61,12.15
		c-0.81,0.67-1.67,1.31-2.57,1.85c-3.41,2.04-7.23,1.44-9.81-1.61c-2.68-3.16-5.35-6.33-7.88-9.61c-1.04-1.35-1.95-1.54-3.53-0.98
		c-3.89,1.38-7.67,3.11-11.85,3.63c-2.21,0.27-3.24,1.53-3.34,3.99c-0.18,4.04-0.64,8.09-1.37,12.07c-0.8,4.32-3.32,6.2-7.75,6.28
		c-4.56,0.09-9.06-0.64-13.58-1.13c-2.56-0.28-5.13-0.45-7.69-0.76C70.41,254.72,68.67,252.72,68.67,244.77z M57.41,165.61
		c-0.37,20.36,17.23,36.74,36.47,37.54c21.92,0.91,38.57-18.05,39.03-36.48c0.58-22.94-17.76-37.92-35.61-39.07
		C74.57,126.14,57.01,145.57,57.41,165.61z"/>
	<path class="st0" d="M240.26,174.17c-1.89-0.02-3.32-0.83-4.06-2.58c-0.6-1.42-1.19-2.88-1.51-4.37c-0.58-2.73-2.03-4.29-4.91-4.29
		c-1.71,0-3.43-0.02-5.14-0.01c-1.28,0.01-2.08,0.68-2.65,1.81c-0.92,1.82-1.82,3.66-2.93,5.35c-1.46,2.21-3.04,2.57-5.48,1.62
		c-4.04-1.56-7.69-3.9-11.54-5.82c-2.17-1.08-3.07-3.53-2.19-5.82c0.82-2.12,1.85-4.17,2.9-6.19c0.61-1.18,0.58-2.06-0.42-3.03
		c-1.1-1.07-2.23-2.22-2.97-3.54c-1.35-2.41-3.3-2.31-5.47-1.7c-1.49,0.42-2.93,1.02-4.42,1.43c-2.72,0.74-5.17-0.46-6.08-3.12
		c-1.37-4-2.64-8.04-3.85-12.09c-0.69-2.29,0.33-4.02,2.3-5.12c1.7-0.95,3.52-1.67,5.45-2.1c2.27-0.51,3.64-1.75,3.33-4.3
		c-0.07-0.56-0.16-1.2,0.02-1.7c1.62-4.57-1.21-6.32-4.71-7.96c-4.68-2.2-5.35-5.24-2.68-9.68c1.46-2.44,2.64-5.04,3.94-7.57
		c2.04-3.97,3.93-4.63,7.8-2.7c6.76,3.37,6.72,3.33,12.19-1.8c1.4-1.31,1.75-2.54,1.03-4.3c-0.9-2.18-1.59-4.41-1.48-6.87
		c0.07-1.59,0.63-2.75,1.98-3.36c4.54-2.02,9.24-3.59,14.15-4.44c2.56-0.45,3.96,1.13,4.82,3.24c0.64,1.57,1.26,3.2,1.54,4.87
		c0.34,1.99,1.62,2.53,3.26,2.6c1.79,0.08,3.56,0.09,5.33,0.48c1.64,0.36,2.76-0.38,3.52-1.93c0.92-1.89,1.96-3.74,3.08-5.52
		c1.08-1.72,2.94-2.43,4.69-1.7c4.48,1.88,8.98,3.79,12.87,6.83c2.2,1.71,2.29,3.75,1.2,6.05c-0.73,1.55-1.43,3.12-2.31,4.59
		c-0.91,1.52-0.64,2.72,0.49,3.96c1.09,1.2,2.21,2.41,3.07,3.78c1.18,1.87,2.59,2.21,4.55,1.38c1.42-0.6,2.92-1.05,4.4-1.47
		c3.03-0.86,5.07,0.01,6.4,2.84c1.95,4.14,2.96,8.6,4.15,12.98c0.59,2.18-0.77,3.94-2.91,4.77c-1.67,0.65-3.39,1.19-5.12,1.64
		c-1.83,0.48-2.8,1.74-2.96,3.46c-0.15,1.54-0.22,3.07-0.53,4.59c-0.44,2.12,0.36,3.56,2.37,4.48c1.7,0.77,3.36,1.68,4.92,2.7
		c2.22,1.45,2.63,3.09,1.66,5.6c-1.51,3.88-3.44,7.57-5.63,11.09c-2.04,3.27-3.78,3.62-7.18,1.94c-6.72-3.32-7.98-3.08-12.98,2.32
		c-0.98,1.05-0.96,2.19-0.58,3.41c0.48,1.55,1.04,3.08,1.52,4.63c0.93,3.03,0.44,4.49-2.05,6.27
		C253.44,170.49,241.54,174.17,240.26,174.17z M210.18,121.93c-0.2,12.62,9.91,21.53,21.35,21.81c11.73,0.29,21.74-9.86,21.74-21.51
		c-0.01-12.91-9.35-21.68-21.42-21.91C219.92,100.09,209.83,109.74,210.18,121.93z"/>
	<path class="st0" d="M123.14,19.92c2.64-0.08,4.4,1.23,6.19,2.29c1.29,0.76,2.24,0.8,3.22-0.3c0.05-0.06,0.11-0.12,0.18-0.17
		c5.49-4.57,5.17-3.4,3.04-10.33c-0.7-2.27,0.27-4.34,2.89-5.35c3.11-1.2,6.29-2.25,9.49-3.16c2.32-0.66,4.14,0.31,5.27,2.45
		c0.19,0.36,0.42,0.75,0.44,1.13c0.31,5.24,4.01,5.87,8.12,6.12c1.59,0.1,2.41-0.66,3.08-1.87c0.87-1.57,1.66-3.19,2.64-4.68
		c1.06-1.6,2.44-2.12,4.42-1.3c3.32,1.38,6.4,3.2,9.55,4.87c2.62,1.39,3.14,3.23,1.97,5.92c-0.1,0.22-0.25,0.42-0.36,0.64
		c-2.67,5.22-2.5,6.12,1.79,10.22c1.04,0.99,2.17,1.01,3.39,0.64c0.7-0.21,1.34-0.62,2.05-0.8c5.53-1.38,6.59-0.11,7.99,4.01
		c0.81,2.39,1.51,4.82,2.29,7.22c0.86,2.66,0.16,4.49-2.33,5.9c-0.42,0.24-0.89,0.43-1.36,0.55c-7,1.75-5.28,3.29-5.57,7.62
		c-0.14,2.06,0.6,3.25,2.49,3.88c0.31,0.1,0.59,0.28,0.88,0.43c5.16,2.59,5.63,4.35,2.69,9.4c-1.31,2.25-2.41,4.63-3.66,6.91
		c-1.07,1.94-2.72,2.45-4.76,1.68c-0.99-0.37-2.11-0.64-2.88-1.3c-4-3.41-6.09,0.41-8.45,2.33c-1.99,1.62-0.89,3.88-0.14,5.84
		c1.39,3.62,0.44,6.08-3.14,7.39c-2.89,1.06-5.84,1.98-8.8,2.84c-2.52,0.73-4.22-0.16-5.28-2.54c-0.07-0.15-0.15-0.3-0.17-0.46
		c-0.54-4.62-3.22-6.4-7.76-6.54c-1.8-0.05-2.74,0.33-3.56,1.67c-0.97,1.59-1.64,3.35-2.9,4.77c-1.43,1.61-3.06,2.08-5.01,1.06
		c-3.1-1.63-6.22-3.2-9.27-4.92c-2.13-1.2-2.65-2.93-1.71-5.18c0.54-1.28,1.21-2.49,1.82-3.74c0.25-0.51,0.67-1.02,0.7-1.55
		c0.2-3.07-2.86-4.06-4.14-6.22c-0.72-1.23-2.05-0.96-3.31-0.51c-2.09,0.75-4.1,2.05-6.52,1.12c-2.85-1.08-3.01-3.85-3.87-6.12
		c-0.69-1.82-1.06-3.76-1.62-5.63c-0.95-3.16-0.09-4.97,3.02-6.12c0.68-0.25,1.41-0.37,2.11-0.59c3.4-1.05,3.73-1.48,3.75-4.98
		c0-0.24-0.01-0.49,0-0.73c0.15-4.49-0.03-4.75-4.39-6.63c-3.04-1.31-3.94-3.55-2.48-6.39c1.56-3.04,2.88-6.22,4.84-9.05
		C120.89,20.44,121.93,19.7,123.14,19.92z M174.93,46.6c0.91-10.1-8.76-18.06-18.04-17.9c-10.17,0.17-18.19,7.99-18.19,18.09
		c-0.01,10.45,8.08,18.48,17.87,18.51C166.76,65.33,175.69,57.87,174.93,46.6z"/>
</g>
</svg>
