<?xml version="1.0" encoding="utf-8"?>
<!-- Generator: Adobe Illustrator 22.1.0, SVG Export Plug-In . SVG Version: 6.00 Build 0)  -->
<svg version="1.1" xmlns="http://www.w3.org/2000/svg" xmlns:xlink="http://www.w3.org/1999/xlink" x="0px" y="0px"
	 viewBox="0 0 409.2 126.1" style="enable-background:new 0 0 409.2 126.1;" xml:space="preserve">
<style type="text/css">
	.st0{fill:#555555;}
	.st1{fill:#9D9D9D;}
	.st2{fill:#0A828B;}
	.st3{fill:#1FA8B2;}
	.st4{fill:#00B5A7;}
</style>
<g id="base">
	<g id="Group_40996" transform="translate(0.031 0.022)">
		<path id="Path_42005" class="st0" d="M51,100.9c0-0.4-0.1-0.8-0.3-1c0-0.9,0-1.8,0.1-2.7c0.1-1.3-0.7-1.5-1.6-1.3
			c-0.6,0.1-1.1,0.4-1.9-0.1c2.3-1.3,4.7,0.2,6.9-0.6c0.2-0.6,0.1-1.3-0.2-1.9c-0.8,0-2.1,0.4-2.6-0.1c-1.1-1-2.3-0.7-3.5-0.7
			c-5-0.1-10-0.1-15-0.2c-1.3,0-1.2,0.7-0.9,1.6c-0.5,1.6,0.1,3.2-0.4,5.2c-0.2-1.6,0.1-2.9-0.2-4.1c-1.1-0.2-2.1,0.1-3.1-0.3
			C27,94.2,25.7,94,24.5,94c-6.6,0-13.2,0-19.9,0c-0.5,0-1.1,0.2-1.5-0.4c0.6-0.2,1.2-0.2,1.8-0.2c5.4,0,10.8,0,16.2,0.1
			c2.3,0,4.6-0.5,6.7,0.4c1.1,0.4,2.3,0.5,3.5,0.3c0.1-0.6,0.1-1.2-0.1-1.7c-9.4-0.2-18.7-0.7-28.1-0.6c-0.2-1.4-0.4-2.7-0.7-4.1
			c-0.4-1.6-1.1-1.5-2.1-1.4c0.1-1.2,0.8-1.7,2-1.8c1.2-0.1,2.3-0.2,3.5-0.3c0,0.5-0.8,0.3-0.8,1c0.2,2,0.4,3.9-1.2,5.7
			c11.1-0.4,21.8,0.5,32.5,0c3.3,0.6,6.6,0.2,9.9,0.3c0.7,0.1,1.3,0,2-0.3c0.4-1.2-0.1-1.8-1.3-1.6c-2.7,0.5-5.4-0.1-8.1,0
			c-0.5,0-1.1,0.1-1.5-0.4c0.5-0.4,0.9-1.1,1-1.8c0.9-0.2,1.9-0.1,2.8,0.1c1.1,0.5,2.5,0.2,3.4-0.7c1.2,0.9,2.2,0.3,3.1-0.4
			c0.5,0.2-0.2,0.7,0.3,0.9c1.9,0.1,2.8-0.8,2.9-3c0.3-5,0.9-10-0.6-15c-1.1-3.6-0.6-7.4-0.7-11.1c-0.1-1.7,0.2-3.4,0.8-5.1
			c1.4-3.8,0.8-7.7,0.7-11.6c0.1-1.1-0.1-2.2-0.5-3.2c-0.4-0.7-0.7-1.4-1.6-1.4c-1.1-0.1-0.5,1.1-0.9,1.5c-0.9-1.9-0.9-1.9-3.1-1.8
			c-0.2,0-0.4,0-0.5-0.1c-0.7-0.9-1.7-0.6-2.7-0.6c-1,0-2.1,0.2-3.1,0.3c-0.3-0.5-0.6-1.1-0.9-1.6c0-0.6,0.5-0.7,1-0.7
			c2.6-0.4,5.2-0.4,7.7,0C48,34,48.4,33.7,48,32c-3.2-0.3-6.4-0.1-9.6-0.1c-0.7-0.1-1.5,0-2.1,0.3c-3.2-0.1-6.5-0.1-9.7-0.3
			c-2.5-0.2-5.1,0-7.5,0.6c-1.3,0.3-2.6,0.2-3.9-0.1c-1.5-0.4-3-0.5-4.6-0.1c-2.2,0.5-4.4,0.4-6.5-0.3c0,0.6,0.2,1.2,0.6,1.7
			C5.3,35,5.1,36.3,5,37.6c0,0.7,0,1.1,0.9,1.2c-1.3,0-2.6,0-3.8-0.2C1,38.5,0.4,38.1,0.3,37c0.7,0.2,1.4,0.1,1.9-0.3
			c-0.1-0.9,0.2-1.8,0.7-2.5c0.4-0.8-0.1-1.8,0.2-2.6c1.3-0.3,2.6,0.1,3.8-0.2v-0.4H3.3c6.7-0.6,13.5-0.7,20.2-0.4
			c-4.5,0.2-9.1,0-13.6,0.6c7.1,0.2,14.2,0.1,21.3-0.5c0.2-0.6,0.2-1.2-0.2-1.7c-3.6,0.8-7.4,1.4-11.2,0.6c3.9,0.1,7.8-0.4,11.6-1.3
			v-3.3c0.3,1.5,0.4,3,0.3,4.5c-0.1,1.1,0.4,1.4,1.4,1.4c3.5-0.1,7,0,10.5-0.1c1.3,0,2.6-0.6,3.8-0.6c1.8,0,3.6,0.3,5.4,0.1
			c1.8-0.2,2-0.3,1.3-2.1c-1-0.3-2.2,0.1-3.3-0.3c0.3-0.7,1-0.2,1.3-0.6c-0.9-0.8-0.9-0.8-1.4-0.6c-0.2-0.7,0.1-1.4-0.3-2.2h-4
			c0.1,0.3,0.3,0.6,0.4,0.8c0.4,2,0.4,2,2.5,2.2c0.4,0,0.8,0,0.7,0.7c-0.8,0.4-1.8,0-2.6,0.2l0,0c-0.3-1.1-1.4-1.6-1.8-2.7
			c-0.4-1.5-0.5-3-0.5-4.5c0-0.6,0.1-1.2-0.4-1.6c0.3-0.8,0.8-0.7,1.2-0.2c0.8,1,2,1.8,1.6,3.4c0,0.4,0,0.7,0,1.1
			c0.9,0.2,1.8,0.2,2.7,0c0.6,0,0.7-0.6,0.7-1.1c0-1.1,0-2.3,0-3.4c0.7,0.1,0.5,0.7,0.5,1.1c0,1,0,2,0,3c0.1,2.2,0.6,2.6,2.7,2.8
			c0.8,0.1,1.5,0.2,2.3,0.4c1.2,0.5,2.4,0.7,3.7,0.7c2.3-0.2,4.4-1.1,6.8-0.9c0.7,0.1,1.2-0.7,1.2-1.6c0-1.2,0.1-2.4,0-3.5
			c-0.1-1.9-1-3.6-2.5-4.8c-1-0.7-2-1.5-3.1-2.1c-1.5-1-3.3-1.3-5-0.6c-1.4,0.7-2.7,1.4-3.9,2.3c-0.4,0.2-0.6,0.8-1.1,0.2
			c3.9-3.8,7.3-5.4,11.9-2.7c1.3,0.7,2.6,1.4,3.9,2c1.4,0.7,2,1.6,2.4,3.7c1.8-0.2,3.7-0.3,5.5-0.1c0.2,0.4-0.3,0.7-0.2,1.1
			c-1.4,0.9-0.5,2.5-1.3,3.7c-0.9,0.2-1.9-0.2-2.7,0.2c-1.1,0.5-0.2,1.7-0.8,2.7c-0.1-0.9-0.1-1.7-0.1-2.5c-0.1-0.1-0.2-0.1-0.4-0.2
			c-0.1,2.1-0.7,3.8-3.4,3.2c0.5,0.5,1-0.1,1.2,0.6c-0.3,0.2-1,0-0.8,0.7c0.1,0.6,0.7,0.5,1.1,0.5c2.3,0.2,4.6,0.2,6.9,0.2
			c4.4,0,8.9,0.3,13.3-0.4c1.5-0.3,3.1-0.3,4.6-0.2c2.9,0.4,5.8,1.1,8.7,0.1c0.3-0.1,0.7-0.2,1.1-0.2c6.2-0.7,12.4-1.1,18.5-1.9
			c2.9-0.4,5.9-0.6,8.9-1.1c5.3-1,10.7-1.7,16.1-2.4c5.7-0.8,11.5-1.1,17.3-1.1c3.3,0.2,6.6-0.4,9.7-1.6c3.9-1.6,8.1-2.3,12.3-2
			c2,0.1,4,0.1,5.9-0.1c1.1-0.2,2.3-0.4,3.4-0.7c0.3,0.5,0.9,0.8,1.5,0.7c-0.4,0.6-1.4-0.2-1.7,0.8c-2.2,0.3-4.4,1.1-6.6,0.9
			c-0.3,0.8-0.5,1.7-0.5,2.6c0,26.2,0,52.5,0,78.7c0,0.6,0.1,1.3,0.3,1.9c0.1,0.3,0.2,0.5,0.6,0.6c4,0.3,7.7,1.4,11.6,2.2
			c1.7,0.3,3.5,0.4,5.3,0.3v-8c0.5,0.3,0.3,0.8,0.3,1.3c0,2,0.1,4.1,0,6.1c-0.1,1.1,0.3,1.4,1.4,1.4c3.9-0.1,7.8,0,11.7,0
			c0.7,0.1,1.3-0.2,1.7-0.7c7.1,0,14.3,0,21.5,0.1c0.1,0.3,0.1,0.8,0.7,0.7c-0.1-0.3-0.1-0.5-0.1-0.7c2.5,0,5.1,0.1,7.6,0
			c4.2-0.2,8.4,0.7,12.6,0c3-0.4,5.8-1.4,8.4-3c2.4-1.6,4.5-3.8,7.8-3.8c-0.3-1.3,0.4-2.4,0.4-3.5c0.2-3.1,0.4-6.2,0.4-9.2
			c0.1-10.9,0.1-21.8,0.2-32.7c0-1.1,0.3-2.4-0.4-3.3c-1.1-1.4-0.5-3-0.7-4.5c-0.1-0.4-0.1-0.8,0.3-1.1c0.6-0.5,0.8-1.3,0.7-2.1
			c-0.1-2.9-0.1-5.9-0.2-8.9c-0.1-3.3,0-6.5-1-9.8c-1.9,0-3.7-0.8-5.1-2c-2.4-2-5.3-3.5-8.4-4.3c-2.7-0.5-5.4-0.7-8.1-0.6
			c-11.7,0.2-23.5,0.1-35.3,0.1c-0.4-0.1-0.9,0-1.3,0.1c-0.3-0.7-1.1-1.2-1.9-1c-3.8,0.1-7.5,0.1-11.3,0c-1.2,0-1.6,0.4-1.5,1.6
			c0.1,2,0.1,4.1,0,6.1c0,0.4,0.2,0.9-0.3,1.3v-7.9c-2.9-0.5-5.5,0.2-8.1,0.7c-0.3-0.1-0.6-0.1-0.9-0.1c-0.4-0.6-0.3-1,0.5-1.2
			c1.9-0.6,4-1,6-1.1c7.1,0,14.2,0,21.2,0c11.3,0,22.6,0.1,33.9-0.2c0.5,0,1.2,0.2,1.2-0.5c0-0.7-0.7-0.5-1.2-0.5
			c-0.1,0-0.3,0-0.4,0c-18.1,0-36.2,0-54.4,0c-3,0-5.9,1-8.8,1.5c-2.1,0.6-4.2,0.9-6.4,1.2c-3.7,0.1-7.4-0.4-11,0.3
			c-0.1-0.1-0.1-0.1-0.2-0.2c1.2-0.6,2.5-0.9,3.8-0.8c5.6,0.3,11.1-0.3,16.6-1.6c2.1-0.6,4.2-1,6.4-1.1c17.9,0.1,35.7,0,53.5,0
			c0.6,0.1,1.2,0,1.7-0.2c0.3-1-0.2-2,0.4-3.2c0.5,1.6,0.1,3.1,0.4,4.4c1,0.1,1.8,0.3,2.6,0.4c4.4,0.2,8.7,1.7,12.2,4.4
			c0.7,0.6,1.6,1.1,2.3,1.7c0.8,0.6,1.7,0.9,2.7,0.8c2.8,0,5.5,0,8.3,0c0.9,0,1.7,0.3,2.4,0.8c1.6,1.2,3.2,2.3,4.9,3.4
			c3.2,1.9,6.5,3.5,9.6,5.5c4.1,2.7,8.8,4.2,13.7,4.5c7.5,0.2,15,0.1,22.5,0.1c0.5,0,1.1-0.1,1.3-0.6c0.2-0.7,0.8-0.7,1.2-1
			c-0.4-1-1.1-0.2-1.7-0.4c0.2-0.8-0.9-1.3-0.7-2.1c0.2-0.9-0.2-1.5-1.1-1.5c-2.8,0-5.5,0.2-8.3,0.3c-0.1,0.8,0,1.6-0.7,2.1
			c0-0.1-0.1-0.1-0.1-0.1c0.1-0.9,0.1-1.8-0.2-2.6c1.3-0.1,1.3-1,1.4-1.9c0.2-3.3,0.2-6.6,0-9.9c-0.1-2.3,0.7-4.5,2.1-6.3
			c1.1-1.3,2.7-2.2,4.4-2.3c0.2,0.2,0.4,0.2,0.5-0.1c0.5-0.1,0.9-0.1,1.4-0.2c0.5,0.8-0.3,0.7-0.6,0.8c-1.4,0.4-2.6,1.2-3.5,2.4
			c-0.6,0.7-1,1.6-1.4,2.4c-1,1.8-1.1,4-0.3,5.9c1.2,3,2.7,5.8,5.9,7.2c1.3,0.6,3.8,0.7,4.8-0.3c2.6-2.4,5.4-4.6,5.5-8.6
			c0-1.5,1.1-2.9,0.1-4.4c1.1,0.7,1.9,1.6,2.6,2.7c2-1.3,3.9-2.7,6.3-3c0.1,0.3-0.1,0.4-0.3,0.5c-2.4,1.2-4.6,2.9-6.3,5
			c-0.7,0.8-1.6,1.7-1.2,2.7c0.4,1.1,0.5,2.3,0.4,3.4c0,0.6,0.1,1,0.9,0.9c-1.2,1.2-3.1,1.4-3.5,3.2c0.2,0.4,1,0,1,0.7l0,0
			c-1.5-0.4-2,0.6-2.4,1.7c-0.9-0.2-0.6-0.7-0.4-1.1c0.9-1.5,1.8-3,2.7-4.6c0.6-1.1,0.5-2.3-0.2-3.4c-2.4,3-4.7,5.6-8.5,6.4
			c0.5,1.1,1,2.1,1.4,3.1c0.8,1.7,1.3,2,3.1,1.6c0.1,0.1,0.1,0.1,0.1,0.1c-0.3,1.2-0.4,2.4-0.3,3.6c0.4,2.4,0.3,4.8-0.5,7.1
			c-1.1,2.9-1.7,6-1.7,9.2c0,0.7,0.2,1.6-0.9,1.8c-0.4,0.1-0.4,0.6-0.4,0.9v8c-0.1,0.5,0.2,0.9,0.5,1.2c0.6,0.3,0.9,0.9,0.7,1.6
			c0,2.5,0.3,4.9,1.1,7.2c0.7,2.5,1.6,4.9,1.4,7.6c-0.1,1.1-0.3,2.2-0.4,3.4c0,0.6,1.1,1,0.3,1.6c-0.6-1-1.5-0.9-2.5-0.5l0,0
			c-0.1,0.1-0.2,0.2-0.3,0.3l0,0c-0.6-0.1-1,0.5-1.7,0.4c-0.1-1.5-1.3-1.3-2.3-1.3c-5.3,0-10.7,0.2-16.1-0.1
			c-4.8-0.4-9.7,0.3-14.3,1.9c-2.8,1.2-5.5,2.7-8.1,4.4c-4,2.3-8.2,4.3-11.7,7.2c-0.7,0.6-1.5,0.8-2.4,0.8c-2.3-0.1-4.6,0.1-7-0.1
			c-2.1-0.1-4.2,0.7-5.8,2.2c-2.9,2.3-6.4,3.9-10,4.4c-1.7,0.3-3.5,0.5-5.5,0.7v5.5c-0.2,0.1-0.4,0.2-0.7,0.4
			c-0.5-0.4-1.1-0.2-1.7-0.2c-2,0-4,0-6,0c1.8-0.3,3.6-0.4,5.4-0.3c2.7,0,2.7,0,2.4-2.6c0-0.1-0.1-0.1-0.2-0.3
			c-0.6-0.1-1.2-0.1-1.9-0.1c0.5-0.2,1-0.2,1.5-0.2c0.4,0,0.6-0.2,0.6-0.6c0-0.4-0.3-0.5-0.6-0.5h-55.4c-1.6-0.1-3.1-0.4-4.5-1
			c10.1,0.9,20.3,0.2,30.4,0.4c10.1,0.1,20.3,0,30.5,0c-0.3-0.9-0.8-0.8-1.1-0.8c-3.3,0.2-6.5-0.3-9.8-0.3c-14.7,0-29.4,0-44.1,0
			c-2.1,0-4.2-0.3-6.2-0.8c-4.3-1-8.5-2.2-13-1.9c-1.7,0.1-3.4,0-5,0.1c-0.7,0-1.5-0.1-2.2-0.3c-2.5-0.8-4.9-1.6-7.4-2.4
			c-1.9-0.6-4-0.8-5.9-0.5c0.4,2.2,0.5,4.4,0.4,6.7c-0.2,0.1-0.5,0.1-0.7,0.2c0.1-2.2,0.4-4.3-0.1-6.5c0-0.2,0-0.5,0-0.7
			c0-0.2,0-0.4-0.2-0.4c-0.2,0-0.2,0.2-0.2,0.4c-5.4,0-10.7-0.3-16.1-0.9c-1.3-0.6-2.8-0.8-4.3-0.5c-0.2,0-0.5-0.1-0.7-0.1
			c-0.4-0.6-0.9-0.5-1.4-0.3c-0.8-0.1-1.6-0.2-2.3-0.3c-0.2-0.4-0.6-0.4-1-0.2c-0.4-0.1-0.7-0.1-1-0.1c0.1-0.3,0.6-0.3,0.4-0.7
			c-0.1-0.2-0.3-0.3-0.5-0.3c-0.5,0.1-0.5,0.5-0.6,0.9c-0.3-0.1-0.6-0.1-0.8-0.1c-0.2-0.3-0.4-0.3-0.7-0.1c-0.9-0.1-1.7-0.2-2.6-0.4
			c-0.2-0.4-0.4-0.9-0.8-0.2c-0.2,0-0.4-0.1-0.5-0.1c-0.1-1-0.6-0.2-0.9-0.2l-2.6-0.3c0-0.2,0-0.5-0.1-0.5c-0.3,0-0.4,0.2-0.4,0.4
			c-0.2,0-0.4,0-0.5,0c-0.2-0.3-0.4-0.3-0.7-0.1c-0.5-0.1-1-0.1-1.5-0.1c-0.2-0.3-0.4-0.3-0.7-0.1l-1.8-0.2c0-0.2,0.2-0.5-0.2-0.7
			V97c-0.5-0.1-1.1-0.1-1.7-0.2c-0.4-0.4-1-0.5-1.5-0.2l-1.3-0.1c-0.2-0.3-0.6-0.4-0.9-0.2c0,0,0,0-0.1,0.1c-0.3,0-0.7-0.1-1-0.1
			c-1.4-0.5-2.9-0.7-4.3-0.7c-1-0.1-1.4-0.3-0.8-1.3c0.4,0.1,0.7,0.2,1.1,0.3c0.9-0.1,1.7,0.9,2.7,0.2c0.5,0,1,0,1.5,0
			c2,0.2,3.9,0.7,5.8,0.7c3.5,0.1,7,0.7,10.5,1.1c3,0.3,5.9,1.1,8.9,1.2c-0.3,0.5,0.1,0.6,0.4,0.7c1,0.2,2,0.2,3,0
			c-0.2-0.5-0.9-0.2-1-0.7c0.5,0,1.1-0.3,1.4,0.4c0.3,0.5,1,0.8,1.6,0.8c0.9,0.6,1.9,1,2.9,1c0.8,0.2,1.6,0.3,2.4,0.3
			c1.3-0.1,2.8,0.8,3.8-0.9c0.2,0.4,0.6,0.6,1,0.6c2.9,0.2,5.9,0.2,8.8,0.3c2.5,0.1,5.1-0.1,7.6,1c1.3,0.6,2.6,1,4,1.3
			c0.1,0.4,0.5,0.5,0.9,0.4c0,0,0,0,0,0c1.6,0.3,3.1,1.1,4.8,0.7c0.2-0.5,0.4-1.1,0.6-1.7h2c-0.6,0.1-1.2,0.5-1.6,0.9
			c0.8,0.2,1.6,0.2,2.5,0.2c1.9,0,1.9,0,1.9-1.8V22.4c0-0.3,0-0.5,0-0.8c0.1-0.9-0.3-1.3-1.2-1.2c-1.3,0-2.6,0-3.9,0.2
			c-0.1-0.5-0.2-0.7-0.9-0.7c-1.2,0-2.4,0.3-3.5,0.8c-2.7,1-5.5,1.8-8.3,2.4c-2.4,0.3-4.8,0.5-7.1,0.4c-2.1,0-4.2,0.2-6.2,0.2
			c-0.9,0-1.3,0.4-1.2,1.4c0.1,1,0.1,2.1,0.1,3.1c0,0.6,0,1.2,0,1.8c0,0.1-0.1,0.1-0.1,0.2c-2.8,0.3-5.7,0.2-8.4-0.2
			c-0.1-0.7-0.1-1.2-0.1-1.8v-2.3c0-0.8-0.4-1.1-1.2-1c-0.4-0.1-0.6,0.1-0.6,0.5c-0.4,0.8-1.2,0.5-1.8,0.6c-1.4-0.1-2.8,0-4.2,0.1
			c-6.4,1.1-12.9,1.6-19.4,2.4c-6.7,0.9-13.6,0.7-20.1,2.9c-0.2-0.2-0.2-0.9-0.8-0.5c-0.9,0.5-2,0.9-3.1,0.9
			c-2.6,0.5-5.3,0.5-7.9,1.4c-0.2,1-0.2,2,0.1,2.9c0.3,0.9,1.4,0,2,0.7c-0.4,0.6-1.3-0.1-1.6,0.7c-0.7,0.9-0.3,1.9-0.3,2.8
			c-0.7,0.6-0.7,1.1,0,1.7c-0.2,0.5-0.2,1-0.1,1.6c-1,0.7-0.1,1.3,0.1,1.9c-0.3,0.9-0.5,1.8-0.5,2.8v26.1c-0.1,1.3,0,2.6,0.3,3.9
			c-0.5,0.5-0.5,1.4,0,2c0,0.4-0.1,0.9-0.1,1.3c-0.2,0.7-0.6,1.4,0.1,2c-0.1,1-0.1,2,0.1,2.9h9.4c1.6,0,2,0.3,2,2c0,1,0,1.9,0,2.9
			c-0.1,0.7,0.4,1.3,1,1.5c1.9,0.9,4.1,0.7,6.1,1.3c0.4,0.6,1,0.3,1.4,0.2c0.3,0,0.7,0.1,1,0.1c0.1,0.4,0.7,0.5,0.4,1.1
			c-0.7,0.1-1.4,0.1-2.1,0c-1.3-0.1-2.6-0.6-3.9-0.3c-0.2,0-0.5-0.1-0.7-0.1c-0.1-0.1-0.3-0.3-0.4-0.3c-2.2-0.4-4.5-0.8-6.7-1.4
			c-0.7-0.1-1.4-0.4-1.9-1c-0.6-0.7-1.5-0.9-2.3-0.5c-0.6,0.4-1.4,0.5-2.1,0.3c-2.7-0.4-5.5-0.6-8.3-0.5c-0.5,0-0.9,0.1-1.2,0.4
			c-2.4,2.2-6,2.3-8.5,0.2c-0.5-0.5-1.2-0.7-1.9-0.6c-1.5,0.2-3,0.3-4.5,0.2c-0.4,0-1-0.1-1.1,0.3c-0.2,1.3-1.2,1.3-2.1,1.7h8.8
			c-0.8,1.2-2.6,0-3.1,1.7h2.8c0,0.1,0,0.1,0,0.2c-0.2,0.1-0.5,0.2-0.9,0.4c1.7,0.4,0.8,2,1.5,3c0.4-0.9,0-1.6,0.4-2.4
			c0.5,0.7,0,1.5,0.4,1.9c1.1,1,2.6,1.3,3.3-0.1c0.5-1.1-0.4-2.4-1.9-2.7c0.8-0.3,1.7-0.3,2.4,0.1c1.1,0.8,0.2,2.2,0.7,3.2
			c1.4,0.3,2.8,0.4,4.2,0.4c0.6,0,1.2-0.2,1.7,0.3c-1.8,1-3.8,0.3-5.7,0.9c-0.3-0.4-0.5-1-1.4-0.8c0.4,1.1-0.5,2.4,1,3.2
			c0.1,0.4,0.1,0.9,0.2,1.4c-1.8,0.2-3.7,0.1-5.5-0.1c-0.4,3.6-3.6,4.2-6,5.7c-2.6,1.6-5.4,2.1-8.3,0.4c0.2-0.5,0.5-0.2,0.8-0.2
			c1.6,0.6,3.3,0.4,4.8-0.5c0.8-0.5,1.8-1,2.7-1.5c1.2-0.6,2.2-1.6,2.9-2.7c1.2-2,0.8-4.1,0.8-6.2c0.1-1.7-0.5-2.2-2.3-2.3
			c-1.1,0-2.3,0.3-3.3-0.4c-1.3-0.8-2.9-1-4.4-0.5c-2.4,0.7-5.2,0.4-7.3,2.1C51.3,99,52.2,100,51,100.9z M338,38.2
			c0.2-0.4,0.2-0.7-0.3-0.8c-2.6-0.3-5.3-0.1-7.8,0.5c-2.7,0-5.5,0-8.1,0c-0.5,0-1-0.2-1.4,0.3c-0.8-0.4-1.7-0.6-2.6-0.7
			c-5.1-0.1-10-1.4-14.4-4c-2.5-1.4-4.6-3.5-7.7-3.9c-0.2-0.1-0.3-0.2-0.3-0.4c-0.2-0.8-0.9-0.9-1.5-1.2c0.2-1,0.7-0.5,1.2-0.3
			c0.6,0.4,1.2,0.6,1.9,0.7c-1.3-1.6-2.9-1.7-4.7-1.3c-1.6-1.3-3.4-2.5-5.2-3.5c0.1,1.9-0.4,3.6-0.2,5.4c0.4,3.6,0.3,7.3,0.4,11
			c0,1,0.6,2,0.4,3.1c-0.3,1.6-0.4,3.2-0.2,4.7c-0.1,1.1,0.1,2.2,0.5,3.2c0.4,1-0.4,2.1-0.4,3.2c-0.2,8.5,0.4,17.1-0.2,25.6
			c-0.3,4.4-0.2,8.8-0.4,13.2c-0.1,2.2-0.1,4.4,0.1,6.5c1.9-1.3,3.5-2.6,5.3-3.6c3.7-2.2,7.3-4.3,11-6.4c1.6-0.9,3.4-1.8,5.1-2.5
			c1.7-0.7,3.5-0.8,5.3-1.3c1.9-0.5,4.1-0.1,6.1-0.7c1.8,0.1,3.7,0.3,5.5,0.3c1.5-0.2,2.9-0.3,4.4-0.2c2,0.5,4.1,0.7,6.1,0.7
			c0.6,0,1.5,0.4,1.8-0.5c0.4-0.9,0.4-2,0.1-2.9c-0.3-0.8-0.9-1.4-1.9-0.6c-0.5,0.3-1,0.4-1.5,0.6c-0.1-0.5,0.3-1,0.1-1.5
			c-3-0.3-5.4,1.6-8.1,2.5c-0.1-0.6,0.3-1.2,1-1.3c2.3-0.9,4.7-1.7,6.9-2.8c0.8-0.4,1.9-0.4,2.3-1.3c0.5-1.3,0.5-2.6,0.2-4
			c-1.7,0,0,1.8-1.3,2c0.1-1-0.5-0.9-1.1-0.5c-0.6,0.5-1.4,0.8-2.2,0.8c-0.3,0-0.5,0.1-0.6,0.4c-0.6,1.4-1.3,0.7-2,0
			c-0.7,0.5-1.4,0.9-2.1,1.4c-0.5,0.4-0.9,0.3-1.2-0.3c3.3-2,6.5-4,8.7-7.3c0.4-0.5,0.6-1.1,0.6-1.7V53.8c0.1-0.4,0-0.7-0.2-1
			c-1.6-1.9-3-3.9-5.3-5.2c-1.4-0.8-2.7-1.9-4.1-2.8c0.1-0.5,0.2-1,1-0.5c0.5,0.4,1.1,0.8,1.7,1.2c-0.2-1.7,0.5-2.2,1.9-1.5
			c0.9,0.4,1.8,1,2.6,1.7c0.6,0.5,1.3,1.4,1.8,1.3c1.1-0.1,1.2,0.5,1.3,1.2c0.6-0.4,0.8-1.4,1.7-0.6c0.1,0.1,0.4,0,0.5-0.1
			c0.4-0.8,0.5-1.8,0.1-2.7c-0.8-0.7-1,0.2-1.4,0.6c-0.2,0.2-0.5,0.3-0.8,0.4c0.5-1.1-0.2-1.1-0.7-1.4c-2.7-1.1-5.4-2.2-8-3.3
			c-0.5-0.2-1.3-0.3-1.3-1.4c3.5,1.2,6.7,3,10.2,3.9c0.5-0.5-0.1-1.3,0.7-1.6c0.6,0.5,0.7,0.2,0.7-0.4C338,40.4,338,39.3,338,38.2z
			 M59.2,31.8c-0.5-0.5-1.4-0.6-1.9-0.1h-1.6c-0.9-0.4-3-0.1-3.4,0.4c-0.7,1-0.7,2.4,0,3.4c0.1-0.4-0.1-1,0.5-1.5
			c-0.4,2.4,0.8,4.4,0.6,6.6c0,0.8,0,1.7,0.1,2.6c0.2,3.1,0.5,6.2-0.4,9.3c-1.3,5-1.5,10.2-0.6,15.3c0.5,3.2,1.5,6.4,1.2,9.8
			c-0.2,1.6-0.3,3.2-0.2,4.9c-0.5,2.5-0.1,5-1.4,7.3c-0.1,0.3-0.1,0.6,0.1,0.9c0.6,0.3-0.3,0.8,0.3,1.1c0.8-0.6,1.6,0.3,2.5,0.2
			c1.4-0.1,2.9-0.1,4.3,0c0.9,0.2,1.7-0.1,2.2-0.9c1.4,0,1.9-0.7,1.7-2c0-0.4,0-0.8,0-1.2c1.1,0.7,0,2,0.7,2.9
			c1.2,0.1,2.4,0.1,3.5-0.1v-6.3c0.6-0.2,1.2,0.4,1.8,0.2c0.1,0.4,1.3,0.4,0.3,1.1c-0.5-0.1-0.7,0.1-0.8,0.6c0,0.7,0,1.4,0.8,1.6
			c0.2,0.8,0.4,1.6,0.6,2.3c0.1,0.4,0.3,0.7,0.7,0.6c0.4-0.1,0.4-0.5,0.4-0.8c0-1.9,0.4-3.9-0.2-5.8c0.3-0.4,0.7-0.3,1-0.3
			c0.7,2.2,0.8,4.5,0.5,6.7c-0.1,1.1,0.3,1.5,1,1.7c1.1,0.3,2.3,0.5,3.5,0.4c1-0.2,0.5-1.2,1-1.6c2.3-2,2.2-4.6,2-7.2
			c0-1.4,0.7-2.8,0.4-4.2c-0.2-0.5,0.4-0.9,0-1.4c0.1-0.4-0.2-0.8,0.2-1.1c0.2,0.2,0.3,0.6,0.3,0.9c0.1,1.1-0.5,2.6,0.3,3.3
			c0.8,0.7,2.3,0.2,3.4,0.2c2,0,2.2-0.1,2.3-2.2v-35c0-0.7-0.1-1.4-0.2-2c-0.1-0.3-0.2-0.7-0.5-0.7c-1.6-0.1-3.3-0.1-4.9,0.1
			c-0.3,0.1-0.7,0.1-1-0.1c-0.4,0.5,0,1.1-0.5,1.7c0-1.5,0.1-2.9,0-4.2c-0.2-2.2-0.8-2.8-2.9-2.8c-1.3,0-2.6,0.1-4,0
			c-1.2-0.1-1.5,0.4-1.5,1.5c0.1,2.2,0,4.4,0,6.5c0,0.5,0.1,1.1-0.6,1.3c-0.6,0.1-0.6-0.5-0.8-0.8c0-0.6,0-1.2-0.1-1.7
			c-0.1-1.1,0.3-2.2,0.2-3.4c-0.2-2.4-1.5-4.6-1.3-7.2c-0.7,0.4-1.5,0.5-2.3,0.4c-0.8,0-1.3,0.4-1.1,1.3c0.3,1.6,0.6,3.1,0.9,4.6
			c-0.1,1.2-0.5,2.3-0.1,3.5c-0.9,0.4-0.8-0.5-1.2-0.8c0-0.3,0-0.7-0.1-1c0.2-0.5,0.1-1.1-0.3-1.4c0-0.1,0-0.3,0-0.4
			c0.2-0.2,0.1-0.4,0-0.6c0,0-0.1,0-0.1-0.1c-0.1-1.8-1.3-3.4-0.7-5.3c-1-0.2-1.8-0.4-2.7-0.6c-0.2-0.4-0.5-0.4-0.9-0.1
			C59.9,31.9,59.6,31.9,59.2,31.8z M282.6,29.9c-0.1,0.5-0.4,0.8-0.4,1.3c-0.1,3.7,0.4,7.5-0.5,11.2c-0.5,2.1,0.5,4.3,0.5,6.4
			c-0.1,8.1,0.3,16.2-0.5,24.3c-0.1,2.6,0,5.2,0.2,7.7c0.1,5.3,0.1,10.6-0.2,15.8c-0.1,1.6,0.2,1.9,1.8,2c1.8,0.1,2.4-0.4,2.4-1.9
			c0.1-1.3-0.1-2.6,0.1-3.8c0.8-5.4,0.4-10.9,1-16.4c0.2-3.4,0.2-6.9-0.1-10.3c-0.2-5.3-0.1-10.5-0.1-15.8c0-3.3-0.2-6.6-0.2-9.9
			c0-4.9-0.7-9.8-0.7-14.7c0-0.4,0-0.8-0.5-1c-1.2-0.4-2.4-0.4-3.6,0c-0.6,0.2-0.7,0.6-0.7,1.2c0,1.2,0.1,2.4,0.4,3.6
			C281.8,29.7,282.2,29.7,282.6,29.9z M70.1,32.6c0.2,0.8-0.5,1.8,0.7,2c2.3,0.5,4.7,0.7,7.1,0.4c-0.1-0.4-0.1-0.8-0.2-1.1
			c0.2-1.4-0.7-1.8-1.8-1.6C74,32.6,72.1,32.4,70.1,32.6z M55.2,95.3c1,0.3,2.1,0.2,3.1-0.3c1.7-0.6,3.5-0.7,5.2-0.1
			c0.8,0.2,1.7,0.4,2.5,0.5c0.9,0.1,1.2-0.3,1.2-1.3c-1,0-1.9,0-2.9,0c-1.9-0.1-3.7,0.3-5.6-0.2c-0.5-0.1-1-0.1-1.4-0.9
			c-0.5-1-1.6-0.4-2.4,0.2C55,93.9,55.1,94.6,55.2,95.3L55.2,95.3z M54.8,30.5c4.1-1.9,8.3-1.2,12.3-1.4c-0.1-1.6-1.1-1.4-2-1.1
			c-3.1,1-6.2,0.5-9.3,0.3c0.3-0.4,0.8,0,1.1-0.4c-0.6-0.1-1.2-0.1-1.8,0.1C55.1,28.7,55,29.4,54.8,30.5z M339.1,75
			c0.1,0,0.2,0,0.4,0v-9.8C338.3,68.5,338.5,71.8,339.1,75L339.1,75z M339.4,58v-6.6C338.7,53.5,338.7,55.9,339.4,58L339.4,58z
			 M85.6,89.6c-1.7,0.2-3.4-0.1-5.1,0.5C82.3,90.8,84.8,90.6,85.6,89.6z M286.1,99.4h-4.7v0.4C283,100.3,284.6,100.1,286.1,99.4
			L286.1,99.4z M150.3,26.1c0.7,0.3,0,1.8,1.7,1.7C151.2,27.2,152.3,25.4,150.3,26.1z M82,39.1c0.7,0.4,1,1.3,2,0.9
			c0.3-0.1,0.4-0.4,0.3-0.7c0-0.1-0.1-0.2-0.2-0.2C83.5,38.4,82.8,38.4,82,39.1z M82.2,84.2c0.6,0.5,1.4,0.5,2-0.1c0,0,0,0,0,0
			c0.2-0.3,0.1-0.7-0.4-0.8C82.8,82.9,82.7,83.7,82.2,84.2L82.2,84.2z M285.8,23.9v-0.4c-1.4-0.1-2.7-0.1-4.1,0.1v0.4H285.8z
			 M3.7,36.9C4,36.2,4,35.3,3.6,34.5C3.3,35.3,3.3,36.2,3.7,36.9z M337.9,79.7c-0.4,0.1-0.9,0.1-1,0.7c0,0.7,0.4,0.8,1,0.8
			C338.1,80.7,338.1,80.2,337.9,79.7z M63.1,91.9c-1.3-0.6-1.3,0.5-2,1.1C61.9,93,62.6,92.5,63.1,91.9L63.1,91.9z M86,32.9
			c-0.5,0.7-0.5,1.7,0,2.5V32.9z M187.5,19.9c0,0,0-0.1,0-0.1h-4v0.1H187.5z M3.6,88.4c0.3-0.6,0.2-1.3-0.1-1.9
			C3.3,87.2,3.3,87.9,3.6,88.4z M329.1,45.9c0.1,0,0.2,0.1,0.2,0.1c0.1,0,0.1-0.1,0.1-0.2c0-0.1-0.1-0.1-0.2-0.1
			C329.2,45.7,329.2,45.8,329.1,45.9z"/>
		<path id="Path_42006" class="st1" d="M351.9,32.4c-0.1-0.7-0.8-0.3-1-0.7c0.4-1.8,2.3-2,3.5-3.2c-0.8,0.1-0.9-0.2-0.9-0.9
			c0.1-1.2,0-2.3-0.4-3.4c-0.4-1,0.5-1.9,1.2-2.7c1.7-2.1,3.9-3.8,6.3-5c0.2-0.1,0.4-0.2,0.3-0.5l0,0c0.4,0.1,0.6,0,0.6-0.4
			c2.1-1,4.3-1.5,6.6-1.5c8.2-0.4,16.4-0.3,24.5-0.3c0.2,0,0.4,0,0.5,0.1c1,0.7,2.3,0,3.4,0.5c0.2,0.9,0.1,1.8,0,2.6
			c-1.3,0.5-1.8-0.4-2.4-1.1c-0.8-0.8-1.7-0.9-2.2-0.1c-0.8,1.4-2,1.3-3.3,1.3c-3.7,0-7.3,0-11,0v0.4h12.6c-0.2,1.2-0.7,1.7-1.8,1.7
			c-0.6,0-1.2,0-1.2,0.9c-0.5,0-1,0-1.5,0c-3.9,0-7.7,0.5-11.4,1.5c-6.9,1.9-13.4,5-19.3,9c-1.2,0.9-2.8,1.6-3.2,3.1
			c-1.7,6-3.4,12-4.9,18c-0.3,1.3-0.8,2.6-0.5,3.9c0.3,0.1,0.7,0.1,1,0c5.1-1.4,10.1-2.7,15.5-2.6c2,0.1,4-0.9,5-2.7
			c1.3-2,3.6-3.2,6-3.1c5.2,0.1,10.4,0.1,15.7,0c1.1,0.1,2.2,0,3.2-0.1c0.4,2,0.8,4.1-0.1,5.9h1.8c0-1.3,0.1-2.6,0-3.9
			c-0.1-1.2,0.5-1.6,1.7-1.5c0,3,0.1,5.9,0,8.8c-0.1,2,0.5,4.1-0.5,6c-0.1,0.2,0,0.5,0.1,0.7c0.4,0.8,0.6,1.7,0.5,2.6v7.5
			c0,3.4,0,3.4-3.4,3.6c-5.4,0-10.8,0-16.2,0c-1.5,0-3.1-0.2-4.6-0.7c-2.7-0.7-5.4-1.4-8.1-2.1c-1.9-0.5-3.8-0.7-5.3-2.3
			c-1.8-2.1-4.8-2.9-7.4-2c-1.1,0.4-2.2,0.4-3.3,0.1c-0.5-0.2-1-0.2-1.5-0.1c0.2,2.3,0.6,4.6,1.2,6.9c1,4.2,2.5,8.3,3.4,12.5
			c0.4,1.6,0.8,3.3,2.4,4.4c4.8,3.5,10.1,6.3,15.7,8.4c1,0.5,2.1,0.8,3.2,0.9c1.4-0.1,2.8-0.1,3.8,1.2c0.1,0.2,0.3,0.3,0.6,0.3
			c3.1,0.3,6.2,0.9,9.3,0.9c0,0.7,0.5,0.5,0.8,0.6c1.7,0.3,3.1,0.8,3.8,2.6c0.1,0.3,0.4,0.5,0.6,0.7c1.3,1.3,1.7,1.3,2.9-0.1
			c0.7-0.7,0.5-1.7,1.2-2.4c0.2-0.2,0.4-0.5,0.8-0.4c0.3,0.1,0.5,0.5,0.4,0.8c-0.1,1-0.1,2.1,0,3.1c0,0.8-0.3,1.1-1.1,1.1
			c-0.7-0.1-1.4-0.1-2.1,0.2c-0.1,0.5-0.1,1.1-0.1,1.6c-0.5-0.3-0.2-0.9-0.5-1.2c-0.3-0.2-0.8-0.1-1.1-0.1c-6.5,0-13.1,0-19.6-0.1
			c-4,0.1-8-0.5-11.7-1.9c-0.3-0.1-0.6-0.2-0.8-0.5c0.1-0.7,0.1-0.7-0.7-1.2c-2.4-1.2-4-3.2-5.6-5.2c-1.3-1.6-0.4-3.6-0.4-5.4v2.9
			c0.4-1.4,0.1-2.8,0.4-4.3c-1.1-0.5-2.1-1.2-2.9-2.1c-0.1-0.2-0.2-0.4-0.3-0.5c0.1-0.8-1-1.3-0.7-1.9c0.8-1.4-0.2-1.9-0.9-2.6
			c-0.3,0.2,0.1,0.6-0.3,0.7l-0.3-0.3l-0.3-0.3c0-0.1,0-0.1-0.1-0.2l0,0c0.8-0.7-0.3-1-0.3-1.6c0-1.1,0.3-2.2,0.4-3.4
			c0.2-2.6-0.7-5.1-1.4-7.6c-0.8-2.3-1.1-4.8-1.1-7.2c0.1-0.6-0.2-1.3-0.7-1.6c-0.4-0.2-0.6-0.7-0.5-1.2v-8c0-0.4,0-0.9,0.4-0.9
			c1.1-0.2,0.9-1,0.9-1.8c-0.1-3.2,0.8-6.2,1.7-9.2c0.8-2.3,1-4.7,0.5-7.1c-0.1-1.2,0-2.4,0.3-3.6c0.1-0.1,0.2-0.2,0.3-0.3
			c0-0.1,0.1-0.2,0.1-0.3c-0.1,0-0.2,0.1-0.3,0.1l-0.3,0.3c-1.8,0.5-2.4,0.2-3.1-1.6c-0.4-1-0.9-2-1.4-3.1c3.8-0.8,6.1-3.4,8.5-6.4
			c0.6,1,0.7,2.3,0.2,3.4c-0.8,1.5-1.8,3-2.7,4.6c-0.2,0.4-0.5,0.9,0.4,1.1C349.9,32.9,350.4,32,351.9,32.4
			C351.9,32.4,351.9,32.4,351.9,32.4C351.9,32.4,351.9,32.4,351.9,32.4z M380.8,63.7L380.8,63.7c0-0.1,0.1-0.3-0.2-0.4
			c-0.1,0.1-0.1,0.3-0.2,0.4v0c-2.2-1-5.3,1-5.3,3.3c0,1.8,0,3.5,0,5.3c0,2,0.5,2.4,2.4,2c0.4,0.2,0.8,0.3,1.2,0.3
			c3.1,0,6.2,0.4,9.1-1.3v-8.3c0.5-0.4,0.1-0.6-0.2-0.8c-0.5-0.2-1.1-0.2-1.4-0.7c1.1-1.3,2.7-2,4-3.3c-0.6-0.1-1.2,0-1.6,0.5
			c-1.3,0.9-2.3,2.3-4.1,2.3c-0.3,0-0.4,0.3-0.4,0.6c-0.5,0.2-1,0.4-1.4,0.5c-0.4,1.9-0.1,3.5,2.2,4.3c-0.8,0.2-1.3,0.3-1.8,0.4
			c-0.6-0.3-0.9-0.9-0.9-1.6c-0.5,0.4-1.5-0.1-1.3,1.1c-1.5,0.5-2.3,1.4-2,3.1c0.1,0.7,0.1,1.4,0,2c-0.2-1.7-0.3-3.3-0.2-5
			c0-0.7,0.2-1.4,1.3-1.5c1.8-0.1,2.2-0.8,1.6-3.1c-0.1,1-0.2,1.7-0.3,2.5c-0.3-0.7-0.4-1.5-0.2-2.2C381,64,380.9,63.9,380.8,63.7z
			 M362.8,22.8c1.1-0.3,2.1-0.9,2.8-1.8C364.5,21.3,363.5,22,362.8,22.8c-0.4,0.1-0.8,0.1-0.9,0.7C362.4,23.4,362.7,23.3,362.8,22.8
			z M376.7,17.6c-1.4-0.3-2.9,0-4.2,0.8C373.9,18.2,375.3,17.9,376.7,17.6L376.7,17.6L376.7,17.6z M384.2,52.5
			c-2.3,0-3.7,1.3-3.7,3.5c-0.1,2,1.5,3.6,3.4,3.7c2,0.1,3.6-1.5,3.7-3.4c0-0.1,0-0.1,0-0.2c0.1-1.8-1.3-3.4-3.1-3.5
			C384.4,52.4,384.3,52.4,384.2,52.5L384.2,52.5z M393.6,76.8c0.5-0.7,1.6-1,1.6-1.9c-0.1-2.3,0.7-4.7-1.3-7
			C393.2,71,393.8,73.9,393.6,76.8L393.6,76.8z M366,63.7c0.5,0,1-0.1,1.1-0.8c0-0.7-0.5-0.8-1.1-0.8c-0.6,0-1,0.2-1,0.8
			C365,63.5,365.5,63.7,366,63.7z M388.3,63c0.1,0.5,0.6,0.8,1.1,0.8c0.6,0,1-0.3,0.9-0.9c-0.1-0.6-0.6-0.8-1.1-0.7
			C388.7,62.1,388.3,62.5,388.3,63L388.3,63z M354.8,27.9l0.2,0.2c0.7-0.4,1.4-0.9,2.1-1.3c1.5-1,1.5-1,1.9-1.7
			C357.4,26.2,356.1,27,354.8,27.9L354.8,27.9z M376,57.6c0.1-1.1-0.2-1.7-1.4-1.4c-0.2,0.5-0.2,1,0.1,1.4
			C375.1,57.8,375.6,57.8,376,57.6L376,57.6z M390.1,59.4h0.2v-7.8h-0.2V59.4z M368.9,19.4c-1.1,0.2-2.1,0.7-2.9,1.5
			C367.1,20.7,368.1,20.2,368.9,19.4z M365.8,104.6c-0.9-0.7-1.9-1.3-2.9-1.7C363.5,103.9,364.6,104.5,365.8,104.6L365.8,104.6z
			 M348.4,62c-1.1,0.7-1.1,0.8-0.2,1.7C348.7,63.3,348.7,62.6,348.4,62L348.4,62z M361.3,23.8c-0.8,0.2-1.4,0.7-1.9,1.4
			C360.2,24.9,360.8,24.4,361.3,23.8L361.3,23.8z M362.1,102.5c0.1,0.3,0.2,0.5,0.5,0.2c-0.1-0.2-0.3-0.3-0.4-0.2
			C362.2,102.5,362.2,102.5,362.1,102.5L362.1,102.5z M371.4,18.6c0.2,0.1,0.4,0.2,0.5-0.1C371.8,18.4,371.6,18.4,371.4,18.6
			L371.4,18.6z M389.9,50.7c0,0.1-0.1,0.2-0.1,0.2c0,0,0.1,0.1,0.1,0.1c0.1-0.1,0.1-0.1,0.1-0.2S390,50.8,389.9,50.7L389.9,50.7z
			 M348.5,35.3L348.5,35.3L348.5,35.3L348.5,35.3z M348.8,34.7L348.8,34.7L348.8,34.7L348.8,34.7z M389.5,50.5
			C389.4,50.5,389.4,50.4,389.5,50.5c-0.1-0.1-0.1-0.1-0.2,0C389.3,50.5,389.4,50.5,389.5,50.5C389.4,50.5,389.4,50.5,389.5,50.5
			L389.5,50.5z"/>
		<path id="Path_42007" class="st0" d="M392.9,77.1c3.4-0.2,3.4-0.2,3.4-3.6v-7.5c0.2-0.9,0-1.8-0.5-2.6c-0.1-0.2-0.1-0.4-0.1-0.7
			c1-1.9,0.4-4,0.5-6c0.1-2.9,0-5.8,0-8.8c-1.1,0-1.7,0.3-1.7,1.5c0.1,1.3,0,2.5,0,3.9h-1.8c0.9-1.9,0.5-3.9,0.1-5.9
			c-0.6-2.3-1.1-4.6-1.8-6.9c-0.6-1.8-1-3.6-1.1-5.5c-0.1-3.6,0-7.2-0.1-10.8c0-1.3-0.2-2.6-0.3-3.9h-2.3c-0.1-0.9,0.5-0.9,1.2-0.9
			c1.1,0.1,1.6-0.5,1.8-1.7h-12.6v-0.4c3.7,0,7.3,0,11,0c1.3,0,2.4,0.1,3.3-1.3c0.5-0.8,1.4-0.7,2.2,0.1c0.6,0.7,1.2,1.6,2.4,1.1
			c0.2-0.9,0.2-1.8,0-2.6c-1.1-0.5-2.4,0.2-3.4-0.5c0.2-1.5,0.8-2.9,1.5-4.3c0.4-0.7,0.7-1.3,1.6-1.5c0.5-0.1,0.6-0.5,0.6-0.9
			c0-0.9,0.6-1.7,1.5-2c-1.1,2.1,0,4.7-1.3,6.8c0.8,1.7,0.2,3.6,0.4,5.4c0.1,1,0.6,1.1,1.3,1.1c2.7,0,5.4,0,8.2,0
			c0.7-0.1,1.4,0.2,1.7,0.9c-3.5,1.3-7.2,0.6-10.8,0.7c-0.7,0-1.4,0-2.2,0.2c0.2,4.6,0.3,9.2,0.5,13.8c0.1,1.3,0.5,2.5,1.1,3.6
			c2.2,5.2,3.7,10.6,2.9,16.1c-1.1,7.7-0.4,15.5-0.6,23.2c-0.1,3-1.3,5.6-2.2,8.4c-1.2,3.4-1.7,7-1.6,10.7c0.2,2.8,0.2,5.5-0.1,8.3
			c-0.5,0.5-0.7,1,0.1,1.4c0.2,0,0.4,0,0.5,0.1c0.6,0.7,1.1,0.6,1.7,0c3.6,0.2,7.2-0.5,10.7,0.7c-0.2,0.7-0.9,1.1-1.6,0.9
			c-1.9-0.1-3.8,0-5.7,0c-3.9,0-3.9,0-3.9,3.9c0,1,0.3,2-0.7,2.9c1,0,0.9,0.6,0.9,1.2c0,1.4,0,2.8,0,4.2c0,0.5,0.2,1.1-0.3,1.5
			c-0.2-0.4-0.6-0.8-0.5-1.3c0.2-1-0.4-2-1.3-2.4c-1.2-0.7-1.7-2.4-2.1-3.9c0.1-0.5,0.1-1.1,0.1-1.6c0.7-0.2,1.4-0.3,2.1-0.2
			c0.8,0,1.1-0.3,1.1-1.1c-0.1-1-0.1-2.1,0-3.1c0.1-0.3-0.1-0.7-0.4-0.8c-0.4-0.1-0.5,0.2-0.8,0.4c-0.7,0.7-0.5,1.7-1.2,2.4
			c-1.1,1.3-1.6,1.4-2.9,0.1c-0.2-0.2-0.5-0.4-0.6-0.7c-0.7-1.7-2.2-2.3-3.8-2.6c-0.4-0.1-0.9,0.1-0.8-0.6c0.4,0,0.8,0,1.2,0
			c1.9,0,1.9,0,1.9-1.9c0-3.6-0.1-7.2-0.1-10.7c0-4,0.8-8,2.4-11.6C392.4,80.1,392.9,78.6,392.9,77.1z M396.5,18.9
			c0.2-0.4,0.2-0.9,0-1.4c-0.4,0-0.8-0.1-1,0.4C395.6,18.5,395.7,18.9,396.5,18.9L396.5,18.9z"/>
		<path id="Path_42008" class="st0" d="M320.8,94.3c0-0.3,0.1-0.6,0.4-0.6c0.9,0.1,1-0.5,1.2-1.2c0.1,0.4,0.1,0.8,0.2,1.3
			c0.6,0.1,1.3,0.4,1.7-0.3c1.3-1.9,3.2-1.4,4.9-1.3c0.6,0.1,1.3,0,1.9-0.2c0-0.6-0.7-0.6-0.9-1c1.6-0.3,2,0.7,2.2,2.4
			c1.9,0.1,3.7,0.2,5.6,0.3c0.4,0,0.9-0.1,1.2,0c1.6,0.6,2.4-0.3,3.2-1.5c0.7-1.1,1.6-2.2,2.6-3.1l0,0l0.3-0.3l0,0
			c0.7,0,1.5-0.3,1.9,0.5l-0.1,0.1c-1-0.3-2,0.2-2.3,1.1c-0.5,1.2-1.1,2.5-1.6,3.8c0.7,0.2,1.4,0.4,2,0.7c2.3,0.9,4.2,2.5,5.3,4.7
			c-1.2-0.1-1.6-1.1-2.3-1.8c-2.5-2.4-4.8-2.6-7.7-0.8c-3.6,2.2-5.1,5.6-5.2,9.6c-0.1,3.1,2.8,6.5,5.7,7.2c2.4,0.6,4.9,0.1,6.9-1.4
			c0.9-0.6,1.7-1.2,2.6-1.9c0.7-0.6,2.1-1.4,1.7-2.7c-0.3-1.1-0.4-2.2-0.7-3.3c-0.5-1.6-0.9-3.3-1-5c0.8-0.1,0.7,1,1.5,0.9
			c0.2-1.5,0.4-2.9-0.8-4.2c-0.5-0.5-0.7-1.1-0.8-1.8c0,0,0.1-0.1,0.1-0.1c0.8,0.9,1.8,1.6,2.9,2.1c-0.3,1.5-0.1,2.9-0.4,4.3v-2.9
			c0,1.8-0.9,3.7,0.4,5.4c1.6,2,3.2,4,5.6,5.2c0.8,0.4,0.8,0.5,0.7,1.2c-2-0.4-3.5-1.8-5.2-2.7c-1.4,1.5-2.7,3-3.9,4.6
			c-0.4-0.1-0.4,0-0.2,0.3c-1.4,1.7-3.3,2.8-5.5,3.1c-2.3,0.3-4.7,0.1-6.9-0.6c-2.4-1.5-4.1-3.9-4.7-6.7c-0.1-1.1-0.3-2.2-0.6-3.3
			c0.3-2.8,0.3-5.7-0.1-8.5c-0.1-1-0.3-1.9-1.7-1.5v1.2c-0.1,0-0.2-0.1-0.4-0.2c-1.2-2-1.3-2-3.6-1.4c-0.4,0.1-0.8,0.2-0.8,0.7
			c0,1.3-0.3,2.6,0.6,3.8c-0.4,0.4-0.7,0.9-0.7,1.5c-0.9,0.1-1.8-0.4-2.1-1.2c-0.1-0.7-0.2-1.4-0.4-2.1
			C323.2,94.3,323.2,94.3,320.8,94.3L320.8,94.3z"/>
		<path id="Path_42009" class="st1" d="M397.4,121c0.6-0.4,0.3-1,0.3-1.5c0-1.4,0-2.8,0-4.2c0-0.5,0.1-1.2-0.9-1.2
			c1-0.9,0.7-1.9,0.7-2.9c0-3.9,0-3.9,3.9-3.9c1.9,0,3.8,0,5.7,0c0.7,0.1,1.4-0.3,1.6-0.9c0.5,1.6,0.6,3.3,0.4,5
			c0,0.2-0.2,0.3-0.3,0.3c0,0,0,0,0,0c-0.4-0.2-0.4-0.9-1-0.9c-0.1-1-1-1-1.6-1.1c-1.9-0.1-3.8-0.1-5.7,0c-0.8,0.1-1.8,0.1-2,1.2
			c-1,0.7-0.8,1.6-0.5,2.5c0.5-0.7,0.2-1.6,0.7-2.3c0.5-0.2,0.8-0.7,1.4-0.7c2.6-0.1,5.2-0.6,7.8,0.4c0.3,0.9,0.6,1.9,0.8,2.8
			c0.2,1.3,0.3,2.7,0.2,4.1c-0.1,2.8-3.2,5.9-6,5.9c-1.8,0-3.6,0.2-4.9-1.4C397.7,121.8,397.3,121.5,397.4,121z M400.7,115.5
			c-0.1,1.4,0.9,2.6,2.3,2.7c0,0,0.1,0,0.1,0c1.3,0,2.4-0.9,2.6-2.2c0-1.6-1.1-3.1-2.3-3.1c-1.4-0.1-2.6,0.9-2.7,2.3
			C400.6,115.3,400.6,115.4,400.7,115.5z"/>
		<path id="Path_42010" class="st1" d="M408.6,19.3c-0.3-0.6-1-1-1.7-0.9c-2.7,0-5.4,0-8.2,0c-0.8,0-1.3-0.1-1.3-1.1
			c-0.1-1.8,0.5-3.7-0.4-5.4c1.3-2.1,0.2-4.6,1.3-6.8c1.7-2.7,5.1-3.9,8.1-2.9c1.5,0.5,2.4,1.9,2.4,3.5c0,2.5-0.1,5,0.1,7.5
			c0.3,1.8,0.2,3.7-0.1,5.5C408.9,19,408.9,19.2,408.6,19.3z M403.2,12.8c1.2,0,2.5-1.7,2.5-3.1c-0.2-1.4-1.5-2.3-2.9-2.1
			c-1.3,0.2-2.2,1.4-2.1,2.7c-0.1,1.3,0.9,2.4,2.2,2.5C402.9,12.8,403,12.8,403.2,12.8L403.2,12.8z M407.9,14.9
			c-1.8,0.9-3.5,0.5-5.1,0.6c-3.7,0.1-3.7,0-4.8-3.2c-0.6,1.2-0.1,2.8,1.1,3.4c0.3,0.1,0.5,0.2,0.8,0.3c2.1,0.1,4.2,0.1,6.2,0
			C406.9,16,407.6,15.6,407.9,14.9L407.9,14.9z M403,6.3c0.8,0,1.4-0.2,1.4-1c0-0.7-0.6-1-1.2-1c-0.6-0.1-1.1,0.3-1.2,0.9
			c0,0,0,0,0,0.1C402,6,402.5,6.3,403,6.3L403,6.3z"/>
		<path id="Path_42011" class="st0" d="M267.9,114.5c0.2-0.4,0.7-0.4,1.1-0.4h9.5c0.4,0,0.8-0.1,1.1,0.4l-0.2,0.4
			c-0.2,0.1-0.3,0.3-0.3,0.5c0.1,2.8-0.1,5.6,0.1,8.3c-0.3,1.3-1.5,2.3-2.9,2.3c-1.2,0-2.3,0-3.5,0c-1.6,0.1-3.1-1.1-3.3-2.8
			c-0.2-1.6-0.6-3.1-1.2-4.6C267.7,117.5,267.9,115.9,267.9,114.5z M274.4,117.6c-1.4,0-2.6,1.1-2.7,2.5c0,1.4,1.1,2.6,2.5,2.7l0,0
			c1.4,0,2.6-1.1,2.7-2.5C277,118.8,275.9,117.7,274.4,117.6C274.4,117.6,274.4,117.6,274.4,117.6L274.4,117.6z"/>
		<path id="Path_42012" class="st0" d="M301.8,16.2c-0.2,0.8-1.1,1-1.6,1.6c-0.4,0.5-1.4,0.8-1,1.7c0.2,0.6,0.9,1,1.5,0.8
			c0.2-0.1,0.3-0.1,0.5-0.3c-0.1,0.4-0.3,0.8-0.6,1c-0.6,0.4-1.3,0.8-0.5,1.7c0.3,0.6,0.1,1.3-0.4,1.6c-0.5,0.4-1.1,0.4-1.6,0
			c-0.8-0.5-1.6-0.8-2.5-1.1c-2-0.8-2.1-1.1-1-2.9c-1.1-0.5-1.7-1.6-2.8-2c1.9,0.1,2.9-1.5,4.4-2.1c1-0.5,1.9-1.2,2.8-1.9
			C299.9,14.8,300.3,16.3,301.8,16.2z"/>
		<path id="Path_42013" class="st0" d="M291.9,107.6c0.6-0.9,1.6-1.6,2.6-1.9c0.1-0.5-0.4-0.6-0.6-1c-0.3-0.5-0.2-1.2,0.3-1.5
			c0,0,0.1-0.1,0.2-0.1c1.3-0.6,2.6-1.2,3.9-1.7c1.3-0.4,1.5,0.7,1.9,1.7c-1.2,0.7-0.5,1.2,0.2,1.7c0.7,0.6,1.6,0.8,2.1,1.8
			c-0.8,0-1.2-0.6-1.8-0.9c-0.5-0.2-0.9-0.4-1.3,0.1c-0.4,0.4-0.5,1.1-0.1,1.6c0.6,1,2,1,2.4,2.2c-1.5,0-1.9,1.3-2.8,2.1
			c-0.3-0.2-0.7-0.4-1-0.6c0-0.3-0.3-0.5-0.6-0.5c-0.2-0.1-0.3-0.2-0.5-0.3c-0.4-0.7,0.7-0.5,0.6-1c-0.7-1.4-1.1,0.4-1.7,0.2
			C294.4,109,293.4,107.7,291.9,107.6z"/>
		<path id="Path_42014" class="st0" d="M108,21.5c4.9-0.4,9.8-1.2,14.7-2.3c-0.7-1.2-0.7-2.4-1.1-3.5c-0.9-2.4-2.8-4-4.4-5.8
			c-0.2-0.2-0.5-0.4-0.7-0.7c-0.7-1.3-2.4-1.9-3.8-1.3c-0.3,0.1-0.5,0.1-0.8,0.1c1.3-1.1,3.7-1.2,4.8,0c1.8,2,4,3.7,5.5,5.9
			c0.7,1.3,1.3,2.7,1.8,4.1c0.2,0.5,0.4,1.1,1.1,1.2c-0.2,0.8-1,0.6-1.6,0.7c-6.6,1.1-13.2,2.5-19.9,3.3c-0.7,0.1-1.5,0.8-2.2-0.1
			c1.8-0.1,3.5-0.4,5.3-0.8C107.2,22.2,107.7,21.9,108,21.5z"/>
		<path id="Path_42015" class="st0" d="M331.2,31.5c-0.3,0.5-0.8,0.7-1,1.3c-0.2,0.5-0.7,0.9-1.3,0.9c-1.6-0.1-3.3,0.1-4.6-1.3
			c-0.7-0.8-1.4-0.5-2,0.6c-0.2-0.5-0.4-1-1.1-1c-0.4,0-0.6-0.1-0.6-0.5c0.1,0,0.1-0.1,0.2-0.1c0.6,0,1.3,0,1.9,0
			c0.4,0.1,0.8-0.2,0.8-0.6c0,0,0-0.1,0-0.1c0.2-1.2,0.4-2.5,0.5-3.7c0.2-0.7,0.9-1.3,1.6-1.3c0.8-0.1,0.5,0.9,0.9,1.3
			c-0.4,1.3-0.6,2.7-0.6,4c0,0.8,0.2,1.1,1.1,1.2c3.2,0.4,2.5,0.6,3.7-2c0-0.1,0.1-0.1,0.2-0.2C331,30.6,330.8,31.1,331.2,31.5z"/>
		<path id="Path_42017" class="st0" d="M203.9,120.7c-0.7-0.7-0.2-1.6-0.3-2.4c-0.1-0.7,0-1.3,0-2.1h-13.5c-0.3,2,0.2,4.1-0.5,6
			c0,0.2,0,0.3-0.1,0.5c-0.6,0-0.6-0.4-0.6-0.8v-5c0-1.3,0.5-1.7,1.9-1.8c2.2-0.1,4.4,0.7,6.6,0.5c1.8-0.2,3.6-0.3,5.4-0.2
			c0.6,0,1.2-0.1,1.4,0.7c-0.6,1-0.1,2.2-0.3,3.3C203.9,119.6,203.9,120.2,203.9,120.7z"/>
		<path id="Path_42018" class="st0" d="M204.2,10c0,0.6-0.4,0.6-0.8,0.6c-4.6,0-9.3,0-13.9,0c-0.2,0-0.3-0.1-0.4-0.1
			c0.7-1.7,0.1-3.5,0.5-5.2c0.4,1.4,0.1,2.9,0.3,4.4h13.5c0.2-1.1,0.2-2.1,0.1-3.2c0-0.5-0.2-1,0.4-1.3
			C204.3,6.7,203.7,8.4,204.2,10z"/>
		<path id="Path_42019" class="st0" d="M27,107.2c0.3-1.5,0.5-3,0.5-4.5c-0.1-1.8,0-1.7-1.8-1.9c-0.8-0.1-1.7,0.7-2,0.4
			c-0.9-0.6-1.9-0.2-2.8-0.4c-0.2,0-0.4,0-0.5,0c-0.1,0-0.1,0-0.2-0.1c1.4-0.6,2.8-0.2,4.3-0.2c2.2-0.2,4.3-0.2,6.5,0
			c0.1,0.7-0.2,1.4-0.8,1.8c-0.6,0.5-1,1.3-1.2,2C28.5,105.5,28.2,106.6,27,107.2z"/>
		<path id="Path_42020" class="st0" d="M31,25.3h-6.2c0.1-0.5,0.4-0.4,0.7-0.3c2.4,0.1,2-0.1,2.1-2.2c0-1.4-0.2-2.8-0.5-4.1
			c1,0.3,1.4,1.2,1.7,2.1c0.4,1.1,0.7,2.3,1.8,3.1C31,24.2,31.1,24.7,31,25.3z"/>
		<path id="Path_42021" class="st0" d="M44.7,104.9c0.8-1.7,0.2-3.6,0.7-5.4c0.1-0.8,0.7-1.5,1.6-1.8c-0.3,1.4-0.4,2.7,0.6,3.7v1.1
			c-0.2,0.2-0.4,0.3-0.1,0.5c0.1,1.3-0.9,1.9-1.6,2.6C45.3,106.1,44.7,105.8,44.7,104.9z"/>
		<path id="Path_42022" class="st0" d="M312.9,24.5v5.4c-0.7,0.2-1.5-0.1-2-0.8c0.2-1.3,0.3-2.6,0.4-3.9c0.1-0.6-0.2-1.5,0.8-1.8
			C312.7,23.5,312.4,24.3,312.9,24.5z"/>
		<path id="Path_42023" class="st0" d="M4,25.2c-0.5,0.5-1.3,0.6-1.9,0.2c-0.6-0.3-0.2-1-0.1-1.6c0.4-1.8,0.7-3.6,1-5.4
			c0.6,0.1,1.3,0.2,1.9,0.3c-0.7,0.4-1.1,0.7-0.8,1.5c-0.2,1.1-0.2,2.3,0,3.4C4.1,24.2,4,24.7,4,25.2z"/>
		<path id="Path_42024" class="st0" d="M3,107.3c-0.3-1.8-0.7-3.6-0.9-5.4c-0.1-0.5-0.6-1.2,0-1.6c0.6-0.3,1.4-0.3,1.9,0.2
			c0,0.4,0.1,0.8,0.1,1.2c-0.2,1.3-0.2,2.7,0,4c0,0.2,0,0.4,0,0.6c-0.1,0.3-0.1,0.6-0.2,0.9C3.5,107.3,3.3,107.3,3,107.3z"/>
		<path id="Path_42025" class="st1" d="M332.8,104.3c0.3,1.1,0.5,2.2,0.6,3.3c0.5,2.8,2.2,5.2,4.7,6.7c-1.7-0.1-2.7-1.3-3.6-2.5
			C332.9,109.6,332.3,106.9,332.8,104.3z"/>
		<path id="Path_42026" class="st0" d="M311.1,96.8c0.2-0.8,0.8-0.8,1.6-0.9v5.5c-0.1,0.1-0.1,0.3-0.2,0.4c-0.2,0.1-0.4,0.3-0.5,0.5
			c-1-0.5-0.7-1.5-0.8-2.4c0.2-0.6,0.2-1.3-0.1-1.9C311.2,97.6,311.2,97.2,311.1,96.8z"/>
		<path id="Path_42027" class="st0" d="M13.1,100.7c0.2-0.6,0.7-0.4,1-0.4c1.4-0.1,2.8,0,4.1,0.4C16.6,101.2,14.8,101.2,13.1,100.7z
			"/>
		<path id="Path_42028" class="st0" d="M100.6,23.3c-0.1,0.4-2.3,2-2.5,1.8c-0.4-0.4-1-0.6-0.9-1.4C98.3,24.1,99.4,23.3,100.6,23.3z
			"/>
		<path id="Path_42029" class="st0" d="M18.3,25c-1.9,0.5-3.9,0.2-5.9,0.3C14.3,24.6,16.3,24.5,18.3,25z"/>
		<path id="Path_42030" class="st0" d="M82.3,25c0,0.2,0,0.4-0.2,0.4c-2-0.3-4,0.2-6-0.4L76,25c-0.1-0.6,0.4-0.7,0.9-0.8
			c0.2,0.3,0.5,0.5,0.8,0.5C79.3,24.8,80.8,24.9,82.3,25z"/>
		<path id="Path_42031" class="st0" d="M351.9,16.3c-1-0.2-1.5-1-2.1-1.7c-0.3-0.4-0.5-1,0.4-1C351,14.4,351.5,15.3,351.9,16.3z"/>
		<path id="Path_42032" class="st1" d="M4.1,105.8c-0.2-1.3-0.1-2.7,0-4C4.5,103.1,4.5,104.5,4.1,105.8z"/>
		<path id="Path_42033" class="st1" d="M4.1,23.6c-0.2-1.1-0.2-2.3,0-3.4C4.5,21.4,4.5,22.5,4.1,23.6z"/>
		<path id="Path_42034" class="st1" d="M295.7,109.5c0.6,0.1,1-1.6,1.7-0.2c0.1,0.5-0.9,0.4-0.6,1
			C296.4,110.3,295.9,110,295.7,109.5z"/>
		<path id="Path_42035" class="st0" d="M407.8,110.9c0.6,0,0.6,0.6,1,0.9c0,0.6,0.3,1.3-0.1,1.9
			C408.3,112.7,408.1,111.8,407.8,110.9z"/>
		<path id="Path_42036" class="st0" d="M20.4,24.9c1.2-0.1,2.5,0.3,3.7-0.6c-0.3,1-2.2,1.3-3.9,0.7C20.3,25,20.3,25,20.4,24.9z"/>
		<path id="Path_42037" class="st1" d="M311.2,98.1c0.3,0.6,0.3,1.3,0.1,1.9C311.1,99.4,311,98.7,311.2,98.1z"/>
		<path id="Path_42038" class="st0" d="M40.9,100.8c1.1-0.5,2.4-0.5,3.5,0.1L40.9,100.8z"/>
		<path id="Path_42039" class="st1" d="M398,105.8c-0.3,0.5-0.9,0.6-1.3,0.4c-0.2-0.1-0.3-0.2-0.4-0.4H398z"/>
		<path id="Path_42040" class="st1" d="M3.8,107.3c0.1-0.3,0.1-0.6,0.2-0.9c0.3,0.2,0.8,0,1.1,0.6C4.7,107.1,4.2,107.2,3.8,107.3z"
			/>
		<path id="Path_42041" class="st1" d="M395.8,105.7c-0.8-0.4-0.6-0.9-0.1-1.4C395.7,104.8,395.7,105.2,395.8,105.7z"/>
		<path id="Path_42042" class="st1" d="M297.4,110.6c0.3,0,0.5,0.2,0.6,0.5C297.7,111.1,297.5,110.9,297.4,110.6z"/>
		<path id="Path_42043" class="st1" d="M47.5,103c-0.3-0.2-0.2-0.4,0.1-0.5C47.7,102.5,47.7,102.8,47.5,103
			C47.6,102.9,47.5,102.9,47.5,103z"/>
		<path id="Path_42044" class="st1" d="M312.1,102.3c0.1-0.2,0.2-0.4,0.5-0.5C312.6,102.2,312.6,102.5,312.1,102.3z"/>
		<path id="Path_42045" class="st1" d="M339.9,11.1c-0.2,0.2-0.3,0.3-0.5,0.1C339.5,10.9,339.7,10.9,339.9,11.1z"/>
		<path id="Path_42046" class="st0" d="M361.4,15.6c0,0.4-0.2,0.5-0.6,0.4C360.8,15.5,361.2,15.6,361.4,15.6z"/>
		<path id="Path_42047" class="st0" d="M39.8,100.8c0.2-0.4,0.4-0.4,0.5,0C40.2,100.8,40,100.8,39.8,100.8z"/>
		<path id="Path_42048" class="st0" d="M52,17.9c0.3,0.2,0.1,0.3-0.1,0.3C52,18.1,52,18,52,17.9z"/>
		<path id="Path_42049" class="st0" d="M2.5,18.5c0,0.1,0,0.2-0.1,0.2c-0.2,0.1-0.2,0-0.2-0.2C2.3,18.5,2.4,18.4,2.5,18.5z"/>
		<path id="Path_42050" class="st0" d="M2.2,107.3c0-0.1,0.1-0.2,0.2-0.2c0,0,0,0.1,0.1,0.2H2.3L2.2,107.3z"/>
		<g id="Group_40977" transform="translate(176.873 18.681)">
			<path id="Path_42053" class="st1" d="M6.3,86.4"/>
		</g>
		<path id="Path_42054" class="st1" d="M319.9,86.5c1.3-1.8,2.7-3.5,4-5.3c0.5-0.8,1.4-1.5,2.3-1.8c0.3,0.6,0.6,0.7,1.2,0.3
			c0.7-0.5,1.4-1,2.1-1.4c0.7,0.7,1.3,1.4,2,0c0.1-0.3,0.4-0.4,0.6-0.4c0.8,0,1.6-0.2,2.2-0.8c0.6-0.4,1.1-0.5,1.1,0.5
			c1.4-0.2-0.4-2,1.3-2c0.3,1.3,0.2,2.7-0.2,4c-0.3,0.9-1.5,1-2.3,1.3c-2.3,1-4.6,1.9-6.9,2.8c-0.6,0.1-1,0.7-1,1.3
			c2.8-0.9,5.1-2.8,8.1-2.5c0.2,0.5-0.1,1-0.1,1.5c-0.2,0.3-0.6,0.3-0.9,0.5c-1.3,0.7-2.7,1.1-3.7,2.3c-1.5-0.2-2.9,0.2-4.4,0.2
			C323.6,86.9,321.8,86.7,319.9,86.5z"/>
		<path id="Path_42055" class="st1" d="M326,46c-2-0.5-2.5-2.5-3.7-3.7c-0.7-0.9-1.4-1.8-2-2.8c0.4-0.4,0.9-0.3,1.4-0.3
			c2.7,0,5.5,0,8.2,0c0.9,0.9,2,1.7,3.2,2.1c1.5,0.5,2.9,1.1,4.2,1.9c-0.7,0.3-0.1,1.1-0.7,1.6c-3.5-0.9-6.7-2.7-10.2-3.9
			c-0.1,1.1,0.7,1.2,1.3,1.4c2.7,1.1,5.3,2.2,8,3.3c0.6,0.2,1.2,0.3,0.7,1.4c0.3-0.1,0.5-0.3,0.8-0.4c0.4-0.4,0.6-1.3,1.4-0.6
			c0.4,0.9,0.3,1.9-0.1,2.7c-0.1,0.1-0.3,0.1-0.5,0.1c-0.9-0.8-1.1,0.2-1.7,0.6c-0.2-0.7-0.3-1.3-1.3-1.2c-0.5,0.1-1.2-0.8-1.8-1.3
			c-0.8-0.7-1.7-1.2-2.6-1.7c-1.5-0.7-2.1-0.2-1.9,1.5c-0.6-0.4-1.1-0.8-1.7-1.2C326.2,45,326.1,45.5,326,46z"/>
		<path id="Path_42057" class="st1" d="M293.9,29.3c-0.5,0-0.6,0.3-0.7,0.7c-0.2,1.3-0.3,2.5-0.1,3.8c0.1,0.7-0.1,1.2-0.8,1.2
			s-0.7-0.6-0.6-1.1c0.4-1.8-0.3-3.7,0.5-5.4c1.8-0.4,3.4-0.4,4.7,1.3c-0.7-0.1-1.4-0.4-1.9-0.7C294.6,28.8,294,28.3,293.9,29.3z"/>
		<path id="Path_42058" class="st1" d="M339.1,76.2c-0.6-3.2-0.8-6.4,0.4-9.9v9.8C339.4,76.2,339.3,76.3,339.1,76.2z"/>
		<path id="Path_42059" class="st1" d="M339.4,59.3c-0.8-2.1-0.8-4.5,0-6.6V59.3z"/>
		<path id="Path_42060" class="st1" d="M85.6,90.9c-0.8,0.9-3.3,1.1-5.1,0.5C82.2,90.7,83.9,91,85.6,90.9z"/>
		<path id="Path_42062" class="st1" d="M148.3,101.8c-1.4,0.3-2.9,0.1-4.3-0.5C145.5,101.1,147,101.2,148.3,101.8z"/>
		<path id="Path_42063" class="st1" d="M3.7,38.2c-0.4-0.8-0.4-1.6-0.1-2.4C4,36.6,4,37.5,3.7,38.2z"/>
		<path id="Path_42064" class="st1" d="M187.5,21.2h-4v-0.1h4V21.2z"/>
		<path id="Path_42065" class="st1" d="M3.6,89.7c-0.3-0.6-0.3-1.3-0.1-1.9C3.8,88.4,3.9,89.1,3.6,89.7z"/>
		<path id="Path_42066" class="st1" d="M347.3,89.3c-0.5-0.8-1.3-0.5-1.9-0.5c1-0.4,1.8-0.5,2.5,0.5l0,0
			C347.6,89.3,347.5,89.3,347.3,89.3z"/>
		<path id="Path_42067" class="st1" d="M143.4,101.2c-0.5,0.2-1.1,0.4-1.4-0.3C142.5,100.8,143,100.6,143.4,101.2z"/>
		<path id="Path_42068" class="st1" d="M80.4,90.8c-0.9-0.5-0.7-1,0-1.4C80.9,89.9,80.2,90.3,80.4,90.8z"/>
		<path id="Path_42069" class="st1" d="M338,39.5c-0.1-0.2-0.2-0.5-0.3-0.8C338.2,38.8,338.2,39.1,338,39.5z"/>
		<path id="Path_42070" class="st1" d="M329.1,47.1c0-0.1,0.1-0.2,0.1-0.2c0.1,0,0.2,0,0.2,0.1c0,0.1,0,0.2-0.1,0.2
			C329.3,47.2,329.2,47.2,329.1,47.1z"/>
		<path id="Path_42071" class="st1" d="M164.9,102.8c-0.2,0.1-0.3,0.1-0.4-0.1c0-0.2,0-0.4,0.2-0.4
			C164.9,102.3,164.9,102.6,164.9,102.8z"/>
		<path id="Path_42072" class="st1" d="M345.4,88.8l-0.3,0.3C345.2,89,345.3,88.9,345.4,88.8z"/>
		<path id="Path_42073" class="st0" d="M282.3,18.6L277,17c-3.5-1-7.1-1.7-10.7-2c-1,0-1.9-0.3-2.8-0.7c1,0.1,2,0.1,3.1,0.2
			C271.8,15,277,16.2,282,18c0.2,0.1,0.4,0.2,0.5,0.4C282.4,18.5,282.4,18.5,282.3,18.6z"/>
		<path id="Path_42074" class="st0" d="M339.7,36.1c-7.7,0.6-15.5,0.6-23.2-0.2C324.2,37,331.9,35.4,339.7,36.1z"/>
		<path id="Path_42075" class="st0" d="M106.8,28.1c4.7-0.4,9.3-0.9,14-1.3c0,0.1,0,0.2,0,0.3c-4.7,0.5-9.3,1.1-14,1.6
			C106.8,28.5,106.8,28.2,106.8,28.1z"/>
		<path id="Path_42076" class="st0" d="M282.5,18.4c3.2,1,6.2,2.4,9,4.4c-0.1,0-0.1,0.1-0.1,0.2c-2.3-0.9-4.3-2.3-6.6-3.1
			c-0.9-0.2-1.7-0.6-2.4-1.2C282.4,18.5,282.4,18.5,282.5,18.4z"/>
		<path id="Path_42077" class="st0" d="M76.1,25L76,26.9c0,2-0.3,2.3-2.3,2.2c-0.3,0-0.6-0.1-0.9-0.2c1.7-0.1,2.1-1.1,2.2-2.5
			C75.1,25.9,75,25,76.1,25L76.1,25z"/>
		<path id="Path_42078" class="st0" d="M294.9,24.7c0,0.9-0.5,0.5-0.8,0.3c-1-0.7-1.9-1.4-2.8-2.1c0.1,0,0.1-0.1,0.1-0.2
			c0.8,0.1,1.3,0.7,2,1c0.1-0.2,0.2-0.5,0.3-0.8c0.7,0.7,1.6,0.9,2.1,1.7l-0.2,0.2C295.4,24.8,295.2,24.8,294.9,24.7
			c-0.1-0.1-0.2-0.2-0.3-0.3c-0.1-0.2-0.1-0.3-0.4-0.2c0.1,0.1,0.1,0.1,0.1,0.1c0.1,0,0.2,0,0.2,0C294.8,24.5,294.8,24.6,294.9,24.7
			z"/>
		<path id="Path_42079" class="st0" d="M99.2,29.4c2.2-1,4.6-1.3,7-0.7C103.9,28.9,101.7,29.1,99.2,29.4z"/>
		<path id="Path_42080" class="st0" d="M305.6,31c-1.1-0.2-2.2-0.7-3.1-1.4c-0.9-0.5-1.7-1.1-2.5-1.8C302,28.5,303.9,29.6,305.6,31
			L305.6,31z"/>
		<path id="Path_42081" class="st0" d="M170.9,20.8c1.6-0.7,3.2-1.2,4.9-1.4c-1.5,0.8-3.1,1.4-4.8,1.6L170.9,20.8z"/>
		<path id="Path_42082" class="st0" d="M279.5,15.6c-0.4-0.5-0.5-1.2-0.2-1.7c0.7-0.2,1.1,0.1,1.2,0.6c0.1,0.5-0.2,1-0.7,1.1
			C279.6,15.6,279.6,15.6,279.5,15.6z"/>
		<path id="Path_42083" class="st0" d="M306.7,31.5c1,0.4,2,0.9,2.8,1.6c-0.1,0.1-0.1,0.1-0.2,0.2c-1.1-0.2-2-0.8-2.8-1.6
			C306.6,31.6,306.7,31.6,306.7,31.5z"/>
		<path id="Path_42084" class="st0" d="M164.4,22.2h-4.8V22h4.8V22.2z"/>
		<path id="Path_42085" class="st0" d="M312.8,34.6c-0.9,0.1-1.8-0.2-2.4-0.8C311.3,33.7,312.2,34,312.8,34.6z"/>
		<path id="Path_42086" class="st0" d="M297.5,26.6c-0.9,0.1-1.8-0.3-2.3-1.1C296.1,25.6,296.9,26,297.5,26.6z"/>
		<path id="Path_42087" class="st0" d="M171,21c-1.4,0.7-1.7,0.7-2.9,0c0.9,0.1,1.8,0,2.8-0.2C170.9,20.9,171,20.9,171,21z"/>
		<path id="Path_42088" class="st0" d="M123,26.6c0.6-0.4,1.4-0.5,2.1-0.4C124.6,26.7,124.6,26.7,123,26.6z"/>
		<path id="Path_42089" class="st0" d="M138.5,24.2c-0.3,0.3-0.7,0.5-1.1,0.5C137.6,24.1,137.9,23.9,138.5,24.2z"/>
		<path id="Path_42090" class="st0" d="M177.8,18.8c-0.4,0.4-1.1,0.5-1.6,0.4c0.4-0.4,0.9-0.6,1.5-0.5
			C177.7,18.7,177.8,18.8,177.8,18.8z"/>
		<path id="Path_42091" class="st0" d="M129.7,25.6c0.6-0.5,1.3-0.2,2-0.2C131.1,25.6,130.4,25.7,129.7,25.6z"/>
		<path id="Path_42092" class="st0" d="M293.6,20.6v1.7h-0.2v-1.7C293.5,20.6,293.5,20.6,293.6,20.6z"/>
		<path id="Path_42093" class="st0" d="M341.4,35.4c0.2,0,0.4,0.1,0.3,0.2c0,0.1-0.2,0.2-0.3,0.2c-0.1,0-0.2,0-0.2-0.1
			c0,0,0,0,0-0.1C341.2,35.5,341.3,35.5,341.4,35.4z"/>
		<path id="Path_42094" class="st0" d="M132.6,25.2c0.3-0.2,0.7-0.2,1,0C133.4,25.4,132.9,25.4,132.6,25.2z"/>
		<path id="Path_42095" class="st0" d="M129.1,25.7c-0.3,0.3-0.5,0.2-0.8,0.1C128.5,25.5,128.8,25.5,129.1,25.7z"/>
		<path id="Path_42096" class="st0" d="M136.2,24.6c0.1-0.2,0.3-0.1,0.4-0.1C136.6,24.8,136.4,24.7,136.2,24.6z"/>
		<path id="Path_42097" class="st0" d="M300.5,22.7c0-0.1-0.1-0.2-0.1-0.2s0.1-0.1,0.2-0.1c0,0.1,0.1,0.2,0.1,0.2
			C300.7,22.6,300.6,22.7,300.5,22.7z"/>
		<path id="Path_42098" class="st0" d="M144.6,23.3c0,0-0.1,0-0.1,0.1c0,0,0-0.1-0.1-0.1C144.4,23.2,144.5,23.2,144.6,23.3
			C144.5,23.2,144.6,23.2,144.6,23.3z"/>
		<path id="Path_42099" class="st0" d="M306.6,31.7c-0.2-0.1-0.4-0.2-0.5-0.3c0.1-0.1,0.1-0.1,0.2-0.2c0.2,0.1,0.4,0.2,0.5,0.3
			C306.7,31.5,306.6,31.6,306.6,31.7z"/>
		<path id="Path_42100" class="st0" d="M306,31.4c-0.2-0.1-0.4-0.1-0.5-0.4l0,0c0.2-0.1,0.5,0,0.6,0.2
			C306.1,31.3,306.1,31.3,306,31.4z"/>
		<path id="Path_42101" class="st0" d="M331.8,34.3c-0.1,0.1-0.3,0.3-0.4,0.2c-0.1-0.2,0.2-0.2,0.3-0.3L331.8,34.3z"/>
		<path id="Path_42102" class="st0" d="M309.5,33.1c0.1,0.1,0.4,0.1,0.2,0.4c-0.1,0.2-0.3,0-0.4-0.1
			C309.4,33.2,309.4,33.1,309.5,33.1z"/>
		<path id="Path_42103" class="st0" d="M129.8,25.6l-0.1,0.1c0,0,0-0.1,0-0.1C129.7,25.6,129.7,25.6,129.8,25.6L129.8,25.6z"/>
		<path id="Path_42104" class="st0" d="M295.8,24.7c0.1,0.1,0.2,0.2,0,0.3c0,0-0.1-0.1-0.2-0.1C295.7,24.7,295.8,24.7,295.8,24.7z"
			/>
		<path id="Path_42105" class="st0" d="M393.6,76.8c0.2-2.9-0.5-5.8,0.2-8.9c2,2.3,1.3,4.7,1.3,7C395.2,75.8,394.2,76.1,393.6,76.8z
			"/>
		<path id="Path_42106" class="st0" d="M380.4,63.7c-0.4,0.4-0.8,0.2-1.3,0.3c-1.9,0.1-3.3,1.6-3.3,3.5c0,1.3,0.1,2.6,0,3.9
			c-0.1,1.4-0.1,2.6,1.7,2.9c-2,0.4-2.4,0-2.4-2c0-1.8,0-3.5,0-5.3C375.2,64.7,378.2,62.8,380.4,63.7z"/>
		<path id="Path_42107" class="st0" d="M387.8,65.1c-1.2-0.7-2.4-1.2-3.8-1.4c0-0.3,0.1-0.6,0.4-0.6c1.8,0,2.9-1.3,4.1-2.3
			c0.4-0.4,1-0.6,1.6-0.5c-1.4,1.3-2.9,2-4,3.3c0.4,0.5,1,0.5,1.4,0.7C388,64.5,388.3,64.7,387.8,65.1z"/>
		<path id="Path_42108" class="st0" d="M348.4,90.1c0.4-0.1-0.1-0.5,0.3-0.7c0.7,0.7,1.7,1.2,0.9,2.6c-0.3,0.6,0.8,1.2,0.7,1.9
			c0,0-0.1,0.1-0.1,0.1c-1.1-0.6-1.7-1.9-1.4-3.1c0.2-0.8-0.5-0.4-0.5-0.7C348.3,90.2,348.4,90.1,348.4,90.1z"/>
		<path id="Path_42109" class="st0" d="M354.8,27.9c1.3-0.9,2.6-1.8,4.1-2.8c-0.4,0.8-0.4,0.8-1.9,1.7c-0.7,0.4-1.4,0.9-2.1,1.3
			C354.9,28.1,354.8,28,354.8,27.9z"/>
		<path id="Path_42110" class="st0" d="M376.7,17.6c-1.4,0.3-2.8,0.6-4.2,0.8C373.7,17.7,375.2,17.4,376.7,17.6z"/>
		<ellipse id="Ellipse_37" class="st0" cx="390.2" cy="55.5" rx="0.1" ry="5.5"/>
		<path id="Path_42111" class="st0" d="M383,68.9c-0.8,0.1-1.6,0.4-2.2-0.5c-0.2-1.1,0.8-0.6,1.3-1.1C382.1,68,382.4,68.6,383,68.9z
			"/>
		<path id="Path_42112" class="st0" d="M362.8,22.8c0.7-0.9,1.7-1.5,2.8-1.8C364.9,21.9,363.9,22.5,362.8,22.8z"/>
		<path id="Path_42113" class="st0" d="M368.9,19.4c-0.8,0.8-1.8,1.3-2.9,1.5C366.8,20.2,367.8,19.6,368.9,19.4z"/>
		<path id="Path_42114" class="st0" d="M365.8,104.6c-1.2-0.2-2.2-0.8-2.9-1.7C363.9,103.3,364.9,103.9,365.8,104.6z"/>
		<path id="Path_42115" class="st0" d="M361.3,23.8c-0.4,0.7-1.1,1.1-1.9,1.4C359.8,24.5,360.5,24,361.3,23.8z"/>
		<path id="Path_42116" class="st0" d="M362.8,22.8c-0.1,0.4-0.5,0.6-0.9,0.7C362,23,362.4,22.9,362.8,22.8z"/>
		<path id="Path_42117" class="st0" d="M362.1,102.6c0.1-0.1,0.4-0.1,0.5,0c0,0,0.1,0.1,0.1,0.1
			C362.4,103.1,362.2,102.9,362.1,102.6z"/>
		<path id="Path_42118" class="st0" d="M371.4,18.6c0.1-0.2,0.3-0.2,0.5-0.1c0,0,0,0,0.1,0C371.8,18.7,371.6,18.8,371.4,18.6
			C371.4,18.6,371.4,18.6,371.4,18.6z"/>
		<path id="Path_42119" class="st0" d="M389.9,50.7c0.1,0.1,0.1,0.1,0.1,0.2s-0.1,0.1-0.1,0.2c0,0-0.1-0.1-0.1-0.1
			C389.8,50.9,389.9,50.8,389.9,50.7z"/>
		<path id="Path_42120" class="st0" d="M380.8,63.7c-0.1,0-0.2,0-0.4,0c0.1-0.1,0.1-0.3,0.2-0.4C380.8,63.4,380.8,63.6,380.8,63.7z"
			/>
		<path id="Path_42121" class="st0" d="M350.3,93.9c0.1,0.2,0.2,0.4,0.3,0.5c0,0-0.1,0.1-0.1,0.1c-0.1-0.2-0.2-0.4-0.3-0.5
			C350.2,94,350.3,94,350.3,93.9z"/>
		<path id="Path_42122" class="st0" d="M347.3,89.3c0.2,0,0.4,0,0.5,0c0,0.1,0,0.1,0.1,0.2c-0.1,0-0.1,0.1-0.1,0.2L347.3,89.3
			L347.3,89.3z"/>
		<path id="Path_42123" class="st0" d="M348.2,89.8l0.3,0.3c-0.1,0-0.1,0.1-0.1,0.2L348,90C348.1,89.9,348.1,89.9,348.2,89.8z"/>
		<path id="Path_42124" class="st0" d="M376.7,17.6L376.7,17.6L376.7,17.6L376.7,17.6z"/>
		<path id="Path_42125" class="st0" d="M351.9,32.4C351.9,32.4,351.9,32.4,351.9,32.4C351.9,32.4,351.9,32.4,351.9,32.4z"/>
		<path id="Path_42126" class="st0" d="M348.5,35.3l0-0.1L348.5,35.3L348.5,35.3z"/>
		<path id="Path_42127" class="st0" d="M348.8,34.7L348.8,34.7L348.8,34.7L348.8,34.7z"/>
		<path id="Path_42128" class="st0" d="M381.1,64.1c-0.1-0.1-0.3-0.1-0.3-0.4C380.9,63.8,381,64,381.1,64.1z"/>
		<path id="Path_42129" class="st0" d="M348,35.8c0.1,0,0.2-0.1,0.3-0.1c0,0.1-0.1,0.2-0.1,0.3L348,35.8z"/>
		<path id="Path_42130" class="st0" d="M348.2,36c-0.1,0.1-0.2,0.2-0.3,0.3c-0.1-0.1-0.1-0.1-0.1-0.1l0.3-0.3
			C348,35.9,348.1,35.9,348.2,36z"/>
		<path id="Path_42131" class="st0" d="M389.5,50.5C389.4,50.5,389.4,50.5,389.5,50.5c-0.1,0.1-0.1,0-0.2,0
			C389.3,50.4,389.4,50.4,389.5,50.5C389.4,50.4,389.4,50.5,389.5,50.5z"/>
		<path id="Path_42132" class="st0" d="M347.9,89.5l0.3,0.3L348,90c-0.1-0.1-0.2-0.2-0.3-0.2C347.8,89.7,347.8,89.6,347.9,89.5z"/>
		<path id="Path_42133" class="st0" d="M168.1,104.8c0.4-0.6,1.2-0.9,2-0.6c2.6,0.9,5.3,1.7,8,2.6c1,0.3,2,0.5,3.1,0.5
			c3.4,0.1,6.7-0.3,10,0.3c1.6,0.3,3.3,0.6,4.9,0.9c0.3,0.1,0.6,0.2,0.8,0.8c-1.5-0.2-3-0.5-4.5-0.8c-1.5-0.4-3.1-0.5-4.7-0.5
			c-1,0-1.9,0-2.9,0c-4.5,0.5-8.7-1.1-12.8-2.5C170.7,104.9,169.4,104.7,168.1,104.8z"/>
		<path id="Path_42134" class="st0" d="M157.6,103.5c2.3-0.2,4.7,0,7.1,0c0,0.4-0.2,0.5-0.6,0.5c-2,0-3.9,0-5.9-0.1
			C157.9,104,157.6,103.9,157.6,103.5C157.6,103.6,157.6,103.6,157.6,103.5z"/>
		<path id="Path_42135" class="st0" d="M149.9,102.9c2,0.1,4.1,0.2,6.1,0.4c0.4,0,0.7-0.1,1,0.2c-0.4,0.4-0.8,0.3-1.3,0.3
			c-1.7-0.1-3.3-0.2-5-0.3C150.4,103.4,150,103.4,149.9,102.9z"/>
		<path id="Path_42136" class="st1" d="M87.3,96.7c0.4,0,0.7,0,1,0C87.9,97.5,87.6,97.5,87.3,96.7z"/>
		<path id="Path_42137" class="st1" d="M396.5,18.9c-0.8,0-1-0.5-1-1c0.2-0.4,0.7-0.4,1-0.4C396.7,18,396.7,18.5,396.5,18.9z"/>
		<path id="Path_42138" class="st0" d="M45.8,78c0.8-0.1,1.6-0.5,2.1,0.4C46.7,79.4,46.3,79.3,45.8,78z"/>
		<path id="Path_42139" class="st0" d="M341.3,90c-7.9,0.2-15.7-0.9-23.9,0c1.2-1.1,2.5-0.8,3.5-0.8c4.8,0.2,9.5,0.1,14.3,0.1
			C337.2,89.4,339.3,89.6,341.3,90z"/>
		<path id="Path_42140" class="st0" d="M263.4,111.5c5.3-1.1,10.8-1.3,15.9-3.1C274.3,110.3,268.9,111.4,263.4,111.5z"/>
		<path id="Path_42141" class="st0" d="M291.5,103c-1.4,1.1-3,2-4.7,2.6c-1.8,0.9-3.7,1.6-5.6,2.4c-0.1,0-0.2-0.1-0.4-0.2
			c3.6-1.6,7-3.4,10.5-5C291.3,102.9,291.4,103,291.5,103z"/>
		<path id="Path_42142" class="st0" d="M279.2,112.1c0.1-0.7-0.5-1.6,0.5-1.9c0.4-0.2,0.7,0.4,0.7,0.8
			C280.5,111.7,280.2,112.2,279.2,112.1z"/>
		<path id="Path_42143" class="st0" d="M314.7,90.5c-1.1,0.7-2.4,1.2-3.8,1.4C311.9,91,313.3,90.5,314.7,90.5z"/>
		<path id="Path_42144" class="st0" d="M302.4,96.7c-1,0.9-2.2,1.5-3.5,1.7c1-0.8,2.2-1.4,3.4-1.9C302.3,96.7,302.3,96.7,302.4,96.7
			z"/>
		<path id="Path_42145" class="st0" d="M306.2,94.6c-0.9,0.8-2.1,1.4-3.3,1.7c0.8-0.9,1.9-1.6,3.1-1.9
			C306,94.4,306.1,94.5,306.2,94.6z"/>
		<path id="Path_42146" class="st0" d="M308.9,92.9c-0.7,1-1.8,1.2-2.7,1.6c-0.1-0.1-0.1-0.1-0.2-0.2c0.7-0.8,1.7-1.3,2.8-1.6
			C308.8,92.8,308.8,92.9,308.9,92.9z"/>
		<path id="Path_42147" class="st0" d="M295.5,100.1c0.6-0.9,1.7-1.5,2.8-1.4C296.9,99.7,296.4,100,295.5,100.1z"/>
		<path id="Path_42148" class="st0" d="M291.3,102.9c0.7-0.7,1.5-1.3,2.5-1.7c0.1,0.1,0.1,0.2,0.2,0.2c0,0.1-0.1,0.3-0.1,0.4l0,0
			l-0.3,0.3l0,0c-0.8,0-1.3,0.9-2.1,0.9C291.4,103,291.3,102.9,291.3,102.9z"/>
		<path id="Path_42149" class="st0" d="M293.8,101.9c0.2,0,0.5-0.1,0.5,0.2c0,0.3-0.2,0.5-0.5,0.5c0,0,0,0,0,0
			c-0.3,0-0.2-0.3-0.3-0.5l0,0C293.7,102.1,293.7,101.9,293.8,101.9L293.8,101.9z"/>
		<path id="Path_42150" class="st0" d="M294.7,100.8c-0.2,0.3-0.5,0.5-0.8,0.6c-0.1-0.1-0.1-0.2-0.2-0.2c0.1-0.3,0.5-0.5,0.8-0.5
			C294.6,100.8,294.7,100.8,294.7,100.8z"/>
		<path id="Path_42151" class="st0" d="M294.5,100.7c0.1-0.2,0.2-0.4,0.5-0.4c0.1,0,0.1,0.1,0.2,0.2c0,0.3-0.2,0.3-0.5,0.4
			C294.7,100.8,294.6,100.8,294.5,100.7z"/>
		<path id="Path_42152" class="st0" d="M294.9,101.4c0.1,0,0.2,0.1,0.3,0.1c-0.1,0.1-0.1,0.2-0.2,0.3c0,0-0.1-0.1-0.2-0.1
			C294.8,101.6,294.8,101.5,294.9,101.4z"/>
		<path id="Path_42153" class="st0" d="M308.8,92.8c0.1-0.1,0.3-0.3,0.4-0.1c0.1,0.2-0.2,0.2-0.3,0.2
			C308.9,92.9,308.8,92.9,308.8,92.8z"/>
		<path id="Path_42154" class="st0" d="M310.2,92.3c0-0.1-0.1-0.1-0.1-0.2c0.1,0,0.2,0,0.2,0c0,0,0.1,0.1,0.1,0.1
			C310.3,92.2,310.2,92.3,310.2,92.3z"/>
		<path id="Path_42155" class="st0" d="M302.2,96.6c0.1,0,0.2-0.1,0.3-0.1c-0.1,0.1-0.1,0.2-0.1,0.2
			C302.3,96.7,302.3,96.7,302.2,96.6z"/>
		<path id="Path_42156" class="st0" d="M3.2,30.6H19v0.3H3.2C3.2,30.8,3.2,30.7,3.2,30.6z"/>
		<path id="Path_42157" class="st0" d="M45.9,30.1c-1.3,0.4-2.7,0.5-4.1,0.1C43.1,29.9,44.5,29.9,45.9,30.1z"/>
		<path id="Path_42158" class="st0" d="M47.4,29.4c-0.4,0.2-0.9,0.3-1.3,0.1C46.6,29.4,47,29.4,47.4,29.4z"/>
		<path id="Path_42159" class="st0" d="M41.5,95.4c1.5,0,3.1,0,4.6,0c0,0.2-0.1,0.4-0.4,0.4h-3.7C41.6,95.9,41.5,95.7,41.5,95.4z"/>
		<path id="Path_42160" class="st0" d="M339.8,19c0.1,0.8,0.1,1.5-0.1,2.3c-0.7-0.7-0.4-1.6-0.3-2.3C339.4,18.8,339.7,18.9,339.8,19
			z"/>
		<path id="Path_42161" class="st0" d="M340.8,22.7c0.4,0.2,0.7,0.5,1.1,0.7C341,23.7,340.7,23.5,340.8,22.7z"/>
		<path id="Path_42162" class="st0" d="M339.7,21.3c0.5,0.1,0.5,0.5,0.6,0.9C339.7,22.5,339.5,22.3,339.7,21.3z"/>
		<path id="Path_42163" class="st0" d="M398.4,111c0.2-1.2,1.3-1.2,2-1.2c1.9-0.1,3.8-0.1,5.7,0c0.7,0,1.5,0,1.6,1.1h0
			c-2.5-1-5.2-0.5-7.8-0.4c-0.6,0-1,0.5-1.4,0.7C398.5,111.1,398.4,111.1,398.4,111z"/>
		<path id="Path_42164" class="st0" d="M398.6,111.2c-0.5,0.7-0.1,1.6-0.7,2.3c-0.3-0.9-0.5-1.8,0.5-2.5
			C398.4,111.1,398.5,111.1,398.6,111.2z"/>
		<path id="Path_42165" class="st0" d="M407.9,14.9c-0.3,0.7-0.9,1.1-1.7,1.1c-2.1,0.1-4.2,0.1-6.2,0c-1.4-0.2-2.4-1.4-2.2-2.8
			c0-0.3,0.1-0.6,0.3-0.9c1.1,3.2,1.1,3.2,4.8,3.2C404.4,15.4,406,15.8,407.9,14.9z"/>
		<path id="Path_42166" class="st0" d="M221.3,72.7c-0.5-0.2-0.3-0.6-0.3-1c0-4.7,0-9.5,0-14.3c0-0.3-0.1-0.7,0.3-0.8V72.7z"/>
		<path id="Path_42168" class="st0" d="M79.3,46.5v-2.9c0.4,0.7,0.1,1.3,0.3,1.9c0.2,0.1,0.4-0.3,0.7,0c-0.1,0.3-0.1,0.7-0.2,1.1
			H79.3z"/>
		<path id="Path_42169" class="st0" d="M183.2,105c-0.3,0.1-0.5,0-0.5-0.3C182.9,104.8,183.1,104.7,183.2,105z"/>
		<path id="Path_42170" class="st0" d="M185.8,104.9C185.8,104.9,185.8,104.9,185.8,104.9c-0.1,0.1-0.1,0-0.2,0
			C185.7,104.8,185.7,104.8,185.8,104.9C185.8,104.8,185.8,104.9,185.8,104.9z"/>
		<path id="Path_42171" class="st0" d="M186.3,104.7L186.3,104.7L186.3,104.7L186.3,104.7z"/>
		<path id="Path_42172" class="st0" d="M186.3,23.3l0-0.1L186.3,23.3L186.3,23.3z"/>
		<path id="Path_42173" class="st1" d="M294.7,24.5c-0.1,0-0.2,0-0.2,0c-0.1,0-0.1-0.1-0.1-0.1C294.5,24.2,294.6,24.3,294.7,24.5
			L294.7,24.5z"/>
		<path id="Path_42174" class="st1" d="M294.6,24.5l0.3,0.3l0,0C294.8,24.6,294.7,24.6,294.6,24.5L294.6,24.5z"/>
		<path id="Path_42175" class="st1" d="M293.9,101.9l-0.3,0.3C293.7,102.1,293.8,102,293.9,101.9z"/>
		<path id="Path_42176" class="st0" d="M344,102.1c-1.4-0.3-2.9,0.3-3.6,1.6c-0.2,0.4-0.5,0.7-0.7,1.1c-0.2-1.3,0.5-2.5,1.7-3
			C342.2,101.6,343.2,101.2,344,102.1z"/>
		<path id="Path_42177" class="st0" d="M339.7,106.7c1,1.1,1.5,2.7,3.2,2.9c-0.1,0.1-0.2,0.4-0.3,0.4
			C341.3,110.2,339.3,108,339.7,106.7z"/>
		<g id="Group_40978" transform="translate(-0.031 -0.022)">
			<path id="Path_42179" class="st1" d="M197.1,19.3"/>
			<path id="Path_42180" class="st1" d="M295,24.8"/>
			<path id="Path_42181" class="st1" d="M351.9,16.3"/>
			<path id="Path_42182" class="st1" d="M339.7,21.3"/>
		</g>
	</g>
</g>
<g id="bot-frame">
	<path id="Path_42178" class="st2" d="M352.3,108c-0.3-1.1-0.4-2.2-0.7-3.3c-0.5-1.6-0.9-3.3-1-5l0,0l0,0c0.8-0.1,0.7,1,1.5,0.9
		c0.2-1.5,0.4-2.9-0.8-4.2c-0.5-0.5-0.7-1.1-0.8-1.8c-0.1-0.2-0.2-0.4-0.3-0.5c-1.1-0.6-1.7-1.9-1.4-3.1c0.2-0.8-0.5-0.4-0.5-0.7
		l-0.3-0.3c-0.1-0.1-0.2-0.2-0.3-0.2l-0.5-0.3c-0.8-0.1-1.5-0.1-2.3-0.1l0.2-0.2c-0.3,0-0.6,0-0.8,0.2c-0.3,0-0.6,0.1-0.9,0.1
		c-0.2-1.4-1.3-1.1-2.3-1.1c-5.3,0-10.7,0.2-16.1-0.1c-4.8-0.4-9.7,0.3-14.3,1.9c-2.8,1.2-5.5,2.7-8.1,4.4c-4,2.3-8.2,4.3-11.7,7.2
		c-0.7,0.6-1.5,0.8-2.4,0.8c-2.3-0.1-4.6,0.1-7-0.1c-2.1-0.1-4.2,0.7-5.8,2.2c-2.9,2.3-6.4,3.9-10.1,4.4c-1.7,0.3-4.1,0.3-6,0.5
		c-0.2-0.3-0.5-0.4-0.9-0.3c-3.3,0.2-6.5-0.3-9.8-0.3c-14.7,0-29.4,0-44.1,0c-2.1,0-4.2-0.3-6.2-0.8c-4.3-1-8.5-2.2-13-1.9
		c-1.7,0.1-3.4,0-5,0.1c-0.7,0-1.5-0.1-2.2-0.3c-2.5-0.8-4.9-1.6-7.4-2.4c-1.6-0.5-3.3-0.7-5-0.6h-1.4v-0.2
		c-0.2,0.1-0.3,0.1-0.4-0.1c-5.4,0-10.7-0.3-16.1-0.9c-1.4,0.3-2.9,0.1-4.3-0.5c-0.2,0-0.5-0.1-0.7-0.1c-0.5,0.2-1.1,0.4-1.4-0.3
		c-0.8-0.1-1.6-0.2-2.3-0.3c-0.2-0.4-0.6-0.4-1-0.2c-0.4-0.1-0.7-0.1-1-0.1c0.1-0.3,0.6-0.3,0.4-0.7c-0.1-0.2-0.3-0.3-0.5-0.3
		c-0.5,0.1-0.5,0.5-0.6,0.9c0.1,0.1,0.3,0.2,0.4,0.2c-0.2,0-0.3,0-0.4-0.2c-0.3-0.1-0.6-0.1-0.8-0.1c-0.2-0.3-0.4-0.3-0.7-0.1
		c-0.9-0.1-1.7-0.2-2.6-0.4c-0.2-0.4-0.4-0.9-0.8-0.2c-0.2,0-0.4-0.1-0.5-0.1c-0.1-1-0.6-0.2-0.9-0.2l-2.6-0.3c0-0.2,0-0.5-0.1-0.5
		c-0.3,0-0.4,0.2-0.4,0.4c-0.2,0-0.4,0-0.5,0c-0.2-0.3-0.4-0.3-0.7-0.1l0,0c-0.5-0.1-1-0.1-1.5-0.1c-0.2-0.3-0.4-0.3-0.7-0.1
		l-1.8-0.2c0-0.2,0.2-0.5-0.2-0.7v0.7c-0.5-0.1-1.1-0.1-1.7-0.2c-0.4-0.4-1-0.5-1.5-0.2l-1.3-0.1c-0.2-0.3-0.6-0.4-0.9-0.2
		c0,0,0,0-0.1,0.1c-0.3,0-0.7-0.1-1-0.1c-1.4-0.5-2.9-0.7-4.3-0.7c-1-0.1-1.4-0.3-0.8-1.3c-0.4-0.3-0.9-0.4-1.4-0.1
		c0.1,0.4,0.7,0.5,0.4,1.1c-0.7,0.1-1.4,0.1-2.1,0c-1.3-0.1-2.6-0.6-3.9-0.3c-0.2,0-0.5-0.1-0.7-0.1c-0.1-0.1-0.3-0.3-0.4-0.3
		c-2.2-0.4-4.5-0.8-6.7-1.4c-0.7-0.1-1.4-0.4-1.9-1c-0.6-0.7-1.5-0.9-2.3-0.5c-0.6,0.4-1.4,0.5-2.1,0.3c-2.7-0.4-5.5-0.6-8.3-0.5
		c-0.5,0-0.9,0.1-1.2,0.4c-2.4,2.2-6,2.3-8.5,0.2c-0.5-0.5-1.2-0.7-1.9-0.6c-1.5,0.2-3,0.3-4.5,0.2c-0.4,0-1-0.1-1.1,0.3
		c-0.1,0.7-0.6,1.3-1.3,1.4l0,0c0,0-2.1,0.2-4.3,0.4c-0.5-0.1-0.9-0.4-1.1-0.8c-0.5-1-1.6-0.4-2.4,0.2c0.1,0.4,0.1,0.7,0.1,1.1
		c-0.3,0.1-0.6,0.1-0.8,0.2c0-0.4-0.1-0.8-0.3-1.2c-0.8,0-2.1,0.4-2.6-0.1c-1.1-1-2.3-0.7-3.5-0.7c0.1,0.1,0.1,0.2,0.2,0.3
		C48.2,94,48.1,94,48,93.9l-15-0.2c-1.2,0-1.2,1-1,1.8c-0.5,1.5,0.1,3.1-0.4,5c-0.2-1.6,0.1-2.9-0.2-4.1c-1.1-0.2-2.1,0.1-3.1-0.3
		c-1.2-0.5-2.4-0.7-3.7-0.7c-6.6,0-13.2,0-19.9,0c-0.5,0-1.1,0.2-1.5-0.4c0.6-0.2,1.2-0.2,1.8-0.2c5.4,0,10.8,0,16.2,0.1
		c2.3,0,4.6-0.5,6.7,0.4c1.1,0.4,2.3,0.5,3.5,0.3c0.1-0.6,0.1-1.2-0.1-1.7c-9.4-0.2-18.7-0.7-28.1-0.6c-0.2-1.4-0.4-2.7-0.7-4.1
		c-0.4-1.6-1.1-1.5-2.1-1.4c-0.3,0.3-0.2,0.7-0.2,1c0,2.8,0,5.5-0.1,8.3c0,3,0.4,6.1,1.2,9c0.1,0.7,0.3,1.3,1.1,1.3
		c0-0.1,0.1-0.2,0.2-0.2c0,0,0,0.1,0.1,0.2h0.5c-0.3-1.8-0.7-3.6-0.9-5.4c-0.1-0.5-0.6-1.2,0-1.6c0.6-0.3,1.4-0.3,1.9,0.2
		c0.9,0.3,1.9,0.5,2.9,0.5c2.1-0.2,4.1-0.7,6.2-0.3c0.2-0.6,0.7-0.4,1-0.4c1.4-0.1,2.8,0,4.1,0.4h2c0.1,0,0.1-0.1,0.2-0.1
		c0,1.4,0,3.2,0.1,4.3c0.1,1.5,1.1,2.9,2.6,3.3c1.4,0.6,2.9,0.1,3.9-1c0.3-1.5,0.5-3,0.5-4.5c0-0.8-0.1-1.6-0.4-2.3
		c1.3-0.1,2.5,0,3.8,0.1c2.9,0.3,5.9,0.3,8.9,0.2c0.2-0.4,0.4-0.4,0.5,0h0.6c1.1-0.5,2.4-0.5,3.5,0.1c-0.1,1.3,0,2.7,0.3,4
		c0.8-1.7,0.2-3.6,0.7-5.4c0.1-0.8,0.7-1.5,1.6-1.8c-0.3,1.4-0.4,2.7,0.6,3.7c0.2-0.5,0.5-0.5,1-0.5c0.7,0.1,1.3,0.1,2,0.2l1.1,0.2
		c-0.1,0.4-0.3,0.7-0.6,0.9c-0.2,2.4-0.2,4.7,1.6,6.6c1.1,1.1,2.4,2,3.8,2.7c0.2-0.5,0.5-0.2,0.8-0.2c1.6,0.6,3.3,0.4,4.8-0.5
		c0.8-0.5,1.8-1,2.7-1.5c1.2-0.6,2.2-1.6,2.9-2.7c1.2-2,0.8-4.1,0.8-6.2c0-0.4,0-0.9-0.2-1.3l2.3-0.9c0.2,0.7,0,1.5,0.4,2.1
		c0.4-0.9,0-1.6,0.4-2.4c0.5,0.7,0,1.5,0.4,1.9c1.1,1,2.6,1.3,3.3-0.1c0.5-1.1-0.4-2.4-1.9-2.7c0.8-0.3,1.7-0.3,2.4,0.1
		c1.1,0.8,0.2,2.2,0.7,3.2c1.4,0.3,2.8,0.4,4.2,0.4c0.6,0,1.2-0.2,1.7,0.3c4.1,0.4,8.3,0.5,12.4,1.1c1.2,0.2,2.5-0.1,3.6,0.2
		c2.6,0.6,5.3,1,7.9,1.3l0,0c0.5,0.5,1.3,0.1,1.7,0.7c-0.1,1.7-0.2,3.4-0.4,5.1c-0.2,1,0.1,2.1,0.8,2.9c1.2,1.3,2.5,2.4,4,3.4
		c0.2,0.1,0.5,0.3,0.7,0.1c0.9,0.3,1.8,0.3,2.7,0.1c0.3,0.2,0.5,0.1,0.7-0.2c1.2-0.7,2.5-1.3,3.7-1.9c1.5-0.7,2.6-2,3.1-3.5
		c0.4-1.2,1.1-2.4,1.9-3.4l0,0c0.5,0,1.1,0.1,1.6,0.1c7,1.5,14,2.6,21.2,3.2c5.7,0.4,11.3,0.2,17,0.1h1.9v-0.2
		c0.8,0.1,1.5,0.2,2.2,0.5c2.3,1.1,4.7,2.1,7,3.1c1.7,0.8,3.3,1.9,5.3,2.1c1.7,0.1,3.3,0,5,0c0.3,2.7,0.5,5.1,0.8,7.6
		c1,0.3,2-0.2,2.8,0.3c0.2-0.2,0.2-0.6,0-0.9c0,0,0,0-0.1-0.1c-0.6,0-0.6-0.4-0.6-0.8v-5c0-1,0.3-1.5,1.1-1.7c-0.3,2,0.2,4-0.5,5.8
		c1-0.1,1.1,0.8,1.4,1.4c0.5,0.9,1.4,1.6,2.5,1.6c2.2,0,4.3,0,6.5,0c0.6,0,1.2-0.2,1.6-0.6c1-1.1,1.8-2.3,2.3-3.7
		c-0.7-0.7-0.2-1.6-0.3-2.4c-0.1-0.6,0-1.2,0-1.8c0.4,0,0.6,0.3,0.7,0.7c1.3-0.4,2.5,0.2,3.8,0.2c5.4-0.1,10.9-0.1,16.3-0.2
		c8.8-0.2,17.6,0,26.4-0.1c2.9,0.1,5.9,0,8.8-0.2c-0.5-0.4-1.1-0.2-1.7-0.2c-2,0-4,0-6,0c1.8-0.3,3.6-0.4,5.4-0.3c1.4,0,2,0,2.3-0.3
		v0.9c2.6,0.4,5.8-0.5,8.2-1c0.2-0.4,0.7-0.4,1.1-0.4h9.5c0.2,0,0.5,0,0.7,0.1c-0.2,0.1-0.3,0.3-0.2,0.5c0.1,2.8-0.1,5.6,0.1,8.3
		c0.2-0.1,0.3-0.3,0.3-0.5c0-2.8,0.1-5.5-0.1-8.2c0.1,0.1,0.2,0.2,0.2,0.3c1.4-0.1,2.3-1.1,3.5-1.7c3-1.7,6-3.4,9-5.1
		c0.6-0.9,1.6-1.6,2.6-1.9c0.1-0.5-0.4-0.6-0.6-1c-0.3-0.5-0.2-1.2,0.3-1.5c0,0,0.1-0.1,0.2-0.1c1.3-0.6,2.6-1.2,3.9-1.7
		c1.3-0.4,1.5,0.7,1.9,1.7c-1.2,0.7-0.5,1.2,0.2,1.7c0.7,0.6,1.6,0.8,2.1,1.8c-0.8,0-1.2-0.6-1.8-0.9c-0.5-0.2-0.9-0.4-1.3,0.1
		c-0.4,0.4-0.5,1.1-0.1,1.6c0.6,1,2,1,2.4,2.2c1.3-1.1,1.7-2.8,2.7-4c-1-1.4-3.5-1.1-3.1-3.7c1.5,0.2,3.2,0.1,4-1.2
		c1-1.8,2.8-2.3,4.3-3.4c0.4-0.3,0.8-0.7,1.5-0.5c0.2-0.8,0.8-0.8,1.6-0.9v5.5c2-0.1,2.1-0.1,2-2.2c0-0.1,0-0.3-0.1-0.4
		c-0.1-0.3-0.3-0.7,0.1-1c0.2-0.1,0.3-0.1,0.5,0c0.4,0.2,0.2,0.6,0.2,1c-0.1,1.2-0.5,2.5,1.1,3c0.2,0.1-0.1,0.4,0.1,0.5
		c1-0.6,0.8-1.6,0.8-2.4v-2.7c0-2.8,0.2-3.1,2.9-2.9c0.4,2,1.8,3.6,3.6,4.4c-0.1-0.7-0.2-1.4-0.4-2.1c-0.4-1.9-0.8-2.6-2.3-2.9
		c0.7-0.1,0.8-0.6,1-1.2c0.1,0.4,0.1,0.8,0.2,1.3c0.6,0.1,1.3,0.4,1.7-0.3c1.3-1.9,3.2-1.4,4.9-1.3c0.4,0,0.7,0,1.1,0
		c0.1,1.3,0.4,3.3,0.4,3.2c-1.2-2-1.3-2-3.6-1.4c-0.4,0.1-0.8,0.2-0.8,0.7c0,1.3-0.3,2.6,0.6,3.8c0.5-0.2,1-0.3,1.5-0.4
		c0.2-0.7-0.2-1.2-0.2-1.8c0-0.5-0.7-1.3,0.1-1.5c0.9-0.2,0.5,0.8,0.6,1.3c0.1,0.4,0.2,0.9,0.2,1.3c0.1,0.7,0.6,1.3,1.3,1.6
		c0.5,0.2,1.3,0.1,1.1-0.6c-0.2-0.7-0.6-4.1-0.9-6.1c0.2,0,0.4-0.1,0.6-0.1c0-0.6-0.7-0.6-0.9-1l0,0c1.6-0.3,2,0.7,2.2,2.4
		c1.9,0.1,3.7,0.2,5.6,0.3c0.4,0,0.9-0.1,1.2,0c0.4,0.2,0.7,0.2,1.1,0.2c0.3,0.1,0.7,0.2,1.1,0.3c-0.1,0.1-0.2,0.1-0.2,0.1
		c-3.6,2.2-5.9,8.4-6,12.4c-0.1,3.1,2.8,6.5,5.7,7.2c2.4,0.6,4.9,0.1,7-1.4c0.9-0.6,1.7-1.2,2.6-1.9
		C351.3,110.1,352.6,109.2,352.3,108z M15.8,94h7.7v0.2h-7.7C15.8,94.2,15.8,94.1,15.8,94z M9.2,93.8c0,0.1,0,0.1,0.1,0.2h-6v-0.2
		H9.2z M24.1,106.4c-0.9-0.1-1.7-0.4-1.7-1.5c-0.1-0.8,0.5-1.6,1.3-1.7c0.1,0,0.3,0,0.4,0c0.9,0.1,1.7,0.3,1.8,1.4
		C25.9,105.6,25.1,106.4,24.1,106.4z M46.1,95.4c0,0.2-0.1,0.4-0.4,0.4H42c-0.1,0-0.3,0-0.4-0.1C43.1,95.7,44.6,95.4,46.1,95.4
		c0.2-0.2,0.3-0.3,0.5-0.5C46.4,95.1,46.2,95.3,46.1,95.4L46.1,95.4z M50.7,99.8c0-0.5,0-0.9,0.1-1.3c0.1-1.3-0.7-1.5-1.6-1.3
		c-0.6,0.1-1.1,0.4-1.9-0.1c2-1.1,4-0.2,6-0.4C52.6,97.5,51.5,98.8,50.7,99.8L50.7,99.8z M54.8,104.9c-0.4-0.7-0.4-1.1,0-1.6
		c0.2-0.1,0.3,0,0.5,0.1C55.7,104,55.4,104.4,54.8,104.9L54.8,104.9z M59.6,109.5c-0.3,0-0.6-0.2-0.6-0.5c0,0,0-0.1,0-0.1
		c0-0.3,0.3-0.4,0.6-0.5c0.4-0.1,0.5,0.2,0.6,0.5C60.2,109.2,60,109.5,59.6,109.5C59.6,109.5,59.6,109.5,59.6,109.5L59.6,109.5z
		 M59.8,107c-1.6,0.1-3-1.1-3.1-2.7c0.2-1.7,1.5-3.1,3.2-3.4c1.6,0,3,1.3,3.1,2.9c0,0,0,0,0,0.1C62.9,105.6,61.5,107,59.8,107
		L59.8,107z M63.4,107.4c-0.1,0.7-0.7,0.8-1.3,1c-0.4-0.9,0.2-1.1,0.7-1.3C63.1,106.9,63.5,107,63.4,107.4L63.4,107.4z M70.7,95
		C70.7,95,70.7,95,70.7,95L70.7,95C70.7,94.9,70.7,94.9,70.7,95z M82.6,97c0.7,0,1.4,0.1,2,0.1C83.9,97,83.2,97,82.6,97L82.6,97z
		 M87.3,96.7c0.4,0,0.7,0,1,0C88,97.5,87.6,97.5,87.3,96.7L87.3,96.7z M91.9,96.6c0.1,0,0.2-0.1,0.2-0.1l0,0
		C92.1,96.5,92,96.6,91.9,96.6L91.9,96.6z M106.4,103.1c0.1,0,0.1,0,0.2,0C106.5,103.1,106.5,103.1,106.4,103.1L106.4,103.1z
		 M105.8,97c1,0.1,1.9,0.2,2.8,0.3C107.6,97.2,106.7,97.1,105.8,97L105.8,97z M117.3,98.5c0.8,0.1,1.6,0.1,2.4,0.2
		c-0.7,0.6-1.5,0.2-2.2,0.2c-1.6-0.1-3.1-0.3-4.7-0.5c-0.3,0-0.4-0.2-0.4-0.4C114,98.1,115.7,98.3,117.3,98.5L117.3,98.5z
		 M113.4,104.1c-1.6-0.2-3.1-0.5-4.6-0.7C110.3,103.6,111.8,103.9,113.4,104.1L113.4,104.1z M114.1,113.3c-1.4,0-2.5-1.2-2.6-2.6
		c-0.1-1.4,1-2.6,2.4-2.7c1.4-0.1,2.6,1,2.7,2.4c0,0.1,0,0.1,0,0.2C116.7,112,115.5,113.2,114.1,113.3L114.1,113.3z M115.5,104.5
		c2.2,0.4,4.3,0.8,6.5,1.1C119.9,105.2,117.7,104.9,115.5,104.5L115.5,104.5z M139.2,100.8c0.1,0,0.2,0,0.2-0.1
		C139.4,100.8,139.3,100.8,139.2,100.8L139.2,100.8z M155.8,103.8c-1.7-0.1-3.3-0.2-5-0.3c-0.4,0-0.8-0.1-0.9-0.6
		c2,0.1,4.1,0.2,6.1,0.4c0.4,0,0.7-0.1,1,0.2C156.7,103.9,156.3,103.8,155.8,103.8L155.8,103.8z M164.1,104.1c-2,0-3.9,0-5.9-0.1
		c-0.3,0-0.5-0.1-0.5-0.4c0,0,0,0,0-0.1c2.3-0.2,4.6-0.1,6.9,0l0,0.4C164.4,104,164.2,104.1,164.1,104.1L164.1,104.1z M192.3,108.4
		c-1.5-0.4-3.1-0.5-4.7-0.5c-1,0-1.9,0-2.9,0c-4.5,0.5-8.7-1.1-12.8-2.5c-1.2-0.5-2.5-0.8-3.8-0.7c0.4-0.6,1.2-0.9,2-0.6
		c2.6,0.9,5.3,1.7,8,2.6c1,0.3,2,0.5,3.1,0.5c3.4,0.1,6.7-0.3,10,0.3c1.6,0.3,3.3,0.6,4.9,0.9c0.3,0.1,0.6,0.2,0.8,0.8
		C195.3,109,193.8,108.8,192.3,108.4L192.3,108.4z M196.8,121.7c-1.4,0.1-2.5-0.9-2.7-2.2c0-0.1,0-0.1,0-0.2
		c-0.1-1.3,0.9-2.5,2.2-2.6c0.2,0,0.3,0,0.5,0c1.3-0.1,2.4,0.8,2.5,2c0,0.2,0,0.3,0,0.5C199.3,120.6,198.2,121.7,196.8,121.7
		C196.9,121.7,196.8,121.7,196.8,121.7L196.8,121.7z M259.6,112.2c0,0-0.1-0.1-0.1-0.1c-0.6-0.1-1.2-0.1-1.9-0.1
		c0.5-0.2,1-0.2,1.5-0.2c0.2,0,0.4-0.1,0.5-0.2L259.6,112.2z M259.6,110.8c-0.1-0.1-0.3-0.2-0.5-0.2h-55.4c-1.6-0.1-3.1-0.4-4.5-1
		c10.1,0.9,20.3,0.2,30.4,0.4c10,0.1,20,0,30.1,0V110.8z M263.4,111.5c5.3-1.1,10.8-1.3,15.9-3.1
		C274.3,110.4,268.9,111.4,263.4,111.5L263.4,111.5z M279.2,112.1c0.1-0.7-0.5-1.6,0.5-1.9c0.4-0.2,0.7,0.4,0.7,0.8
		C280.5,111.7,280.2,112.2,279.2,112.1L279.2,112.1z M294.9,101.8c0,0-0.1-0.1-0.2-0.1c0-0.1,0.1-0.2,0.2-0.3c0.1,0,0.2,0.1,0.3,0.1
		C295.1,101.6,295,101.7,294.9,101.8L294.9,101.8z M294.8,100.9c-0.2,0.3-0.5,0.5-0.8,0.6c0,0.1-0.1,0.3-0.1,0.4
		c0.2,0,0.5-0.1,0.5,0.2c0,0.3-0.2,0.5-0.5,0.5c0,0,0,0,0,0c-0.3,0-0.2-0.3-0.3-0.5c-0.8,0-1.3,0.9-2.1,0.9c-1.4,1.1-3,2-4.7,2.6
		c-1.8,0.9-3.7,1.6-5.6,2.4c-0.1,0-0.2-0.1-0.4-0.2c3.6-1.6,7-3.4,10.5-5c0.7-0.7,1.5-1.3,2.5-1.7c0.1-0.3,0.5-0.5,0.8-0.5
		c0.1-0.2,0.2-0.4,0.5-0.4c0.1,0,0.1,0.1,0.2,0.2C295.2,100.8,295,100.8,294.8,100.9L294.8,100.9z M295.6,100.1
		c0.6-0.9,1.7-1.5,2.8-1.4C296.9,99.7,296.5,100,295.6,100.1L295.6,100.1z M302.4,96.8c-1,0.9-2.2,1.5-3.5,1.7
		c1-0.8,2.2-1.4,3.4-1.9c0.1,0,0.2-0.1,0.3-0.1C302.5,96.6,302.4,96.7,302.4,96.8L302.4,96.8z M308.9,93c-0.7,1-1.8,1.2-2.7,1.6
		c-0.9,0.8-2.1,1.4-3.3,1.7c0.8-0.9,1.9-1.6,3.1-1.9c0.7-0.8,1.7-1.3,2.8-1.6c0.1-0.1,0.3-0.3,0.4-0.1C309.3,92.9,309,92.9,308.9,93
		L308.9,93z M310.2,92.3c0-0.1-0.1-0.1-0.1-0.2c0.1,0,0.2,0,0.2,0c0,0,0.1,0.1,0.1,0.1C310.3,92.2,310.3,92.3,310.2,92.3L310.2,92.3
		z M310.9,91.9c1-0.9,2.4-1.4,3.8-1.4C313.5,91.2,312.3,91.7,310.9,91.9L310.9,91.9z M317.4,90c1.2-1.1,2.5-0.8,3.5-0.8
		c4.8,0.2,9.5,0.1,14.3,0.1c2.1,0.1,4.1,0.3,6.2,0.7C333.5,90.2,325.6,89.1,317.4,90L317.4,90z M344.9,100.6c-0.5,0.2-1,0.4-1.4-0.2
		c-0.1-0.2-0.1-0.6,0.3-0.6C344.3,99.8,345,99.7,344.9,100.6L344.9,100.6z M338.9,109.4c-0.7,0-1.2-0.6-1.2-1.3c0,0,0,0,0,0
		c0-0.2,0.2-0.3,0.4-0.3c0,0,0.1,0,0.1,0C338.8,108.1,339,108.6,338.9,109.4L338.9,109.4z M342.9,109.6c-0.1,0.1-0.2,0.4-0.3,0.4
		c-1.3,0.2-3.2-1.9-3-3.3v-1.8c-0.2-1.3,0.5-2.5,1.7-3c0.9-0.3,1.8-0.8,2.6,0.2c2.6,1.5,3.3,3.4,2.2,5.5
		C345.6,108.9,344.3,109.7,342.9,109.6L342.9,109.6z M346.2,111.2c-0.5-1.1,0.2-1.3,0.8-1.7C347.4,110.5,346.9,110.8,346.2,111.2
		L346.2,111.2z"/>
</g>
<g id="mid-6">
	<path id="Path_42061" class="st1" d="M286.9,77.8c0.2-3.4,0.2-6.9-0.1-10.3c-0.2-5.3-0.1-10.5-0.1-15.8c0-3.3-0.2-6.6-0.2-9.9
		c0-4.9-0.7-11-0.7-15.9c0-0.2,0-0.5-0.1-0.7h0v-0.4c-0.4,0-0.7,0-1.1-0.1c-0.8-0.2-1.7-0.1-2.6,0.1c-0.2,0-0.3,0-0.5,0.1v0.1
		c-0.5,0.2-0.7,0.6-0.7,1.1c0,1.6,0.1,3.2,0.4,4.8c0.4,0.1,0.7,0.2,1.1,0.3c-0.1,0.5-0.4,0.8-0.4,1.3c-0.1,3.7,0.4,7.5-0.5,11.2
		c-0.5,2.1,0.5,4.3,0.5,6.4c-0.1,8.1,0.3,16.2-0.5,24.3c-0.1,2.6,0,5.2,0.2,7.7c0.1,5.3,0.1,11.6-0.2,16.9c-0.1,1,0,1.4,0.4,1.7
		h-0.7v0.4c1.5,0.5,3.2,0.4,4.7-0.4h-0.9c0.5-0.3,0.7-0.8,0.7-1.7c0.1-1.3-0.1-3.6,0.1-4.8C286.8,88.8,286.3,83.3,286.9,77.8z"/>
</g>
<g id="mid-5">
	<path id="Path_42051" class="st3" d="M206.2,99.2V26.6c0.5-0.3,0.3-0.8,0.3-1.3c0-2,0.1-4.1,0-6.1c-0.1-1.2,0.3-1.6,1.5-1.6
		c3.8,0.1,7.5,0.1,11.3,0c0.8-0.1,1.6,0.3,1.9,1c0,3.2-0.1,6.5,0,9.7c0.4,9,0.2,17.9,0.3,26.9c0,0.5,0,0.9-0.1,1.4
		c-0.4,0.2-0.3,0.5-0.3,0.8c0,4.7,0,9.5,0,14.3c0,0.3-0.1,0.7,0.3,1c0,3.5,0.1,7.1,0,10.6c-0.1,7.4-0.3,14.7-0.2,22.1
		c0,0.6,0,1.2,0.1,1.8c-0.4,0.5-1.1,0.8-1.7,0.7c-3.9,0-7.8-0.1-11.7,0c-1.1,0-1.4-0.3-1.4-1.4c0.1-2,0.1-4.1,0-6.1
		C206.4,100,206.6,99.5,206.2,99.2z M213.4,89.4c-0.9-0.1-1.8,0.1-1.8,1.2c0,1.1,1,1.5,2,1.5c0.9-0.1,2.1-0.3,2-1.3
		C215.7,89.8,214.6,89.3,213.4,89.4L213.4,89.4z M211.8,20.5L211.8,20.5c0,0.3,0,0.5,0,0.8c0.1,0.5-0.1,1.2,0.7,1.2
		c0.7,0.1,1.3-0.4,1.3-1c0,0,0,0,0,0c0.1-0.7,0.1-1.4-0.1-2.2c-0.1-0.5-0.5-0.8-0.9-0.7c0,0,0,0-0.1,0c-0.5,0-0.9,0.4-1,0.8
		C211.8,19.8,211.8,20.2,211.8,20.5L211.8,20.5z M213.8,101.9c-0.1-0.5,0.5-1.7-1-1.6c-1.6,0.1-0.8,1.5-1,2.3
		c-0.1,0.8,0.2,1.3,1.1,1.3c0.5,0,0.8-0.2,0.8-0.7C213.8,102.8,213.8,102.5,213.8,101.9L213.8,101.9z M213.6,64
		c0.6-0.1,1.1-0.4,1.2-1.1c0.1-0.5-0.3-0.9-0.8-1c-0.1,0-0.1,0-0.2,0c-0.5,0-1.1,0.2-1.1,0.9C212.7,63.4,213.1,63.9,213.6,64
		L213.6,64z M213.8,48.2c0.4,0,0.7-0.2,0.8-0.6c0,0,0-0.1,0-0.1c0-0.4-0.1-0.8-0.7-0.8c-0.5,0-0.9,0.2-0.9,0.8
		C213,48,213.3,48.2,213.8,48.2L213.8,48.2z M211.9,57c0.2-0.5,0.2-1.2,0-1.7C211.2,56,211.2,56.5,211.9,57L211.9,57z"/>
</g>
<g id="mid-4">
	<path id="Path_42052" class="st1" d="M182.9,78.6c0.1,0.5,0,0.9-0.3,1.3c-0.9,0-1.9,0-2.9,0c-0.8-0.1-1.1,0.3-1.1,1.1
		c0,1.8,0,3.5,0,5.3c0,0.8,0.3,1.1,1.1,1.1c1-0.1,2-0.1,3,0.1v14.1c-0.5,0.2-1.1,0.4-1.7,0.3c-1.6,0-3.4,1.7-4.1,3.7
		c0.1,0.4,0.5,0.5,0.9,0.4c0,0,0,0,0,0c0-0.9,0.8-1.6,1.6-1.6c0.2,0,0.3,0,0.5,0.1c0.9,0.1,1.8,0.2,2.8,0.2c0.2,0,0.5,0,0.5,0.3h2
		c-0.6,0.1-1.2,0.5-1.6,0.9c0.8,0.2,1.6,0.2,2.5,0.2c1.9,0,1.9-2,1.9-3.8V20.8c0-0.3,0-0.5,0-0.8c0-0.9-0.3-1.3-1.2-1.3
		c-1.3,0-2.6,0-3.9,0.2c0.1,0.4,0.1,0.9,0.2,1.3 M185.8,105C185.8,105,185.7,104.9,185.8,105c-0.1-0.1,0-0.1,0-0.1
		S185.8,104.9,185.8,105C185.8,104.9,185.8,105,185.8,105L185.8,105z M186.3,104.7L186.3,104.7L186.3,104.7L186.3,104.7z
		 M186.3,23.3L186.3,23.3L186.3,23.3L186.3,23.3z M187.3,72.9V100c0.1,0.8-0.1,1.6-0.6,2.2V23.7c0.8,0.7,0.6,1.5,0.6,2.3V72.9z"/>
</g>
<g id="mid-3">
	<path id="Path_42167" class="st1" d="M156,33.7c0.3-0.3,0.3-0.8-0.1-1.1c0,0-0.1-0.1-0.1-0.1c-0.1-0.5-0.2-1.1-0.1-1.6
		c0.7-0.5,0.7-0.9,0-1.4c0.1-3.2,0.5-8,0.5-8.3c-2.8,0.1-6,1.9-8.8,1.3c-0.1-0.7-0.5,7.3-0.6,6.8c-0.5,0.1-1.2,0-1.4,0.8
		c-0.1,0.3,0.1,0.6,0.4,0.8c1.4,0.6,1,1.2,0,1.7c-0.6,0.3-0.7,1-0.1,1.1c1.5,0.5,1.2,1.7,1.2,2.8v52.7c0,0.5,0,0.9,0,1.4
		c0,0.4-0.2,5-0.7,5.2c-1.3,0.6-1.2,1.2-0.1,1.9c0.6,0.4,0.8,0.8,0.1,1.2c-0.5,0.3-1.1,0.4-0.9,1.1c0.2,0.6,0.8,0.7,1.4,0.7
		c0-0.2,0-0.3,0-0.5c0.8,0.4,1.7,0.6,2.6,0.7c0.8,0.2,1.6,0.3,2.4,0.3c1.3-0.1,2.8,0.8,3.8-0.9v-0.1c0,0.1,0.1,0.3,0.1,0.4
		c0.9-0.7,0.8-1.2-0.2-1.7c0,0.2,0,0.3,0,0.5c-0.1,0-0.3,0-0.4,0c0.5-0.7,0.5-1.7,0.9-2c0.4-0.3,0.5-0.8,0.2-1.2
		c0-0.1-0.1-0.1-0.1-0.1c-0.7-0.5-0.5-5.5-0.5-6.2v-54C155.4,35.2,155.2,34.3,156,33.7z M150.5,86.1c0-0.4,0.2-0.7,0.7-0.7
		c0.5,0,0.7,0.4,0.7,0.9v4.2c-0.5,0.4-0.8,0.2-1.3,0.2C150.5,89.1,150.5,87.6,150.5,86.1L150.5,86.1z M149.2,63.6
		c-0.1-0.1-0.2-0.3-0.2-0.5c0-0.2,0.2-0.4,0.4-0.4c0,0,0,0,0.1,0c0.9-0.1,1.9,0,2.8,0.2C151.7,63.9,149.7,64.2,149.2,63.6
		L149.2,63.6z M151.7,36.2c0.2,1.3,0.2,2.6-0.1,3.8C151.3,38.8,151.4,37.5,151.7,36.2L151.7,36.2z M151.6,45.6
		c0.3,0.2,0.3,0.7,0.1,1c0,0-0.1,0.1-0.1,0.1c-0.6,0.4-1-0.1-1.3-0.7C150.7,45.5,151,45.1,151.6,45.6L151.6,45.6z M150.3,58.1h0.5
		c0.5,0,1.3-0.2,1.3,0.7c0,0.9-0.8,0.4-1.3,0.5c-0.1,0-0.2,0-0.3,0h-0.3c-0.5-0.1-1.3,0.2-1.3-0.6S149.8,58.1,150.3,58.1L150.3,58.1
		z M146.8,99.4c0-0.3,0.2,0,0.7,0C147.3,99.5,147.1,99.4,146.8,99.4L146.8,99.4z M148.5,99.5c-0.2,0-0.5,0-0.8,0
		C148,99.5,148.2,99.5,148.5,99.5L148.5,99.5z"/>
</g>
<g id="mid-2">
	<path id="Path_42056" class="st1" d="M87,45.6c0-0.7-0.1-1.4-0.2-2c-0.1-0.3-0.2-0.7-0.5-0.7c-1.6-0.1-3.3-0.1-4.9,0.1
		c-0.3,0.1-0.7,0.1-1-0.1c-0.4,0.5,0,1.1-0.5,1.7c0-1.5,0.1-11.4,0-12.7c-0.2-2.2-0.8-2.8-2.9-2.8c-1.3,0-2.6,0.1-4,0
		c-1.2-0.1-1.5,0.4-1.5,1.5c0,0.6,0,1.8,0,3.2c-0.5,0-0.9,0-1.4,0.1c0.2,0.8-0.5,1.8,0.7,2c0.2,0.1,0.5,0.1,0.8,0.2
		c0,3.8,0,8.2,0,9.6c0,0.5,0.1,1.1-0.6,1.3c0.1,0.3,0.4,0.6,0.5,0.3c0.7-1,1.6-0.6,2.5-0.6c1.9-0.1,3.7-0.1,5.6-0.1v-2.9
		c0.4,0.7,0.1,1.3,0.3,1.9c0.2,0.1,0.4-0.3,0.7,0c-0.1,0.3-0.1,0.7-0.2,1.1c0.5,0.7,0.8,1.6,0.8,2.5c0,8.7,0,26.3,0,36
		c-2.2-0.1-4.4,0-6.7,0.1c0.7,2.2,0.8,4.5,0.5,6.7c-0.1,1.1,0.3,1.5,1,1.7c1.1,0.3,2.3,0.5,3.5,0.4c1-0.2,0.5-1.2,1-1.6
		c0.2-0.2,0.4-0.4,0.7-0.7c0,0.3,0.2,0.6,0.4,0.8c0.8,0.7,2.3,0.2,3.4,0.2c2,0,2.2-0.1,2.3-2.2v-0.5C87,78.4,86.9,57.1,87,45.6z
		 M75.6,45.1c-0.6,0-0.7-0.4-0.7-0.9c0-0.5,0.2-0.8,0.8-0.8c0.4,0.1,0.8,0.3,0.8,0.8C76.4,44.7,76.1,45.1,75.6,45.1
		C75.6,45.1,75.6,45.1,75.6,45.1L75.6,45.1z M75.6,41.2c-0.5,0-0.7-0.4-0.7-0.8c0-0.5,0.1-0.9,0.7-1c0.5,0.1,0.9,0.3,0.9,0.8
		c0.1,0.5-0.2,0.9-0.7,1C75.7,41.2,75.7,41.2,75.6,41.2z M84.3,63.7c-0.6,0-0.6-0.4-0.6-0.8c0-0.4,0.1-0.8,0.5-0.7
		c0.5,0,0.6,0.5,0.7,0.8c0.1,0.3-0.2,0.7-0.5,0.7C84.4,63.7,84.4,63.7,84.3,63.7L84.3,63.7z"/>
</g>
<g id="mid-1">
	<g id="Group_40976" transform="translate(36.284 33.126)">
		<path id="Path_42016" class="st1" d="M13.8,37.3c-1.1-3.6-0.6-7.4-0.7-11.1c-0.1-1.7,0.2-3.4,0.8-5.1c1.4-3.8,0.8-7.7,0.7-11.6
			c0.1-1.1-0.1-2.2-0.5-3.2c-0.7-1.7-1.4-3.3-2.3-4.9c0.1-0.4,0.1-0.9-0.1-1.3C8.6-0.1,5.4,0.1,2.2,0.1C1.4,0,0.7,0.1,0,0.4
			C0.3,1.1,0.3,2,1.1,2.5c1.2,4.9,1.9,9.8,2,14.8c0,9.5,0,19.1,0,28.6c0,3.1-1.7,8.7-2.8,11.9c0,0.1-0.1,0.2-0.1,0.4l0,0
			c-0.1,0.3-0.1,0.7-0.2,1c3.3,0.6,6.6,0.2,9.9,0.3c0.7,0.1,1.3,0,2-0.3c0.1-0.3,0.1-0.7,0.1-1C12.5,52.8,15.3,42,13.8,37.3z
			 M9.6,44.9c0.8-0.1,1.6-0.5,2.1,0.4C10.5,46.3,10.1,46.2,9.6,44.9z M11.3,30.6c-0.4,0-0.8-0.3-0.8-0.7c0,0,0-0.1,0-0.1
			c0-0.5,0.2-0.9,0.8-0.9c0.6,0,0.7,0.5,0.8,0.9C11.9,30.3,11.8,30.7,11.3,30.6L11.3,30.6z"/>
	</g>
</g>
<g id="top-frame">
	<path id="Path_42183" class="st4" d="M351.9,16.3c-1-0.2-1.5-1-2.1-1.7c-0.3-0.4-0.5-1,0.4-1c-2.5-2.4-5.4-3.7-9-2.7
		c0.5,0.8-0.3,0.7-0.6,0.8c-1.4,0.4-2.6,1.2-3.5,2.4c-0.6,0.7-1,1.6-1.4,2.4c-1,1.8-1.1,4-0.3,5.9c1.1,2.7,1.8,7.8,4.5,9.6
		c-2.5,0.1-5.1,0.2-7.6,0.2c-0.1,0.8,0,1.6-0.7,2.1c-0.1,0.1-0.3,0.3-0.4,0.2c-0.1-0.2,0.2-0.2,0.3-0.3c0.1-0.9,0.1-1.8-0.2-2.6
		c-0.1,0-0.2,0-0.2,0c-0.2,0.3-0.5,0.6-0.8,0.9c0.1-0.2,0.2-0.5,0.4-0.9c0-0.1,0.1-0.1,0.2-0.2c0.4-0.6,0-1.3,0.3-1.9
		c0.2-0.5,0.4-1-0.4-1.3c-0.6-0.2-1,0.1-1.4,0.5c-0.5,0.8-0.8,1.7-0.8,2.7c-0.1,0.5-0.1,1-0.9,1c-0.1-1.2,0.7-2.2,0.4-3.4
		c-0.6-0.2-1.2-0.4-1.7-0.7c-0.4,1.3-0.6,2.7-0.6,4c0,0.8,0.2,1.1,1.1,1.2c0.4,0.1,0.7,0.1,1,0.1c-1.3-0.1-2.7-0.1-3.7-1.3
		c-0.2-0.3-0.5-0.4-0.8-0.5c0.2-1.2,0.4-2.4,0.5-3.7c-1.7,0.6-2.9,2-3.2,3.8c-0.2-0.1-0.3-0.2-0.3-0.5l-1.5-0.1
		c-1.2,0-1.7-0.6-1.6-1.9c0.1-1.7,0-3.4,0.1-5.2c0-0.7-0.1-1.1-0.7-1.1c-1.4,0.8-1.9,2.6-1.3,4.1c0.1,0.3-0.1,0.5-0.4,0.5
		c-0.3,0-0.5-0.2-0.5-0.4c0,0,0,0,0-0.1c0-0.4,0.1-0.9,0.1-1.3c0.1-1.8,0-1.8-1.8-1.7v5.4c-0.7,0.2-1.5-0.1-2-0.8
		c-0.5-0.3-1.1-0.5-1.7-0.9c-1.3-0.9-3-1.2-3.8-2.9c-0.5-0.8-1.4-1.3-2.3-1.3c-1,0-1.8-0.6-2.1-1.5c1.1-0.7,2.3-1.4,3.5-2.2
		c-1-1.4-1.5-3-2.8-4.1c-0.2,0.8-1.1,1-1.6,1.6c-0.4,0.5-1.4,0.8-1,1.7c0.2,0.6,0.9,1,1.5,0.8c0.2-0.1,0.3-0.1,0.5-0.3
		c-0.1,0.4-0.3,0.8-0.6,1c-0.6,0.4-1.3,0.8-0.5,1.7c0.3,0.6,0.1,1.3-0.4,1.6c-0.5,0.4-1.1,0.4-1.6,0c-0.8-0.5-1.6-0.8-2.5-1.1
		c-2-0.8-2.1-1.1-1-2.9c-1.1-0.5-1.7-1.6-2.8-2c-0.1-0.2-0.2-0.4-0.4-0.5c-2.6-1.5-5.3-3.1-7.9-4.5c-1.2-0.8-2.5-1.4-3.8-1.8
		c0,0.1-0.1,0.1-0.1,0.2l-0.1-0.1c-0.5-0.1-0.4-0.5-0.4-0.9c0-2.8,0.1-5.7,0.1-8.5c-0.5-1.4-1.8-2.3-3.3-2.1c-1,0.1-2.1,0-3.1,0
		c-1.7,0-3.2,1.3-3.3,3c0,0.5-0.1,0.9-0.2,1.3c-0.7,2.3-1.5,4.6-1.3,7.1c-0.5,0-1.1,0.2-1.4-0.1c-2.2-1.4-4.7-0.6-7-1
		c-2.8-0.3-5.5-0.3-8.3-0.2c-13.7-0.1-27.4,0-41-0.4c-2-0.1-3.9,0.4-5.8,0.2c0,0.6-0.4,0.6-0.8,0.6c-4.6,0-9.3,0-13.9,0
		c-0.2,0-0.3-0.1-0.4-0.1c0.7-1.7,0.1-3.5,0.5-5.2c0.4,1.4,0.1,2.9,0.3,4.4h13.5c0.2-1.1,0.2-2.1,0.1-3.2c0-0.5-0.2-1,0.4-1.3
		c-0.4-1.1-0.9-2.2-1.7-3.1c-0.5-0.9-1.6-1.4-2.6-1.3c-1.9,0.1-3.8,0.1-5.7,0c-1.1-0.1-2.2,0.4-2.7,1.4c-0.4,0.6-0.7,1.4-1.5,1.7
		c-0.2-0.6,0.4-1.2-0.2-1.8c-0.7,0.9-1.7,0.1-2.6,0.6c-0.2,2.4-0.5,4.9-0.7,7.5c-1.6,0-3.1-0.1-4.5,0c-2.8,0.2-5.1,2-7.7,2.9
		c-3.3,1.2-6.2,3.3-10.1,2.6c-2.9-0.5-6,0-9,0.1c-1.8,0.1-3.6-0.1-5.4,0c-1.7,0.1-3.3,0.7-4.9,0.7c-2.9,0.1-5.8,0.4-8.7,0.9
		c-1.9,0.3-3.7,0.8-5.5,1.1c-1.7,0.3-3.5,0.5-5.3,0.8c-0.2,0.8-1,0.6-1.6,0.7c-0.7,0.1-1.3,0.2-2,0.3c0.4-0.1,0.7-0.2,1.1-0.2
		c-0.7-1.3-0.7-2.6-1.1-3.7c-0.9-2.6-2.8-4.3-4.4-6.2c-0.2-0.2-0.5-0.5-0.7-0.7c-0.7-1.4-2.3-2-3.8-1.4c-0.3,0.1-0.5,0.1-0.8,0.1
		c-1.6,1.5-2.2,3.8-3.4,5.6c-1.9,2.8-1,5.9-0.6,8.9l1.7-0.2c-2,0.3-4.1,0.7-6.1,0.9c-0.7,0.1-1.5,0.8-2.2-0.1
		c-0.3-0.1-0.6-0.2-0.9,0.1c-0.1,0.4-2.3,2-2.5,1.8c-0.4-0.4-1-0.6-0.9-1.4c-0.5,0-1,0.1-1.5,0.1c-2.1,0.3-4.3,0.7-6.4,0.8
		c-2.3,0.1-4.6,0.2-6.9,0.4c0,0.2,0,0.4-0.2,0.4c-2-0.3-4,0.2-6-0.4L76.1,27c0,2-0.3,2.3-2.3,2.2c-0.3,0-0.6-0.1-0.9-0.2
		c1.7-0.1,2.1-1.1,2.2-2.5c0-0.6,0-1.4,1-1.5c-0.1-0.6,0.4-0.7,0.9-0.8c-0.5-0.9-0.8-1.8-1-2.8c-1.4,0.9-0.5,2.5-1.3,3.7
		c-0.9,0.2-1.9-0.2-2.7,0.2c-1.1,0.5-0.2,1.7-0.8,2.7c-0.1-0.9-0.1-1.7-0.1-2.5c-0.1-0.1-0.2-0.1-0.4-0.2c-0.1,1.9-0.5,3.4-2.4,3.3
		l-4.1-1c0.9-0.2,1.9-0.2,2.8-0.2c0.7,0.1,1.2-0.7,1.2-1.6c0-1.2,0.1-2.4,0-3.5c-0.1-1.9-1-3.6-2.5-4.8c-1-0.7-2-1.5-3.1-2.1
		c-1.5-1-3.3-1.3-5-0.6c-1.4,0.7-2.7,1.4-3.9,2.3c-0.4,0.2-0.6,0.8-1.1,0.2c-0.2,0.1-0.4,0.3-0.5,0.6c0.3,0.2,0.1,0.3-0.1,0.3
		c-0.6,0.6-1,1.4-0.9,2.2c0.7,0.1,0.5,0.7,0.5,1.1c0,1,0,2,0,3L50,25.6h-3.4c0.1,0.3,0.3,0.6,0.4,0.8c0.4,2,0.4,2,2.5,2.2
		c0.4,0,0.8,0,0.7,0.7c-0.8,0.4-1.8,0-2.6,0.2c-0.3-1.1-1.4-1.6-1.8-2.7c-0.4-1.5-0.5-3-0.5-4.5c0-0.6,0.1-1.2-0.4-1.6
		c-0.3,0.6-0.4,1.2-0.3,1.9c-0.1,3.1-0.2,3.2-3.3,2.8c-0.1,0-0.2,0-0.3,0c-3.3-0.4-6.6-0.3-9.9,0h-6.2c0.1-0.5,0.4-0.4,0.7-0.3
		c2.4,0.1,2-0.1,2.1-2.2c0-1.4-0.2-2.8-0.5-4.1c-0.1-0.4-0.4-0.8-0.9-1c-2-0.9-4.4-0.1-5.3,1.9c-0.2,0.5-0.4,1-0.4,1.5
		c-0.1,1.3-0.1,2.5-0.1,3.8c1.2-0.1,2.5,0.3,3.7-0.6c-0.3,1-2.2,1.3-3.9,0.7h-1.9c-1.9,0.5-3.9,0.2-5.9,0.3c-1-0.4-1.9-0.1-2.9-0.3
		c-1.8-0.5-3.8-0.5-5.6,0.1c-0.5,0.5-1.3,0.6-1.9,0.2c-0.6-0.3-0.2-1-0.1-1.6c0.4-1.8,0.7-3.6,1-5.4H2.5c0,0.1,0,0.2-0.1,0.2
		c-0.2,0.1-0.2,0-0.2-0.2c-0.8-0.1-1,0.6-1.1,1.1c-0.5,1.9-0.8,3.8-1,5.7c-0.2,4-0.1,8-0.1,12C0,37.6,0,38,0.3,38.2
		c0.7,0.2,1.4,0.1,1.9-0.3c-0.1-0.9,0.2-1.8,0.7-2.5c0.4-0.8-0.1-1.8,0.2-2.6c1.3-0.3,2.6,0.1,3.8-0.2v-0.4H3.3
		c6.7-0.6,13.5-0.7,20.2-0.4c-4.5,0.2-9.1,0-13.6,0.6c7.1,0.2,14.2,0.1,21.3-0.5c0.2-0.6,0.2-1.2-0.2-1.7c-3.6,0.8-7.4,1.4-11.2,0.6
		c3.9,0.1,7.8-0.4,11.6-1.3V26c0.3,1.5,0.4,3,0.3,4.5c-0.1,1.1,0.4,1.4,1.4,1.4c3.5-0.1,7,0,10.5-0.1c1.3,0,2.6-0.6,3.8-0.6
		c1.8,0,3.6,0.3,5.4,0.1c0.5,0,1-0.1,1.4-0.3c0.2,0.1,0.5,0.1,0.7,0.1c0,0.2-0.1,0.4-0.1,0.7c0.5-0.2,1-0.4,1.5-0.6
		c0.3,0,0.6-0.1,0.8-0.2c3.3-0.8,6.7-0.4,10-0.6c0.3,0,0.7-0.1,1-0.2c0.2,0,0.4,0.1,0.6,0.1c2.3,0.2,4.6,0.2,6.9,0.2
		c4.4,0,8.9,0.3,13.3-0.4c1.5-0.3,3.1-0.3,4.6-0.2c2.9,0.4,5.8,1.1,8.7,0.1c0.3-0.1,0.7-0.2,1.1-0.2c6.2-0.7,12.4-1.1,18.5-1.9
		c2.9-0.4,5.9-0.6,8.9-1.1c5.3-1,10.7-1.7,16.1-2.4c5.7-0.8,11.5-1.1,17.3-1.1c3.3,0.2,6.6-0.4,9.7-1.6c3.9-1.6,8.1-2.3,12.3-2
		c2,0.1,4,0.1,5.9-0.1c1.1-0.2,2.3-0.4,3.4-0.7c0.3,0.5,0.9,0.8,1.5,0.7c-0.4-0.6-0.2-1,0.5-1.2c1.9-0.6,4-1,6-1.1
		c7.1,0,14.2,0,21.2,0c11.3,0,22.6,0.1,33.9-0.2c0.5,0,1.2,0.2,1.2-0.5c0-0.7-0.7-0.5-1.2-0.5c-0.1,0-0.3,0-0.4,0
		c-18.1,0-36.2,0-54.4,0c-3,0-5.9,1-8.8,1.5c-2.1,0.6-4.2,0.9-6.4,1.2c-3.7,0.1-7.4-0.4-11,0.3c-0.4,0.4-1.1,0.5-1.6,0.4
		c0.4-0.4,0.9-0.6,1.5-0.5c1.2-0.6,2.5-0.9,3.8-0.8c5.6,0.3,11.2-0.3,16.6-1.6c2.1-0.6,4.2-1,6.4-1.1c17.9,0.1,35.7,0,53.5,0
		c0.6,0.1,1.2,0,1.7-0.2c0.3-1-0.2-2,0.4-3.2c0.5,1.6,0.1,3.1,0.4,4.4c1,0.1,1.8,0.3,2.6,0.4c4.4,0.2,8.7,1.7,12.2,4.4
		c0.7,0.6,1.6,1.1,2.3,1.7c0.8,0.6,1.7,0.9,2.7,0.8c2.8,0,5.5,0,8.3,0c0.9,0,1.7,0.3,2.4,0.8c1.6,1.2,3.2,2.3,4.9,3.4
		c3.2,1.9,6.5,3.5,9.6,5.5c4.1,2.7,8.8,4.2,13.7,4.5c7.5,0.2,15,0.1,22.5,0.1c0.5,0,1.1-0.1,1.3-0.6c0.2-0.7,0.8-0.7,1.2-1
		c-0.4-1-1.1-0.2-1.7-0.4c0.2-0.8-0.9-1.3-0.7-2.1c0.1-0.3,0-0.7-0.1-1c2.4-0.4,4.6-1.3,6.6-2.6c2.6-2.4,3.4-5.2,3.5-9.2
		C351.8,19.2,352.9,17.8,351.9,16.3z M196.8,2.9c1.4,0,2.5,1.1,2.5,2.5c0,0,0,0,0,0.1c0,1.3-1.1,2.4-2.4,2.4c-0.1,0-0.1,0-0.2,0
		c-1.3,0.1-2.5-0.9-2.6-2.2c0-0.1,0-0.3,0-0.4c0-1.3,1-2.4,2.4-2.4C196.6,2.9,196.7,2.9,196.8,2.9z M3.2,30.9v-0.3H19v0.3H3.2z
		 M24,22.6c-0.8-0.1-1.6-0.4-1.6-1.6c0-1.2,0.7-1.6,1.7-1.6c0.9-0.1,1.7,0.6,1.7,1.5c0,0,0,0,0,0C26,21.9,25.1,22.6,24,22.6z
		 M41.8,30.3c1.3-0.3,2.7-0.4,4.1-0.1C44.6,30.6,43.2,30.6,41.8,30.3z M46.2,29.5c0.5,0,0.9-0.1,1.3-0.1
		C47.1,29.6,46.6,29.7,46.2,29.5L46.2,29.5z M59.7,16.4c0.3,0,0.5,0.3,0.5,0.5c0,0.3-0.3,0.6-0.6,0.6c0,0,0,0,0,0
		c-0.3-0.1-0.6-0.3-0.6-0.7C59,16.5,59.3,16.3,59.7,16.4z M55.8,18.2c0.1-0.4,0.5-0.7,0.9-0.7c0.2,0,0.4,0.1,0.5,0.3
		c0,0.1,0,0.1,0,0.2c0,0.5-0.4,0.7-0.8,0.8C56.1,18.7,55.7,18.7,55.8,18.2z M59.9,24.9c-1.8,0-3.2-1.4-3.2-3.2
		c0-1.6,1.3-2.9,2.9-2.9c0,0,0,0,0,0c1.7,0,3.2,1.4,3.2,3.1C62.8,23.5,61.6,24.8,59.9,24.9z M64.7,21c0.5,0.1,0.4,0.5,0.5,0.8
		s-0.1,0.7-0.5,0.6c-0.5-0.1-0.5-0.5-0.5-0.8C64.1,21.3,64.2,21,64.7,21z M113.9,9.7c0.6,0,0.8,0.4,0.8,1.1c0,0.6-0.4,1-0.9,1
		c-0.5-0.1-0.9-0.6-0.9-1.1c-0.1-0.5,0.3-0.9,0.8-1C113.8,9.6,113.9,9.6,113.9,9.7z M114.2,13c1.5,0.2,2.6,1.4,2.5,2.9
		c0,1.4-1.1,2.6-2.5,2.6s-2.6-1.1-2.6-2.5c0-0.1,0-0.2,0-0.3C111.5,14.3,112.7,13,114.2,13L114.2,13z M99.2,29.4
		c2.2-1,4.6-1.3,6.9-0.7C103.9,29,101.7,29.2,99.2,29.4z M106.8,28.7c0-0.2,0-0.4,0-0.6c4.7-0.4,9.3-0.9,14-1.3c0,0.1,0,0.2,0,0.3
		C116.2,27.6,111.5,28.1,106.8,28.7L106.8,28.7z M123.1,26.6c0.6-0.4,1.4-0.5,2.1-0.4C124.7,26.7,124.7,26.7,123.1,26.6L123.1,26.6z
		 M128.3,25.8c0.3-0.3,0.5-0.3,0.8-0.1C128.8,26,128.6,25.9,128.3,25.8L128.3,25.8z M129.8,25.6l-0.1,0.1c0,0,0-0.1,0-0.1
		C129.7,25.6,129.8,25.6,129.8,25.6c0.6-0.5,1.3-0.2,2-0.2C131.1,25.6,130.5,25.7,129.8,25.6L129.8,25.6z M132.7,25.2
		c0.3-0.2,0.7-0.2,1,0C133.4,25.4,133,25.4,132.7,25.2L132.7,25.2z M136.3,24.6c0.1-0.2,0.3-0.1,0.4-0.1
		C136.6,24.9,136.4,24.8,136.3,24.6L136.3,24.6z M137.4,24.7c0.2-0.6,0.5-0.8,1.1-0.5C138.3,24.5,137.9,24.7,137.4,24.7L137.4,24.7z
		 M144.5,23.4c0,0,0-0.1-0.1-0.1c0.1,0,0.1,0,0.1,0c0,0,0.1,0.1,0.1,0.1C144.6,23.3,144.6,23.3,144.5,23.4L144.5,23.4z M159.7,22.2
		v-0.2h4.8v0.2H159.7z M171,21c-1.4,0.7-1.7,0.7-2.9,0c0.9,0.1,1.8,0,2.8-0.2c1.6-0.7,3.2-1.2,4.9-1.4C174.3,20.3,172.7,20.8,171,21
		L171,21z M232.6,14.3h-7.4c-0.3-0.6-0.3-1.3-0.1-1.9h7.6C232.8,13,232.8,13.6,232.6,14.3L232.6,14.3z M293.4,20.6
		c0.1,0,0.1,0,0.2,0.1v1.7h-0.2V20.6z M279.3,13.9c0.7-0.2,1.1,0.1,1.2,0.6c0.1,0.5-0.2,1-0.7,1.1c-0.1,0-0.1,0-0.2,0
		C279.1,15.2,279,14.5,279.3,13.9L279.3,13.9z M274.4,3.2c1.4,0.1,2.5,1.2,2.6,2.6c0,1.4-1.1,2.6-2.6,2.6c-1.4,0-2.6-1.1-2.6-2.5
		c0,0,0-0.1,0-0.1C271.8,4.4,272.9,3.3,274.4,3.2L274.4,3.2z M294.1,25c-1-0.7-1.9-1.4-2.8-2.1c-2.3-0.9-4.3-2.3-6.6-3.1
		c-0.9-0.2-1.7-0.6-2.4-1.2L277,17c-3.5-1-7.1-1.7-10.7-2c-1,0-1.9-0.3-2.8-0.7c1,0.1,2,0.1,3.1,0.2C271.8,15,277,16.2,282,18
		c0.2,0.1,0.4,0.2,0.5,0.4c3.2,1,6.2,2.4,9,4.4c0.8,0.1,1.3,0.7,2,1c0.1-0.2,0.2-0.5,0.3-0.8c0.7,0.7,1.6,0.9,2.1,1.7
		c0.1,0.1,0.2,0.2,0,0.3c0,0-0.1-0.1-0.2-0.1c-0.2,0-0.5,0-0.8-0.1C295,25.7,294.4,25.2,294.1,25z M295.2,25.5
		c0.9,0.1,1.7,0.5,2.3,1.1C296.6,26.7,295.7,26.3,295.2,25.5L295.2,25.5z M300.5,22.5c0-0.1,0.1-0.1,0.2-0.1c0,0.1,0.1,0.2,0.1,0.2
		s-0.1,0.1-0.2,0.1C300.5,22.6,300.5,22.5,300.5,22.5L300.5,22.5z M309.7,33.4c-0.1,0.2-0.3,0-0.4-0.1c-1.1-0.2-2-0.8-2.8-1.6
		c-0.2-0.1-0.4-0.2-0.5-0.3c-0.2-0.1-0.4-0.1-0.5-0.4c-1.1-0.2-2.2-0.7-3.1-1.4c-0.9-0.5-1.7-1.1-2.5-1.8c2.1,0.8,4,1.8,5.7,3.2
		c0.2-0.1,0.5,0,0.6,0.2c0.2,0.1,0.4,0.2,0.5,0.3c1,0.4,2,0.9,2.8,1.6C309.6,33.2,309.9,33.2,309.7,33.4L309.7,33.4z M310.5,33.8
		c0.9-0.1,1.7,0.2,2.4,0.8C312,34.8,311.1,34.5,310.5,33.8L310.5,33.8z M322.5,32.7c-0.1,0.1-0.1,0.2-0.2,0.4
		c-0.1-0.1-0.1-0.2-0.2-0.4H322.5z M320.6,36.3c6.4,0.3,12.7-0.7,19.1-0.2C333.3,36.6,327,36.6,320.6,36.3L320.6,36.3z M338.5,17.9
		c-0.1,0.2-0.3,0.2-0.5,0.1c-0.1,0-0.1-0.1-0.1-0.2c-0.2-0.6,0.2-1.1,0.7-1.6C339.2,17,338.8,17.5,338.5,17.9L338.5,17.9z
		 M341.7,35.7c0,0.1-0.2,0.2-0.3,0.2c-0.1,0-0.2,0-0.2-0.1c0,0,0,0,0-0.1c0-0.1,0.2-0.1,0.2-0.2C341.6,35.5,341.8,35.5,341.7,35.7
		L341.7,35.7z M343.6,25.9c-0.2-0.1-0.2-0.3-0.1-0.5c0,0,0-0.1,0.1-0.1c0.3-0.4,0.9-0.4,1.2,0c0.1,0.1,0.1,0.1,0.2,0.2
		C344.6,26,344.2,26.2,343.6,25.9L343.6,25.9z M346.6,20.7c-0.7,2.1-2.2,3.1-4.2,2.7c-0.2,0-0.4-0.1-0.5-0.1
		c-0.9,0.3-1.1,0.1-1.1-0.7c0.1-0.4-0.2-0.5-0.5-0.5c-0.6,0.2-0.8,0.1-0.6-0.9c-0.7-0.7-0.3-1.6-0.3-2.3c0-0.2,0.3-0.1,0.4,0.1
		c0.5-0.1,0.5-0.5,0.6-0.8c1.1-1.8,2.6-2.4,4.4-1.7C346.2,17.4,347,19.1,346.6,20.7L346.6,20.7z M346.9,16.2
		c-0.7-0.2-0.9-0.6-0.9-1.4c0.7,0.1,1.2,0.3,1.3,1C347.3,16,347.1,16.2,346.9,16.2C346.9,16.2,346.9,16.2,346.9,16.2L346.9,16.2z"/>
</g>
</svg>
