<?xml version="1.0" encoding="utf-8"?>
<!-- Generator: Adobe Illustrator 22.1.0, SVG Export Plug-In . SVG Version: 6.00 Build 0)  -->
<svg version="1.1" id="Capa_1" xmlns="http://www.w3.org/2000/svg" xmlns:xlink="http://www.w3.org/1999/xlink" x="0px" y="0px"
	 viewBox="0 0 293 26" style="enable-background:new 0 0 293 26;" xml:space="preserve">
<style type="text/css">
	.st0{enable-background:new    ;}
	.st1{fill:#FFFFFF;}
	.st2{fill:#0A828B;}
</style>
<g class="st0">
	<path class="st1" d="M1.5,21V5.5h9.4v1.7H3.4v5.3h6.9v1.7H3.4V21H1.5z"/>
	<path class="st1" d="M14.3,19.9c0-0.7,0.5-1.2,1.2-1.2s1.2,0.5,1.2,1.2s-0.5,1.2-1.2,1.2S14.3,20.6,14.3,19.9z"/>
	<path class="st1" d="M25.4,21V5.5h5.9c2.7,0,4.4,1.5,4.4,3.9c0,1.6-1.2,3.1-2.7,3.4v0.1c2.1,0.3,3.5,1.8,3.5,3.8
		c0,2.7-2,4.4-5.3,4.4H25.4z M27.4,12.2h2.9c2.3,0,3.5-0.9,3.5-2.6c0-1.5-1.1-2.4-2.9-2.4h-3.5V12.2z M31,19.3
		c2.3,0,3.6-0.9,3.6-2.7s-1.3-2.7-3.7-2.7h-3.4v5.4H31z"/>
	<path class="st1" d="M39.6,5.5h1.9V21h-1.9V5.5z"/>
	<path class="st1" d="M44.6,15.4c0-3.6,2.1-5.8,5.2-5.8c3.1,0,5.2,2.2,5.2,5.8c0,3.6-2.1,5.8-5.2,5.8C46.7,21.2,44.6,19,44.6,15.4z
		 M53,15.4c0-2.6-1.3-4.1-3.3-4.1s-3.3,1.5-3.3,4.1s1.3,4.1,3.3,4.1S53,18,53,15.4z"/>
	<path class="st1" d="M57.4,15.4c0-3.6,2.1-5.8,5.2-5.8c3.1,0,5.2,2.2,5.2,5.8c0,3.6-2.1,5.8-5.2,5.8C59.5,21.2,57.4,19,57.4,15.4z
		 M65.8,15.4c0-2.6-1.3-4.1-3.3-4.1s-3.3,1.5-3.3,4.1s1.3,4.1,3.3,4.1S65.8,18,65.8,15.4z"/>
	<path class="st1" d="M70.7,9.8h1.8v1.8h0c0.5-1.2,1.7-2,3.2-2c1.5,0,2.7,0.8,3.1,2.1h0c0.6-1.3,1.9-2.1,3.5-2.1
		c2.2,0,3.6,1.4,3.6,3.7V21h-1.9v-7.3c0-1.5-0.8-2.4-2.3-2.4c-1.5,0-2.5,1.1-2.5,2.6V21h-1.9v-7.5c0-1.3-0.9-2.2-2.3-2.2
		c-1.5,0-2.6,1.2-2.6,2.7v7h-1.9V9.8z"/>
	<path class="st1" d="M91.4,19.1L91.4,19.1l0,1.9h-1.8V5.5h1.9v6.2h0c0.7-1.3,2-2.1,3.6-2.1c2.8,0,4.7,2.3,4.7,5.8
		c0,3.5-1.9,5.8-4.7,5.8C93.4,21.2,92.1,20.4,91.4,19.1z M91.4,15.4c0,2.5,1.3,4.1,3.2,4.1c2,0,3.2-1.6,3.2-4.1
		c0-2.5-1.2-4.1-3.2-4.1C92.8,11.3,91.4,12.9,91.4,15.4z"/>
	<path class="st1" d="M112,17.8c-0.3,2-2.2,3.4-4.7,3.4c-3.2,0-5.1-2.2-5.1-5.7c0-3.5,2-5.8,5.1-5.8c3,0,4.9,2.2,4.9,5.6v0.7h-8V16
		c0,2.1,1.3,3.5,3.3,3.5c1.4,0,2.5-0.7,2.8-1.8H112z M104.1,14.5h6.1c0-1.9-1.2-3.2-3-3.2C105.5,11.3,104.3,12.6,104.1,14.5z"/>
	<path class="st1" d="M115.1,9.8h1.8v1.8h0c0.4-1.2,1.4-2,2.7-2c0.3,0,0.6,0.1,0.8,0.1v1.8c-0.2-0.1-0.5-0.1-1-0.1
		c-1.5,0-2.4,1-2.4,2.6v7h-1.9V9.8z"/>
	<path class="st1" d="M122.4,21.9h1.9c0.4,1,1.5,1.7,2.9,1.7c1.9,0,3.1-1.1,3.1-2.8v-1.8h0c-0.7,1.2-2,2-3.6,2
		c-2.8,0-4.7-2.2-4.7-5.7c0-3.5,1.9-5.7,4.8-5.7c1.6,0,2.9,0.8,3.6,2.1h0V9.8h1.8v10.9c0,2.7-2,4.4-5,4.4
		C124.6,25.2,122.7,23.8,122.4,21.9z M130.3,15.4c0-2.5-1.3-4.1-3.2-4.1c-1.9,0-3.2,1.6-3.2,4.1s1.3,4.1,3.2,4.1
		C129,19.4,130.3,17.8,130.3,15.4z"/>
</g>
<g class="st0">
	<path class="st2" d="M145.4,13.2L145.4,13.2l-4.9-7.7h3.8l3.3,5.6h0.1l3.3-5.6h3.6l-5.1,7.7v0.1l5,7.7h-3.7l-3.4-5.4h-0.1L144,21
		h-3.5L145.4,13.2z"/>
</g>
<g class="st0">
	<path class="st1" d="M168.7,15.2c0,3.7-1.8,5.9-4.7,5.9c-1.7,0-3-0.8-3.6-2.1h-0.1v5.7h-3.1V9.5h3.1v2h0.1c0.6-1.4,1.9-2.2,3.6-2.2
		C166.9,9.3,168.7,11.5,168.7,15.2z M165.5,15.2c0-2.1-1-3.4-2.6-3.4c-1.5,0-2.5,1.4-2.5,3.4c0,2.1,1,3.4,2.5,3.4
		C164.5,18.7,165.5,17.3,165.5,15.2z"/>
	<path class="st1" d="M181.9,17.5c-0.3,2.3-2.4,3.8-5.3,3.8c-3.5,0-5.7-2.3-5.7-6c0-3.7,2.1-6.1,5.6-6.1c3.4,0,5.5,2.3,5.5,5.8v1
		h-7.9v0.2c0,1.6,1,2.8,2.6,2.8c1.1,0,2-0.6,2.3-1.5H181.9z M174.1,14h4.9c-0.1-1.5-1-2.5-2.4-2.5C175.2,11.6,174.2,12.6,174.1,14z"
		/>
	<path class="st1" d="M184.7,9.5h3v2.1h0.1c0.4-1.5,1.4-2.3,2.7-2.3c0.4,0,0.7,0.1,0.9,0.1v2.8c-0.3-0.1-0.7-0.2-1.1-0.2
		c-1.5,0-2.4,0.9-2.4,2.6V21h-3.1V9.5z"/>
	<path class="st1" d="M193.8,6.3c0-0.9,0.7-1.6,1.6-1.6s1.6,0.7,1.6,1.6c0,0.9-0.7,1.6-1.6,1.6S193.8,7.2,193.8,6.3z M193.9,9.5h3.1
		V21h-3.1V9.5z"/>
	<path class="st1" d="M210.7,17.5c-0.3,2.3-2.4,3.8-5.3,3.8c-3.5,0-5.7-2.3-5.7-6c0-3.7,2.1-6.1,5.6-6.1c3.4,0,5.5,2.3,5.5,5.8v1
		h-7.9v0.2c0,1.6,1,2.8,2.6,2.8c1.1,0,2-0.6,2.3-1.5H210.7z M202.9,14h4.9c-0.1-1.5-1-2.5-2.4-2.5C204,11.6,203,12.6,202.9,14z"/>
	<path class="st1" d="M213.5,9.5h3v2.1h0.1c0.6-1.4,1.8-2.3,3.6-2.3c2.6,0,4,1.6,4,4.3V21h-3.1v-6.8c0-1.5-0.7-2.4-2.1-2.4
		s-2.3,1-2.3,2.5V21h-3.1V9.5z"/>
	<path class="st1" d="M234.8,13.8c-0.2-1.2-1-2.1-2.3-2.1c-1.5,0-2.5,1.3-2.5,3.5c0,2.3,1,3.6,2.5,3.6c1.3,0,2.1-0.8,2.3-2h2.9
		c-0.2,2.7-2.2,4.5-5.2,4.5c-3.5,0-5.7-2.3-5.7-6c0-3.7,2.2-6,5.7-6c3.1,0,5.1,1.9,5.2,4.5H234.8z"/>
	<path class="st1" d="M250.9,17.5c-0.3,2.3-2.4,3.8-5.3,3.8c-3.5,0-5.7-2.3-5.7-6c0-3.7,2.1-6.1,5.6-6.1c3.4,0,5.5,2.3,5.5,5.8v1
		H243v0.2c0,1.6,1,2.8,2.6,2.8c1.1,0,2-0.6,2.3-1.5H250.9z M243.1,14h4.9c-0.1-1.5-1-2.5-2.4-2.5C244.2,11.6,243.2,12.6,243.1,14z"
		/>
</g>
<g class="st0">
	<path class="st1" d="M266.7,17.8H259V16c1.3-2.4,3.1-5.3,6.8-10.5h2.9v10.6h2.2v1.7h-2.2V21h-1.9V17.8z M260.9,16.1h5.9v-9h0
		C263.8,11.3,262.1,13.9,260.9,16.1L260.9,16.1z"/>
	<path class="st1" d="M274.1,19.9c0-0.7,0.5-1.2,1.2-1.2s1.2,0.5,1.2,1.2s-0.5,1.2-1.2,1.2S274.1,20.6,274.1,19.9z"/>
	<path class="st1" d="M280.2,13.2c0-4.9,2.1-8,5.7-8s5.7,3.1,5.7,8c0,4.9-2.1,8-5.7,8C282.3,21.3,280.2,18.1,280.2,13.2z
		 M289.6,13.2c0-3.8-1.4-6.3-3.7-6.3s-3.8,2.5-3.8,6.3c0,3.9,1.3,6.3,3.8,6.3C288.3,19.6,289.6,17.1,289.6,13.2z"/>
</g>
</svg>
