<svg xmlns="http://www.w3.org/2000/svg" width="95.1" height="89.9" viewBox="0 0 95.1 89.9">
  <g id="icon-calendar" transform="translate(-992.5 -308)">
    <path id="Trazado_1" data-name="Trazado 1" d="M54.5,45.7H45.6a3.691,3.691,0,0,0-3.7,3.7v5.4a3.691,3.691,0,0,0,3.7,3.7h8.9a3.691,3.691,0,0,0,3.7-3.7V49.4A3.756,3.756,0,0,0,54.5,45.7Z" transform="translate(990 303)" fill="#fff"/>
    <path id="Trazado_2" data-name="Trazado 2" d="M31.5,45.7H22.6a3.691,3.691,0,0,0-3.7,3.7v5.4a3.691,3.691,0,0,0,3.7,3.7h8.9a3.691,3.691,0,0,0,3.7-3.7V49.4a3.691,3.691,0,0,0-3.7-3.7Z" transform="translate(990 303)" fill="#fff"/>
    <path id="Trazado_3" data-name="Trazado 3" d="M77.4,45.7H68.5a3.691,3.691,0,0,0-3.7,3.7v5.4a3.691,3.691,0,0,0,3.7,3.7h8.9a3.691,3.691,0,0,0,3.7-3.7V49.4a3.63,3.63,0,0,0-3.7-3.7Z" transform="translate(990 303)" fill="#fff"/>
    <path id="Trazado_4" data-name="Trazado 4" d="M85.6,12.7h-8v-4A3.691,3.691,0,0,0,73.9,5H68.4a3.691,3.691,0,0,0-3.7,3.7v4H35.2v-4A3.691,3.691,0,0,0,31.5,5H26a3.691,3.691,0,0,0-3.7,3.7v4h-8A11.843,11.843,0,0,0,2.5,24.6V83A11.928,11.928,0,0,0,14.4,94.9H85.7A11.928,11.928,0,0,0,97.6,83V24.6a12.014,12.014,0,0,0-12-11.9Zm0,73.1H14.4a2.689,2.689,0,0,1-2.7-2.7V38.4H88.4V83a2.862,2.862,0,0,1-2.8,2.8Z" transform="translate(990 303)" fill="#fff"/>
  </g>
</svg>
