<svg width="29" height="24" viewBox="0 0 29 24" fill="none" xmlns="http://www.w3.org/2000/svg">
<path d="M10.3596 17.8385C10.0913 17.8002 9.8996 17.7235 9.7846 17.6852C9.74626 17.6852 9.70793 17.6469 9.6696 17.6469C9.51626 17.5702 9.36293 17.4935 9.2096 17.4169C8.1746 16.8419 7.3696 15.8835 7.0246 14.7335C7.0246 14.6952 7.0246 14.6952 7.0246 14.6569C6.98626 14.4652 6.94793 14.2735 6.9096 14.0819C6.9096 14.0435 6.9096 14.0052 6.9096 13.9669C6.87126 13.7752 6.87126 13.5452 6.87126 13.3535V13.0469V10.7469V10.5552C6.87126 10.3635 6.87126 10.2102 6.9096 10.0185V9.9802C6.94793 9.82687 6.94793 9.6352 6.98626 9.48187C7.3696 7.7952 8.71126 6.45353 10.3979 6.0702C10.5513 6.03187 10.7429 5.99353 10.8963 5.99353H10.9346C11.1263 5.9552 11.2796 5.9552 11.4713 5.9552H11.8929H15.4963H17.0296H17.3746C16.1479 3.80853 14.3079 2.00687 12.0079 0.933533C11.3946 0.741867 10.4746 0.5502 9.17126 0.741867C8.82626 0.7802 8.48126 0.856867 8.1746 0.933533C8.13626 0.933533 8.13626 0.933533 8.09793 0.933533C6.94793 1.16353 5.83626 1.54687 4.87793 2.08353C4.80126 2.12187 4.76293 2.1602 4.68626 2.19853C4.64793 2.19853 4.64793 2.23687 4.6096 2.23687C4.2646 2.42853 3.99626 2.6202 3.84293 2.77353C2.5396 3.7702 1.54293 5.1502 0.967929 6.79853C0.431262 8.2552 0.162929 9.82687 0.124595 11.3985C0.124595 11.3985 -0.258738 16.7269 2.46293 19.5635C3.5746 20.8669 5.10793 21.8635 6.83293 22.3619C8.2896 22.8602 9.74626 23.0902 11.5479 23.1669C12.3913 22.8219 13.1963 22.3619 13.9246 21.8252C14.0013 21.7485 14.0779 21.7102 14.1546 21.6335C14.3079 21.5185 14.4613 21.4035 14.6146 21.2502C15.6879 20.3302 16.6079 19.2185 17.2979 17.9535H16.9529H11.3563C11.3563 17.9152 10.7429 17.8769 10.3596 17.8385Z" fill="url(#paint0_linear)"/>
<path d="M27.1501 17.6468C27.2651 17.4935 27.3035 17.3018 27.3801 17.1485C28.4535 14.3885 28.1851 11.6285 28.1851 11.6285C28.1851 10.7468 28.1085 9.86512 27.9551 9.02179C27.3035 5.15012 25.1951 2.46679 21.4001 1.39346C19.1385 0.741789 16.8768 0.435123 14.6151 0.39679C15.3818 0.818456 16.0718 1.27846 16.6468 1.77679C19.6368 4.11512 21.6301 7.75679 21.6301 11.8201C21.6301 16.8418 18.6785 21.1735 14.3851 23.3201C14.8451 23.3585 15.3051 23.3968 15.8035 23.3968C17.4901 23.2435 19.2535 22.9751 20.8635 22.5918C21.3618 22.4768 21.8601 22.3618 22.3201 22.1701C22.3585 22.1701 22.3585 22.1701 22.3968 22.1318C22.4351 22.1318 22.4351 22.1318 22.4735 22.0935C24.9268 21.1735 26.3451 19.4485 27.1501 17.6468Z" fill="url(#paint1_linear)"/>
<path d="M12.1997 9.78851H17.4514C18.103 9.78851 18.6397 10.3252 18.6397 10.9768V12.8935C18.6397 13.5452 18.103 14.0818 17.4514 14.0818H12.1997C11.548 14.0818 11.0114 13.5452 11.0114 12.8935V10.9768C11.0114 10.3252 11.548 9.78851 12.1997 9.78851Z" fill="url(#paint2_linear)"/>
<g style="mix-blend-mode:multiply" opacity="0.3">
<path d="M17.4521 14.1202C18.1038 14.1202 18.6404 13.5835 18.6404 12.9318V11.0152C18.6404 10.3635 18.1038 9.82684 17.4521 9.82684H16.6854C16.8004 10.4785 16.8388 11.1685 16.8388 11.8585C16.8388 12.6252 16.7621 13.3918 16.6088 14.1202H17.4521Z" fill="#0082CB"/>
</g>
<path opacity="0.2" d="M16.9526 17.9152H15.3043C14.1159 20.0619 12.3143 21.8636 10.1293 23.0519C10.5893 23.0902 11.0493 23.1286 11.5476 23.1669C12.3909 22.8219 13.1959 22.3619 13.9243 21.8252C14.0009 21.7486 14.0776 21.7102 14.1543 21.6336C14.3076 21.5186 14.4609 21.4036 14.6143 21.2502C15.6876 20.3302 16.6076 19.2186 17.2976 17.9536H16.9526V17.9152Z" fill="#1C1730"/>
<path opacity="0.2" d="M12.0082 0.895164C11.5865 0.780164 11.0115 0.626831 10.2449 0.626831C10.8582 0.971831 11.3949 1.35516 11.8932 1.77683C13.3115 2.8885 14.4999 4.30683 15.3815 5.91683H15.4965H17.0299H17.3749C16.1482 3.73183 14.3082 1.9685 12.0082 0.895164Z" fill="#1C1730"/>
<defs>
<linearGradient id="paint0_linear" x1="0.106079" y1="11.9146" x2="17.3746" y2="11.9146" gradientUnits="userSpaceOnUse">
<stop offset="0.337" stop-color="white"/>
<stop offset="1" stop-color="#CDD3E0"/>
</linearGradient>
<linearGradient id="paint1_linear" x1="21.3" y1="0.39679" x2="21.3" y2="23.4071" gradientUnits="userSpaceOnUse">
<stop offset="0.337" stop-color="white"/>
<stop offset="1" stop-color="#CDD3E0"/>
</linearGradient>
<linearGradient id="paint2_linear" x1="11.0127" y1="11.9598" x2="18.6442" y2="11.9598" gradientUnits="userSpaceOnUse">
<stop offset="0.1043" stop-color="#11E0D4"/>
<stop offset="0.2325" stop-color="#0BB9E4"/>
<stop offset="0.3502" stop-color="#069CF0"/>
<stop offset="0.4525" stop-color="#038BF7"/>
<stop offset="0.5282" stop-color="#0285FA"/>
<stop offset="0.7184" stop-color="#017DFD"/>
<stop offset="1" stop-color="#007AFF"/>
</linearGradient>
</defs>
</svg>
