<svg width="119" height="28" viewBox="0 0 119 28" fill="none" xmlns="http://www.w3.org/2000/svg">
<path d="M85.71 0.855507H94.2656C95.1211 0.855507 95.8989 1.32217 96.2878 2.02217L99.9434 8.47773C100.021 8.55551 100.099 8.55551 100.177 8.47773L107.643 1.32217C108.11 0.933285 108.654 0.699951 109.277 0.699951H118.221C118.377 0.699951 118.377 0.855507 118.299 0.933285L105.077 13.5333C104.999 13.6111 104.999 13.6888 105.077 13.6888L114.332 26.5222C114.488 26.6777 114.332 26.9888 114.099 26.9888L105.621 27.1444C104.999 27.1444 104.454 26.8333 104.143 26.3666L99.2434 18.5888L90.7656 26.3666C90.2211 26.9111 89.4434 27.1444 88.7434 27.1444L80.2656 27.0666C80.11 27.0666 80.11 26.9111 80.1878 26.8333L93.5656 14.1555C93.8767 13.8444 93.8767 13.4555 93.7211 13.0666L85.6323 1.08884C85.5545 1.01106 85.6323 0.855507 85.71 0.855507Z" fill="white"/>
<path d="M58.1781 0.699951H56.3115H52.5781C55.2226 1.86662 57.5559 3.73329 59.1115 6.06662C60.7448 8.2444 61.6781 10.9666 61.6781 13.8444C61.6781 16.8 60.7448 19.4444 59.1115 21.6222C57.5559 24.0333 55.3003 25.9 52.5781 26.9888H57.4004H58.1781C64.4781 26.9888 69.5337 21.8555 69.5337 15.6333V12.0555C69.6115 5.83329 64.4781 0.699951 58.1781 0.699951Z" fill="white"/>
<path d="M56.4658 20.6117H44.6436C44.3325 20.6117 44.0992 20.3784 44.0992 20.0672V7.85613C44.0992 7.54502 44.3325 7.31169 44.6436 7.31169H56.3881C56.5436 7.31169 56.6214 7.15613 56.5436 7.07835C56.0769 6.2228 55.4547 5.5228 54.7547 4.8228C54.7547 4.8228 54.1325 3.88946 52.3436 2.87835C50.3992 1.55613 48.0658 0.778353 45.4992 0.778353C44.2547 0.622798 42.7769 0.54502 41.2214 0.622798C41.1436 0.622798 40.9881 0.622798 40.9103 0.622798C38.7325 0.54502 37.5658 0.700576 37.0214 0.856131C36.8658 0.856131 36.7103 0.933909 36.5547 1.08946C36.3214 1.24502 36.3992 1.47835 36.3992 1.47835V26.6006C36.3992 26.9117 36.6325 27.145 36.9436 27.145H39.9769L40.7547 27.2228C41.6103 27.3006 43.0103 27.3006 44.6436 27.2228C46.8214 27.0672 49.4658 26.6784 51.6436 25.5895C51.6436 25.5895 51.7214 25.5895 51.7214 25.5117C51.9547 25.4339 52.1103 25.2784 52.2658 25.2006L52.3436 25.1228C52.4992 25.045 52.6547 24.9672 52.8103 24.8117C52.8881 24.8117 52.8881 24.7339 52.9658 24.7339C53.1214 24.6561 53.1992 24.5784 53.3547 24.4228C53.4325 24.4228 53.4325 24.345 53.5103 24.345C53.6658 24.1895 53.8214 24.0339 53.9769 23.8784C54.1325 23.7228 54.2881 23.5672 54.4436 23.4117C55.2214 22.6339 55.9214 21.7784 56.5436 20.845C56.6214 20.7672 56.5436 20.6117 56.4658 20.6117Z" fill="white"/>
<path d="M20.2222 0H12.7556C5.67778 0 0 5.67778 0 12.7556V15.2444C0 22.2444 5.67778 28 12.7556 28H20.2222C27.3 28 32.9778 22.3222 32.9778 15.2444V12.7556C32.9778 5.67778 27.2222 0 20.2222 0ZM24.8889 16.2556C24.8889 18.9 22.7111 21.0778 20.0667 21.0778H12.9111C10.2667 21.0778 8.08889 18.9 8.08889 16.2556V11.6667C8.08889 9.02222 10.2667 6.84444 12.9111 6.84444H20.0667C22.7111 6.84444 24.8889 9.02222 24.8889 11.6667V16.2556Z" fill="white"/>
<path d="M80.3433 7.62247C80.3433 7.31136 80.0322 7.00024 79.7211 7.00024H73.4211C73.1099 7.00024 72.7988 7.31136 72.7988 7.62247V26.5225C72.7988 26.8336 73.1099 27.1447 73.4211 27.1447H75.5211C75.7544 27.1447 75.9099 27.0669 76.0655 26.9114L80.1099 23.178C80.2655 23.0225 80.3433 22.7891 80.3433 22.5558V7.62247Z" fill="white"/>
<path fill-rule="evenodd" clip-rule="evenodd" d="M52.8172 20.6115H56.466C56.5438 20.6115 56.6216 20.767 56.5438 20.8448C55.9216 21.7781 55.2216 22.6337 54.4438 23.4115L53.9772 23.8781L53.5105 24.3448C53.4716 24.3448 53.4522 24.3642 53.4327 24.3837C53.4133 24.4031 53.3938 24.4226 53.3549 24.4226C53.1994 24.5781 53.1216 24.6559 52.966 24.7337C52.9272 24.7337 52.9077 24.7531 52.8883 24.7726C52.8688 24.792 52.8494 24.8115 52.8105 24.8115C52.6549 24.967 52.4994 25.0448 52.3438 25.1226L52.266 25.2003C52.2081 25.2293 52.1502 25.269 52.0883 25.3115C51.9839 25.3832 51.8681 25.4626 51.7216 25.5115C51.7216 25.5892 51.6438 25.5892 51.6438 25.5892C50.1597 26.3313 48.459 26.7482 46.8368 26.9878H45.5977C48.3199 25.8989 50.5754 24.0322 52.131 21.6211C52.3757 21.2949 52.6047 20.9581 52.8172 20.6115ZM52.9547 7.31145H56.3883C56.5438 7.31145 56.6216 7.15589 56.5438 7.07812C56.0772 6.22256 55.4549 5.52256 54.7549 4.82256C54.7549 4.82256 54.1327 3.88923 52.3438 2.87811C50.4708 1.60445 48.2369 0.83598 45.7812 0.78125C48.35 1.95245 50.6115 3.78639 52.131 6.06558C52.4294 6.46348 52.7045 6.87956 52.9547 7.31145Z" fill="#D2D1D6"/>
<path d="M73.2671 0H79.8004C80.1116 0 80.3449 0.233334 80.3449 0.544445C80.3449 1.71111 80.3449 2.8 80.2671 3.88889C80.2671 4.04445 79.956 4.43334 79.7227 4.43334C77.6227 4.51112 75.4449 4.51112 73.3449 4.43334C73.1893 4.43334 72.8004 4.12223 72.8004 3.88889C72.7227 2.72223 72.7227 1.63333 72.7227 0.544445C72.8004 0.233334 73.0338 0 73.2671 0Z" fill="url(#paint0_linear)"/>
<defs>
<linearGradient id="paint0_linear" x1="72.7145" y1="2.24739" x2="80.3532" y2="2.24739" gradientUnits="userSpaceOnUse">
<stop stop-color="#11E0D4"/>
<stop offset="0.625" stop-color="#007AFF"/>
</linearGradient>
</defs>
</svg>
