<svg xmlns="http://www.w3.org/2000/svg" xmlns:xlink="http://www.w3.org/1999/xlink" viewBox="0 0 44.113 59.851">
  <defs>
    <style>
      .cls-1 {
        opacity: 0.1;
      }

      .cls-2 {
        fill: #1a1a1a;
      }

      .cls-3 {
        fill: #e51313;
        fill-rule: evenodd;
      }

      .cls-4 {
        fill: #fff;
      }

      .cls-5 {
        filter: url(#Path_42473);
      }
    </style>
    <filter id="Path_42473" x="4.901" y="50.047" width="34.864" height="8.497" filterUnits="userSpaceOnUse">
      <feOffset dy="1" input="SourceAlpha"/>
      <feGaussianBlur result="blur"/>
      <feFlood flood-opacity="0.161"/>
      <feComposite operator="in" in2="blur"/>
      <feComposite in="SourceGraphic"/>
    </filter>
  </defs>
  <g id="Group_41293" data-name="Group 41293" transform="translate(-1084.944 -10391.389)">
    <g id="Group_41186" data-name="Group 41186" transform="translate(829.406 3336.811)">
      <ellipse id="Ellipse_70" data-name="Ellipse 70" class="cls-1" cx="14.653" cy="1.935" rx="14.653" ry="1.935" transform="translate(262.567 7093.509)"/>
      <path id="Union_2" data-name="Union 2" class="cls-2" d="M15.334,40.279l-3.18-8.409A16.19,16.19,0,0,1,16.182,0a16.21,16.21,0,0,1,3.887,31.94L17.03,40.279a.918.918,0,0,1-.848.565A.852.852,0,0,1,15.334,40.279Z" transform="translate(261 7054.579)"/>
      <g id="Group_41275" data-name="Group 41275" transform="translate(55.194 6911.039)">
        <path id="Path_42284" data-name="Path 42284" class="cls-3" d="M42.686,37.638v-8.01L46.8,27.863v9.775Zm4.461.686a.343.343,0,0,0,.343-.343V27.342a.343.343,0,0,0-.478-.315l-4.8,2.059A.343.343,0,0,0,42,29.4v8.579a.343.343,0,0,0,.343.343Z" transform="translate(184.759 130.211)"/>
        <path id="Path_42285" data-name="Path 42285" class="cls-3" d="M28.686,37.638v-8.01L32.8,27.863v9.775Zm4.461.686a.343.343,0,0,0,.343-.343V27.342a.343.343,0,0,0-.478-.315l-4.8,2.059A.343.343,0,0,0,28,29.4v8.579a.343.343,0,0,0,.343.343Z" transform="translate(193.954 130.211)"/>
        <path id="Path_42286" data-name="Path 42286" class="cls-3" d="M14.686,37.638v-8.01L18.8,27.863v9.775Zm4.461.686a.343.343,0,0,0,.343-.343V27.342a.343.343,0,0,0-.478-.315l-4.8,2.059A.343.343,0,0,0,14,29.4v8.579a.343.343,0,0,0,.343.343Z" transform="translate(203.15 130.211)"/>
        <path id="Path_42287" data-name="Path 42287" class="cls-3" d="M19.343,41.686h1.373a.343.343,0,0,0,0-.686H19.343a.343.343,0,0,0,0,.686Z" transform="translate(199.866 121.015)"/>
        <path id="Path_42288" data-name="Path 42288" class="cls-3" d="M19.343,45.686h1.373a.343.343,0,1,0,0-.686H19.343a.343.343,0,1,0,0,.686Z" transform="translate(199.866 118.387)"/>
        <path id="Path_42289" data-name="Path 42289" class="cls-3" d="M19.343,49.686h1.373a.343.343,0,0,0,0-.686H19.343a.343.343,0,1,0,0,.686Z" transform="translate(199.866 115.76)"/>
        <path id="Path_42290" data-name="Path 42290" class="cls-3" d="M19.343,53.686h1.373a.343.343,0,0,0,0-.686H19.343a.343.343,0,1,0,0,.686Z" transform="translate(199.866 113.133)"/>
        <path id="Path_42291" data-name="Path 42291" class="cls-3" d="M19.343,37.686h1.373a.343.343,0,0,0,0-.686H19.343a.343.343,0,1,0,0,.686Z" transform="translate(199.866 123.642)"/>
        <path id="Path_42292" data-name="Path 42292" class="cls-3" d="M33.343,41.686h1.373a.343.343,0,1,0,0-.686H33.343a.343.343,0,0,0,0,.686Z" transform="translate(190.67 121.015)"/>
        <path id="Path_42293" data-name="Path 42293" class="cls-3" d="M33.343,45.686h1.373a.343.343,0,1,0,0-.686H33.343a.343.343,0,1,0,0,.686Z" transform="translate(190.67 118.387)"/>
        <path id="Path_42294" data-name="Path 42294" class="cls-3" d="M33.343,49.686h1.373a.343.343,0,1,0,0-.686H33.343a.343.343,0,0,0,0,.686Z" transform="translate(190.67 115.76)"/>
        <path id="Path_42295" data-name="Path 42295" class="cls-3" d="M33.343,53.686h1.373a.343.343,0,1,0,0-.686H33.343a.343.343,0,0,0,0,.686Z" transform="translate(190.67 113.133)"/>
        <path id="Path_42296" data-name="Path 42296" class="cls-3" d="M33.343,37.686h1.373a.343.343,0,1,0,0-.686H33.343a.343.343,0,0,0,0,.686Z" transform="translate(190.67 123.642)"/>
        <path id="Path_42297" data-name="Path 42297" class="cls-3" d="M47.343,41.686h1.373a.343.343,0,0,0,0-.686H47.343a.343.343,0,0,0,0,.686Z" transform="translate(181.475 121.015)"/>
        <path id="Path_42298" data-name="Path 42298" class="cls-3" d="M47.343,45.686h1.373a.343.343,0,1,0,0-.686H47.343a.343.343,0,1,0,0,.686Z" transform="translate(181.475 118.387)"/>
        <path id="Path_42299" data-name="Path 42299" class="cls-3" d="M47.343,49.686h1.373a.343.343,0,1,0,0-.686H47.343a.343.343,0,1,0,0,.686Z" transform="translate(181.475 115.76)"/>
        <path id="Path_42300" data-name="Path 42300" class="cls-3" d="M47.343,53.686h1.373a.343.343,0,1,0,0-.686H47.343a.343.343,0,1,0,0,.686Z" transform="translate(181.475 113.133)"/>
        <path id="Path_42301" data-name="Path 42301" class="cls-3" d="M47.343,37.686h1.373a.343.343,0,1,0,0-.686H47.343a.343.343,0,1,0,0,.686Z" transform="translate(181.475 123.642)"/>
        <path id="Path_42302" data-name="Path 42302" class="cls-3" d="M.343,42.266h4.8a.343.343,0,0,0,.343-.343V33.343A.343.343,0,0,0,5.148,33H.343A.343.343,0,0,0,0,33.343v8.579A.343.343,0,0,0,.343,42.266Zm.343-8.579H4.8v7.893H.686Z" transform="translate(212.346 126.269)"/>
        <path id="Path_42303" data-name="Path 42303" class="cls-3" d="M5.343,39.745H6.716a.343.343,0,0,0,.343-.343V37.343A.343.343,0,0,0,6.716,37H5.343A.343.343,0,0,0,5,37.343V39.4A.343.343,0,0,0,5.343,39.745Zm.343-2.059h.686v1.373H5.686Z" transform="translate(209.061 123.642)"/>
        <path id="Path_42304" data-name="Path 42304" class="cls-3" d="M5.343,50.745H6.716a.343.343,0,0,0,.343-.343V48.343A.343.343,0,0,0,6.716,48H5.343A.343.343,0,0,0,5,48.343V50.4A.343.343,0,0,0,5.343,50.745Zm.343-.686V48.686h.686v1.373Z" transform="translate(209.061 116.417)"/>
        <path id="Path_42305" data-name="Path 42305" class="cls-3" d="M4.343,21.864H6.4a.343.343,0,0,0,.343-.343V15.343A.343.343,0,0,0,6.4,15H4.343A.343.343,0,0,0,4,15.343V21.52A.343.343,0,0,0,4.343,21.864Zm.343-6.177H6.059v5.491H4.686Z" transform="translate(209.718 138.092)"/>
        <path id="Path_42306" data-name="Path 42306" class="cls-3" d="M2.343,13.059H5.775a.343.343,0,0,0,.343-.343V11.343A.343.343,0,0,0,5.775,11H2.343A.343.343,0,0,0,2,11.343v1.373A.343.343,0,0,0,2.343,13.059Zm.343-1.373H5.432v.686H2.686Z" transform="translate(211.032 140.719)"/>
        <path id="Path_42307" data-name="Path 42307" class="cls-3" d="M8.373.686H9.4a.343.343,0,1,1,0,.686H8.373A1.376,1.376,0,0,0,7,2.745a.343.343,0,0,0,.686,0,.689.689,0,0,1,.686-.686H9.4A1.03,1.03,0,1,0,9.4,0H8.373a.343.343,0,1,0,0,.686Z" transform="translate(207.748 147.945)"/>
      </g>
    </g>
    <g id="Group_41292" data-name="Group 41292" transform="translate(-4.056 0.761)">
      <rect id="Rectangle_1179" data-name="Rectangle 1179" class="cls-2" width="44.113" height="13.479" rx="6.739" transform="translate(1089 10437)"/>
      <g class="cls-5" transform="matrix(1, 0, 0, 1, 1089, 10390.63)">
        <path id="Path_42473-2" data-name="Path 42473" class="cls-4" d="M4.5,1.111h.792L3.059-4.932H2.314L.085,1.111H.877l.607-1.73h2.4ZM2.674-4.015H2.7l.967,2.756H1.706Zm5.821.7a1.563,1.563,0,0,0-1.407.813H7.071v-.737H6.38V2.565h.729V.4h.017a1.53,1.53,0,0,0,1.386.783c1.1,0,1.847-.888,1.847-2.253S9.6-3.32,8.495-3.32ZM8.352.546C7.607.546,7.1-.095,7.1-1.066s.5-1.612,1.248-1.612c.775,0,1.261.628,1.261,1.612S9.127.546,8.352.546Zm5.059.641a2.011,2.011,0,0,0,2.015-2.253A2.009,2.009,0,0,0,13.411-3.32a2.009,2.009,0,0,0-2.019,2.253A2.011,2.011,0,0,0,13.411,1.187Zm0-.641c-.771,0-1.277-.586-1.277-1.612s.507-1.612,1.277-1.612,1.273.586,1.273,1.612S14.182.546,13.411.546Zm4.912.641A1.559,1.559,0,0,0,19.731.374h.013v.737h.7V-4.932H19.71v2.4h-.017a1.53,1.53,0,0,0-1.386-.783c-1.1,0-1.847.888-1.847,2.253S17.214,1.187,18.324,1.187Zm.138-3.866c.75,0,1.252.641,1.252,1.612S19.211.546,18.462.546c-.771,0-1.256-.624-1.256-1.612S17.691-2.679,18.462-2.679ZM23.374.567c-.524,0-.871-.272-.871-.687s.335-.67.921-.708L24.589-.9v.356A1.146,1.146,0,0,1,23.374.567Zm-.163.62a1.588,1.588,0,0,0,1.4-.825h.017v.75h.691V-1.9c0-.867-.645-1.42-1.667-1.42a1.538,1.538,0,0,0-1.726,1.332h.7a.914.914,0,0,1,1.005-.691c.6,0,.955.318.955.85v.364l-1.248.071c-1.005.059-1.579.528-1.579,1.273A1.308,1.308,0,0,0,23.211,1.187Zm7.166-3a1.735,1.735,0,0,0-1.83-1.5,2.008,2.008,0,0,0-2,2.253,2,2,0,0,0,2.01,2.253,1.734,1.734,0,0,0,1.83-1.478h-.716a1.051,1.051,0,0,1-1.11.838c-.754,0-1.273-.6-1.273-1.612,0-.988.511-1.612,1.265-1.612a1.07,1.07,0,0,1,1.114.863ZM33.006.567c-.524,0-.871-.272-.871-.687s.335-.67.921-.708L34.22-.9v.356A1.146,1.146,0,0,1,33.006.567Zm-.163.62a1.588,1.588,0,0,0,1.4-.825h.017v.75h.691V-1.9c0-.867-.645-1.42-1.667-1.42a1.538,1.538,0,0,0-1.726,1.332h.7a.914.914,0,0,1,1.005-.691c.6,0,.955.318.955.85v.364l-1.248.071c-1.005.059-1.579.528-1.579,1.273A1.308,1.308,0,0,0,32.843,1.187Z" transform="translate(4.82 54.98)"/>
      </g>
    </g>
  </g>
</svg>
