<svg xmlns="http://www.w3.org/2000/svg" viewBox="0 0 28.032 32.982">
  <defs>
    <style>
      .cls-1, .cls-2 {
        fill: #000;
      }

      .cls-2 {
        fill-rule: evenodd;
      }
    </style>
  </defs>
  <g id="Group_41153" data-name="Group 41153" transform="translate(-544.085 -492.936)">
    <g id="Group_41151" data-name="Group 41151" transform="translate(546.476 492.936)">
      <rect id="Rectangle_1093" data-name="Rectangle 1093" class="cls-1" width="6.52" height="2.11" rx="1.055" transform="translate(1.101)"/>
      <path id="Path_42447" data-name="Path 42447" class="cls-2" d="M12.793,132.95h.392v-1.86l4.8-3.426v5.286h.489v-1.86l4.8-3.426v15.662h.587a1.078,1.078,0,0,1,0,2.153h-23a1.077,1.077,0,1,1,0-2.153h.489V126H6.92v4.4h0v.1h0v9.984a.539.539,0,0,0,1.077,0v-9.4l4.8-3.426Zm-3.034.979h1.273a.462.462,0,0,1,.489.489v1.273a.462.462,0,0,1-.489.489H9.759a.462.462,0,0,1-.489-.489v-1.273A.462.462,0,0,1,9.759,133.929Zm5.188,0h1.273a.462.462,0,0,1,.489.489v1.273a.462.462,0,0,1-.489.489H14.947a.462.462,0,0,1-.489-.489v-1.273A.462.462,0,0,1,14.947,133.929Zm5.286,0h1.273a.462.462,0,0,1,.489.489v1.273a.462.462,0,0,1-.489.489H20.233a.462.462,0,0,1-.489-.489v-1.273A.462.462,0,0,1,20.233,133.929Z" transform="translate(0.25 -122.966)"/>
    </g>
    <path id="Path_42448" data-name="Path 42448" class="cls-1" d="M3.685,0h.646L2.512-4.932H1.9L.085,0H.731l.5-1.412H3.189ZM2.2-4.184h.021l.79,2.249h-1.6Zm4.681.567a1.276,1.276,0,0,0-1.148.663H5.716v-.6H5.152V1.186h.595V-.578h.014A1.249,1.249,0,0,0,6.892.062c.9,0,1.507-.725,1.507-1.839S7.784-3.616,6.878-3.616ZM6.762-.461c-.608,0-1.019-.523-1.019-1.316s.41-1.316,1.019-1.316c.632,0,1.029.513,1.029,1.316S7.394-.461,6.762-.461Zm4.058.523a1.641,1.641,0,0,0,1.644-1.839,1.639,1.639,0,0,0-1.644-1.839A1.64,1.64,0,0,0,9.173-1.777,1.642,1.642,0,0,0,10.821.062Zm0-.523c-.629,0-1.042-.479-1.042-1.316s.414-1.316,1.042-1.316,1.039.479,1.039,1.316S11.45-.461,10.821-.461Zm3.939.523A1.272,1.272,0,0,0,15.908-.6h.01V0h.567V-4.932h-.595v1.955h-.014a1.249,1.249,0,0,0-1.131-.639c-.9,0-1.507.725-1.507,1.839S13.854.062,14.759.062Zm.113-3.155c.612,0,1.022.523,1.022,1.316s-.41,1.316-1.022,1.316c-.629,0-1.025-.509-1.025-1.316S14.243-3.093,14.872-3.093ZM18.811-.444c-.427,0-.711-.222-.711-.561s.273-.547.752-.578l.95-.058v.291A.935.935,0,0,1,18.811-.444Zm-.133.506a1.3,1.3,0,0,0,1.142-.673h.014V0H20.4V-2.458c0-.708-.526-1.159-1.36-1.159a1.255,1.255,0,0,0-1.408,1.087H18.2a.746.746,0,0,1,.82-.564c.492,0,.779.26.779.694v.3l-1.019.058C17.963-2,17.5-1.613,17.5-1A1.068,1.068,0,0,0,18.678.062Zm5.778-2.451a1.416,1.416,0,0,0-1.494-1.227,1.639,1.639,0,0,0-1.634,1.839A1.63,1.63,0,0,0,22.969.062a1.415,1.415,0,0,0,1.494-1.207h-.584a.858.858,0,0,1-.906.684c-.615,0-1.039-.489-1.039-1.316,0-.807.417-1.316,1.032-1.316a.873.873,0,0,1,.909.7ZM26.532-.444c-.427,0-.711-.222-.711-.561s.273-.547.752-.578l.95-.058v.291A.935.935,0,0,1,26.532-.444ZM26.4.062A1.3,1.3,0,0,0,27.54-.612h.014V0h.564V-2.458c0-.708-.526-1.159-1.36-1.159a1.255,1.255,0,0,0-1.408,1.087h.574a.746.746,0,0,1,.82-.564c.492,0,.779.26.779.694v.3L26.5-2.044C25.684-2,25.216-1.613,25.216-1A1.068,1.068,0,0,0,26.4.062Z" transform="translate(544 524.732)"/>
  </g>
</svg>
