<svg xmlns="http://www.w3.org/2000/svg" viewBox="0 0 147 135">
  <defs>
    <style>
      .cls-1 {
        fill: none;
        stroke: #484848;
        stroke-linecap: round;
        stroke-width: 3px;
      }

      .cls-2 {
        fill: #4489ff;
      }

      .cls-3 {
        fill: #fff;
      }
    </style>
  </defs>
  <g id="Group_13" data-name="Group 13" transform="translate(-1182 -1150)">
    <line id="Line_5" data-name="Line 5" class="cls-1" y1="95" transform="translate(1256.5 1188.5)"/>
    <rect id="Rectangle_11" data-name="Rectangle 11" class="cls-2" width="147" height="54" rx="16" transform="translate(1182 1150)"/>
    <path id="Path_6" data-name="Path 6" class="cls-3" d="M-53.489-2.431h-5.474v-2.82h5.13V-7.5h-5.13v-2.737h5.474v-2.431H-62V0h8.507ZM-51.438,0h2.978V-13.332h-2.978Zm5.316,0h2.969V-9.908h-2.969Zm-.121-12.4a1.491,1.491,0,0,0,1.6,1.457,1.491,1.491,0,0,0,1.6-1.457,1.491,1.491,0,0,0-1.6-1.457A1.491,1.491,0,0,0-46.243-12.4ZM-41.224,0h8.136V-2.282H-37.42v-.111l4.175-5.687V-9.908H-41.1v2.273h4.286v.111l-4.407,5.91Zm15.178-1.187h.13V0h2.792V-6.605c0-2.449-1.855-3.451-4.23-3.451-3.145,0-4.138,1.688-4.193,3.3h2.774A1.223,1.223,0,0,1-27.391-7.9a1.181,1.181,0,0,1,1.336,1.252v.826h-2.292c-2.31,0-3.562,1.15-3.562,2.959,0,1.883,1.336,3.006,3.275,3.006A2.66,2.66,0,0,0-26.046-1.187Zm-1.568-.733a1.225,1.225,0,0,1-1.364-1.169c0-.668.5-1.113,1.419-1.113h1.5v.974A1.416,1.416,0,0,1-27.614-1.92ZM-15.1.111c2.236,0,3.674-1.651,3.674-4.667v-.816c0-3.052-1.457-4.648-3.665-4.648a2.918,2.918,0,0,0-2.811,1.6h-.139v-4.917h-2.978V0h2.95V-1.559h.139A2.865,2.865,0,0,0-15.1.111Zm-1.132-2.3c-1.085,0-1.818-.826-1.818-2.458V-5.27c0-1.624.733-2.44,1.818-2.44,1.021,0,1.735.826,1.735,2.44v.631C-14.5-3.024-15.2-2.189-16.231-2.189ZM-5.358.186c2.941,0,4.221-1.8,4.37-3.358h-2.7A1.515,1.515,0,0,1-5.348-2a1.813,1.813,0,0,1-1.8-2.013v-.334H-.923v-.993c0-2.922-1.781-4.75-4.546-4.75a4.328,4.328,0,0,0-4.583,4.7V-4.6C-10.052-1.447-8.141.186-5.358.186ZM-7.148-6.058v-.009a1.738,1.738,0,0,1,1.707-1.9,1.716,1.716,0,0,1,1.67,1.9v.009Zm8.841-3.85H.172v2.254H1.619V-2.82C1.619-.751,2.639.028,5.181.028a8.876,8.876,0,0,0,1.3-.083V-2.2c-.1.009-.353.019-.584.019-.9,0-1.336-.3-1.336-1.169v-4.3H6.452V-9.908H4.56v-2.3H1.693ZM8.4,0h2.969V-5.659c0-1.2.668-1.92,1.67-1.92.835,0,1.642.455,1.642,1.883V0H17.65V-6.392c0-2.421-1.364-3.665-3.34-3.665A2.88,2.88,0,0,0,11.5-8.368h-.13v-4.963H8.4ZM20.508-9.908H18.986v2.254h1.447V-2.82C20.433-.751,21.454.028,24,.028a8.876,8.876,0,0,0,1.3-.083V-2.2c-.1.009-.353.019-.584.019-.9,0-1.336-.3-1.336-1.169v-4.3h1.893V-9.908H23.374v-2.3H20.508Zm10.845-.186A4.448,4.448,0,0,0,26.64-5.3v.631c0,3,1.7,4.852,4.713,4.852s4.7-1.855,4.7-4.861v-.64A4.427,4.427,0,0,0,31.353-10.094Zm0,2.227c1.234,0,1.688,1.16,1.688,2.523v.761c0,1.29-.427,2.542-1.688,2.542s-1.7-1.262-1.7-2.542v-.761C29.655-6.689,30.1-7.867,31.353-7.867ZM51.707-9.908H48.739L47.486-2.922h-.121L45.7-9.908H42.912L41.27-2.922H41.15L39.9-9.908H36.891L39.387,0h3.182l1.679-6.689h.1L46.039,0h3.154ZM53.015,0h2.969V-5.659c0-1.2.659-1.92,1.661-1.92.807,0,1.624.455,1.624,1.883V0h2.969V-6.392c0-2.421-1.336-3.665-3.331-3.665A2.936,2.936,0,0,0,56.04-8.368H55.9v-1.54H53.015Z" transform="translate(1256 1184)"/>
  </g>
</svg>
