<svg xmlns="http://www.w3.org/2000/svg" viewBox="0 0 47.374 54.133">
  <defs>
    <style>
      .cls-1 {
        fill: #ffffff;
      }
    </style>
  </defs>
  <g id="Group_2" data-name="Group 2" transform="translate(-313.8 -1241)">
    <g id="Group_1" data-name="Group 1" transform="translate(326.202 1254.332)">
      <path id="Path_1" data-name="Path 1" class="cls-1" d="M31.8,46.332h0v6.945H52.077V44.1l-5.085,2.17V44.1l-5.085,2.17V44.1l-5.023,2.232v-2.17ZM45.628,49h4.713v1.86H45.628Zm-6.077,0h4.713v1.86H39.551Zm-1.3,0v1.86H33.536V49Z" transform="translate(-31.8 -33.559)"/>
      <path id="Path_2" data-name="Path 2" class="cls-1" d="M49.548,36.1,49.3,40.5v1.612l2.17-.93L51.222,36.1Z" transform="translate(-38.449 -30.519)"/>
      <path id="Path_3" data-name="Path 3" class="cls-1" d="M56.172,33,55.8,39.2l1.054-.434v2.17l1.984-.868L58.466,33Z" transform="translate(-40.918 -29.341)"/>
      <path id="Path_4" data-name="Path 4" class="cls-1" d="M63.543,28.154c-.062-.62-1.116-1.054-2.356-1.054a3.092,3.092,0,0,0-2.232.744H58.83c-.5,0-.93.248-.93.558,0,.248.248.434.62.558.062.5.992.93,2.108.93a4.532,4.532,0,0,0,1.426-.248,2.071,2.071,0,0,0,.93.186c.744,0,1.364-.372,1.364-.868A1.067,1.067,0,0,0,63.543,28.154Z" transform="translate(-41.716 -27.1)"/>
    </g>
    <path id="Path_5" data-name="Path 5" class="cls-1" d="M35.487,5.6a23.7,23.7,0,0,0-7.069,46.32l7.069,7.813,7.069-7.875A23.666,23.666,0,0,0,35.487,5.6Zm0,40.554A16.866,16.866,0,1,1,52.354,29.287,16.884,16.884,0,0,1,35.487,46.154Z" transform="translate(302 1235.4)"/>
  </g>
</svg>
