<svg xmlns="http://www.w3.org/2000/svg" xmlns:xlink="http://www.w3.org/1999/xlink" viewBox="0 0 32.364 52.673">
  <defs>
    <style>
      .cls-1 {
        opacity: 0.1;
      }

      .cls-2 {
        fill: #1a1a1a;
      }

      .cls-3, .cls-4 {
        fill: #fff;
      }

      .cls-3 {
        fill-rule: evenodd;
      }

      .cls-5 {
        filter: url(#Path_42472);
      }
    </style>
    <filter id="Path_42472" x="2.993" y="46.68" width="27.468" height="5.993" filterUnits="userSpaceOnUse">
      <feOffset dy="1" input="SourceAlpha"/>
      <feGaussianBlur result="blur"/>
      <feFlood flood-opacity="0.161"/>
      <feComposite operator="in" in2="blur"/>
      <feComposite in="SourceGraphic"/>
    </filter>
  </defs>
  <g id="Group_41276" data-name="Group 41276" transform="translate(-2119.406 -9881.389)">
    <g id="Group_41186" data-name="Group 41186" transform="translate(1858.406 2826.811)">
      <ellipse id="Ellipse_70" data-name="Ellipse 70" class="cls-1" cx="14.653" cy="1.935" rx="14.653" ry="1.935" transform="translate(262.567 7093.509)"/>
      <path id="Union_2" data-name="Union 2" class="cls-2" d="M15.334,40.279l-3.18-8.409A16.19,16.19,0,0,1,16.182,0a16.21,16.21,0,0,1,3.887,31.94L17.03,40.279a.918.918,0,0,1-.848.565A.852.852,0,0,1,15.334,40.279Z" transform="translate(261 7054.579)"/>
      <g id="Group_41275" data-name="Group 41275" transform="translate(55.194 6911.039)">
        <path id="Path_42284" data-name="Path 42284" class="cls-3" d="M42.686,37.638v-8.01L46.8,27.863v9.775Zm4.461.686a.343.343,0,0,0,.343-.343V27.342a.343.343,0,0,0-.478-.315l-4.8,2.059A.343.343,0,0,0,42,29.4v8.579a.343.343,0,0,0,.343.343Z" transform="translate(184.759 130.211)"/>
        <path id="Path_42285" data-name="Path 42285" class="cls-3" d="M28.686,37.638v-8.01L32.8,27.863v9.775Zm4.461.686a.343.343,0,0,0,.343-.343V27.342a.343.343,0,0,0-.478-.315l-4.8,2.059A.343.343,0,0,0,28,29.4v8.579a.343.343,0,0,0,.343.343Z" transform="translate(193.954 130.211)"/>
        <path id="Path_42286" data-name="Path 42286" class="cls-3" d="M14.686,37.638v-8.01L18.8,27.863v9.775Zm4.461.686a.343.343,0,0,0,.343-.343V27.342a.343.343,0,0,0-.478-.315l-4.8,2.059A.343.343,0,0,0,14,29.4v8.579a.343.343,0,0,0,.343.343Z" transform="translate(203.15 130.211)"/>
        <path id="Path_42287" data-name="Path 42287" class="cls-3" d="M19.343,41.686h1.373a.343.343,0,0,0,0-.686H19.343a.343.343,0,0,0,0,.686Z" transform="translate(199.866 121.015)"/>
        <path id="Path_42288" data-name="Path 42288" class="cls-3" d="M19.343,45.686h1.373a.343.343,0,1,0,0-.686H19.343a.343.343,0,1,0,0,.686Z" transform="translate(199.866 118.387)"/>
        <path id="Path_42289" data-name="Path 42289" class="cls-3" d="M19.343,49.686h1.373a.343.343,0,0,0,0-.686H19.343a.343.343,0,1,0,0,.686Z" transform="translate(199.866 115.76)"/>
        <path id="Path_42290" data-name="Path 42290" class="cls-3" d="M19.343,53.686h1.373a.343.343,0,0,0,0-.686H19.343a.343.343,0,1,0,0,.686Z" transform="translate(199.866 113.133)"/>
        <path id="Path_42291" data-name="Path 42291" class="cls-3" d="M19.343,37.686h1.373a.343.343,0,0,0,0-.686H19.343a.343.343,0,1,0,0,.686Z" transform="translate(199.866 123.642)"/>
        <path id="Path_42292" data-name="Path 42292" class="cls-3" d="M33.343,41.686h1.373a.343.343,0,1,0,0-.686H33.343a.343.343,0,0,0,0,.686Z" transform="translate(190.67 121.015)"/>
        <path id="Path_42293" data-name="Path 42293" class="cls-3" d="M33.343,45.686h1.373a.343.343,0,1,0,0-.686H33.343a.343.343,0,1,0,0,.686Z" transform="translate(190.67 118.387)"/>
        <path id="Path_42294" data-name="Path 42294" class="cls-3" d="M33.343,49.686h1.373a.343.343,0,1,0,0-.686H33.343a.343.343,0,0,0,0,.686Z" transform="translate(190.67 115.76)"/>
        <path id="Path_42295" data-name="Path 42295" class="cls-3" d="M33.343,53.686h1.373a.343.343,0,1,0,0-.686H33.343a.343.343,0,0,0,0,.686Z" transform="translate(190.67 113.133)"/>
        <path id="Path_42296" data-name="Path 42296" class="cls-3" d="M33.343,37.686h1.373a.343.343,0,1,0,0-.686H33.343a.343.343,0,0,0,0,.686Z" transform="translate(190.67 123.642)"/>
        <path id="Path_42297" data-name="Path 42297" class="cls-3" d="M47.343,41.686h1.373a.343.343,0,0,0,0-.686H47.343a.343.343,0,0,0,0,.686Z" transform="translate(181.475 121.015)"/>
        <path id="Path_42298" data-name="Path 42298" class="cls-3" d="M47.343,45.686h1.373a.343.343,0,1,0,0-.686H47.343a.343.343,0,1,0,0,.686Z" transform="translate(181.475 118.387)"/>
        <path id="Path_42299" data-name="Path 42299" class="cls-3" d="M47.343,49.686h1.373a.343.343,0,1,0,0-.686H47.343a.343.343,0,1,0,0,.686Z" transform="translate(181.475 115.76)"/>
        <path id="Path_42300" data-name="Path 42300" class="cls-3" d="M47.343,53.686h1.373a.343.343,0,1,0,0-.686H47.343a.343.343,0,1,0,0,.686Z" transform="translate(181.475 113.133)"/>
        <path id="Path_42301" data-name="Path 42301" class="cls-3" d="M47.343,37.686h1.373a.343.343,0,1,0,0-.686H47.343a.343.343,0,1,0,0,.686Z" transform="translate(181.475 123.642)"/>
        <path id="Path_42302" data-name="Path 42302" class="cls-3" d="M.343,42.266h4.8a.343.343,0,0,0,.343-.343V33.343A.343.343,0,0,0,5.148,33H.343A.343.343,0,0,0,0,33.343v8.579A.343.343,0,0,0,.343,42.266Zm.343-8.579H4.8v7.893H.686Z" transform="translate(212.346 126.269)"/>
        <path id="Path_42303" data-name="Path 42303" class="cls-3" d="M5.343,39.745H6.716a.343.343,0,0,0,.343-.343V37.343A.343.343,0,0,0,6.716,37H5.343A.343.343,0,0,0,5,37.343V39.4A.343.343,0,0,0,5.343,39.745Zm.343-2.059h.686v1.373H5.686Z" transform="translate(209.061 123.642)"/>
        <path id="Path_42304" data-name="Path 42304" class="cls-3" d="M5.343,50.745H6.716a.343.343,0,0,0,.343-.343V48.343A.343.343,0,0,0,6.716,48H5.343A.343.343,0,0,0,5,48.343V50.4A.343.343,0,0,0,5.343,50.745Zm.343-.686V48.686h.686v1.373Z" transform="translate(209.061 116.417)"/>
        <path id="Path_42305" data-name="Path 42305" class="cls-3" d="M4.343,21.864H6.4a.343.343,0,0,0,.343-.343V15.343A.343.343,0,0,0,6.4,15H4.343A.343.343,0,0,0,4,15.343V21.52A.343.343,0,0,0,4.343,21.864Zm.343-6.177H6.059v5.491H4.686Z" transform="translate(209.718 138.092)"/>
        <path id="Path_42306" data-name="Path 42306" class="cls-3" d="M2.343,13.059H5.775a.343.343,0,0,0,.343-.343V11.343A.343.343,0,0,0,5.775,11H2.343A.343.343,0,0,0,2,11.343v1.373A.343.343,0,0,0,2.343,13.059Zm.343-1.373H5.432v.686H2.686Z" transform="translate(211.032 140.719)"/>
        <path id="Path_42307" data-name="Path 42307" class="cls-3" d="M8.373.686H9.4a.343.343,0,1,1,0,.686H8.373A1.376,1.376,0,0,0,7,2.745a.343.343,0,0,0,.686,0,.689.689,0,0,1,.686-.686H9.4A1.03,1.03,0,1,0,9.4,0H8.373a.343.343,0,1,0,0,.686Z" transform="translate(207.748 147.945)"/>
      </g>
    </g>
    <g class="cls-5" transform="matrix(1, 0, 0, 1, 2119.41, 9881.39)">
      <path id="Path_42472-2" data-name="Path 42472" class="cls-4" d="M-12.985-4.385h1.152a.9.9,0,0,1,1.019.943.88.88,0,0,1-.991.947h-1.179Zm0,2.434h1.179L-10.75,0h.721L-11.17-2.047a1.408,1.408,0,0,0,.991-1.415,1.432,1.432,0,0,0-1.572-1.47H-13.6V0h.615ZM-7.606.062A1.641,1.641,0,0,0-5.962-1.777,1.639,1.639,0,0,0-7.606-3.616,1.64,1.64,0,0,0-9.253-1.777,1.642,1.642,0,0,0-7.606.062Zm0-.523c-.629,0-1.042-.479-1.042-1.316s.414-1.316,1.042-1.316,1.039.479,1.039,1.316S-6.977-.461-7.606-.461Zm3.835.017c-.427,0-.711-.222-.711-.561s.273-.547.752-.578l.95-.058v.291A.935.935,0,0,1-3.771-.444ZM-3.9.062A1.3,1.3,0,0,0-2.763-.612h.014V0h.564V-2.458c0-.708-.526-1.159-1.36-1.159A1.255,1.255,0,0,0-4.954-2.529h.574a.746.746,0,0,1,.82-.564c.492,0,.779.26.779.694v.3L-3.8-2.044C-4.619-2-5.087-1.613-5.087-1A1.068,1.068,0,0,0-3.9.062ZM-1.01,0h.595V-2.092a.907.907,0,0,1,.926-1c.547,0,.817.314.817.889V0h.595V-2.307A1.17,1.17,0,0,0,.692-3.616a1.189,1.189,0,0,0-1.128.629H-.449v-.567H-1.01ZM4.571.062A1.641,1.641,0,0,0,6.215-1.777,1.639,1.639,0,0,0,4.571-3.616,1.64,1.64,0,0,0,2.924-1.777,1.642,1.642,0,0,0,4.571.062Zm0-.523c-.629,0-1.042-.479-1.042-1.316s.414-1.316,1.042-1.316S5.61-2.615,5.61-1.777,5.2-.461,4.571-.461ZM7.859-1.976h0V-4.932H7.264V0h.595V-1.34l.332-.314L9.51,0h.69L8.611-2.02l1.542-1.535H9.431ZM12.305-3.1a.951.951,0,0,1,.947,1.019H11.321A1,1,0,0,1,12.305-3.1Zm.933,2.082a.858.858,0,0,1-.882.564,1.016,1.016,0,0,1-1.039-1.128v-.034h2.55v-.226a1.559,1.559,0,0,0-1.552-1.774,1.642,1.642,0,0,0-1.61,1.853A1.612,1.612,0,0,0,12.343.062a1.408,1.408,0,0,0,1.48-1.08Z" transform="translate(16.59 51.61)"/>
    </g>
  </g>
</svg>
