<svg xmlns="http://www.w3.org/2000/svg" xmlns:xlink="http://www.w3.org/1999/xlink" viewBox="0 0 45.468 52.673">
  <defs>
    <style>
      .cls-1 {
        opacity: 0.1;
      }

      .cls-2 {
        fill: #1a1a1a;
      }

      .cls-3 {
        fill: #00b5a7;
      }

      .cls-4 {
        fill: #fff;
      }

      .cls-5 {
        filter: url(#Path_42471);
      }
    </style>
    <filter id="Path_42471" x="0" y="46.68" width="45.468" height="5.993" filterUnits="userSpaceOnUse">
      <feOffset dy="1" input="SourceAlpha"/>
      <feGaussianBlur result="blur"/>
      <feFlood flood-opacity="0.161"/>
      <feComposite operator="in" in2="blur"/>
      <feComposite in="SourceGraphic"/>
    </filter>
  </defs>
  <g id="Group_41277" data-name="Group 41277" transform="translate(-2073.479 -9895.389)">
    <g id="Group_41184" data-name="Group 41184" transform="translate(1817.406 2840.811)">
      <ellipse id="Ellipse_70" data-name="Ellipse 70" class="cls-1" cx="14.653" cy="1.935" rx="14.653" ry="1.935" transform="translate(262.567 7093.509)"/>
      <path id="Union_2" data-name="Union 2" class="cls-2" d="M15.334,40.279l-3.18-8.409A16.19,16.19,0,0,1,16.182,0a16.21,16.21,0,0,1,3.887,31.94L17.03,40.279a.918.918,0,0,1-.848.565A.852.852,0,0,1,15.334,40.279Z" transform="translate(261 7054.579)"/>
      <g id="Group_41179" data-name="Group 41179" transform="translate(267.82 7060.154)">
        <path id="Path_42274" data-name="Path 42274" class="cls-3" d="M18.924,18.636h-.835V8.532a.3.3,0,0,0-.432-.259l-2.3,1.238L14.721.759A.284.284,0,0,0,14.433.5H11.785A.284.284,0,0,0,11.5.759l-.6,8.32L9.28,9.942,8.848,3.235a.284.284,0,0,0-.288-.259H6.517a.284.284,0,0,0-.288.259l-.4,5.556L1.8,10.4a.277.277,0,0,0-.173.259v7.974H.788a.288.288,0,0,0,0,.576H18.924a.272.272,0,0,0,.288-.288A.288.288,0,0,0,18.924,18.636ZM2.2,17.628H3.811v1.008H2.2Zm7.226,0h8.089v1.008H9.424Zm-.576,1.008H4.386V16.189H8.848Zm3.08-15.6h2.389l.115,1.526h-2.62Zm2.245-1.958.086,1.382h-2.3l.086-1.382ZM11.785,5.135h2.677l.345,4.692-2.015,1.094V8.56A.307.307,0,0,0,12.36,8.3l-.864.461ZM6.66,5.048H8.388l.086,1.065h-1.9ZM8.273,3.523l.058.95H6.689l.058-.95ZM6.545,6.689H8.532l.259,3.541-1.267.691V8.56a.28.28,0,0,0-.4-.259l-.691.288ZM6.92,8.963v2.418a.3.3,0,0,0,.432.259c.489-.259-1.814.979,4.865-2.62v2.361a.3.3,0,0,0,.432.259l4.865-2.62v8.032H9.424V15.9a.272.272,0,0,0-.288-.288H4.1a.272.272,0,0,0-.288.288v1.151H2.2V10.863C2.688,10.662.442,11.554,6.92,8.963Z" transform="translate(-0.5 -0.5)"/>
        <path id="Path_42275" data-name="Path 42275" class="cls-3" d="M12.288,49.476h5.038a.288.288,0,1,0,0-.576H12.288a.272.272,0,0,0-.288.288A.288.288,0,0,0,12.288,49.476Z" transform="translate(-9.708 -34.967)"/>
        <path id="Path_42276" data-name="Path 42276" class="cls-3" d="M35.888,51.283A.272.272,0,0,0,36.176,51V49.988a.288.288,0,1,0-.576,0V51A.288.288,0,0,0,35.888,51.283Z" transform="translate(-26.514 -35.537)"/>
        <path id="Path_42277" data-name="Path 42277" class="cls-3" d="M40.788,51.283A.272.272,0,0,0,41.076,51V49.988a.288.288,0,1,0-.576,0V51A.288.288,0,0,0,40.788,51.283Z" transform="translate(-30.004 -35.537)"/>
        <path id="Path_42278" data-name="Path 42278" class="cls-3" d="M45.788,51.283A.272.272,0,0,0,46.076,51V49.988a.288.288,0,1,0-.576,0V51A.272.272,0,0,0,45.788,51.283Z" transform="translate(-33.564 -35.537)"/>
        <path id="Path_42279" data-name="Path 42279" class="cls-3" d="M50.688,51.283A.272.272,0,0,0,50.976,51V49.988a.288.288,0,0,0-.576,0V51A.288.288,0,0,0,50.688,51.283Z" transform="translate(-37.054 -35.537)"/>
        <path id="Path_42280" data-name="Path 42280" class="cls-3" d="M55.688,51.283A.272.272,0,0,0,55.976,51V49.988a.288.288,0,0,0-.576,0V51A.272.272,0,0,0,55.688,51.283Z" transform="translate(-40.614 -35.537)"/>
      </g>
    </g>
    <g class="cls-5" transform="matrix(1, 0, 0, 1, 2073.48, 9895.39)">
      <path id="Path_42471-2" data-name="Path 42471" class="cls-4" d="M3.534-.554H1.094v-1.7H3.408V-2.8H1.094V-4.378h2.44v-.554H.479V0H3.534ZM4.7,0H5.3V-4.932H4.7ZM6.551,0h.595V-3.555H6.551Zm.3-4.187a.371.371,0,0,0,.373-.373.369.369,0,0,0-.373-.373.371.371,0,0,0-.373.373A.373.373,0,0,0,6.849-4.187ZM8.294,0h2.652V-.489H8.981V-.5l1.955-2.622v-.434H8.3v.489h1.965v.01L8.294-.424Zm4.942-.444c-.427,0-.711-.222-.711-.561s.273-.547.752-.578l.95-.058v.291A.935.935,0,0,1,13.236-.444ZM13.1.062a1.3,1.3,0,0,0,1.142-.673h.014V0h.564V-2.458c0-.708-.526-1.159-1.36-1.159a1.255,1.255,0,0,0-1.408,1.087h.574a.746.746,0,0,1,.82-.564c.492,0,.779.26.779.694v.3l-1.019.058C12.388-2,11.92-1.613,11.92-1A1.068,1.068,0,0,0,13.1.062Zm4.662,0c.909,0,1.511-.721,1.511-1.839s-.6-1.839-1.5-1.839a1.26,1.26,0,0,0-1.138.656h-.014V-4.932h-.595V0H16.6V-.6h.014A1.275,1.275,0,0,0,17.765.062Zm-.116-3.155c.629,0,1.019.509,1.019,1.316s-.39,1.316-1.019,1.316c-.6,0-1.029-.523-1.029-1.316S17.047-3.093,17.648-3.093ZM21.722-3.1a.951.951,0,0,1,.947,1.019H20.738A1,1,0,0,1,21.722-3.1Zm.933,2.082a.858.858,0,0,1-.882.564,1.016,1.016,0,0,1-1.039-1.128v-.034h2.55v-.226a1.559,1.559,0,0,0-1.552-1.774,1.642,1.642,0,0,0-1.61,1.853A1.612,1.612,0,0,0,21.76.062a1.408,1.408,0,0,0,1.48-1.08Zm1.838-3.394v.858h-.53v.489h.53V-.923c0,.684.253.95.906.95A2.119,2.119,0,0,0,25.775,0V-.5a2.314,2.314,0,0,1-.246.017c-.3,0-.441-.147-.441-.472V-3.066h.69v-.489h-.69v-.858ZM26.862,0h.595V-2.071a.924.924,0,0,1,.957-1.019.789.789,0,0,1,.841.9V0h.595V-2.3A1.2,1.2,0,0,0,28.6-3.616a1.177,1.177,0,0,0-1.128.629h-.014V-4.932h-.595Zm4.354-4.413v.858h-.53v.489h.53V-.923c0,.684.253.95.906.95A2.119,2.119,0,0,0,32.5,0V-.5a2.314,2.314,0,0,1-.246.017c-.3,0-.441-.147-.441-.472V-3.066h.69v-.489h-.69v-.858ZM34.924.062a1.641,1.641,0,0,0,1.644-1.839,1.639,1.639,0,0,0-1.644-1.839,1.64,1.64,0,0,0-1.647,1.839A1.642,1.642,0,0,0,34.924.062Zm0-.523c-.629,0-1.042-.479-1.042-1.316s.414-1.316,1.042-1.316,1.039.479,1.039,1.316S35.553-.461,34.924-.461Zm7.184-3.093H41.52L40.809-.663H40.8l-.807-2.892h-.574l-.8,2.892H38.6l-.711-2.892H37.3L38.29,0h.6l.8-2.751h.014L40.512,0h.6ZM43.014,0h.595V-2.092a.907.907,0,0,1,.926-1c.547,0,.817.314.817.889V0h.595V-2.307a1.17,1.17,0,0,0-1.23-1.309,1.189,1.189,0,0,0-1.128.629h-.014v-.567h-.561Z" transform="translate(-0.48 51.61)"/>
    </g>
  </g>
</svg>
