<svg width="13" height="13" viewBox="0 0 13 13" fill="none" xmlns="http://www.w3.org/2000/svg">
<path fill-rule="evenodd" clip-rule="evenodd" d="M6.52148 0.549072C3.34598 0.549072 0.771484 3.12357 0.771484 6.29907C0.771484 9.47458 3.34598 12.0491 6.52148 12.0491C9.69699 12.0491 12.2715 9.47458 12.2715 6.29907C12.2715 3.12357 9.69699 0.549072 6.52148 0.549072ZM6.52148 11.0036C3.9209 11.0036 1.81694 8.89966 1.81694 6.29907C1.81694 3.69848 3.9209 1.59453 6.52148 1.59453C9.12207 1.59453 11.226 3.69848 11.226 6.29907C11.226 8.89966 9.12207 11.0036 6.52148 11.0036Z" fill="white"/>
<path fill-rule="evenodd" clip-rule="evenodd" d="M8.66987 5.79361H7.02702V4.15077C7.02702 3.8727 6.79959 3.64526 6.52152 3.64526C6.24346 3.64526 6.01602 3.8727 6.01602 4.15077V5.79361H4.37318C4.09511 5.79361 3.86768 6.02104 3.86768 6.29911C3.86768 6.57718 4.09511 6.80461 4.37318 6.80461H6.01602V8.44745C6.01602 8.72552 6.24346 8.95296 6.52152 8.95296C6.79959 8.95296 7.02702 8.72552 7.02702 8.44745V6.80461H8.66987C8.94793 6.80461 9.17537 6.57718 9.17537 6.29911C9.17537 6.02104 8.94793 5.79361 8.66987 5.79361Z" fill="white"/>
</svg>
