<svg width="90" height="68" viewBox="0 0 90 68" fill="none" xmlns="http://www.w3.org/2000/svg">
<g opacity="0.8">
<path d="M6 0C2.6933 0 0 2.6933 0 6V52C0 55.3067 2.6933 58 6 58H60.875C62.9365 63.824 68.4777 68 75 68C83.2724 68 90 61.2724 90 53C90 46.4777 85.824 40.9365 80 38.875V6C80 2.6933 77.3067 0 74 0H6ZM6 2H74C76.2333 2 78 3.7667 78 6V38.3125C77.0335 38.1163 76.0236 38 75 38C74.7784 38 74.5631 38.022 74.3438 38.031L61.9688 28.2186C61.6174 27.9371 61.0701 27.9371 60.7188 28.2186L46.0938 40.5936L27.75 20.3123C27.1847 19.8351 26.7296 19.9276 26.3438 20.2503L2 41.7812V6C2 3.7667 3.76671 2 6 2ZM48 12C44.6981 12 42 14.6981 42 18C42 21.3019 44.6981 24 48 24C51.3019 24 54 21.3019 54 18C54 14.6981 51.3019 12 48 12ZM48 14C50.221 14 52 15.779 52 18C52 20.221 50.221 22 48 22C45.779 22 44 20.221 44 18C44 15.779 45.779 14 48 14ZM26.9375 22.4062L45.25 42.6562C45.5947 43.0475 46.2627 43.0915 46.6562 42.7502L61.375 30.2814L71.5938 38.4064C64.9535 39.9496 60 45.8961 60 53C60 54.0236 60.1163 55.0335 60.3125 56H6C3.76671 56 2 54.2333 2 52V44.4375L26.9375 22.4062ZM75 40C82.1916 40 88 45.8084 88 53C88 60.1916 82.1916 66 75 66C67.8084 66 62 60.1916 62 53C62 45.8084 67.8084 40 75 40ZM75 45C74.4477 45 74 45.4477 74 46V52H68C67.4477 52 67 52.4477 67 53C67 53.5523 67.4477 54 68 54H74V60C74 60.5523 74.4477 61 75 61C75.5523 61 76 60.5523 76 60V54H82C82.5523 54 83 53.5523 83 53C83 52.4477 82.5523 52 82 52H76V46C76 45.4477 75.5523 45 75 45Z" fill="url(#paint0_radial)"/>
</g>
<defs>
<radialGradient id="paint0_radial" cx="0" cy="0" r="1" gradientUnits="userSpaceOnUse" gradientTransform="translate(50.1604 20.6795) rotate(96.2236) scale(47.601 63.0968)">
<stop stop-color="#2B2E41"/>
<stop offset="1" stop-color="#100F13"/>
</radialGradient>
</defs>
</svg>
