<svg width="11" height="16" viewBox="0 0 11 16" fill="none" xmlns="http://www.w3.org/2000/svg">
<path d="M9.73077 4H10.5769C10.8109 4 11 3.80133 11 3.55556V0.444444C11 0.198667 10.8109 0 10.5769 0H9.73077C9.49681 0 9.30769 0.198667 9.30769 0.444444V1.55556H1.69231V0.444444C1.69231 0.198667 1.50277 0 1.26923 0H0.423077C0.189115 0 0 0.198667 0 0.444444V3.55556C0 3.80133 0.189115 4 0.423077 4H1.26923C1.50277 4 1.69231 3.80133 1.69231 3.55556V2.44444H5.07692V11.5556H4.65385C4.41988 11.5556 4.23077 11.7542 4.23077 12V13.5556H1.69231V12.4444C1.69231 12.1987 1.50277 12 1.26923 12H0.423077C0.189115 12 0 12.1987 0 12.4444V15.5556C0 15.8013 0.189115 16 0.423077 16H1.26923C1.50277 16 1.69231 15.8013 1.69231 15.5556V14.4444H9.30769V15.5556C9.30769 15.8013 9.49681 16 9.73077 16H10.5769C10.8109 16 11 15.8013 11 15.5556V12.4444C11 12.1987 10.8109 12 10.5769 12H9.73077C9.49681 12 9.30769 12.1987 9.30769 12.4444V13.5556H6.76923V12C6.76923 11.7542 6.58012 11.5556 6.34615 11.5556H5.92308V2.44444H9.30769V3.55556C9.30769 3.80133 9.49681 4 9.73077 4Z" fill="#007AFF"/>
</svg>
