<svg width="42" height="42" viewBox="0 0 42 42" fill="none" xmlns="http://www.w3.org/2000/svg">
<path fill-rule="evenodd" clip-rule="evenodd" d="M21 42C32.598 42 42 32.598 42 21C42 9.40202 32.598 0 21 0C9.40202 0 0 9.40202 0 21C0 32.598 9.40202 42 21 42Z" fill="#FF3D57"/>
<path d="M17.2927 26.2587V8.3999H23.6627V26.2587H17.2927ZM24.1936 32.022C24.1936 32.5275 24.0924 33.0078 23.8902 33.4628C23.7133 33.8925 23.4479 34.2717 23.094 34.6003C22.7654 34.9037 22.3736 35.1438 21.9186 35.3207C21.4636 35.523 20.9833 35.6241 20.4777 35.6241C19.9722 35.6241 19.4919 35.5356 19.0369 35.3587C18.6072 35.1817 18.228 34.9289 17.8994 34.6003C17.5708 34.2717 17.3054 33.8925 17.1031 33.4628C16.9009 33.0331 16.7998 32.5655 16.7998 32.0599C16.7998 31.5796 16.8883 31.1246 17.0652 30.6949C17.2674 30.2399 17.5329 29.8481 17.8615 29.5195C18.1901 29.1909 18.5819 28.9381 19.0369 28.7612C19.4919 28.5589 19.9722 28.4578 20.4777 28.4578C20.9833 28.4578 21.4636 28.5589 21.9186 28.7612C22.3736 28.9381 22.7654 29.1909 23.094 29.5195C23.4479 29.8228 23.7133 30.202 23.8902 30.657C24.0924 31.0867 24.1936 31.5417 24.1936 32.022Z" fill="white"/>
</svg>
