<svg width="17" height="17" viewBox="0 0 17 17" fill="none" xmlns="http://www.w3.org/2000/svg">
<path d="M11.5268 7.14793H11.3768V7.29793V9.11786C11.3768 9.36703 11.1747 9.56927 10.9254 9.56927H10.3183C10.069 9.56927 9.86696 9.36724 9.86696 9.11786V7.29793V7.14793H9.71696H7.88387C7.63465 7.14793 7.43279 6.94598 7.43279 6.69652V6.07562C7.43279 5.8262 7.63486 5.62421 7.88387 5.62421H9.71696H9.86696V5.47421V3.64087C9.86696 3.39149 10.069 3.18945 10.3183 3.18945H10.9254C11.1747 3.18945 11.3768 3.39149 11.3768 3.64087V5.47421V5.62421H11.5268H13.3599C13.6092 5.62421 13.8112 5.82624 13.8112 6.07562V6.69652C13.8112 6.9459 13.6092 7.14793 13.3599 7.14793H11.5268ZM13.964 12.5994H7.28582C5.69219 12.5994 4.40006 11.3071 4.40006 9.7132V3.03617C4.40006 1.44226 5.69194 0.15 7.28582 0.15H13.9642C15.5581 0.15 16.85 1.44226 16.85 3.03617V9.71295C16.85 11.3071 15.5579 12.5994 13.964 12.5994ZM15.3364 3.04401C15.3364 2.29045 14.7256 1.67954 13.9721 1.67954H7.29114C6.53762 1.67954 5.92683 2.29045 5.92683 3.04401V9.72408C5.92683 10.4776 6.53762 11.0885 7.29114 11.0885H13.9721C14.7256 11.0885 15.3364 10.4776 15.3364 9.72408V3.04401ZM3.04107 15.3392H8.49431C9.19045 15.3392 9.76263 14.8174 9.84624 14.1444H11.3769C11.2834 15.6541 10.0322 16.85 8.49987 16.85H3.03576C1.44212 16.85 0.15 15.5577 0.15 13.9638V8.50152C0.15 6.95847 1.36082 5.6985 2.88399 5.61953V7.16828C2.20483 7.24631 1.67702 7.82263 1.67702 8.52302V13.9749C1.67702 13.9749 1.67702 13.9749 1.67702 13.975C1.67677 14.7283 2.28761 15.3392 3.04107 15.3392Z" fill="#007AFF" stroke="white" stroke-width="0.3"/>
</svg>
