<svg width="15" height="15" viewBox="0 0 15 15" fill="none" xmlns="http://www.w3.org/2000/svg">
<path fill-rule="evenodd" clip-rule="evenodd" d="M1.76812 8.31739L1.75659 10.5693C1.75659 10.6964 1.8027 10.8234 1.89493 10.9158C1.98715 11.0082 2.10244 11.0544 2.22925 11.0544L4.46571 11.0428C4.59252 11.0428 4.7078 10.9966 4.80003 10.9042L12.5239 3.16678C12.7083 2.98201 12.7083 2.68175 12.5239 2.48542L10.3105 0.245027C10.126 0.0602515 9.8263 0.0602515 9.63032 0.245027L8.08555 1.80407L1.90646 7.98248C1.82576 8.07487 1.76812 8.19036 1.76812 8.31739V8.31739ZM9.97621 1.26144L11.5325 2.82048L10.6564 3.69817L9.10007 2.13913L9.97621 1.26144V1.26144ZM2.72478 8.52538L8.41969 2.82045L9.97599 4.37949L4.28108 10.0729L2.71325 10.0844L2.72478 8.52538V8.52538ZM13.7843 13.062H1.17248C0.907336 13.062 0.699829 13.2814 0.699829 13.5354C0.699829 13.7895 0.918864 14.0089 1.17248 14.0089H13.7958C14.061 14.0089 14.2685 13.7895 14.2685 13.5354C14.2685 13.2814 14.0494 13.062 13.7843 13.062V13.062Z" fill="#007AFF"/>
</svg>
