<svg width="14" height="15" viewBox="0 0 14 15" fill="none" xmlns="http://www.w3.org/2000/svg">
<path fill-rule="evenodd" clip-rule="evenodd" d="M0.722872 4.16766H1.23987L2.44619 14.252C2.46917 14.4935 2.67597 14.666 2.91724 14.666H10.9364C11.1777 14.666 11.373 14.4935 11.4075 14.252L12.6138 4.16766H13.1308C13.395 4.16766 13.6018 3.96068 13.6018 3.69621C13.6018 3.43174 13.395 3.22476 13.1308 3.22476H12.1887H9.5233V1.21119C9.5233 0.946723 9.3165 0.739746 9.05226 0.739746H4.8014C4.53716 0.739746 4.33036 0.946723 4.33036 1.21119V3.22476H1.66496H0.722872C0.45863 3.22476 0.251831 3.43174 0.251831 3.69621C0.251831 3.96068 0.470118 4.16766 0.722872 4.16766ZM5.27246 1.69287H8.58124V3.22492H5.27246V1.69287V1.69287ZM11.6603 4.16773L10.5229 13.7347H3.33093L2.19354 4.16773H11.6603V4.16773ZM5.36445 12.2973C5.62869 12.2973 5.83549 12.0903 5.83549 11.8259V6.18001C5.83549 5.91554 5.62869 5.70856 5.36445 5.70856C5.1002 5.70856 4.89341 5.91554 4.89341 6.18001V11.8259C4.89341 12.0903 5.1002 12.2973 5.36445 12.2973V12.2973ZM8.48926 12.2973C8.75351 12.2973 8.96031 12.0903 8.96031 11.8259V6.18001C8.96031 5.91554 8.75351 5.70856 8.48926 5.70856C8.22502 5.70856 8.01822 5.91554 8.01822 6.18001V11.8259C8.01822 12.0903 8.23651 12.2973 8.48926 12.2973V12.2973Z" fill="#FF3D57"/>
</svg>
