<svg width="63" height="63" viewBox="0 0 63 63" fill="none" xmlns="http://www.w3.org/2000/svg">
<g opacity="0.8">
<path d="M47.4548 49.9834C47.4548 49.15 48.0954 48.5078 48.9729 48.5078C49.8396 48.5078 50.491 49.205 50.491 49.9834V58.2152C50.491 60.3047 48.7691 62.0615 46.5512 62.0615H4.43985C2.27917 62.0615 0.5 60.3608 0.5 58.2152V4.34638C0.5 2.25685 2.22188 0.5 4.43985 0.5H46.5512C48.7118 0.5 50.491 2.20076 50.491 4.34638V12.4465C50.491 13.2799 49.8504 13.9221 48.9729 13.9221C48.0954 13.9221 47.4548 13.2799 47.4548 12.4465V4.34638C47.4548 4.08119 47.3247 3.86059 47.1784 3.71744C47.0315 3.57364 46.811 3.45126 46.5512 3.45126H4.43985C4.18005 3.45126 3.95948 3.57364 3.81259 3.71744C3.66636 3.86058 3.53623 4.08118 3.53623 4.34638V58.2152C3.53623 58.4804 3.66636 58.701 3.81259 58.8441C3.95948 58.9879 4.18006 59.1103 4.43985 59.1103H46.5512C46.811 59.1103 47.0315 58.9879 47.1784 58.8441C47.3247 58.701 47.4548 58.4804 47.4548 58.2152V49.9834Z" fill="url(#paint0_radial)" stroke="#F4F5F7"/>
<path d="M27.5808 42.7003H12.0413C11.231 42.7003 10.5232 41.9922 10.5232 41.2247C10.5232 40.3912 11.1638 39.749 12.0413 39.749H27.5808C28.4583 39.749 29.0989 40.3912 29.0989 41.2247C29.0989 42.0581 28.4583 42.7003 27.5808 42.7003Z" fill="url(#paint1_radial)" stroke="#F4F5F7"/>
<path d="M38.8822 52.5787H12.0413C11.22 52.5787 10.5232 51.9258 10.5232 51.1031C10.5232 50.2697 11.1638 49.6274 12.0413 49.6274H38.8822C39.7598 49.6274 40.4003 50.2697 40.4003 51.1031C40.4003 51.9365 39.7598 52.5787 38.8822 52.5787Z" fill="url(#paint2_radial)" stroke="#F4F5F7"/>
<path d="M25.0918 32.7564H12.0413C11.22 32.7564 10.5232 32.1036 10.5232 31.2808C10.5232 30.4474 11.1638 29.8052 12.0413 29.8052H25.0918C25.9693 29.8052 26.6099 30.4474 26.6099 31.2808C26.6099 32.1142 25.9693 32.7564 25.0918 32.7564Z" fill="url(#paint3_radial)" stroke="#F4F5F7"/>
<path d="M12.0413 19.8613H27.5808C28.4583 19.8613 29.0989 20.5036 29.0989 21.337C29.0989 22.1704 28.4583 22.8126 27.5808 22.8126H12.0413C11.1638 22.8126 10.5232 22.1704 10.5232 21.337C10.5232 20.5036 11.1638 19.8613 12.0413 19.8613Z" fill="url(#paint4_radial)" stroke="#F4F5F7"/>
<path d="M38.9495 9.98291C39.827 9.98291 40.4676 10.6251 40.4676 11.4585C40.4676 12.2157 39.7705 12.9342 38.8822 12.9342H12.0413C11.1638 12.9342 10.5232 12.2919 10.5232 11.4585C10.5232 10.6251 11.1638 9.98291 12.0413 9.98291H38.9495Z" fill="url(#paint5_radial)" stroke="#F4F5F7"/>
<path d="M43.1494 27.1975C43.1494 26.4958 43.7227 25.9194 44.4657 25.9194C47.4884 25.9194 49.9555 28.3334 50.0201 31.3511C50.0175 32.0506 49.4451 32.6244 48.7038 32.6244C47.9608 32.6244 47.3875 32.048 47.3875 31.3463C47.3875 29.7431 46.0772 28.4756 44.4657 28.4756C43.7227 28.4756 43.1494 27.8992 43.1494 27.1975Z" fill="url(#paint6_radial)" stroke="#F4F5F7"/>
<path d="M54.5569 38.4921L54.3002 38.8418L54.6102 39.1453L61.3372 45.7307C61.9442 46.3249 61.9442 47.2537 61.3372 47.8479C61.0219 48.1565 60.6747 48.2978 60.2743 48.2978C59.9324 48.2978 59.5203 48.1502 59.2114 47.8479L52.4844 41.2624L52.1871 40.9714L51.8469 41.2108C49.7733 42.6698 47.2493 43.5563 44.4658 43.5563C37.5339 43.5563 31.9153 38.0409 31.9153 31.2806C31.9153 24.517 37.47 19.0049 44.3985 19.0049C51.3304 19.0049 56.949 24.5203 56.949 31.2806C56.949 33.998 56.046 36.4639 54.5569 38.4921ZM44.4658 21.9561C39.2217 21.9561 34.9515 26.1213 34.9515 31.2806C34.9515 36.4399 39.2217 40.6051 44.4658 40.6051C49.7098 40.6051 53.98 36.4399 53.98 31.2806C53.98 26.1213 49.7098 21.9561 44.4658 21.9561Z" fill="url(#paint7_radial)" stroke="#F4F5F7"/>
</g>
<defs>
<radialGradient id="paint0_radial" cx="0" cy="0" r="1" gradientUnits="userSpaceOnUse" gradientTransform="translate(28.4192 19.0256) rotate(93.842) scale(43.634 35.8797)">
<stop stop-color="#2B2E41"/>
<stop offset="1" stop-color="#100F13"/>
</radialGradient>
<radialGradient id="paint1_radial" cx="0" cy="0" r="1" gradientUnits="userSpaceOnUse" gradientTransform="translate(20.9335 40.4506) rotate(112.206) scale(2.9699 12.7815)">
<stop stop-color="#2B2E41"/>
<stop offset="1" stop-color="#100F13"/>
</radialGradient>
<radialGradient id="paint2_radial" cx="0" cy="0" r="1" gradientUnits="userSpaceOnUse" gradientTransform="translate(27.2322 50.3291) rotate(122.776) scale(3.2703 18.3086)">
<stop stop-color="#2B2E41"/>
<stop offset="1" stop-color="#100F13"/>
</radialGradient>
<radialGradient id="paint3_radial" cx="0" cy="0" r="1" gradientUnits="userSpaceOnUse" gradientTransform="translate(19.5463 30.5068) rotate(109.611) scale(2.91896 11.3511)">
<stop stop-color="#2B2E41"/>
<stop offset="1" stop-color="#100F13"/>
</radialGradient>
<radialGradient id="paint4_radial" cx="0" cy="0" r="1" gradientUnits="userSpaceOnUse" gradientTransform="translate(20.9335 20.5629) rotate(112.206) scale(2.9699 12.7815)">
<stop stop-color="#2B2E41"/>
<stop offset="1" stop-color="#100F13"/>
</radialGradient>
<radialGradient id="paint5_radial" cx="0" cy="0" r="1" gradientUnits="userSpaceOnUse" gradientTransform="translate(27.2697 10.6845) rotate(122.833) scale(3.27239 18.3368)">
<stop stop-color="#2B2E41"/>
<stop offset="1" stop-color="#100F13"/>
</radialGradient>
<radialGradient id="paint6_radial" cx="0" cy="0" r="1" gradientUnits="userSpaceOnUse" gradientTransform="translate(47.036 27.7626) rotate(94.8111) scale(5.38075 5.53107)">
<stop stop-color="#2B2E41"/>
<stop offset="1" stop-color="#100F13"/>
</radialGradient>
<radialGradient id="paint7_radial" cx="0" cy="0" r="1" gradientUnits="userSpaceOnUse" gradientTransform="translate(48.6243 27.7173) rotate(94.8006) scale(21.1547 21.6991)">
<stop stop-color="#2B2E41"/>
<stop offset="1" stop-color="#100F13"/>
</radialGradient>
</defs>
</svg>
