<svg width="15" height="14" viewBox="0 0 24 23" fill="none" xmlns="http://www.w3.org/2000/svg">
<path d="M11.0825 2.10701C9.20809 3.98142 8.64163 6.62406 9.26944 9.02053L0.669037 17.6209C0.52412 17.7656 0.432776 17.9553 0.410033 18.1588L0.0049272 22.0041C-0.00961308 22.1427 0.00813304 22.2827 0.0567739 22.4132C0.105415 22.5437 0.183628 22.6612 0.285281 22.7564C0.386933 22.8516 0.509261 22.922 0.642672 22.962C0.776083 23.002 0.91695 23.0106 1.05423 22.987L6.13478 22.117C6.32854 22.0819 6.50549 21.9844 6.6386 21.8393C6.77171 21.6942 6.85367 21.5095 6.87195 21.3135L7.01808 19.7195L8.61196 19.5735C8.81999 19.5532 9.01453 19.4613 9.16232 19.3136C9.3101 19.1658 9.40196 18.9712 9.42219 18.7632L9.5683 17.1693L11.1622 17.0232C11.3719 17.0067 11.5692 16.9175 11.7201 16.7709L14.3699 14.121C16.7644 14.7455 19.411 14.1804 21.2834 12.3079C24.0928 9.49857 24.0928 4.91634 21.2834 2.10701C18.4741 -0.702332 13.8919 -0.702341 11.0825 2.10701V2.10701ZM12.3576 3.38212C14.4778 1.2619 17.8881 1.26191 20.0083 3.38214C22.1285 5.50234 22.1285 8.91262 20.0083 11.0328C18.4787 12.5624 16.2766 12.9649 14.3699 12.288C14.2091 12.2325 14.0358 12.2236 13.8701 12.2623C13.7044 12.3011 13.553 12.386 13.4335 12.5072L10.6774 15.2633L8.65846 15.4492C8.45043 15.4695 8.25589 15.5613 8.1081 15.7091C7.96031 15.8569 7.86845 16.0514 7.84822 16.2595L7.70213 17.8534L6.10822 17.9994C5.90019 18.0197 5.70566 18.1115 5.55787 18.2593C5.41008 18.4071 5.31822 18.6017 5.298 18.8097L5.15189 20.4567L1.91759 21.0079L2.16332 18.6769L10.8833 9.95695C11.0045 9.83614 11.0889 9.68329 11.1266 9.51629C11.1642 9.34929 11.1535 9.17504 11.0958 9.01389C10.4189 7.1072 10.828 4.91172 12.3576 3.38212V3.38212ZM15.7579 3.80717C14.7091 4.85596 14.7091 6.58372 15.7579 7.63251C16.8067 8.6813 18.5345 8.68131 19.5833 7.63251C20.6321 6.58372 20.6321 4.85595 19.5833 3.80717C18.5345 2.75838 16.8067 2.75838 15.7579 3.80717V3.80717ZM17.033 5.08229C17.3927 4.72263 17.9485 4.72263 18.3082 5.08229C18.6678 5.44196 18.6678 5.99774 18.3082 6.3574C17.9485 6.71706 17.3927 6.71707 17.033 6.3574C16.6734 5.99773 16.6734 5.44195 17.033 5.08229V5.08229Z" fill="#007AFF"/>
</svg>
