<svg xmlns="http://www.w3.org/2000/svg" width="358.175" height="429.609" viewBox="0 0 358.175 429.609"><g transform="translate(-6949.95 -1550.467)"><path d="M156.134,476.776h285.74A11.906,11.906,0,0,0,453.78,464.87V167.225h11.906a11.906,11.906,0,0,0,11.906-11.906V107.7A11.906,11.906,0,0,0,465.685,95.79H358.533V60.072a11.906,11.906,0,0,0-11.906-11.906H251.381a11.906,11.906,0,0,0-11.906,11.906V95.79H132.322A11.906,11.906,0,0,0,120.417,107.7v47.623a11.906,11.906,0,0,0,11.906,11.906h11.906V464.87A11.906,11.906,0,0,0,156.134,476.776Zm273.834-23.812H168.04V167.225H429.968ZM263.286,71.978h71.435V95.79H263.286ZM144.228,119.6H453.78v23.812H144.228Z" transform="translate(6830.033 1502.8)" fill="#54ab28" stroke="#54ab28" stroke-width="1"/><path d="M384.247,575.558a95.2,95.2,0,0,0,11.906-189.664V373.159a11.906,11.906,0,0,0-18.506-9.906l-35.717,23.812a11.906,11.906,0,0,0,0,19.811l35.717,23.812a11.906,11.906,0,0,0,18.506-9.906v-10.83a71.4,71.4,0,1,1-83.341,70.359,11.906,11.906,0,0,0-23.812,0,95.356,95.356,0,0,0,95.247,95.247Z" transform="translate(6744.791 1344.489)" fill="#54ab28" stroke="#54ab28" stroke-width="1"/></g></svg>