<svg width="14" height="13" viewBox="0 0 14 13" fill="none" xmlns="http://www.w3.org/2000/svg">
<path d="M10.6359 8.6737L10.6078 8.70989L10.6414 8.74102L13.6915 11.5671C14.0362 11.8865 14.0362 12.3896 13.6915 12.709C13.5175 12.8702 13.3161 12.95 13.085 12.95C12.8835 12.95 12.6518 12.8696 12.4784 12.709L9.42832 9.88289L9.39941 9.85611L9.36662 9.87795C8.39845 10.5227 7.2185 10.9152 5.91721 10.9152C2.67755 10.9152 0.05 8.47538 0.05 5.48261C0.05 2.48951 2.64739 0.05 5.88671 0.05C9.12637 0.05 11.7539 2.48983 11.7539 5.48261C11.7539 6.68566 11.3313 7.77724 10.6359 8.6737ZM5.91721 1.64565C3.63618 1.64565 1.78007 3.36017 1.78007 5.48261C1.78007 7.60505 3.63618 9.31957 5.91721 9.31957C8.19825 9.31957 10.0544 7.60505 10.0544 5.48261C10.0544 3.36017 8.19825 1.64565 5.91721 1.64565Z" fill="url(#paint0_radial)" stroke="white" stroke-width="0.1"/>
<defs>
<radialGradient id="paint0_radial" cx="0" cy="0" r="1" gradientUnits="userSpaceOnUse" gradientTransform="translate(7.80273 3.95344) rotate(95.0707) scale(9.0821 9.8346)">
<stop stop-color="#2B2E41"/>
<stop offset="1" stop-color="#100F13"/>
</radialGradient>
</defs>
</svg>
