<svg xmlns="http://www.w3.org/2000/svg" viewBox="0 0 23.613 23.613">
  <defs>
    <style>
      .cls-1 {
        fill: #fff;
      }
    </style>
  </defs>
  <g id="Group_41129" data-name="Group 41129" transform="translate(1971.613 -5114)">
    <rect id="Rectangle_741" data-name="Rectangle 741" class="cls-1" width="0.762" height="0.762" transform="translate(-1968.186 5125.045)"/>
    <rect id="Rectangle_742" data-name="Rectangle 742" class="cls-1" width="0.762" height="0.762" transform="translate(-1968.947 5123.902)"/>
    <rect id="Rectangle_743" data-name="Rectangle 743" class="cls-1" width="0.762" height="0.762" transform="translate(-1965.52 5125.807)"/>
    <rect id="Rectangle_744" data-name="Rectangle 744" class="cls-1" width="0.762" height="0.762" transform="translate(-1963.996 5125.045)"/>
    <path id="Path_1035" data-name="Path 1035" class="cls-1" d="M46.285,47a2.285,2.285,0,1,0,2.285,2.285A2.287,2.287,0,0,0,46.285,47Zm.381,3.755v-.708H45.9v.708a1.521,1.521,0,0,1-.7-.4L45.816,50l-.381-.66-.612.353a1.528,1.528,0,0,1-.061-.4,1.507,1.507,0,0,1,.061-.4l.612.353.381-.66-.616-.356a1.519,1.519,0,0,1,.7-.4v.708h.762v-.708a1.521,1.521,0,0,1,.7.4l-.616.356.381.66.612-.353a1.528,1.528,0,0,1,.061.4,1.507,1.507,0,0,1-.061.4l-.612-.353-.381.66.616.356A1.521,1.521,0,0,1,46.666,50.755Z" transform="translate(-1999.236 5084.52)"/>
    <path id="Path_1036" data-name="Path 1036" class="cls-1" d="M23.852,23.852V17H23.09V14.711H21.947V10.364a2.653,2.653,0,0,0-.86-3.615L17.645,2.9a2.663,2.663,0,0,0-4.787-.685L8.422,6.43a2,2,0,0,0-.308,2.533L6.063,11.014l.539.539L8.64,9.513a1.987,1.987,0,0,0,2.526-.153l3.35-3.093a2.6,2.6,0,0,0,.352.053L17.01,8.729A2.62,2.62,0,0,0,17,9a2.648,2.648,0,0,0,.381,1.366v4.347H16.234V17h-.762v6.855H8.617V17H7.855v-.762h.762v-.762h-.8a1.908,1.908,0,0,0-1.866-1.523H2.523v1.523H1.762v.762h.762V17H1.762v6.855H1v.762H24.613v-.762ZM3.285,14.711H5.951a1.141,1.141,0,0,1,1.072.762H3.285Zm0,1.523H7.094V17H3.285Zm-.762,7.617V20.8H6.332v-.762H2.523V17.758H7.855v2.285H7.094V20.8h.762v3.047ZM21.566,9a1.9,1.9,0,1,1-1.9-1.9A1.906,1.906,0,0,1,21.566,9ZM15.092,1.762a1.9,1.9,0,0,1,0,3.809h0a1.9,1.9,0,0,1,0-3.809ZM10.65,8.8a1.246,1.246,0,0,1-1.7-1.818l3.48-3.306a2.664,2.664,0,0,0,1.306,2.279Zm5.158-2.569a2.671,2.671,0,0,0,1.908-2.108l1.978,2.211-.031,0A2.667,2.667,0,0,0,17.255,7.86Zm2.331,4.951a2.651,2.651,0,0,0,3.047,0v3.528H18.139ZM17,15.473h5.332V17H17Zm-.762,8.379V17.758H23.09v6.094Z" transform="translate(-1972.613 5113)"/>
  </g>
</svg>
