<svg xmlns="http://www.w3.org/2000/svg" viewBox="0 0 24.681 23.477">
  <defs>
    <style>
      .cls-1 {
        fill: #fff;
      }
    </style>
  </defs>
  <g id="Group_41127" data-name="Group 41127" transform="translate(1969.34 -5018.262)">
    <path id="Path_2156" data-name="Path 2156" class="cls-1" d="M33.913,25.6H30.3a.3.3,0,1,1,0-.6h3.612a.3.3,0,1,1,0,.6Z" transform="translate(-1997.233 4993.262)"/>
    <path id="Path_2157" data-name="Path 2157" class="cls-1" d="M54.612,83.913H51.3a.3.3,0,0,1-.3-.3V80.3a.3.3,0,0,1,.3-.3h3.311a.3.3,0,0,1,.3.3v3.311A.3.3,0,0,1,54.612,83.913Zm-3.01-.6h2.709V80.6H51.6Z" transform="translate(-2011.913 4954.816)"/>
    <path id="Path_2158" data-name="Path 2158" class="cls-1" d="M69.612,83.913H66.3a.3.3,0,0,1-.3-.3V80.3a.3.3,0,0,1,.3-.3h3.311a.3.3,0,0,1,.3.3v3.311A.3.3,0,0,1,69.612,83.913Zm-3.01-.6h2.709V80.6H66.6Z" transform="translate(-2022.398 4954.816)"/>
    <path id="Path_2159" data-name="Path 2159" class="cls-1" d="M84.612,83.913H81.3a.3.3,0,0,1-.3-.3V80.3a.3.3,0,0,1,.3-.3h3.311a.3.3,0,0,1,.3.3v3.311A.3.3,0,0,1,84.612,83.913Zm-3.01-.6h2.709V80.6H81.6Z" transform="translate(-2032.883 4954.816)"/>
    <path id="Path_2160" data-name="Path 2160" class="cls-1" d="M47.38,50.671h-.9V37.428A.3.3,0,0,0,46,37.184l-4.94,3.568V37.428a.3.3,0,0,0-.477-.244l-4.94,3.568V37.428a.3.3,0,0,0-.514-.213l-5.33,5.33H29.02V29.3a.3.3,0,0,0-.3-.3h-3.01a.3.3,0,0,0-.3.3V42.544h-.9a.3.3,0,0,0-.3.3v7.826h-.9a.3.3,0,1,0,0,.6H47.38a.3.3,0,1,0,0-.6ZM26.01,29.6h2.408V42.544H26.01Zm-1.2,13.544h4.816v7.525H24.806Zm5.418,7.525v-7.7l4.816-4.816V41.34a.3.3,0,0,0,.477.244l4.94-3.568V41.34a.3.3,0,0,0,.477.244l4.94-3.568V50.671Z" transform="translate(-1992.34 4990.466)"/>
    <path id="Path_2161" data-name="Path 2161" class="cls-1" d="M34.311,84.612H31.3a.3.3,0,0,1-.3-.3V81.3a.3.3,0,0,1,.3-.3h3.01a.3.3,0,0,1,.3.3v3.01A.3.3,0,0,1,34.311,84.612Zm-2.709-.6H34.01V81.6H31.6Z" transform="translate(-1997.932 4954.117)"/>
  </g>
</svg>
