<svg xmlns="http://www.w3.org/2000/svg" viewBox="0 0 1124.775 88.429">
  <defs>
    <style>
      .cls-1, .cls-3, .cls-4 {
        fill: #fff;
      }

      .cls-2 {
        fill: #3baf00;
      }

      .cls-3, .cls-4 {
        font-size: 14px;
      }

      .cls-3 {
        font-family: Lato-Bold, Lato;
        font-weight: 700;
      }

      .cls-4 {
        font-family: Lato-Semibold, Lato;
        font-weight: 600;
      }

      .cls-5 {
        fill: #e51313;
      }

      .cls-6 {
        fill: #d3cb0c;
      }
    </style>
  </defs>
  <g id="Group_41145" data-name="Group 41145" transform="translate(775 -2981)">
    <g id="Group_41136" data-name="Group 41136" transform="translate(-1114 2155)">
      <g id="Group_490" data-name="Group 490">
        <g id="Group_481" data-name="Group 481" transform="translate(359 866.242)">
          <path id="Path_1863" data-name="Path 1863" class="cls-1" d="M22.62,159.6a22.652,22.652,0,1,1,16.789-37.935,22.7,22.7,0,0,1-2.819,33.257A23.057,23.057,0,0,1,22.62,159.6Zm0-44.15a21.737,21.737,0,0,0-15.891,6.985,21.446,21.446,0,0,0,15.827,35.948,21.461,21.461,0,0,0,21.466-21.53,21.29,21.29,0,0,0-21.4-21.4Z" transform="translate(0 -114.3)"/>
        </g>
        <g id="Group_482" data-name="Group 482" transform="translate(362.828 863.422)">
          <path id="Path_1864" data-name="Path 1864" class="cls-2" d="M24.766,160.907a25.5,25.5,0,0,1-17.75-7.177,3.444,3.444,0,0,1,4.806-4.934A18.638,18.638,0,0,0,43.413,135.4,18.553,18.553,0,0,0,24.83,116.82a3.46,3.46,0,1,1,0-6.92,25.767,25.767,0,0,1,18.839,8.266,25.5,25.5,0,0,1-18.9,42.74Z" transform="translate(-5.974 -109.9)"/>
        </g>
        <text id="_63_" data-name="63%" class="cls-3" transform="translate(366.829 893.221)"><tspan x="0" y="0">63%</tspan></text>
      </g>
      <text id="Elizabethtown" class="cls-4" transform="translate(339 840)"><tspan x="0" y="0">Elizabethtown</tspan></text>
    </g>
    <g id="Group_41137" data-name="Group 41137" transform="translate(-1114 2155)">
      <g id="Group_493" data-name="Group 493" transform="translate(72 -229)">
        <g id="Group_466" data-name="Group 466" transform="translate(427.486 1095.078)">
          <path id="Path_1853" data-name="Path 1853" class="cls-1" d="M134.21,52.851a24.212,24.212,0,0,1-16.824-6.771A23.78,23.78,0,0,1,110,28.71a24.21,24.21,0,1,1,39.05,19.149A24.856,24.856,0,0,1,134.21,52.851Zm0-47.12a23.2,23.2,0,0,0-16.961,7.454,22.889,22.889,0,0,0,16.892,38.367,22.9,22.9,0,0,0,22.91-22.979,22.9,22.9,0,0,0-6.018-15.524A23.174,23.174,0,0,0,134.21,5.731Z" transform="translate(-110 -4.5)"/>
        </g>
        <g id="Group_467" data-name="Group 467" transform="translate(448.003 1092)">
          <path id="Path_1854" data-name="Path 1854" class="cls-5" d="M167.219,30.912a3.678,3.678,0,0,1-3.693-3.693A19.8,19.8,0,0,0,143.693,7.386a3.693,3.693,0,0,1,0-7.386A27.5,27.5,0,0,1,163.8,8.822a27.045,27.045,0,0,1,7.181,18.4A3.781,3.781,0,0,1,167.219,30.912Z" transform="translate(-140 0)"/>
        </g>
        <text id="_25_" data-name="25%" class="cls-3" transform="translate(435.856 1122.907)"><tspan x="0" y="0">25%</tspan></text>
      </g>
      <text id="Roanoke" class="cls-4" transform="translate(498 840)"><tspan x="0" y="0">Roanoke</tspan></text>
    </g>
    <g id="Group_41138" data-name="Group 41138" transform="translate(-1114 2155)">
      <g id="Group_491" data-name="Group 491" transform="translate(278)">
        <g id="Group_481-2" data-name="Group 481" transform="translate(359 866.242)">
          <path id="Path_1863-2" data-name="Path 1863" class="cls-1" d="M22.62,159.6a22.652,22.652,0,1,1,16.789-37.935,22.7,22.7,0,0,1-2.819,33.257A23.057,23.057,0,0,1,22.62,159.6Zm0-44.15a21.737,21.737,0,0,0-15.891,6.985,21.446,21.446,0,0,0,15.827,35.948,21.461,21.461,0,0,0,21.466-21.53,21.29,21.29,0,0,0-21.4-21.4Z" transform="translate(0 -114.3)"/>
        </g>
        <g id="Group_482-2" data-name="Group 482" transform="translate(362.828 863.422)">
          <path id="Path_1864-2" data-name="Path 1864" class="cls-2" d="M24.766,160.907a25.5,25.5,0,0,1-17.75-7.177,3.444,3.444,0,0,1,4.806-4.934A18.638,18.638,0,0,0,43.413,135.4,18.553,18.553,0,0,0,24.83,116.82a3.46,3.46,0,1,1,0-6.92,25.767,25.767,0,0,1,18.839,8.266,25.5,25.5,0,0,1-18.9,42.74Z" transform="translate(-5.974 -109.9)"/>
        </g>
        <text id="_60_" data-name="60%" class="cls-3" transform="translate(366.829 893.221)"><tspan x="0" y="0">60%</tspan></text>
      </g>
      <text id="Hopkinsville" class="cls-4" transform="translate(623 840)"><tspan x="0" y="0">Hopkinsville</tspan></text>
    </g>
    <g id="Group_41139" data-name="Group 41139" transform="translate(-1114 2155)">
      <g id="Group_495" data-name="Group 495" transform="translate(280 -229)">
        <g id="Group_469" data-name="Group 469" transform="translate(497.973 1095.056)">
          <path id="Path_1855" data-name="Path 1855" class="cls-1" d="M244.041,52.515a24.043,24.043,0,0,1-16.707-6.723A23.614,23.614,0,0,1,220,28.541a24.041,24.041,0,1,1,38.778,19.016A24.533,24.533,0,0,1,244.041,52.515Zm0-46.792a23.038,23.038,0,0,0-16.842,7.4,22.729,22.729,0,0,0,16.775,38.1,22.745,22.745,0,0,0,22.751-22.819A22.564,22.564,0,0,0,244.041,5.722Z" transform="translate(-220 -4.5)"/>
        </g>
        <g id="Group_470" data-name="Group 470" transform="translate(518.347 1092)">
          <path id="Path_1856" data-name="Path 1856" class="cls-5" d="M267.929,49.237a3.669,3.669,0,0,1-2.241-6.588A19.7,19.7,0,0,0,253.667,7.335a3.667,3.667,0,0,1,0-7.335,27.309,27.309,0,0,1,19.966,8.761,26.986,26.986,0,0,1-3.4,39.661A3.688,3.688,0,0,1,267.929,49.237Z" transform="translate(-250 0)"/>
        </g>
        <text id="_38_" data-name="38%" class="cls-3" transform="translate(506.3 1122.789)"><tspan x="0" y="0">38%</tspan></text>
      </g>
      <text id="Tuscaloosa" class="cls-4" transform="translate(770 840)"><tspan x="0" y="0">Tuscaloosa</tspan></text>
    </g>
    <g id="Group_41140" data-name="Group 41140" transform="translate(-1114 2155)">
      <g id="Group_496" data-name="Group 496" transform="translate(343 -229)">
        <g id="Group_472" data-name="Group 472" transform="translate(568.459 1094.884)">
          <path id="Path_1857" data-name="Path 1857" class="cls-1" d="M352.684,49.8A22.686,22.686,0,0,1,336.92,43.46,22.281,22.281,0,0,1,330,27.184a22.684,22.684,0,1,1,36.589,17.942A23.147,23.147,0,0,1,352.684,49.8Zm0-44.15a21.737,21.737,0,0,0-15.891,6.985A21.446,21.446,0,0,0,352.62,48.586a21.461,21.461,0,0,0,21.466-21.53,21.29,21.29,0,0,0-21.4-21.4Z" transform="translate(-330 -4.5)"/>
        </g>
        <g id="Group_473" data-name="Group 473" transform="translate(587.683 1092)">
          <path id="Path_1858" data-name="Path 1858" class="cls-6" d="M363.46,51.071a3.46,3.46,0,0,1,0-6.92,18.615,18.615,0,1,0,.064-37.23,3.46,3.46,0,0,1,0-6.92,25.767,25.767,0,0,1,18.839,8.266,25.574,25.574,0,0,1-18.9,42.8Z" transform="translate(-360 0)"/>
        </g>
        <text id="_50_" data-name="50%" class="cls-3" transform="translate(576.332 1121.841)"><tspan x="0" y="0">50%</tspan></text>
      </g>
      <text id="Apodaca" class="cls-4" transform="translate(909 840)"><tspan x="0" y="0">Apodaca</tspan></text>
    </g>
    <g id="Group_41141" data-name="Group 41141" transform="translate(-1114 2155)">
      <g id="Group_494" data-name="Group 494" transform="translate(674.513 -228.642)">
        <g id="Group_478" data-name="Group 478" transform="translate(357 1095.038)">
          <path id="Path_1861" data-name="Path 1861" class="cls-1" d="M23.861,52.291A23.757,23.757,0,1,1,38.53,47.356,24.418,24.418,0,0,1,23.861,52.291Zm0-46.574A22.93,22.93,0,0,0,7.1,13.085,22.466,22.466,0,0,0,1.149,28.361,22.919,22.919,0,0,0,8.112,44.72a22.694,22.694,0,0,0,32.446-31.7A22.861,22.861,0,0,0,23.861,5.717Z" transform="translate(0 -4.5)"/>
        </g>
        <g id="Group_479" data-name="Group 479" transform="translate(377.211 1092.064)">
          <path id="Path_1862" data-name="Path 1862" class="cls-5" d="M50.72,14.9a3.789,3.789,0,0,1-2.7-1.149A19.654,19.654,0,0,0,33.55,7.4a3.65,3.65,0,1,1,0-7.3A27.181,27.181,0,0,1,53.423,8.82a3.633,3.633,0,0,1-.2,5.137A3.84,3.84,0,0,1,50.72,14.9Z" transform="translate(-29.9 -0.1)"/>
        </g>
        <text id="_12_" data-name="12%" class="cls-4" transform="translate(365.259 1122.707)"><tspan x="0" y="0">12%</tspan></text>
      </g>
      <text id="Saltillo" class="cls-4" transform="translate(1034 840)"><tspan x="0" y="0">Saltillo</tspan></text>
    </g>
    <g id="Group_41142" data-name="Group 41142" transform="translate(-1114 2155)">
      <g id="Group_492" data-name="Group 492" transform="translate(786)">
        <g id="Group_481-3" data-name="Group 481" transform="translate(359 866.242)">
          <path id="Path_1863-3" data-name="Path 1863" class="cls-1" d="M22.62,159.6a22.652,22.652,0,1,1,16.789-37.935,22.7,22.7,0,0,1-2.819,33.257A23.057,23.057,0,0,1,22.62,159.6Zm0-44.15a21.737,21.737,0,0,0-15.891,6.985,21.446,21.446,0,0,0,15.827,35.948,21.461,21.461,0,0,0,21.466-21.53,21.29,21.29,0,0,0-21.4-21.4Z" transform="translate(0 -114.3)"/>
        </g>
        <g id="Group_482-3" data-name="Group 482" transform="translate(362.828 863.422)">
          <path id="Path_1864-3" data-name="Path 1864" class="cls-2" d="M24.766,160.907a25.5,25.5,0,0,1-17.75-7.177,3.444,3.444,0,0,1,4.806-4.934A18.638,18.638,0,0,0,43.413,135.4,18.553,18.553,0,0,0,24.83,116.82a3.46,3.46,0,1,1,0-6.92,25.767,25.767,0,0,1,18.839,8.266,25.5,25.5,0,0,1-18.9,42.74Z" transform="translate(-5.974 -109.9)"/>
        </g>
        <text id="_63_2" data-name="63%" class="cls-3" transform="translate(366.829 893.221)"><tspan x="0" y="0">63%</tspan></text>
      </g>
      <text id="El_Talar" data-name="El Talar" class="cls-4" transform="translate(1147 840)"><tspan x="0" y="0">El Talar</tspan></text>
    </g>
    <g id="Group_41143" data-name="Group 41143" transform="translate(-1114 2155)">
      <g id="Group_500" data-name="Group 500" transform="translate(850 -229)">
        <g id="Group_466-2" data-name="Group 466" transform="translate(427.486 1095.078)">
          <path id="Path_1853-2" data-name="Path 1853" class="cls-1" d="M134.21,52.851a24.212,24.212,0,0,1-16.824-6.771A23.78,23.78,0,0,1,110,28.71a24.21,24.21,0,1,1,39.05,19.149A24.856,24.856,0,0,1,134.21,52.851Zm0-47.12a23.2,23.2,0,0,0-16.961,7.454,22.889,22.889,0,0,0,16.892,38.367,22.9,22.9,0,0,0,22.91-22.979,22.9,22.9,0,0,0-6.018-15.524A23.174,23.174,0,0,0,134.21,5.731Z" transform="translate(-110 -4.5)"/>
        </g>
        <g id="Group_467-2" data-name="Group 467" transform="translate(448.003 1092)">
          <path id="Path_1854-2" data-name="Path 1854" class="cls-5" d="M167.219,30.912a3.678,3.678,0,0,1-3.693-3.693A19.8,19.8,0,0,0,143.693,7.386a3.693,3.693,0,0,1,0-7.386A27.5,27.5,0,0,1,163.8,8.822a27.045,27.045,0,0,1,7.181,18.4A3.781,3.781,0,0,1,167.219,30.912Z" transform="translate(-140 0)"/>
        </g>
        <text id="_25_2" data-name="25%" class="cls-3" transform="translate(435.856 1122.907)"><tspan x="0" y="0">25%</tspan></text>
      </g>
      <text id="Campo_Largo" data-name="Campo Largo" class="cls-4" transform="translate(1262 840)"><tspan x="0" y="0">Campo Largo</tspan></text>
    </g>
    <g id="Group_41144" data-name="Group 41144" transform="translate(-1114 2155)">
      <g id="Group_501" data-name="Group 501" transform="translate(847 -229)">
        <g id="Group_472-2" data-name="Group 472" transform="translate(568.459 1094.884)">
          <path id="Path_1857-2" data-name="Path 1857" class="cls-1" d="M352.684,49.8A22.686,22.686,0,0,1,336.92,43.46,22.281,22.281,0,0,1,330,27.184a22.684,22.684,0,1,1,36.589,17.942A23.147,23.147,0,0,1,352.684,49.8Zm0-44.15a21.737,21.737,0,0,0-15.891,6.985A21.446,21.446,0,0,0,352.62,48.586a21.461,21.461,0,0,0,21.466-21.53,21.29,21.29,0,0,0-21.4-21.4Z" transform="translate(-330 -4.5)"/>
        </g>
        <g id="Group_473-2" data-name="Group 473" transform="translate(587.683 1092)">
          <path id="Path_1858-2" data-name="Path 1858" class="cls-6" d="M363.46,51.071a3.46,3.46,0,0,1,0-6.92,18.615,18.615,0,1,0,.064-37.23,3.46,3.46,0,0,1,0-6.92,25.767,25.767,0,0,1,18.839,8.266,25.574,25.574,0,0,1-18.9,42.8Z" transform="translate(-360 0)"/>
        </g>
        <text id="_51_" data-name="51%" class="cls-3" transform="translate(576.332 1121.841)"><tspan x="0" y="0">51%</tspan></text>
      </g>
      <text id="Osasco" class="cls-4" transform="translate(1415 840)"><tspan x="0" y="0">Osasco</tspan></text>
    </g>
  </g>
</svg>
