<svg xmlns="http://www.w3.org/2000/svg" viewBox="0 0 28.222 27.296">
  <defs>
    <style>
      .cls-1 {
        fill: #fff;
      }
    </style>
  </defs>
  <g id="Group_41131" data-name="Group 41131" transform="translate(1972.611 -5207.302)">
    <path id="Path_2152" data-name="Path 2152" class="cls-1" d="M28.281,24H25.018v-3.66a2.464,2.464,0,0,0,0-4.851V13.9a.417.417,0,0,0-.441-.441H18.271l-3.219-3.219V7.862h5.865a.417.417,0,0,0,.441-.441V2.041a.417.417,0,0,0-.441-.441H8.305a.417.417,0,0,0-.441.441V7.465a.417.417,0,0,0,.441.441H14.17v2.381l-3.219,3.219H4.645a.417.417,0,0,0-.441.441v1.587a2.464,2.464,0,0,0,0,4.851v3.66H.941a.417.417,0,0,0-.441.441v3.969a.417.417,0,0,0,.441.441H8.349a.417.417,0,0,0,.441-.441V24.486a.417.417,0,0,0-.441-.441H5.086v-3.66a2.464,2.464,0,0,0,0-4.851V14.388h5.865l3.219,3.219v2.91H12.45a1.984,1.984,0,0,0,0,3.969h4.322A1.976,1.976,0,0,0,18.756,22.5h0a1.976,1.976,0,0,0-1.984-1.984h-1.72v-2.91l3.219-3.219h5.865v1.147a2.464,2.464,0,0,0,0,4.851v3.66H20.873a.417.417,0,0,0-.441.441v3.969a.417.417,0,0,0,.441.441h7.408a.417.417,0,0,0,.441-.441V24.486A.43.43,0,0,0,28.281,24ZM8.746,2.482H20.52V7.024H8.746ZM7.908,27.97H1.382V24.883H7.908ZM6.233,17.916a1.587,1.587,0,1,1-1.587-1.587A1.581,1.581,0,0,1,6.233,17.916Zm11.642,4.542h0a1.092,1.092,0,0,1-1.1,1.1H12.45a1.1,1.1,0,1,1,0-2.2h4.322A1.092,1.092,0,0,1,17.874,22.458Zm-3.263-5.689-2.822-2.822,2.822-2.822,2.822,2.822Zm8.378,1.147A1.587,1.587,0,1,1,24.577,19.5,1.581,1.581,0,0,1,22.989,17.916ZM27.84,27.97H21.314V24.883H27.84Z" transform="translate(-1973.111 5205.702)"/>
    <path id="Path_2153" data-name="Path 2153" class="cls-1" d="M23.437,7.7h-1.9a.441.441,0,1,0,0,.882h1.9a.441.441,0,0,0,0-.882Z" transform="translate(-1984.627 5202.292)"/>
    <path id="Path_2154" data-name="Path 2154" class="cls-1" d="M32.178,8.141a.417.417,0,0,0-.441-.441h-1.9a.441.441,0,0,0,0,.882h1.9A.442.442,0,0,0,32.178,8.141Z" transform="translate(-1989.267 5202.292)"/>
    <path id="Path_2155" data-name="Path 2155" class="cls-1" d="M38.041,8.582h1.9a.441.441,0,0,0,0-.882h-1.9a.441.441,0,0,0,0,.882Z" transform="translate(-1993.851 5202.292)"/>
  </g>
</svg>
