<svg xmlns="http://www.w3.org/2000/svg" viewBox="0 0 23.377 23.376">
  <defs>
    <style>
      .cls-1 {
        fill: #fff;
      }
    </style>
  </defs>
  <g id="Group_41128" data-name="Group 41128" transform="translate(1971.377 -5067)">
    <path id="Path_1812" data-name="Path 1812" class="cls-1" d="M20.229,41H5.147a4.147,4.147,0,0,0,0,8.295H20.229a4.147,4.147,0,1,0,0-8.295Zm0,7.541H5.147a3.393,3.393,0,1,1,0-6.787H20.229a3.393,3.393,0,1,1,0,6.787Z" transform="translate(-1972.377 5041.082)"/>
    <path id="Path_1814" data-name="Path 1814" class="cls-1" d="M11.754,27.77h6.033v1.885h.754V27.016H17.41v-.754h.754V24H11.377v2.262h.754v.754H11v2.639h.754Zm1.885-2.262v-.754h.754v.754Zm1.508-.754H15.9v.754h-.754Zm2.262.754h-.754v-.754h.754Zm-5.279-.754h.754v.754h-.754Zm.754,1.508h3.77v.754h-3.77Z" transform="translate(-1978.606 5051.672)"/>
    <path id="Path_1815" data-name="Path 1815" class="cls-1" d="M40.541,32.147V29.508h-.377V28H33.377v1.508H33v2.639h.754V30.262h6.033v1.885Zm-6.41-3.393H39.41v.754H34.131Z" transform="translate(-1992.311 5049.18)"/>
    <path id="Path_1816" data-name="Path 1816" class="cls-1" d="M40.787,20H34v2.262h6.787Zm-3.016.754h.754v.754H37.77Zm-.754.754h-.754v-.754h.754Zm-2.262-.754h.754v.754h-.754Zm5.279.754h-.754v-.754h.754Z" transform="translate(-1992.934 5054.164)"/>
    <path id="Path_1817" data-name="Path 1817" class="cls-1" d="M31.508,4.77H33.77v.792A1.888,1.888,0,0,0,32.262,7.41h.754a1.133,1.133,0,0,1,1.131-1.131h1.508A1.133,1.133,0,0,1,36.787,7.41h.754a1.889,1.889,0,0,0-1.508-1.847V4.77h2.262V3.262H39.8V1H30V3.262h1.508Zm3.77.754h-.754V4.77h.754Zm2.262-1.508H32.262V3.262h5.279ZM30.754,1.754h8.295v.754H30.754Z" transform="translate(-1990.443 5066)"/>
    <path id="Path_1818" data-name="Path 1818" class="cls-1" d="M50.131,49a1.131,1.131,0,1,0,1.131,1.131A1.133,1.133,0,0,0,50.131,49Zm0,1.508a.377.377,0,1,1,.377-.377A.377.377,0,0,1,50.131,50.508Z" transform="translate(-2002.279 5036.098)"/>
    <path id="Path_1819" data-name="Path 1819" class="cls-1" d="M42.131,49a1.131,1.131,0,1,0,1.131,1.131A1.133,1.133,0,0,0,42.131,49Zm0,1.508a.377.377,0,1,1,.377-.377A.377.377,0,0,1,42.131,50.508Z" transform="translate(-1997.295 5036.098)"/>
    <path id="Path_1820" data-name="Path 1820" class="cls-1" d="M34.131,49a1.131,1.131,0,1,0,1.131,1.131A1.133,1.133,0,0,0,34.131,49Zm0,1.508a.377.377,0,1,1,.377-.377A.377.377,0,0,1,34.131,50.508Z" transform="translate(-1992.311 5036.098)"/>
    <path id="Path_1821" data-name="Path 1821" class="cls-1" d="M26.131,49a1.131,1.131,0,1,0,1.131,1.131A1.133,1.133,0,0,0,26.131,49Zm0,1.508a.377.377,0,1,1,.377-.377A.377.377,0,0,1,26.131,50.508Z" transform="translate(-1987.328 5036.098)"/>
    <path id="Path_1822" data-name="Path 1822" class="cls-1" d="M18.131,49a1.131,1.131,0,1,0,1.131,1.131A1.133,1.133,0,0,0,18.131,49Zm0,1.508a.377.377,0,1,1,.377-.377A.377.377,0,0,1,18.131,50.508Z" transform="translate(-1982.344 5036.098)"/>
    <path id="Path_1823" data-name="Path 1823" class="cls-1" d="M10.131,49a1.131,1.131,0,1,0,1.131,1.131A1.133,1.133,0,0,0,10.131,49Zm0,1.508a.377.377,0,1,1,.377-.377A.377.377,0,0,1,10.131,50.508Z" transform="translate(-1977.36 5036.098)"/>
  </g>
</svg>
