<svg xmlns="http://www.w3.org/2000/svg" viewBox="0 0 25.058 25.058">
  <defs>
    <style>
      .cls-1 {
        fill: #fff;
      }
    </style>
  </defs>
  <g id="Group_41130" data-name="Group 41130" transform="translate(1972 -5161)">
    <path id="Path_1800" data-name="Path 1800" class="cls-1" d="M59,39.617a1.618,1.618,0,0,0,1.617,1.617v-.808a.808.808,0,0,1,0-1.617V38A1.618,1.618,0,0,0,59,39.617Z" transform="translate(-2007.559 5137.954)"/>
    <path id="Path_1801" data-name="Path 1801" class="cls-1" d="M54.233,39.617a1.617,1.617,0,1,0-1.617,1.617A1.618,1.618,0,0,0,54.233,39.617Zm-1.617.808a.808.808,0,1,1,.808-.808A.809.809,0,0,1,52.617,40.425Z" transform="translate(-2002.792 5137.954)"/>
    <path id="Path_1802" data-name="Path 1802" class="cls-1" d="M21.208,15.145V1H5.85V7.871H1v8.083H5.85v3.233H1V20H2.212v6.062h.808V20H5.85v6.062H21.208V20h2.829v6.062h.808V20h1.212v-.808h-4.85V15.954h4.85v-.808Zm-19.4,0V8.679H5.85v6.466ZM20.4,25.249H6.658V1.808H20.4Z" transform="translate(-1973 5160)"/>
    <path id="Path_1803" data-name="Path 1803" class="cls-1" d="M2.617,39.617A1.618,1.618,0,0,0,1,38v.808a.808.808,0,0,1,0,1.617v.808A1.618,1.618,0,0,0,2.617,39.617Z" transform="translate(-1973 5137.954)"/>
    <path id="Path_1804" data-name="Path 1804" class="cls-1" d="M5,39.617A1.617,1.617,0,1,0,6.617,38,1.618,1.618,0,0,0,5,39.617Zm1.617-.808a.808.808,0,1,1-.808.808A.809.809,0,0,1,6.617,38.808Z" transform="translate(-1975.383 5137.954)"/>
    <path id="Path_1806" data-name="Path 1806" class="cls-1" d="M29.125,14H17V25.316H29.125Zm-.808.808v.808H21.042v7.275H19.425V15.617H17.808v-.808Zm0,1.617v6.466H21.85V16.425Zm-9.7,6.466h-.808V16.425h.808Zm-.808,1.617V23.7H28.316v.808Z" transform="translate(-1982.534 5150.735)"/>
    <path id="Path_1807" data-name="Path 1807" class="cls-1" d="M32.037,25.241l-.613.613.571.571.613-.613a1.616,1.616,0,0,0,.412.172v.866h.808v-.866a1.582,1.582,0,0,0,.412-.172l.613.613.571-.571-.613-.613a1.616,1.616,0,0,0,.172-.412h.866v-.808h-.866a1.582,1.582,0,0,0-.172-.412L35.425,23l-.571-.571-.613.613c-.128-.075-.265.038-.412,0V22h-.808v.866a1.582,1.582,0,0,0-.412.172L32,22.424,31.424,23l.613.613a1.616,1.616,0,0,0-.172.412H31v.808h.866A1.582,1.582,0,0,0,32.037,25.241Zm1.387-1.624a.808.808,0,1,1-.808.808A.809.809,0,0,1,33.425,23.617Z" transform="translate(-1990.875 5145.969)"/>
    <path id="Path_1808" data-name="Path 1808" class="cls-1" d="M18.212,46.425A1.212,1.212,0,1,0,17,45.212,1.214,1.214,0,0,0,18.212,46.425Zm0-1.617a.4.4,0,1,1-.4.4A.4.4,0,0,1,18.212,44.808Z" transform="translate(-1982.534 5134.379)"/>
    <path id="Path_1809" data-name="Path 1809" class="cls-1" d="M26.212,44a1.212,1.212,0,1,0,1.212,1.212A1.214,1.214,0,0,0,26.212,44Zm0,1.617a.4.4,0,1,1,.4-.4A.4.4,0,0,1,26.212,45.617Z" transform="translate(-1987.3 5134.379)"/>
    <path id="Path_1810" data-name="Path 1810" class="cls-1" d="M33,46.425h5.658V44H33Zm.808-1.617H37.85v.808H33.808Z" transform="translate(-1992.067 5134.379)"/>
  </g>
</svg>
