<svg xmlns="http://www.w3.org/2000/svg" viewBox="0 0 28.097 28.098">
  <defs>
    <style>
      .cls-1 {
        fill: #fff;
      }
    </style>
  </defs>
  <g id="Group_41135" data-name="Group 41135" transform="translate(-999 158)">
    <g id="Group_454" data-name="Group 454" transform="translate(1001.604 -157.692)">
      <path id="Path_1840" data-name="Path 1840" class="cls-1" d="M24.286,31.56a.188.188,0,0,1-.125-.031c-2.092-.562-2-2.529-1.936-4.152a6.754,6.754,0,0,0-.094-2,2.489,2.489,0,0,0-.812-1.061,3.466,3.466,0,0,1-.937-1.155,4.175,4.175,0,0,1-.312-1.842,3.619,3.619,0,0,0-.094-1.03c-.125-.531-.375-.656-.874-.874a8.334,8.334,0,0,1-.749-.375,7.405,7.405,0,0,1-.937-.718,4.349,4.349,0,0,0-.593-.468,2.215,2.215,0,0,0-.968-.406c-.094-.031-.187-.031-.281-.062-1.218-.312-1.5-1.342-1.748-2.154a9.886,9.886,0,0,1-.468-3.5.469.469,0,0,1,.937.062,8.911,8.911,0,0,0,.437,3.184c.25.905.437,1.311,1.061,1.5.094.031.187.031.25.062a3.86,3.86,0,0,1,1.311.562,5.1,5.1,0,0,1,.624.531,4.715,4.715,0,0,0,.812.624,3.885,3.885,0,0,0,.624.312,2.042,2.042,0,0,1,1.436,1.561,5.34,5.34,0,0,1,.094,1.218,3.478,3.478,0,0,0,.219,1.436,2.652,2.652,0,0,0,.718.843,3.294,3.294,0,0,1,1.093,1.5,7.168,7.168,0,0,1,.156,2.341c-.062,1.28-.031,2.217.468,2.747a2.205,2.205,0,0,1,.219-1.686,2.9,2.9,0,0,1,1.342-.843,3.019,3.019,0,0,0,.78-.406,1.829,1.829,0,0,0,.718-1.4l.031-.094a1.812,1.812,0,0,1,1-1.124c.156-.094.312-.187.437-.281a4.015,4.015,0,0,0,1.311-2.341.777.777,0,0,0-.219-.593,3.549,3.549,0,0,0-.968-.531A6.239,6.239,0,0,1,27.6,20.6a3.822,3.822,0,0,1-.968-.874,4.02,4.02,0,0,0-.5-.531A2.385,2.385,0,0,0,25,18.885c-.25-.031-.468-.062-.718-.094a10.039,10.039,0,0,1-1.155-.375c-.343-.125-.656-.25-.968-.343a4.376,4.376,0,0,0-2.092.125c-.905.187-1.5.25-1.811-.968-.062-.219-.281-.312-.718-.437-.562-.156-1.623-.468-1.249-1.9a2.251,2.251,0,0,1,1.623-1.623,2.488,2.488,0,0,1,1.717.094,7.012,7.012,0,0,1,1.374-2.4,2.946,2.946,0,0,1,2.966-1.249h.219a.949.949,0,0,0-.219-.156,1.75,1.75,0,0,1-.562-.5,5.249,5.249,0,0,1-.468-.937c-.281-.656-.5-1.093-.874-1.155a.5.5,0,0,1-.406-.562.476.476,0,0,1,.562-.406c.937.156,1.311,1.03,1.592,1.717a5.561,5.561,0,0,0,.375.749,4.215,4.215,0,0,0,.343.281,1.585,1.585,0,0,1,.718.78.781.781,0,0,1-.094.749,1.208,1.208,0,0,1-1.124.343h-.062c-1.155-.031-1.53.031-2.217.874a5.113,5.113,0,0,0-1.311,2.622.431.431,0,0,1-.312.406.489.489,0,0,1-.5-.094,1.537,1.537,0,0,0-1.467-.312,1.376,1.376,0,0,0-.968.968c-.125.562-.031.593.593.749a1.744,1.744,0,0,1,1.4,1.124,1.1,1.1,0,0,0,.125.375c.094,0,.375-.062.562-.094a5.164,5.164,0,0,1,2.5-.094,6.11,6.11,0,0,1,1.061.375,6.646,6.646,0,0,0,1.03.343c.187.031.375.062.593.094a2.953,2.953,0,0,1,1.623.531,4.03,4.03,0,0,1,.624.656A2.731,2.731,0,0,0,28,19.79l.562.281a3.693,3.693,0,0,1,1.218.718,1.788,1.788,0,0,1,.531,1.311,4.893,4.893,0,0,1-1.655,3.028c-.187.156-.406.281-.562.406-.312.187-.5.312-.562.531l-.031.094a2.762,2.762,0,0,1-1.093,1.936,5.066,5.066,0,0,1-1,.531,2.826,2.826,0,0,0-.968.562c-.187.219-.031.968.031,1.4.031.187.062.375.094.531a.406.406,0,0,1-.156.406C24.5,31.5,24.38,31.56,24.286,31.56Z" transform="translate(-13.341 -5.987)"/>
    </g>
    <g id="Group_455" data-name="Group 455" transform="translate(999 -158)">
      <path id="Path_1841" data-name="Path 1841" class="cls-1" d="M19.049,33.1A14.049,14.049,0,1,1,33.1,19.049,14.07,14.07,0,0,1,19.049,33.1Zm0-27.13A13.081,13.081,0,1,0,32.13,19.049,13.1,13.1,0,0,0,19.049,5.968Z" transform="translate(-5 -5)"/>
    </g>
    <g id="Group_456" data-name="Group 456" transform="translate(1017.261 -156.782)">
      <path id="Path_1842" data-name="Path 1842" class="cls-1" d="M70.175,23.2a1.869,1.869,0,0,1-1.061-.343,4.808,4.808,0,0,1-1.5-2.935,11.615,11.615,0,0,1-.031-2.092,6.1,6.1,0,0,0-.5-3.4,3.642,3.642,0,0,0-.593-.624c-.375-.312-.78-.656-.718-1.155a1.078,1.078,0,0,1,.5-.687,4.513,4.513,0,0,0-.905-.343c-.874-.25-1.936-.562-1.873-2.248a.484.484,0,1,1,.968.031c-.031.937.343,1.03,1.186,1.28a3.451,3.451,0,0,1,1.842,1.03.5.5,0,0,1,.094.406.506.506,0,0,1-.281.343,2.505,2.505,0,0,0-.562.312,3.418,3.418,0,0,0,.343.312,3.49,3.49,0,0,1,.812.843,6.861,6.861,0,0,1,.624,3.965,9.531,9.531,0,0,0,.031,1.9,3.512,3.512,0,0,0,1.093,2.279.875.875,0,0,0,.78.125,1.487,1.487,0,0,0,.624-.562c.281-.343.562-.749,1.061-.718.5,0,.874.468,1.093.78a.472.472,0,0,1-.78.531,1.358,1.358,0,0,0-.343-.375,1.708,1.708,0,0,0-.312.343,2.217,2.217,0,0,1-1.186.905A.781.781,0,0,1,70.175,23.2Z" transform="translate(-63.492 -8.9)"/>
    </g>
  </g>
</svg>
